<svg xmlns="http://www.w3.org/2000/svg" viewBox="0 0 106.33 106.33"><title>Artboard 33</title><circle cx="53.16" cy="53.16" r="51.66" fill="#fff" stroke="#4389ff" stroke-linecap="round" stroke-miterlimit="10" stroke-width="3"/><path d="M73.16 54.07a20 20 0 0 1-40 0c0-11 9-35.45 20-35.45s20 24.38 20 35.45z" fill="#fff"/><path d="M58.91 20.81c6.31 7.91 10.61 22 10.61 29.61a20 20 0 0 1-32.2 15.85 20 20 0 0 0 35.84-12.2c0-9.07-6-27.07-14.25-33.26z" fill="#bbdefb"/><path d="M73.16 54.07a20 20 0 0 1-40 0c0-11 9-35.45 20-35.45s20 24.38 20 35.45zM56.37 26.56s7.76 5.31 7.76 13.67" fill="none" stroke="#4389ff" stroke-linecap="round" stroke-miterlimit="10" stroke-width="3"/><path fill="#bbdefb" stroke="#4389ff" stroke-linecap="round" stroke-miterlimit="10" stroke-width="3" d="M41.94 63.59v-3.3l3.54-3.03 3.13.67 2.78 2.49v4.09l-1.69 1.61-5.99-.85-1.77-1.68zM65.99 59.79v3.29l-3.54 3.04-3.13-.68-2.78-2.49v-4.09l1.69-1.6 5.99.84 1.77 1.69z"/><path fill="none" stroke="#4389ff" stroke-linecap="round" stroke-miterlimit="10" stroke-width="3" d="M46.75 61.97l-3.38 20.5-8.18 2.7M49.03 87.03l-5.66-4.56-2.95 5.23M60.86 61.97l3.38 20.5 8.18 2.7M58.58 87.03l5.66-4.56 2.95 5.23"/></svg>