<svg xmlns="http://www.w3.org/2000/svg" viewBox="0 0 106.33 106.33"><circle cx="53.16" cy="53.16" r="51.66" fill="#fff" stroke="#4389ff" stroke-linecap="round" stroke-miterlimit="10" stroke-width="3"/><path d="M79.32 71L63.81 55.44a20.76 20.76 0 0 1-6.5 6.49l15.52 15.51A4.59 4.59 0 0 0 79.32 71z" fill="#bbdefb" stroke="#4389ff" stroke-linecap="round" stroke-linejoin="round" stroke-width="3"/><path d="M57.31 61.93L61.84 66a20.71 20.71 0 0 0 6.24-6.33l-3.78-3.49M78.6 70.24l2.06 2.69-.21 2.65-1.15 2.48-2.3.73-2.47-.27-2.16-2a20.75 20.75 0 0 0 6.23-6.32L74.33 66" fill="#fff"/><path d="M63.81 55.44l4.27 4.27A20.71 20.71 0 0 1 61.84 66M73.91 65.54l4.28 4.28A20.93 20.93 0 0 1 72 76.15" fill="none" stroke="#4389ff" stroke-linecap="round" stroke-miterlimit="10" stroke-width="3"/><circle cx="46.32" cy="44.44" r="20.66" fill="#fff" stroke="#4389ff" stroke-linecap="round" stroke-linejoin="round" stroke-width="3"/><path d="M58.89 28.06a20.65 20.65 0 0 1-29 29 20.66 20.66 0 1 0 29-29z" fill="#bbdefb"/><circle cx="46.32" cy="44.44" r="20.66" fill="none" stroke="#4389ff" stroke-linecap="round" stroke-miterlimit="10" stroke-width="3"/><path fill="none" stroke="#4389ff" stroke-linecap="round" stroke-linejoin="round" stroke-width="3" d="M39.77 49.01l-3.95-3.94 3.95-3.95M52.87 41.12l3.95 3.95-3.95 3.94M48.13 40.48l-3.62 9.18M79.32 71L63.81 55.44a20.76 20.76 0 0 1-6.5 6.49l15.52 15.51A4.59 4.59 0 0 0 79.32 71z"/></svg>
