<?xml version="1.0" encoding="UTF-8"?>
<svg id="Layer_1" data-name="Layer 1" xmlns="http://www.w3.org/2000/svg" viewBox="0 0 545 90">
  <defs>
    <style>
      .cls-1 {
        fill: #121183;
        stroke-width: 0px;
      }
    </style>
  </defs>
  <g id="logo">
    <path class="cls-1" d="M341.33,29.34c-4.45,0-7.39.92-9.71,3.25l-2.69,2.69h-3.36c-2.52-3.96-6.95-5.94-13.36-5.94-4.45,0-7.98.93-10.31,3.25l-2.69,2.69h-2.69l-1.54-5.94h-9.04v49.76h12.54v-29.89c0-5.76,2.97-8.73,8.92-8.73,5.57,0,8.17,2.69,8.17,8.73v29.89h12.53v-30.07s0-.18,0-.18c.16-5.26,2.53-8.35,8.45-8.35,5.57,0,8.73,2.68,8.73,8.72v29.89h12.53v-33.24c0-11.05-5.2-16.52-15.88-16.52M422.27,68.51h13.46v-27.94h-11.88v-11.23h20.86l1.23,5.94h2.78l2.69-2.69c2.23-2.32,5.75-3.25,10.31-3.25h7.89v11.23h-12.35c-5.94,0-9,2.88-9,8.17v19.77h15.59v10.58h-41.59v-10.58ZM387.71,69.04c6.41,0,10.03-3.34,10.03-9.19v-3.06h-9.56c-5.29,0-7.99,2.23-7.99,6.31,0,3.62,2.14,5.94,7.52,5.94M367.48,65.49c0-9.66,6.4-14.76,17.54-14.76h12.72v-3.62c0-6.04-2.69-8.54-8.26-8.54-4.73,0-8.08,1.86-8.45,6.41h-11.33c.37-10.12,7.43-16.06,20.8-16.06s19.78,5.76,19.78,17.64v32.12h-9.66l-1.21-5.01h-2.69l-2.69,2.69c-2.22,2.22-5.76,3.25-10.49,3.25-10.49,0-16.06-5.02-16.06-14.12M247.19,58.58h-5.47v20.52h-12.53V10.39h12.53v37.04h5.66l13.72-18.09h14.3s-17.54,23.66-17.54,23.66l17.17,26.08h-14.76l-13.09-20.51ZM171.2,54.08c0-17.17,7.99-25.34,23.21-25.34,13.92,0,21.26,6.87,21.63,19.59h-12.16c-.56-6.22-3.71-9.01-9.47-9.01-7.15,0-10.31,4.27-10.31,14.76s3.15,14.76,10.31,14.76c5.85,0,9.1-2.78,9.57-9.57h12.35c-.37,13.18-7.89,20.15-21.91,20.15-15.23,0-23.22-8.26-23.22-25.34M148.47,48.92c-.19-6.68-3.44-10.31-9.94-10.31s-9.66,3.25-10.77,10.31h20.71ZM115.15,54.08c0-17.17,8.08-25.34,23.39-25.34s23.21,8.54,21.45,27.48h-32.49c.46,9.66,3.9,13.74,11.14,13.74,5.29,0,8.82-2.13,9.66-6.5h11.51c-1.11,10.12-8.82,15.97-21.54,15.97-15.13,0-23.11-8.27-23.11-25.35M60.46,10.39h12.53l-.33,24.32,1.82.56,2.69-2.69c2.32-2.32,5.57-3.25,9.93-3.25,10.49,0,15.5,5.48,15.5,16.52v33.24h-12.53v-29.89c0-6.03-2.6-8.73-8.17-8.73-5.94,0-8.91,2.97-8.91,8.73v29.89h-12.53V10.39ZM.75,45.58C.75,22.28,8.27,12.08,25.44,12.08c15.41,0,22.83,8.35,23.49,25.8h-12.72c-.46-9.66-3.8-14.11-10.77-14.11-8.17,0-11.42,6.04-11.42,21.82s3.06,21.82,11.42,21.82c7.15,0,10.4-3.99,10.96-14.3h12.9c-.75,17.64-8.45,25.99-23.86,25.99C8.27,79.09.75,68.88.75,45.58"/>
    <path class="cls-1" d="M534.12,18.17l-26.57,28.74c-.54.54-1.54.56-2.06.06l-13.65-15.83-.07-.08c-1.17-1.18-2.79-1.81-4.46-1.73-1.67.08-3.25.86-4.31,2.16-.95,1.16-1.42,2.64-1.3,4.17.12,1.48.76,2.86,1.85,3.95l15.69,13.51c.27.28.42.65.42,1.04s-.15.76-.38,1l-15.69,13.51-.07.07c-1.13,1.13-1.79,2.71-1.82,4.32-.03,1.69.62,3.24,1.83,4.36.55.52,1.2.92,1.9,1.19,1.4.54,2.99.53,4.37-.03.74-.3,1.4-.74,2-1.34l13.64-15.82c.55-.54,1.53-.54,2.04-.05l13.66,15.83.07.07c.57.57,1.22,1,1.96,1.3.71.29,1.47.43,2.23.43s1.45-.13,2.14-.4c.7-.27,1.35-.68,1.9-1.19,1.21-1.12,1.85-2.67,1.83-4.36-.02-1.61-.68-3.19-1.85-4.35l-15.67-13.5c-.27-.28-.42-.65-.42-1.04s.15-.77.39-1.01l28.71-26.53c1.04-1.05,1.69-2.44,1.81-3.92.12-1.53-.34-3.01-1.3-4.17-1.07-1.3-2.64-2.08-4.31-2.16-.09,0-.19,0-.27,0-1.56,0-3.09.64-4.24,1.79"/>
  </g>
</svg>