<svg viewbox="0 0 865 650" height="650" width="865"   xmlns="http://www.w3.org/2000/svg" xmlns:xlink="http://www.w3.org/1999/xlink">       
	<defs>
		<style>
		@import url("https://fonts.googleapis.com/css?family=Quicksand");
		.cls-1,.cls-14,.cls-4,.cls-7{fill:none;}.cls-16,.cls-2,.cls-5,.cls-8{fill:#fff;}.cls-2,.cls-4,.cls-5,.cls-7{stroke:#448aff;}.cls-13,.cls-14,.cls-2,.cls-4,.cls-5,.cls-7{stroke-linejoin:round;}.cls-13,.cls-14,.cls-2,.cls-4{stroke-width:4px;}.cls-3{clip-path:url(#clip-path);}.cls-5,.cls-7{stroke-width:3px;}.cls-6{clip-path:url(#clip-path-2);}.cls-13,.cls-9{fill:#bbdefb;}.cls-10{fill:#00549e;}.cls-11{clip-path:url(#clip-path-3);}.cls-12{fill:#4389ff;}.cls-13,.cls-14{stroke:#4389ff;stroke-linecap:round;}.cls-15{fill:#ffa400;stroke:#ffce80;stroke-miterlimit:10;stroke-width:5px;}.cls-16{font-size:30.95px;font-family:'Quicksand', sans-serif;font-weight:700;}.cls-17{clip-path:url(#clip-path-5);}
		</style>
		<clippath id="clip-path">
			<path class="cls-1" d="M32.15,347.3A88.6,88.6,0,0,1,92.58,237.39l6.62,22.79a65,65,0,0,0-44.26,80.5c1.26,4.31-2.83,9.29-9.13,11.11s-12.41-.18-13.66-4.48Z" id="SVGID"></path>
		</clippath>
		<clippath id="clip-path-2">
			<path class="cls-1" d="M575.69,165.73a88.33,88.33,0,0,1-78.88,97l-2.42-23.54a64.74,64.74,0,0,0,57.77-71c-.46-4.44,4.44-8.59,10.93-9.26s12.14,2.39,12.6,6.84Z" data-name="SVGID" id="SVGID-2"></path>
		</clippath>
		<clippath id="clip-path-3">
			<path class="cls-1" d="M714.17,77.86a88.33,88.33,0,0,1,120,35.1L813.4,124.32a64.75,64.75,0,0,0-87.88-25.71c-3.92,2.15-9.64-.75-12.78-6.48s-2.5-12.12,1.42-14.26Z" data-name="SVGID" id="SVGID-3"></path>
		</clippath>
		<clippath id="clip-path-5">
			<path class="cls-1" d="M32.18,348.47A88.64,88.64,0,0,0,140.09,412.4l-5.88-23a65,65,0,0,1-79-46.82c-1.11-4.35-7.16-6.56-13.51-4.93s-10.59,6.46-9.48,10.81Z" data-name="SVGID" id="SVGID-5"></path>
		</clippath>
	</defs>
	<path class="cls-2" d="M32.15,347.3A88.6,88.6,0,0,1,92.58,237.39l6.62,22.79a65,65,0,0,0-44.26,80.5c1.26,4.31-2.83,9.29-9.13,11.11s-12.41-.18-13.66-4.48Z"></path>
	<g class="cls-3">
		<path class="cls-4" d="M89.92,263.87c4.11-2,5.12-8.42,2.26-14.42s-8.52-9.28-12.63-7.32"></path>
		<path class="cls-4" d="M78.4,270.62c3.62-2.76,3.3-9.29-.73-14.58s-10.23-7.35-13.85-4.6"></path>
		<path class="cls-4" d="M68.56,280.14c3-3.44,1.34-9.77-3.69-14.13s-11.51-5.11-14.5-1.68"></path>
		<path class="cls-4" d="M60.69,291.57c2.27-4.05-.69-10-6.61-13.34s-12.56-2.71-14.82,1.34"></path>
		<path class="cls-4" d="M55.46,303.83c1.37-4.34-2.66-9.49-9-11.49s-12.6-.1-14,4.25"></path>
		<path class="cls-4" d="M52.76,317.06c.46-4.53-4.54-8.75-11.16-9.41s-12.35,2.47-12.81,7"></path>
		<path class="cls-4" d="M52.81,330.56c-.48-4.53-6.23-7.64-12.84-6.94s-11.59,4.94-11.12,9.46"></path>
	</g>
	<path class="cls-5" d="M575.69,165.73a88.33,88.33,0,0,1-78.88,97l-2.42-23.54a64.74,64.74,0,0,0,57.77-71c-.46-4.44,4.44-8.59,10.93-9.26s12.14,2.39,12.6,6.84Z"></path>
	<g class="cls-6">
		<path class="cls-7" d="M552.14,181.4c.46-4.45,6.1-7.51,12.6-6.84s11.39,4.81,10.93,9.26"></path>
		<path class="cls-7" d="M549.43,194.38c1.35-4.26,7.5-6.12,13.72-4.14s10.18,7,8.82,11.3"></path>
		<path class="cls-7" d="M544.13,206.53c2.19-3.9,8.59-4.46,14.28-1.25s8.52,9,6.33,12.85"></path>
		<path class="cls-7" d="M536.46,217.34c2.94-3.36,9.32-2.61,14.24,1.69s6.52,10.51,3.58,13.87"></path>
		<path class="cls-7" d="M526.75,226.37c3.57-2.69,9.66-.66,13.6,4.55s4.24,11.62.68,14.32"></path>
		<path class="cls-7" d="M515.41,233.23c4-1.91,9.59,1.32,12.38,7.22s1.79,12.25-2.25,14.16"></path>
		<path class="cls-7" d="M502.91,237.64c4.34-1,9.11,3.24,10.65,9.59s-.75,12.35-5.09,13.4"></path>
	</g>
	<path class="cls-8" d="M575.87,93.33H763.49a0,0,0,0,1,0,0v93.81A93.81,93.81,0,0,1,669.68,281h0a93.81,93.81,0,0,1-93.81-93.81V93.33A0,0,0,0,1,575.87,93.33Z" transform="translate(-7.62 344.51) rotate(-28.69)"></path>
	<path class="cls-8" d="M574.49,13.22h0S529,104.49,551.18,145.06h0L698.11,64.64h0C675.9,24.07,574.49,13.22,574.49,13.22Z"></path>
	<path class="cls-9" d="M692.53,67.69l45,82.29A93.79,93.79,0,0,1,707.25,273.1c2.52-1.1,5-2.32,7.47-3.66h0A93.82,93.82,0,0,0,752,142.1l-45-82.29Z"></path>
	<path class="cls-4" d="M575.87,93.33H763.49a0,0,0,0,1,0,0v93.81A93.81,93.81,0,0,1,669.68,281h0a93.81,93.81,0,0,1-93.81-93.81V93.33A0,0,0,0,1,575.87,93.33Z" transform="translate(-7.62 344.51) rotate(-28.69)"></path>
	<path class="cls-4" d="M574.49,13.22h0S529,104.49,551.18,145.06h0L698.11,64.64h0C675.9,24.07,574.49,13.22,574.49,13.22Z"></path>
	<path class="cls-9" d="M559.45,106a2.73,2.73,0,0,1-1.63.32,2.77,2.77,0,0,1-2.46-3c.48-4.42,1.24-9.15,2.24-14.06A2.78,2.78,0,1,1,563,90.33c-1,4.73-1.7,9.29-2.16,13.54A2.77,2.77,0,0,1,559.45,106Z"></path>
	<path class="cls-9" d="M565.64,77.27a2.77,2.77,0,0,1-4-3.16A300.36,300.36,0,0,1,573.09,40.6a2.77,2.77,0,0,1,5.14,2.08A296.09,296.09,0,0,0,567,75.57,2.72,2.72,0,0,1,565.64,77.27Z"></path>
	<rect class="cls-10" height="17.99" rx="5.33" ry="5.33" transform="translate(26.81 288.96) rotate(-28.69)" width="10.66" x="572.97" y="83.07"></rect>
	<rect class="cls-10" height="17.99" rx="5.33" ry="5.33" transform="matrix(0.88, -0.48, 0.48, 0.88, 44.93, 308.37)" width="10.66" x="619.97" y="57.35"></rect>
	<path class="cls-9" d="M670.75,134.29a43.75,43.75,0,0,1,4.73,78.13,44.69,44.69,0,0,1-5.91,3.89,44,44,0,0,1-12.19,4.48,43.77,43.77,0,1,0,13.37-86.5Z"></path>
	<line class="cls-4" x1="638.96" x2="658.6" y1="97.02" y2="132.9"></line>
	<line class="cls-4" x1="629.97" x2="610.33" y1="148.57" y2="112.69"></line>
	<line class="cls-4" x1="685.56" x2="714.72" y1="216.16" y2="269.44"></line>
	<path class="cls-2" d="M714.17,77.86a88.33,88.33,0,0,1,120,35.1L813.4,124.32a64.75,64.75,0,0,0-87.88-25.71c-3.92,2.15-9.64-.75-12.78-6.48s-2.5-12.12,1.42-14.26Z"></path>
	<g class="cls-11">
		<path class="cls-4" d="M737.75,93.49c-4.28,1.3-9.29-2.71-11.19-9s0-12.37,4.29-13.67"></path>
		<path class="cls-4" d="M750.76,91c-4.45.4-8.54-4.55-9.13-11s2.54-12.11,7-12.51"></path>
		<path class="cls-4" d="M764,91.13c-4.44-.51-7.44-6.19-6.69-12.68s4.95-11.33,9.39-10.82"></path>
		<path class="cls-4" d="M777,94c-4.24-1.4-6-7.57-4-13.77s7.16-10.09,11.4-8.69"></path>
		<path class="cls-4" d="M789.05,99.45c-3.87-2.24-4.36-8.64-1.08-14.29S797,76.74,800.9,79"></path>
		<path class="cls-4" d="M799.77,107.24c-3.33-3-2.5-9.34,1.86-14.21s10.58-6.39,13.91-3.41"></path>
		<path class="cls-4" d="M808.68,117.06c-2.65-3.6-.55-9.66,4.71-13.54s11.67-4.1,14.32-.5"></path>
	</g>
	<circle class="cls-4" cx="663.69" cy="177.35" r="43.03"></circle>
	<path class="cls-10" d="M607.4,164.51l28.72-28.22a.62.62,0,0,1,.79-.07l28.92,19.29a.67.67,0,0,1,.06,1.07l-4.37,3.55a.67.67,0,0,0,.1,1.09l21.91,12.83a.67.67,0,0,1,.06,1.12l-5.77,4a.67.67,0,0,0,.06,1.12L710.2,199.4a.65.65,0,0,1-.39,1.22l-59.69-9.27a.67.67,0,0,1-.36-1.14l5-4.61a.67.67,0,0,0-.29-1.13l-25.35-6.62a.68.68,0,0,1-.31-1.12l3.76-3.74a.68.68,0,0,0-.31-1.12l-24.53-6.24A.68.68,0,0,1,607.4,164.51Z"></path>
	<circle class="cls-12" cx="609.44" cy="93.45" r="6.38"></circle>
	<path class="cls-5" d="M714.17,77.86a88.33,88.33,0,0,1,120,35.1L813.4,124.32a64.75,64.75,0,0,0-87.88-25.71c-3.92,2.15-9.64-.75-12.78-6.48s-2.5-12.12,1.42-14.26Z"></path>
	<g class="cls-11">
		<path class="cls-7" d="M737.75,93.49c-4.28,1.3-9.29-2.71-11.19-9s0-12.37,4.29-13.67"></path>
		<path class="cls-7" d="M750.76,91c-4.45.4-8.54-4.55-9.13-11s2.54-12.11,7-12.51"></path>
		<path class="cls-7" d="M764,91.13c-4.44-.51-7.44-6.19-6.69-12.68s4.95-11.33,9.39-10.82"></path>
		<path class="cls-7" d="M777,94c-4.24-1.4-6-7.57-4-13.77s7.16-10.09,11.4-8.69"></path>
		<path class="cls-7" d="M789.05,99.45c-3.87-2.24-4.36-8.64-1.08-14.29S797,76.74,800.9,79"></path>
		<path class="cls-7" d="M799.77,107.24c-3.33-3-2.5-9.34,1.86-14.21s10.58-6.39,13.91-3.41"></path>
		<path class="cls-7" d="M808.68,117.06c-2.65-3.6-.55-9.66,4.71-13.54s11.67-4.1,14.32-.5"></path>
	</g>
	<path class="cls-12" d="M850.15,130a5.3,5.3,0,0,1-7.2-2.1,12,12,0,1,0-21.08,11.54,5.31,5.31,0,0,1-9.31,5.09,22.63,22.63,0,0,1,39.7-21.73A5.3,5.3,0,0,1,850.15,130Z"></path>
	<path class="cls-13" d="M10.52,597h844a0,0,0,0,1,0,0v0a39.74,39.74,0,0,1-39.74,39.74H50.26A39.74,39.74,0,0,1,10.52,597v0a0,0,0,0,1,0,0Z"></path>
	<path class="cls-12" d="M359,597H505a0,0,0,0,1,0,0v8.22a12.31,12.31,0,0,1-12.31,12.31H371.27A12.31,12.31,0,0,1,359,605.25V597A0,0,0,0,1,359,597Z"></path>
	<path class="cls-13" d="M101.22,190.16H762.7a24.55,24.55,0,0,1,24.55,24.55V597a0,0,0,0,1,0,0H76.67a0,0,0,0,1,0,0V214.7A24.55,24.55,0,0,1,101.22,190.16Z"></path>
	<image height="644" transform="translate(103.3 217.36) scale(0.55)" width="1200" xlink:href="/img/screen-1.png" />
	<rect class="cls-14" height="357.16" width="661.75" x="100.54" y="215.4"></rect>
	<circle class="cls-15" cx="497.99" cy="237.78" r="28.13"></circle>
	<text class="cls-16" transform="translate(489.09 247.36)">
		2
	</text>
	<circle class="cls-15" cx="169.75" cy="190.55" r="28.13"></circle>
	<text class="cls-16" transform="translate(163.52 200.13)">
		1
	</text>
	<circle class="cls-15" cx="178.41" cy="343.79" r="28.13"></circle>
	<text class="cls-16" transform="translate(169.73 353.37)">
		3
	</text>
	<circle class="cls-15" cx="624.27" cy="378.02" r="28.13"></circle>
	<text class="cls-16" transform="translate(612.72 387.6)">
		4
	</text>
	<circle class="cls-15" cx="433.1" cy="515.33" r="28.13"></circle>
	<text class="cls-16" transform="translate(423.54 524.91)">
		5
	</text>
	<circle class="cls-15" cx="225.43" cy="563.79" r="28.13"></circle>
	<text class="cls-16" transform="translate(216.36 572.96)">
		6
	</text>
	<path class="cls-2" d="M32.18,348.47A88.64,88.64,0,0,0,140.09,412.4l-5.88-23a65,65,0,0,1-79-46.82c-1.11-4.35-7.16-6.56-13.51-4.93s-10.59,6.46-9.48,10.81Z"></path>
	<g class="cls-17">
		<path class="cls-4" d="M59.79,355.05c-2-4-8.35-5-14.24-2.07s-9,8.49-7.08,12.51"></path>
		<path class="cls-4" d="M66.84,366.33c-2.75-3.54-9.18-3.16-14.35.87s-7.14,10.15-4.39,13.69"></path>
		<path class="cls-4" d="M76.05,375.93c-3.41-2.91-9.63-1.22-13.88,3.77s-4.91,11.4-1.5,14.31"></path>
		<path class="cls-4" d="M87,383.45c-3.93-2.15-9.68.77-12.81,6.53s-2.5,12.15,1.44,14.3"></path>
		<path class="cls-4" d="M99.3,388.58c-4.3-1.3-9.32,2.73-11.22,9s0,12.41,4.32,13.71"></path>
		<path class="cls-4" d="M112.36,391.1c-4.47-.4-8.57,4.57-9.15,11.1s2.56,12.14,7,12.54"></path>
		<path class="cls-4" d="M125.66,390.91c-4.46.52-7.46,6.22-6.7,12.73s5,11.37,9.44,10.85"></path>
	</g>
	<path class="cls-12" d="M163.55,412.47a5.33,5.33,0,0,0-6.48-3.84,12.06,12.06,0,0,1-6-23.37A5.32,5.32,0,1,0,148.45,375a22.7,22.7,0,1,0,11.26,44A5.32,5.32,0,0,0,163.55,412.47Z"></path></svg>
