<svg xmlns="http://www.w3.org/2000/svg" viewBox="0 0 39.67 47.6"><title>Artboard 30</title><path d="M7.93 15.87V34.6A3.08 3.08 0 0 0 11 37.69h.88v7a3 3 0 0 0 3 2.89 2.94 2.94 0 0 0 3-2.89v-7h4v7a3 3 0 0 0 3 2.89 2.94 2.94 0 0 0 2.95-2.89v-7h.88a3.09 3.09 0 0 0 3.09-3.08V15.87zm31.74 2.92a3 3 0 0 0-6 0V30.9a3 3 0 0 0 6 0zM6 18.79a3 3 0 0 0-5.95 0V30.9a2.9 2.9 0 0 0 3 2.82A2.9 2.9 0 0 0 6 30.9zM25.69 4.28L27.55.6a.4.4 0 0 0-.32-.6.39.39 0 0 0-.33.21L25 3.93a12.25 12.25 0 0 0-10.37 0L12.77.21a.39.39 0 0 0-.33-.21.4.4 0 0 0-.32.6L14 4.28c-3.66 2.05-6.05 5.13-6.05 9.6h23.79c0-4.47-2.39-7.55-6.05-9.6zM14.88 9.92a1 1 0 1 1 1-1 1 1 0 0 1-1 1zm9.91 0a1 1 0 0 1 0-2 1 1 0 1 1 0 2z" fill="#00549e"/></svg>