<svg xmlns="http://www.w3.org/2000/svg" viewBox="0 0 528.82 469.15"><defs><clipPath id="a"><path fill="none" d="M263.13 351.23h139.34v18.32H262.89l.24-18.32z"/></clipPath><clipPath id="b"><path data-name="SVGID" d="M362.69 265.4h-3c-13.23 0-24.42-10.83-24.2-24.07a23.7 23.7 0 0 1 23.67-23.26h83.34V201h18.56v21.23a14.24 14.24 0 0 1-12.52 14.14h-89.12a5.5 5.5 0 0 0-5.55 4.8 5.35 5.35 0 0 0 5.32 5.88h3.5" fill="none"/></clipPath><clipPath id="c"><path data-name="SVGID" d="M384.68 245.24h27.47a34.59 34.59 0 0 1 34.54 34.54c0 19.05-15.5 34.55-47.37 34.55h-83.46V296h83.46c21.77 0 29-7.27 29-16.22a16.23 16.23 0 0 0-16.21-16.21h-27.43" fill="none"/></clipPath><clipPath id="d"><path data-name="SVGID" d="M316.67 343h20.91a46.08 46.08 0 0 0 46-46V151.57h-18.29V297a27.74 27.74 0 0 1-27.71 27.71h-20.91z" fill="none"/></clipPath><clipPath id="e"><path data-name="SVGID" d="M174.87 343.92H154a46.07 46.07 0 0 1-46-46V152.48h18.32v145.41a27.74 27.74 0 0 0 27.7 27.7h20.91z" fill="none"/></clipPath><clipPath id="f"><path data-name="SVGID" d="M148 371H73.63a37.92 37.92 0 0 1 0-75.84h101.24v18.32H73.63a19.6 19.6 0 1 0 0 39.19h73.45z" fill="none"/></clipPath></defs><title>Artboard 21</title><path fill="#fff" stroke="#448aff" stroke-linejoin="round" stroke-width="4" d="M265.57 351.52h138.42v18.33h-139.3l.88-18.33z"/><g clip-path="url(#a)" fill="none" stroke="#448aff" stroke-linejoin="round" stroke-width="4"><path d="M389.43 370.12c3.48-.07 6.21-4.24 6.11-9.31s-3-9.13-6.49-9.05M376.81 370.12c3.48-.07 6.22-4.24 6.11-9.31s-3-9.13-6.49-9.05M364.2 370.12c3.47-.07 6.21-4.24 6.11-9.31s-3-9.13-6.49-9.05M351.58 370.12c3.48-.07 6.22-4.24 6.11-9.31s-3-9.13-6.49-9.05M339 370.12c3.47-.07 6.21-4.24 6.11-9.31s-3-9.13-6.5-9.05M326.35 370.12c3.48-.07 6.22-4.24 6.11-9.31s-3-9.13-6.49-9.05M313.74 370.12c3.47-.07 6.21-4.24 6.11-9.31s-3-9.13-6.5-9.05M301.12 370.12c3.48-.07 6.22-4.24 6.11-9.31s-3-9.13-6.49-9.05M288.51 370.12c3.47-.07 6.21-4.24 6.11-9.31s-3-9.13-6.5-9.05M275.89 370.12c3.48-.07 6.22-4.24 6.11-9.31s-3-9.13-6.49-9.05M263.27 370.12c3.48-.07 6.22-4.24 6.12-9.31s-3-9.13-6.5-9.05M231 396.47c-.07-3.47-4.25-6.2-9.34-6.09s-9.14 3-9.07 6.47M231 410c-.07-3.47-4.25-6.2-9.34-6.1s-9.14 3-9.07 6.48M252.78 370.54c3.38-.83 5.12-5.5 3.9-10.43s-5-8.23-8.34-7.39M242.14 375.85c3.49-1.05 5.08-6 3.53-11.14s-5.64-8.37-9.14-7.32M235.67 382c3.1-1.94 3.31-7.17.47-11.68s-7.65-6.6-10.74-4.66M231.25 391.72c2.64-2.66 1.63-8-2.26-11.8s-9.2-4.82-11.84-2.16"/></g><path d="M434.62 134.49l-2-13.28 10.28 4.11 5.48-24 5.49 17.81 11.64-7.54-.34 16.11 7.88-4.11-1 9.89s-10.8 6.87-21.66 7c-.01 0-10.79-2.87-15.77-5.99z" fill="#bbdefb"/><path fill="none" stroke="#bbdefb" stroke-linecap="round" stroke-linejoin="round" stroke-width="4" d="M237.31 164.48l32.07-34.63 36.94 32.06 20.66-55.07 59.78 10.15 6.58-50.32"/><circle cx="238.33" cy="164.32" r="6.51" fill="#fff" stroke="#448aff" stroke-linejoin="round" stroke-width="4"/><circle cx="269.36" cy="129.18" r="6.51" fill="#fff" stroke="#448aff" stroke-linejoin="round" stroke-width="4"/><circle cx="306.25" cy="160.39" r="6.51" fill="#fff" stroke="#448aff" stroke-linejoin="round" stroke-width="4"/><circle cx="327.76" cy="109.15" r="6.51" fill="#fff" stroke="#448aff" stroke-linejoin="round" stroke-width="4"/><circle cx="386.51" cy="115.59" r="6.51" fill="#fff" stroke="#448aff" stroke-linejoin="round" stroke-width="4"/><circle cx="394.5" cy="66.35" r="6.51" fill="#fff" stroke="#448aff" stroke-linejoin="round" stroke-width="4"/><path d="M363 263.88h-3c-13.24 0-24.43-10.84-24.2-24.07a23.68 23.68 0 0 1 23.66-23.26h84.08V201" fill="none" stroke="#448aff" stroke-linejoin="round" stroke-width="4"/><path fill="#fff" stroke="#448aff" stroke-linejoin="round" stroke-width="4" d="M364.82 215.98v-64.42l18.32-1.83v66.82M383.14 234.87v61.5a46.07 46.07 0 0 1-46 46h-21.25v-18.3h21.23a27.74 27.74 0 0 0 27.7-27.7v-61.5"/><path fill="#fff" stroke="#448aff" stroke-linejoin="round" stroke-width="4" d="M364.82 215.98v-64.42l18.32-1.83v66.25M383.14 234.87v61.5a46.07 46.07 0 0 1-46 46h-21.25v-18.3h21.23a27.74 27.74 0 0 0 27.7-27.7v-61.5"/><path d="M385 245.55h27.47A34.58 34.58 0 0 1 447 280.09c0 19.05-15.49 34.55-47.37 34.55h-83.48v-18.33h83.46c21.77 0 29.05-7.27 29.05-16.22a16.23 16.23 0 0 0-16.22-16.21H385" fill="#fff" stroke="#448aff" stroke-linejoin="round" stroke-width="4"/><g clip-path="url(#b)" fill="none" stroke="#448aff" stroke-linejoin="round" stroke-width="4"><path d="M377.35 245.58c-3.48.08-6.21 4.5-6.1 9.88s3 9.68 6.5 9.61M365.17 245.57c-3.48.07-6.21 4.49-6.1 9.87s3 9.68 6.5 9.61M359.27 236c3.48-.07 6.22-4.49 6.1-9.87s-3-9.68-6.5-9.61M371.45 236c3.48-.08 6.21-4.5 6.1-9.88s-3-9.68-6.5-9.6M383.63 236c3.48-.07 6.21-4.49 6.1-9.87s-3-9.68-6.5-9.61M395.81 236c3.48-.08 6.21-4.5 6.1-9.88s-3-9.68-6.51-9.6M408.62 236c3.48-.08 6.21-4.5 6.1-9.88s-3-9.68-6.5-9.6M421.71 236c3.48-.08 6.21-4.5 6.1-9.88s-3-9.68-6.5-9.6M434.8 236c3.48-.08 6.21-4.5 6.1-9.88s-3-9.68-6.5-9.6M462.25 213.59c-.07-3.48-4.49-6.21-9.87-6.1s-9.68 3-9.61 6.5M454.71 232.5c2.61-2.55 1.55-7.89-2.39-11.94-2.76-2.84-6.2-4.28-8.91-4M357.63 244.88c-3.2-1.34-7.5 1.59-9.58 6.55s-1.16 10.07 2 11.42M354.37 242.15c-1.15-3.29-6.2-4.52-11.27-2.74s-8.27 5.88-7.12 9.16M355.68 237.79c1.6-3.09-1-7.61-5.73-10.1s-9.94-2-11.55 1.08"/></g><g clip-path="url(#c)" fill="none" stroke="#448aff" stroke-linejoin="round" stroke-width="4"><path d="M313.37 314.48c3.48-.07 6.22-4.25 6.11-9.33s-3-9.15-6.49-9.08M325.63 314.48c3.47-.07 6.21-4.25 6.11-9.33s-3-9.15-6.5-9.08M337.88 314.48c3.48-.07 6.21-4.25 6.11-9.33s-3-9.15-6.49-9.08M448.08 283.33c-.09-3.92-4.81-7-10.54-6.89s-10.33 3.4-10.25 7.32M446.76 268.5c-1.18-3.74-6.58-5.39-12.05-3.66s-9 6.16-7.78 9.9M435.93 252.17c-3-2.59-8.42-1.19-12.2 3.13s-4.45 9.91-1.5 12.5M419.8 246.39c-3.64-1.48-8.34 1.63-10.51 6.94s-1 10.83 2.68 12.31M350.13 314.48c3.48-.07 6.22-4.25 6.11-9.33s-3-9.15-6.49-9.08M362.38 314.48c3.48-.07 6.22-4.25 6.11-9.33s-3-9.15-6.49-9.08M374.63 314.48c3.48-.07 6.22-4.25 6.11-9.33s-3-9.15-6.49-9.08M386.89 314.48c3.47-.07 6.21-4.25 6.11-9.33s-3-9.15-6.5-9.08M399.14 314.48c3.48-.07 6.21-4.25 6.11-9.33s-3-9.15-6.49-9.08M411.39 313.57c3.48-.08 6.22-4.26 6.11-9.34s-3-9.15-6.49-9.07M426.36 310.82c3.4-1.39 4.5-6.54 2.47-11.51s-6.44-7.85-9.83-6.46M438.9 301.06c2.62-2.56 1.71-7.75-2-11.59s-8.92-4.86-11.54-2.29"/><path d="M399.14 314.48c3.48-.07 6.21-4.25 6.11-9.33s-3-9.15-6.49-9.08M401.7 244.7c-3.48.07-6.21 4.49-6.1 9.87s3 9.68 6.51 9.61M389.53 244.68c-3.48.08-6.22 4.5-6.1 9.88s3 9.68 6.5 9.6M426.36 310.82c3.4-1.39 4.5-6.54 2.47-11.51s-6.44-7.85-9.83-6.46M438.9 301.06c2.62-2.56 1.71-7.75-2-11.59s-8.92-4.86-11.54-2.29"/></g><g clip-path="url(#d)" fill="none" stroke="#448aff" stroke-linejoin="round" stroke-width="4"><path d="M365.22 166.13c.08-3.48 4.26-6.22 9.34-6.11s9.15 3 9.08 6.49M365.22 178.75c.08-3.48 4.26-6.22 9.34-6.11s9.15 3 9.08 6.49M365.22 191.36c.08-3.48 4.26-6.22 9.34-6.11s9.15 3 9.08 6.49M365.22 204c.08-3.48 4.26-6.22 9.34-6.11s9.15 3 9.08 6.49M365.22 216.59c.08-3.48 4.26-6.22 9.34-6.11s9.15 3 9.08 6.49M365.22 241.82c.08-3.48 4.26-6.22 9.34-6.11s9.15 3 9.08 6.49M365.22 254.44c.08-3.48 4.26-6.22 9.34-6.11s9.15 3 9.08 6.49M365.22 267.05c.08-3.48 4.26-6.21 9.34-6.11s9.15 3 9.08 6.49M365.22 279.67c.08-3.48 4.26-6.22 9.34-6.11s9.15 3 9.08 6.49M365.22 292.28c.08-3.48 4.26-6.21 9.34-6.11s9.15 3 9.08 6.49M338.8 324.59c3.48.07 6.22 4.25 6.11 9.34s-3 9.14-6.49 9.07M325.25 324.59c3.48.07 6.22 4.25 6.11 9.34s-3 9.14-6.49 9.07M353.33 319.88c1.94-3.09 7.18-3.3 11.71-.46s6.61 7.64 4.67 10.74M343.57 324.31c2.67-2.64 8-1.63 11.83 2.26s4.83 9.2 2.17 11.84"/></g><path fill="none" stroke="#bbdefb" stroke-linecap="round" stroke-miterlimit="10" stroke-width="4" stroke-dasharray="0,15" d="M67.4 202.72V134.1"/><circle cx="67.4" cy="228.65" r="6.02" fill="#bbdefb" stroke="#448aff" stroke-linecap="round" stroke-linejoin="round" stroke-width="4"/><circle cx="68.72" cy="236.02" r="1.42" fill="#00549e" stroke="#00549e" stroke-miterlimit="10"/><circle cx="65.99" cy="236.02" r="1.42" fill="#00549e" stroke="#00549e" stroke-miterlimit="10"/><ellipse cx="67.4" cy="212.67" rx="8.45" ry="9.95" fill="#bbdefb" stroke="#448aff" stroke-linecap="round" stroke-linejoin="round" stroke-width="4"/><path d="M62.61 232.3l-3.28 3.1a17.74 17.74 0 0 0-5.55 12.88v5.45M61.6 230.27a17.71 17.71 0 0 0-15.86 13.61l-.35 1.5M61.5 227.42l-1.38-.19A17.73 17.73 0 0 1 46 215.76l-.57-1.56M62.18 225.66l-6.11-6.91A17.7 17.7 0 0 1 51.61 207v-7.38" fill="none" stroke="#448aff" stroke-linecap="round" stroke-linejoin="round" stroke-width="4"/><path d="M62.61 232.3l-3.28 3.1a17.74 17.74 0 0 0-5.55 12.88v5.45M61.6 230.27a17.71 17.71 0 0 0-15.86 13.61l-.35 1.5M61.5 227.42l-1.38-.19A17.73 17.73 0 0 1 46 215.76l-.57-1.56M62.18 225.66l-6.11-6.91A17.7 17.7 0 0 1 51.61 207v-7.38M72.19 232.3l3.29 3.1A17.74 17.74 0 0 1 81 248.28v5.45M73.21 230.27a17.71 17.71 0 0 1 15.85 13.61l.35 1.5M73.3 227.42l1.39-.19a17.72 17.72 0 0 0 14.15-11.47l.57-1.56M72.63 225.66l6.11-6.91A17.69 17.69 0 0 0 83.19 207v-7.38" fill="none" stroke="#448aff" stroke-linecap="round" stroke-linejoin="round" stroke-width="4"/><path fill="#fff" d="M175.85 291.4h13.74v31.15h-13.74z"/><path d="M318.88 279.9v78.54a78.53 78.53 0 0 1-71.76 78.23c2.29.2 4.61.31 7 .31a78.54 78.54 0 0 0 78.54-78.54V279.9z" fill="#bbdefb"/><path d="M175.54 279.9h157.08v78.54A78.54 78.54 0 0 1 254.08 437a78.54 78.54 0 0 1-78.54-78.54V279.9zM254.08 192.44S184 241.17 184 279.9h140.2c0-38.73-70.12-87.46-70.12-87.46z" fill="#fff" stroke="#448aff" stroke-linejoin="round" stroke-width="4"/><path d="M205.74 254.54a2.35 2.35 0 0 1-1.33-.42 2.32 2.32 0 0 1-.57-3.24c2.13-3 4.58-6.22 7.29-9.42a2.33 2.33 0 0 1 3.55 3c-2.62 3.09-5 6.14-7 9.07a2.31 2.31 0 0 1-1.94 1.01zM221.83 235.92a2.29 2.29 0 0 1-1.61-.65 2.32 2.32 0 0 1-.06-3.28 251.93 251.93 0 0 1 21.89-20 2.32 2.32 0 1 1 2.94 3.6 247.11 247.11 0 0 0-21.48 19.63 2.31 2.31 0 0 1-1.68.7z" fill="#bbdefb"/><rect x="227.19" y="239.82" width="8.92" height="15.06" rx="4.46" fill="#00549e"/><rect x="272.04" y="239.82" width="8.92" height="15.06" rx="4.46" fill="#00549e"/><path d="M276.11 320.05a36.63 36.63 0 0 1-27.93 59.28 37.11 37.11 0 0 1-5.91.48 36.37 36.37 0 0 1-10.75-1.61 36.64 36.64 0 1 0 44.59-58.15z" fill="#bbdefb"/><circle cx="254.18" cy="349.58" r="36.65" fill="none" stroke="#448aff" stroke-linejoin="round" stroke-width="4"/><path fill="none" stroke="#448aff" stroke-linejoin="round" stroke-width="4" d="M267.74 279.9v34.25M240.42 314.15V279.9M254.08 386.13v50.85"/><path d="M213.43 322.06l31.5-13.58a.52.52 0 0 1 .64.18l17 24.22a.57.57 0 0 1-.27.87l-4.57 1.48a.56.56 0 0 0-.25.89L271 353.06a.58.58 0 0 1-.29.91l-5.83 1.43a.57.57 0 0 0-.3.9l19.8 25.1a.55.55 0 0 1-.68.85l-44.6-25.73a.57.57 0 0 1 .07-1l5.37-2.12a.57.57 0 0 0 .11-1l-18.09-13.07a.57.57 0 0 1 .1-1l4.13-1.81a.57.57 0 0 0 .1-1L213.33 323a.57.57 0 0 1 .1-.94z" fill="#00549e"/><path d="M147.37 371.27H73.92a37.92 37.92 0 0 1 0-75.84h101.25v18.32H73.92a19.6 19.6 0 1 0 0 39.19h73.45z" fill="#fff" stroke="#448aff" stroke-linejoin="round" stroke-width="4"/><path d="M175.17 342.39h-20.91a46.07 46.07 0 0 1-46-46V151h18.32v145.37a27.74 27.74 0 0 0 27.71 27.7h20.91z" fill="#fff" stroke="#448aff" stroke-linejoin="round" stroke-width="4"/><path d="M131.91 131.51a4.43 4.43 0 0 0-4.44 4.44 10.07 10.07 0 0 1-20.13 0 4.44 4.44 0 1 0-8.88 0 18.95 18.95 0 0 0 37.89 0 4.44 4.44 0 0 0-4.44-4.44z" fill="#4389ff"/><path d="M44.58 125.29h174.08a8.8 8.8 0 0 1-8.8 8.8H53.38a8.8 8.8 0 0 1-8.8-8.8zM74.2 32.16H189a10.23 10.23 0 0 1 10.23 10.23v82.9H64v-82.9a10.23 10.23 0 0 1 10.2-10.23z" fill="#bbdefb" stroke="#448aff" stroke-linejoin="round" stroke-width="4"/><path d="M75.1 41.91h112.84a1.43 1.43 0 0 1 1.43 1.43v81.95H73.66V43.35a1.43 1.43 0 0 1 1.43-1.43z" fill="#fff" stroke="#448aff" stroke-linejoin="round" stroke-width="4"/><path d="M116.37 123.15h30.5v1.72a2.57 2.57 0 0 1-2.57 2.57h-25.36a2.57 2.57 0 0 1-2.57-2.57v-1.72z" fill="#00549e"/><g clip-path="url(#e)" fill="none" stroke="#448aff" stroke-linejoin="round" stroke-width="4"><path d="M126.83 165.52c-.08-3.48-4.25-6.21-9.32-6.11s-9.12 3-9.05 6.49M126.83 178.14c-.08-3.48-4.25-6.22-9.32-6.11s-9.12 3-9.05 6.49M126.83 190.75c-.08-3.48-4.25-6.21-9.32-6.11s-9.12 3-9.05 6.49M126.83 203.37c-.08-3.48-4.25-6.22-9.32-6.11s-9.12 3-9.05 6.49M126.83 216c-.08-3.48-4.25-6.21-9.32-6.11s-9.12 3-9.05 6.49M126.83 228.6c-.08-3.48-4.25-6.22-9.32-6.11s-9.12 3-9.05 6.49M126.83 241.21c-.08-3.47-4.25-6.21-9.32-6.11s-9.12 3-9.05 6.49M126.83 253.83c-.08-3.48-4.25-6.22-9.32-6.11s-9.12 3-9.05 6.49M126.83 266.44c-.08-3.47-4.25-6.21-9.32-6.11s-9.12 3-9.05 6.5M126.83 279.06c-.08-3.48-4.25-6.22-9.32-6.11s-9.12 3-9.05 6.49M126.83 291.67c-.08-3.47-4.25-6.21-9.32-6.11s-9.12 3-9.05 6.5M153.18 324c-3.47.07-6.2 4.25-6.09 9.34s3 9.14 6.47 9.07M166.7 324c-3.47.07-6.21 4.25-6.1 9.34s3 9.14 6.48 9.07M127.25 302.17c-.84-3.38-5.51-5.12-10.43-3.9s-8.23 5-7.4 8.34M132.56 312.81c-1.06-3.49-6-5.08-11.14-3.53s-8.38 5.64-7.32 9.14M138.69 319.28c-1.93-3.1-7.16-3.31-11.67-.47s-6.6 7.65-4.67 10.74M148.42 323.7c-2.66-2.64-7.94-1.63-11.79 2.26s-4.83 9.2-2.17 11.84"/></g><g clip-path="url(#f)" fill="none" stroke="#448aff" stroke-linejoin="round" stroke-width="4"><path d="M169.22 295.38c-3.47.07-6.21 4.25-6.11 9.34s3 9.14 6.5 9.07M157 295.38c-3.48.07-6.21 4.25-6.11 9.34s3 9.14 6.49 9.07M144.72 295.38c-3.48.07-6.22 4.25-6.11 9.34s3 9.14 6.49 9.07M34.52 326.53c.08 3.92 4.8 7 10.54 6.89S55.39 330 55.3 326.1M34.92 341.36c1.18 3.74 6.58 5.39 12 3.66s9-6.16 7.78-9.9M42.09 357.7c2.95 2.58 8.42 1.18 12.2-3.14s4.45-9.91 1.49-12.5M54.55 368.06c3.64 1.48 8.34-1.63 10.51-6.95s1-10.83-2.67-12.31M108.88 295.38c-3.48.07-6.22 4.25-6.11 9.34s3 9.14 6.49 9.07M96.63 295.38c-3.48.07-6.22 4.25-6.11 9.34s3 9.14 6.49 9.07M84.38 295.38c-3.48.07-6.22 4.25-6.11 9.34s3 9.14 6.49 9.07M72.13 295.38c-3.48.07-6.22 4.25-6.12 9.34s3 9.14 6.5 9.07M57.15 299c-3.39 1.39-4.5 6.54-2.47 11.51s6.44 7.86 9.84 6.46M44.61 308.8c-2.62 2.56-1.71 7.76 2 11.59s8.92 4.86 11.55 2.29"/><path d="M84.38 295.38c-3.48.07-6.22 4.25-6.11 9.34s3 9.14 6.49 9.07M72.13 295.38c-3.48.07-6.22 4.25-6.12 9.34s3 9.14 6.5 9.07M70.81 371.35c3.48-.07 6.22-4.25 6.11-9.34s-3-9.14-6.49-9.07M83 371.35c3.48-.07 6.22-4.25 6.11-9.34s-3-9.14-6.49-9.07M95.17 371.35c3.47-.07 6.21-4.25 6.11-9.34s-3-9.14-6.49-9.07M107.34 371.35c3.48-.07 6.22-4.25 6.11-9.34s-3-9.14-6.49-9.07M119.52 371.35c3.48-.07 6.22-4.25 6.11-9.34s-3-9.14-6.49-9.07M131.7 371.35c3.48-.07 6.21-4.25 6.11-9.34s-3-9.14-6.49-9.07M57.15 299c-3.39 1.39-4.5 6.54-2.47 11.51s6.44 7.86 9.84 6.46M44.61 308.8c-2.62 2.56-1.71 7.76 2 11.59s8.92 4.86 11.55 2.29"/></g><path d="M444.41 333.71h-32.58a4.58 4.58 0 0 1-4.58-4.58v-17.41a20.88 20.88 0 0 1 41.75 0v17.41a4.58 4.58 0 0 1-4.59 4.58zm-28-9.16h23.42v-12.83a11.71 11.71 0 1 0-23.42 0z" fill="#fff" stroke="#448aff" stroke-linejoin="round" stroke-width="4"/><path fill="#bbdefb" stroke="#448aff" stroke-linejoin="round" stroke-width="4" d="M398.30166428 324.53570408l59.52982228-.14545909.09964424 40.77987826-59.52982228.14545909z"/><circle cx="428.1" cy="342.44" r="6.61" fill="#00549e"/><path fill="none" stroke="#00549e" stroke-linecap="round" stroke-linejoin="round" stroke-width="5" d="M428.1 342.44l.02 10.06"/><path d="M262.76 258.56a12.15 12.15 0 0 1-16 6.33" fill="none" stroke="#448aff" stroke-linecap="round" stroke-linejoin="round" stroke-width="4"/><path d="M131.62 52.19c-8.84 7.51-14.38 7.86-23.6 7.86v30.26c0 12.07 8.4 15.22 23.6 24.82 15.2-9.6 23.6-12.75 23.6-24.82V60.05c-9.22 0-14.76-.35-23.6-7.86z" fill="#fff" stroke="#448aff" stroke-linejoin="round" stroke-width="4"/><path d="M149.17 59.9v26.78c0 12-8.37 15.2-23.52 24.76 1.86 1.13 3.84 2.35 6 3.69 15.2-9.6 23.6-12.75 23.6-24.82V60.05c-2.25 0-4.25-.05-6.08-.15zM134.11 54.18c-.8-.6-1.63-1.26-2.49-2l-.51.42a25.52 25.52 0 0 0 3 1.58z" fill="#bbdefb"/><path fill="#00549e" d="M130.18 91.53l-9.05-8.82 3.24-3.25 5.81 5.57 11.49-11.74 3.25 3.25-14.74 14.99z"/><path d="M131.62 52.19c-8.84 7.51-14.38 7.86-23.6 7.86v30.26c0 12.07 8.4 15.22 23.6 24.82 15.2-9.6 23.6-12.75 23.6-24.82V60.05c-9.22 0-14.76-.35-23.6-7.86z" fill="none" stroke="#448aff" stroke-linejoin="round" stroke-width="4"/><path d="M170.82 362.26a4.45 4.45 0 0 0-6.28 0A10.06 10.06 0 0 1 150.31 348a4.44 4.44 0 1 0-6.28-6.28 18.94 18.94 0 0 0 26.79 26.79 4.43 4.43 0 0 0 0-6.25z" fill="#4389ff"/><path d="M172.12 228.87a7.68 7.68 0 1 1 7.68-7.68 7.69 7.69 0 0 1-7.68 7.68zm0-11.87a4.19 4.19 0 1 0 4.19 4.19 4.19 4.19 0 0 0-4.19-4.19zM316.15 214.43a7.68 7.68 0 1 1 7.68-7.67 7.69 7.69 0 0 1-7.68 7.67zm0-11.86a4.19 4.19 0 1 0 4.19 4.19 4.2 4.2 0 0 0-4.19-4.19zM236.11 66a7.68 7.68 0 1 1 7.68-7.68 7.69 7.69 0 0 1-7.68 7.68zm0-11.87a4.19 4.19 0 1 0 4.19 4.19 4.19 4.19 0 0 0-4.19-4.15z" fill="#bbdefb"/><circle cx="277.54" cy="73.29" r="3.22" fill="#4389ff"/><circle cx="194.26" cy="185.16" r="4.56" fill="#ffa400"/><path d="M166 167.49a1.74 1.74 0 0 1-1.49-.84l-3.51-5.76a1.74 1.74 0 1 1 3-1.81l3.51 5.75a1.76 1.76 0 0 1-1.49 2.66z" fill="#4389ff"/><path d="M161.32 166.36a1.75 1.75 0 0 1-.91-3.24l5.76-3.5a1.74 1.74 0 0 1 1.81 3l-5.76 3.5a1.65 1.65 0 0 1-.9.24z" fill="#4389ff"/><path d="M367 63a1.74 1.74 0 0 1-1.49-.84L362 56.39a1.75 1.75 0 0 1 3-1.82l3.5 5.76a1.74 1.74 0 0 1-.59 2.4 1.72 1.72 0 0 1-.91.27z" fill="#bbdefb"/><path d="M362.4 61.85a1.74 1.74 0 0 1-.91-3.23l5.76-3.5a1.74 1.74 0 0 1 1.81 3l-5.75 3.5a1.79 1.79 0 0 1-.91.23zM238.06 106a1.72 1.72 0 0 1-.9-.25 1.75 1.75 0 0 1-.6-2.4l3.9-6.45a1.75 1.75 0 0 1 3 1.8l-3.9 6.46a1.74 1.74 0 0 1-1.5.84z" fill="#bbdefb"/><path d="M243.23 104.73a1.72 1.72 0 0 1-.9-.25l-6.45-3.9a1.74 1.74 0 1 1 1.8-3l6.45 3.89a1.74 1.74 0 0 1-.9 3.24z" fill="#bbdefb"/><path d="M275.94 179.76a1.74 1.74 0 0 1-.78-3.3l10-5.06a1.74 1.74 0 1 1 1.57 3.11l-10 5.06a1.7 1.7 0 0 1-.79.19z" fill="#bce784"/><path d="M283.5 182.25a1.74 1.74 0 0 1-1.56-1l-5.06-10a1.75 1.75 0 1 1 3.12-1.57l5.05 10a1.75 1.75 0 0 1-.77 2.35 1.81 1.81 0 0 1-.78.22z" fill="#bce784"/><path d="M340.69 178.24a1.72 1.72 0 0 1-1.21-.49l-4.88-4.65a1.75 1.75 0 0 1 2.41-2.53l4.88 4.66a1.75 1.75 0 0 1-1.2 3z" fill="#99ddc8"/><path d="M335.91 178.35a1.74 1.74 0 0 1-1.26-2.95l4.66-4.88a1.74 1.74 0 0 1 2.53 2.4l-4.66 4.89a1.77 1.77 0 0 1-1.27.54z" fill="#99ddc8"/><path d="M462.21 160.59v30.94a9.5 9.5 0 0 1-9.5 9.5h7.23a9.5 9.5 0 0 0 9.5-9.5v-30.94z" fill="#bbdefb"/><path d="M432.34 160.59h39.1v30.94a9.5 9.5 0 0 1-9.5 9.5h-20.1a9.5 9.5 0 0 1-9.5-9.5v-30.94zM432.34 187.06h39.1M432.34 174.5h39.1M439.42 148.24h24.6v11.96h-24.6zM457.87 139.85v8.01h-12.3v-8.01" fill="none" stroke="#4389ff" stroke-linecap="round" stroke-miterlimit="10" stroke-width="5"/><path d="M445.57 139.85s-46.21-9.64-29.07-56.33a36.89 36.89 0 0 1 8.22 7.54s-7.18-25 17.83-35.64l1.35 8.16s12.69-11.92 11.66-30.08a78.75 78.75 0 0 1 7.6 7.24c3.56 3.82 8.23 8.91 8.43 14.42.18 5-3.48 9.3-5.75 13.49a23.05 23.05 0 0 0-2.64 6.82 13.21 13.21 0 0 0-.14 3.66c.09.8 1.08 3.29 1.06 3.88 0 0 2.58-7.32 7.81-9.06 0 0-1.25 9.91 5.23 16.76l4.09-4.11s19.53 41.55-23.38 53.25" fill="none" stroke="#4389ff" stroke-linecap="round" stroke-linejoin="round" stroke-width="5"/><path fill="none" stroke="#4389ff" stroke-linecap="round" stroke-linejoin="round" stroke-width="5" d="M434.62 134.49l-2.02-13.28 10.28 4.11 5.48-23.99 5.49 17.82 11.64-7.54-.34 16.11 7.88-4.11-.99 9.89"/><path fill="#00549e" stroke="#4389ff" stroke-linecap="round" stroke-linejoin="round" stroke-width="5" d="M445.57 139.85h12.3v8h-12.3z"/><path d="M363 245.55h-3.51a5.34 5.34 0 0 1 0-10.68h87.11a14.46 14.46 0 0 0 14.46-14.46V201M383.14 216.55h-19" fill="none" stroke="#448aff" stroke-linejoin="round" stroke-width="4"/><circle cx="327.33" cy="108.1" r="37.95" fill="#fff"/><circle cx="327.33" cy="108.1" r="37.95" fill="none"/><path d="M388 156.8l-28.5-28.5a38.06 38.06 0 0 1-11.93 11.93l28.5 28.5A8.44 8.44 0 1 0 388 156.8z" fill="#fff" stroke="#448aff" stroke-linejoin="round" stroke-width="4"/><path d="M388 156.8l-28.5-28.5a38.06 38.06 0 0 1-11.93 11.93l28.5 28.5A8.44 8.44 0 1 0 388 156.8z" fill="#bbdefb" stroke="#4389ff" stroke-linecap="round" stroke-linejoin="round" stroke-width="3"/><path d="M350.42 78a37.94 37.94 0 0 1-53.2 53.2 37.95 37.95 0 1 0 53.2-53.2z" fill="#bbdefb"/><path d="M355.85 148.7c4.6-3 9.44-7 12.37-11.63l17.65 17.65c-2.94 4.65-7.77 8.62-12.38 11.62z" fill="#fff" stroke="#448aff" stroke-linejoin="round" stroke-width="4"/><ellipse cx="327.33" cy="109.27" rx="19.92" ry="10.19" fill="none" stroke="#448aff" stroke-linecap="round" stroke-linejoin="round" stroke-width="4"/><circle cx="327.26" cy="109.22" r="5.04" fill="#00549e"/><path fill="none" stroke="#448aff" stroke-linecap="round" stroke-linejoin="round" stroke-width="4" d="M327.33 99.08v-7.9M317.88 100.04l-2.4-7.18M309.78 104.18l-4.88-4.92M336.65 100.04l2.39-7.18M344.74 104.18l4.88-4.92"/><circle cx="327.33" cy="108.1" r="37.95" fill="none" stroke="#4389ff" stroke-linecap="round" stroke-miterlimit="10" stroke-width="5"/><path d="M376.9 137.28a4.43 4.43 0 0 0 0 6.28 10.06 10.06 0 0 1-14.23 14.23 4.44 4.44 0 1 0-6.29 6.28 18.95 18.95 0 0 0 26.8-26.79 4.43 4.43 0 0 0-6.28 0z" fill="#4389ff"/><path d="M186.43 364.44h-30.38a7.44 7.44 0 0 1-7.44-7.44v-45.58h45.23V357a7.44 7.44 0 0 1-7.41 7.44z" fill="#fff" stroke="#448aff" stroke-linejoin="round" stroke-width="4"/><path d="M142.43 353.25h6.16v-7.62h-4.16a1.45 1.45 0 0 1-1.44-1.45V333.3a1.45 1.45 0 0 1 1.44-1.45h4.16v-7.62h-6.16a7.08 7.08 0 0 0-7.07 7.07v14.88a7.08 7.08 0 0 0 7.07 7.07z" fill="#bbdefb" stroke="#448aff" stroke-linejoin="round" stroke-width="4"/><path fill="#fff" stroke="#448aff" stroke-linecap="round" stroke-linejoin="round" stroke-width="4" d="M158.93 322.57v19M158.93 349.35v4.01"/><path fill="#bbdefb" d="M185.64 311.66h6.14v52.78h-6.14z"/><path d="M186.43 364.44h-30.38a7.44 7.44 0 0 1-7.44-7.44v-45.58h45.23V357a7.44 7.44 0 0 1-7.41 7.44z" fill="none" stroke="#448aff" stroke-linejoin="round" stroke-width="4"/><path d="M181.7 281.44l-.08.08a7.1 7.1 0 0 0 0 10 7.12 7.12 0 0 1 0 10.05M171.27 281.44l-.09.08a7.1 7.1 0 0 0 0 10 7.12 7.12 0 0 1 0 10.05M160.83 281.44l-.09.08a7.1 7.1 0 0 0 0 10 7.1 7.1 0 0 1 0 10.05" fill="none" stroke="#00549e" stroke-linecap="round" stroke-linejoin="round" stroke-width="5"/><path d="M420.44 363.33a4.43 4.43 0 0 0-6.28 0 10.06 10.06 0 0 1-15.4-12.83V342a4.44 4.44 0 0 0-5.12.81 19 19 0 0 0 26.8 26.8 4.45 4.45 0 0 0 0-6.28z" fill="#4389ff"/></svg>