<svg xmlns="http://www.w3.org/2000/svg" viewBox="0 0 617.28 481.5"><title>Artboard 19</title><g style="isolation:isolate"><g style="mix-blend-mode:multiply" opacity=".2" fill="#00549e"><path d="M301 75.41c-6.85 4.72-13.19 9.53-18.85 14.28a4.61 4.61 0 1 0 5.93 7.07c5.44-4.57 11.55-9.2 18.17-13.76a4.61 4.61 0 1 0-5.25-7.59zM381.62 37.2a4.62 4.62 0 0 0-6.1-2.32 499.64 499.64 0 0 0-52.31 27 4.61 4.61 0 1 0 4.79 7.94 489.77 489.77 0 0 1 51.3-26.52 4.6 4.6 0 0 0 2.32-6.1zM341.2 82.86a8.85 8.85 0 0 0-10.86 6.25l-3.18 11.76a8.86 8.86 0 0 0 17.11 4.62l3.18-11.77a8.87 8.87 0 0 0-6.25-10.86zM427.19 106.06a8.85 8.85 0 0 0-10.86 6.25l-3.18 11.76a8.86 8.86 0 1 0 17.11 4.61l3.17-11.76a8.86 8.86 0 0 0-6.24-10.86z"/><path d="M609.34 421.89a150.45 150.45 0 0 0-99.25-181.36l7.46-27.66a3.64 3.64 0 0 0-2.56-4.46L502.25 205c16.19-75.6-86.33-198.43-90.77-203.71a3.65 3.65 0 0 0-4-1.08 633.28 633.28 0 0 0-82.86 38.11c-55.09 30.61-88 61.64-98 92.28l-12.74-3.44a3.65 3.65 0 0 0-4.46 2.57l-7.44 27.6A150.32 150.32 0 0 0 22.55 263.58a37.55 37.55 0 0 0-22.24 25 8.82 8.82 0 1 0 17 4.6 20 20 0 1 1 38.58 10.41 8.82 8.82 0 1 0 17 4.59 37.57 37.57 0 0 0-5.67-31.58 106.08 106.08 0 0 1 4.45-12.94h.11a14.19 14.19 0 0 0 .6-1.73 102.22 102.22 0 0 1 9.47-17.05l.14.09a12.3 12.3 0 0 0 .94-1.61 103.74 103.74 0 0 1 12.76-14.71l.09.1a11.67 11.67 0 0 0 1.07-1.16 104.61 104.61 0 0 1 15.71-12v.05c.25-.15.47-.34.71-.51.8-.49 1.59-1 2.4-1.46a104.7 104.7 0 0 1 16-7.46v.06c.3-.11.58-.26.87-.39a102.76 102.76 0 0 1 19.75-5v.08c.41-.07.81-.17 1.22-.27a102.46 102.46 0 0 1 20.05-.74h.78a104.45 104.45 0 0 1 15.33 2.2l-21 78C145.82 365.27 196.3 453 281.26 476S454 448.42 476.93 363.45l21-77.82a103.75 103.75 0 0 1 12 5c.23.13.44.28.67.4a102.86 102.86 0 0 1 17 10.73c.3.29.6.58.92.84l.05-.06a103.18 103.18 0 0 1 14.58 14.23c.18.26.35.52.55.77A104.59 104.59 0 0 1 553.82 332c.47.82.9 1.65 1.35 2.48.12.26.22.54.35.8h.06a105 105 0 0 1 7.57 18.24 11.73 11.73 0 0 0 .33 1.54h.13a102.33 102.33 0 0 1 3.63 19.13 13 13 0 0 0 0 1.87h.16a103.31 103.31 0 0 1-.38 19.49 13.68 13.68 0 0 0-.37 1.8h.12a104.84 104.84 0 0 1-2.65 13.43 37.55 37.55 0 0 0-20.79 24.44 8.82 8.82 0 0 0 17 4.6 20 20 0 1 1 38.67 10.3 8.82 8.82 0 0 0 17 4.59 37.57 37.57 0 0 0-6.66-32.82zm-34.41-35.78a111.63 111.63 0 0 0-.37-12c.37-2.55 2.34-4.52 3.61-5.54a21.45 21.45 0 0 1 11.56-4.2c8.66-.67 16.32 3.26 16.73 8.56h.12a142.61 142.61 0 0 1 .31 16.66 30.14 30.14 0 0 0-31.34-3.83c-.21.1-.41.24-.62.35zm-72.15-107.28c0 .29.1.57.15.85q-5-1.89-10.28-3.31c-5.14-1.39-7.57-9.64-5.31-18S495.86 244 501 245.42a144.11 144.11 0 0 1 15.68 5.23 30.12 30.12 0 0 0-13.91 28.17zm7.21-.95a22.89 22.89 0 0 1 10.7-21.15c1.66-.9 4.86-2.21 7.7-.78a141.35 141.35 0 0 1 14.32 8.35 30.11 30.11 0 0 0-19.38 24.7v.79a112.21 112.21 0 0 0-9.81-5.53c-2.52-1.53-3.29-4.61-3.52-6.38zm20.6 11.68A22.87 22.87 0 0 1 545.37 271c1.81-.56 5.21-1.19 7.7.8a145.58 145.58 0 0 1 12.31 11.07 30.26 30.26 0 0 0-24 20.32c-.08.26-.12.51-.18.77a111 111 0 0 0-8.72-7.65c-1.89-2.03-2.02-5.04-1.89-6.75zm17.78 15.63a21.48 21.48 0 0 1 7-10.11c6.69-5.54 15.21-6.76 18.6-2.66a143.69 143.69 0 0 1 9.82 13.35 28.64 28.64 0 0 0-15.73 3.48 28.05 28.05 0 0 0-12.34 12.2 109.27 109.27 0 0 0-6.83-9.08c-1.5-2.43-1-5.49-.52-7.18zm23.16 10.46c7.67-4.07 16.26-3.53 18.75 1.18h.06a144.16 144.16 0 0 1 6.92 15.08 28.55 28.55 0 0 0-16.14.2 28.09 28.09 0 0 0-14.55 9.38 112.25 112.25 0 0 0-4.89-10.29c-1.8-4.75 2.52-11.68 9.85-15.55zm11.61 23.42c8.34-2.41 16.64-.13 18.12 5h.13a145.43 145.43 0 0 1 3.64 16.2 30.21 30.21 0 0 0-31.42 2.69c-.18.14-.34.3-.52.46a109.82 109.82 0 0 0-2.82-11.55c-.4-4.95 5.14-10.57 12.87-12.8zM407.53 8c13.19 16.19 101.66 128 87.69 195.13L233.6 132.5C255.3 67.44 388 15.31 407.53 8zm-45.66 357L344 323.2a1.14 1.14 0 0 1 1-1.59l11.92.27a1.14 1.14 0 0 0 1-1.59l-17-39.42a1.14 1.14 0 0 1 .95-1.59l9.52-.47a1.13 1.13 0 0 0 1-1.52l-14.85-40.76a70.22 70.22 0 0 1 8.08 1.66A69.1 69.1 0 0 1 361.87 365zm-52.25 6.74a69.1 69.1 0 0 1-29-117.39l9.6 11.65a1.14 1.14 0 0 1-.69 1.84l-8.86 1.34A1.14 1.14 0 0 0 280 271l27.93 34.4a1.13 1.13 0 0 1-.73 1.83l-11.4 1.3a1.14 1.14 0 0 0-.66 1.92L353.48 369a68.75 68.75 0 0 1-43.86 2.69zm37.91-140.53a77.53 77.53 0 0 0-12.77-2.29l-2.49-6.82a1 1 0 0 0-1.14-.69l-5.73.82 14.43-53.48 45.36 12.23-16.13 59.81a76.31 76.31 0 0 0-21.53-9.63zM196.6 196.49q-5.25-1.41-10.55-2.3c.18-.23.38-.43.56-.66a30.14 30.14 0 0 0 2.15-31.34 144.82 144.82 0 0 1 16.18 3.36c5.13 1.39 7.56 9.65 5.3 18s-8.5 14.33-13.64 12.94zM69.93 249.34A28.35 28.35 0 0 0 57 238.93a28.52 28.52 0 0 0-16.08-2 143.69 143.69 0 0 1 8.64-14.25l.11.07c3-4.38 11.61-3.91 18.76 1a21.37 21.37 0 0 1 7.88 9.45 9.37 9.37 0 0 1 .34 6.6 110 110 0 0 0-6.36 10.2c-.12-.25-.23-.46-.36-.66zm13.17-18.78a28.41 28.41 0 0 0-10.54-12.83 28.54 28.54 0 0 0-15.26-5.29 143.28 143.28 0 0 1 11.3-12.18l.09.11c3.85-3.68 12.17-1.48 18.17 4.8 5.55 5.82 7.51 13.46 4.71 17.48a109.35 109.35 0 0 0-8.25 8.57c-.07-.22-.13-.44-.22-.66zm9-30.41a28.59 28.59 0 0 0-13.85-8.29 143 143 0 0 1 13.57-9.55v.05c4.51-2.81 12.21 1 16.8 8.41 4.39 7 4.63 15.19.71 18.37a111.55 111.55 0 0 0-9.41 6.44 28.07 28.07 0 0 0-7.8-15.43zm22.73-13.23A28.62 28.62 0 0 0 103 176a143.59 143.59 0 0 1 15.2-6.6c3-1.09 6 .58 7.55 1.68a22.84 22.84 0 0 1 8.16 22.25c-.43 1.7-1.54 4.6-4.09 5.88a109.49 109.49 0 0 0-10.46 4.42 28.14 28.14 0 0 0-4.51-16.71zm25-8.32a28.7 28.7 0 0 0-9.39-13.08 143.24 143.24 0 0 1 16.25-3.38v.05c3.14-.46 5.76 1.79 7.05 3.18a22.89 22.89 0 0 1 3.46 23.44c-.76 1.55-2.38 4.08-5 4.88a110.49 110.49 0 0 0-11.38 2.23c.07-.26.16-.5.23-.76a28.51 28.51 0 0 0-1.25-16.56zm26.12-3.06a28.7 28.7 0 0 0-6.51-14.7 141.1 141.1 0 0 1 16.58 0c3.18.19 5.28 2.93 6.26 4.55a22.87 22.87 0 0 1-1.39 23.66c-1.09 1.41-3.32 3.68-6.24 3.76a111.58 111.58 0 0 0-11.27-.14c.12-.24.26-.46.38-.7a28.49 28.49 0 0 0 2.16-16.43zM46.43 262.08a37.65 37.65 0 0 0-15.61-.82q2-6.56 4.67-12.84l.11.05c1.23-2.93 4.52-4 6.37-4.38a21.48 21.48 0 0 1 12.2 1.54 21.37 21.37 0 0 1 9.64 7.65c.9 1.39 2.18 3.93 1.67 6.51a111 111 0 0 0-3.91 10.51 37.36 37.36 0 0 0-15.14-8.22zm129.34 20.12l21.13-78.3c8.58.82 17.25-6.8 20.38-18.42s-.52-22.57-8.35-26.18l6.52-24.16 12.64 3.41 104.72 28.25-15.25 56.52-53.83 7.78a1.14 1.14 0 0 0-.7 1.84l13 15.74a76.35 76.35 0 0 0 28 128.94l-24.36 90.28c-78.96-23.31-125.46-105.79-103.9-185.7zm294.13 79.36c-21.56 79.91-103.23 127.8-183.2 108.24l24.35-90.28a76 76 0 0 0 48-4.95l8.22 8.25a1.11 1.11 0 0 0 1.75-1.28l-4.23-9.88a76.33 76.33 0 0 0 10-126.88l.72.19 16.77-62.14L497 211.08l12.64 3.41-6.47 24-.2-.06c-9.26-2.5-19.17 5.43-22.57 18s1.18 24.46 10.44 26.95l.21.07zM574.15 397c.85-2.49 3.24-4 4.71-4.79a22.87 22.87 0 0 1 23.5 3c1.41 1.26 3.71 3.84 3.31 7h.11q-.88 6.75-2.42 13.44a37.23 37.23 0 0 0-31.12-7.65 111 111 0 0 0 1.91-11z"/><path d="M348 129.69c-.61 10.87 10.69 20.34 25.23 21.16s26.84-7.33 27.45-18.2z"/></g></g></svg>