<svg xmlns="http://www.w3.org/2000/svg" viewBox="0 0 349 401.37"><defs><clipPath id="a"><path d="M101.85 381.37q-1.68-2.12-3.21-4.36a77.26 77.26 0 0 1-12.32-58.26c1-5.28-4.48-10.74-12.2-12.17s-14.77 1.67-15.75 6.95a105.9 105.9 0 0 0 16.82 79.55q2.3 3.33 4.8 6.47" fill="none"/></clipPath><clipPath id="b"><path data-name="SVGID" d="M324.64 256.09q-1.59-2.17-3.35-4.26a77.34 77.34 0 0 0-52.92-27.3c-5.36-.45-9.17-7.15-8.51-15s5.52-13.8 10.87-13.35a105.94 105.94 0 0 1 72.27 37.3c1.74 2.06 3.4 4.18 5 6.34" fill="none"/></clipPath></defs><path d="M71.51 116.54a8.38 8.38 0 1 1 7.4-9.25 8.4 8.4 0 0 1-7.4 9.25zm-1.43-12.88a4.57 4.57 0 1 0 5 4 4.59 4.59 0 0 0-5-4zM219 97.37a8.38 8.38 0 1 1 9.2-7.48 8.39 8.39 0 0 1-9.2 7.48zm1.33-12.88a4.57 4.57 0 1 0 4.08 5 4.56 4.56 0 0 0-4.05-5z" fill="#bbdefb"/><circle cx="210.64" cy="38.54" r="3.51" fill="#4389ff"/><circle cx="33.77" cy="101.19" r="3.51" fill="#4389ff"/><circle cx="183.43" cy="4.97" r="4.97" fill="#bbdefb"/><circle cx="23.69" cy="38.37" r="4.97" fill="#ffa400"/><path d="M53.61 69.94a1.92 1.92 0 0 1-1.72-.73l-4.49-5.83a1.9 1.9 0 0 1 3-2.32l4.49 5.82a1.92 1.92 0 0 1-1.3 3.06z" fill="#4389ff"/><path d="M48.45 69.27a1.91 1.91 0 0 1-1.37-3.4l5.82-4.49a1.91 1.91 0 0 1 2.33 3l-5.82 4.49a2 2 0 0 1-.96.4z" fill="#4389ff"/><path d="M63.64 21a2 2 0 0 1-1-.17 1.9 1.9 0 0 1-.93-2.53l3.45-7.46a1.9 1.9 0 0 1 3.46 1.59l-3.46 7.47a1.9 1.9 0 0 1-1.52 1.1z" fill="#bbdefb"/><path d="M69.1 19a2 2 0 0 1-1-.17l-7.47-3.45a1.91 1.91 0 0 1 1.6-3.46l7.46 3.46A1.9 1.9 0 0 1 69.1 19z" fill="#bbdefb"/><path d="M180.89 125.78a1.9 1.9 0 0 1-.48-3.67l11.47-4.37a1.91 1.91 0 0 1 1.36 3.56l-11.48 4.37a2 2 0 0 1-.87.11z" fill="#bce784"/><path d="M188.81 129.33a1.89 1.89 0 0 1-1.58-1.21l-4.37-11.48a1.9 1.9 0 0 1 3.56-1.35l4.36 11.47a1.9 1.9 0 0 1-1.1 2.46 1.86 1.86 0 0 1-.87.11z" fill="#bce784"/><path d="M257.83 67.26a1.93 1.93 0 0 1-1.26-.66l-4.78-5.6a1.9 1.9 0 0 1 2.9-2.47l4.78 5.61a1.9 1.9 0 0 1-1.64 3.13z" fill="#99ddc8"/><path d="M252.63 66.84a1.87 1.87 0 0 1-1.25-.65 1.91 1.91 0 0 1 .21-2.69l5.61-4.78a1.9 1.9 0 0 1 2.47 2.9l-5.6 4.78a1.9 1.9 0 0 1-1.44.44z" fill="#99ddc8"/><path d="M2 248a28.42 28.42 0 0 0 13.94 24.45l121.32 71.89a28.19 28.19 0 0 0 28.32.09l83-47.85a31.66 31.66 0 0 0 15.86-27.43" fill="#fff" stroke="#448aff" stroke-linejoin="round" stroke-width="4"/><path d="M7.27 238l95.38-55.15a24.2 24.2 0 0 1 24.31 0l132.27 77.24a10.54 10.54 0 0 1-.05 18.23l-95.32 55a24.77 24.77 0 0 1-24.9-.08L7.22 256.18A10.54 10.54 0 0 1 7.27 238z" fill="#fff" stroke="#448aff" stroke-linejoin="round" stroke-width="4"/><path d="M13.92 243.29l91.2-52.74a21.53 21.53 0 0 1 21.63 0l124 72.42a5.14 5.14 0 0 1 0 8.89L159.6 324.5a22.06 22.06 0 0 1-22.16-.07L13.9 252.17a5.14 5.14 0 0 1 .02-8.88z" fill="#fff" stroke="#448aff" stroke-linejoin="round" stroke-width="4"/><path d="M250.78 263l-124-72.42a21.53 21.53 0 0 0-21.63 0l-1 .59 115.65 67.51a10.13 10.13 0 0 1-.05 17.53l-82.94 47.85.63.37a22.06 22.06 0 0 0 22.16.07l91.16-52.59a5.14 5.14 0 0 0 .02-8.91z" fill="#bbdefb"/><path d="M13.92 243.29l91.2-52.74a21.53 21.53 0 0 1 21.63 0l124 72.42a5.14 5.14 0 0 1 0 8.89L159.6 324.5a22.06 22.06 0 0 1-22.16-.07L13.9 252.17a5.14 5.14 0 0 1 .02-8.88z" fill="none" stroke="#448aff" stroke-linejoin="round" stroke-width="4"/><path fill="none" stroke="#bce784" stroke-linecap="round" stroke-linejoin="round" stroke-width="5" d="M81.77 239.89l50.45-29.13"/><path fill="none" stroke="#448aff" stroke-linecap="round" stroke-linejoin="round" stroke-width="4" d="M55.24 255.21l19.28-11.13M78.62 251.47l61.93-35.76"/><path fill="none" stroke="#bce784" stroke-linecap="round" stroke-linejoin="round" stroke-width="5" d="M63.57 260.16l8.09-4.67"/><path fill="none" stroke="#448aff" stroke-linecap="round" stroke-linejoin="round" stroke-width="4" d="M96.71 250.4l51.86-29.96M64.92 268.76l26.36-15.23"/><path fill="none" stroke="#bce784" stroke-linecap="round" stroke-linejoin="round" stroke-width="5" d="M79.59 269.62l76.99-44.45M101.83 266.13l62.76-36.24"/><path fill="none" stroke="#448aff" stroke-linecap="round" stroke-linejoin="round" stroke-width="4" d="M87.6 274.35l8.19-4.73M101.83 275.48l70.77-40.86"/><path fill="none" stroke="#bce784" stroke-linecap="round" stroke-linejoin="round" stroke-width="5" d="M124.23 271.93l56.38-32.58"/><path fill="none" stroke="#448aff" stroke-linecap="round" stroke-linejoin="round" stroke-width="4" d="M111.64 279.2l7.27-4.2"/><path fill="none" stroke="#bce784" stroke-linecap="round" stroke-linejoin="round" stroke-width="5" d="M96.97 287.67l8.16-4.71M145.04 269.24l43.59-25.16"/><path fill="none" stroke="#448aff" stroke-linecap="round" stroke-linejoin="round" stroke-width="4" d="M111.64 288.53l24.56-14.18"/><path fill="none" stroke="#bce784" stroke-linecap="round" stroke-linejoin="round" stroke-width="5" d="M119.65 293.26l76.99-44.45"/><path fill="none" stroke="#448aff" stroke-linecap="round" stroke-linejoin="round" stroke-width="4" d="M135.1 293.71l69.55-40.18M121.01 301.86l7.38-4.27"/><path fill="none" stroke="#bce784" stroke-linecap="round" stroke-linejoin="round" stroke-width="5" d="M161.72 287.67l50.94-29.41"/><path fill="none" stroke="#448aff" stroke-linecap="round" stroke-linejoin="round" stroke-width="4" d="M150.68 294.05l5.9-3.4"/><path fill="none" stroke="#bce784" stroke-linecap="round" stroke-linejoin="round" stroke-width="5" d="M135.67 302.71l8.02-4.62"/><path fill="none" stroke="#448aff" stroke-linecap="round" stroke-linejoin="round" stroke-width="4" d="M44.33 250.91l-6.91 1.74.8-5.44M47.1 241.22l7.12-.29-1.88 5.16M152.6 313.53l-6.91 1.74.8-5.44M162.16 300.9l7.11-.3-1.88 5.17"/><path fill="none" stroke="#bce784" stroke-linecap="round" stroke-linejoin="round" stroke-width="5" d="M155.35 299.94l4.06 14.8"/><path d="M7.27 186.14L102.65 131a24.2 24.2 0 0 1 24.35 0l132.27 77.24a10.55 10.55 0 0 1-.05 18.24l-95.62 55.16a24.18 24.18 0 0 1-24.3-.07l-132-77.24a10.54 10.54 0 0 1-.03-18.19z" fill="#fff" stroke="#448aff" stroke-linejoin="round" stroke-width="4"/><path d="M259.23 208.28L127 131a24.2 24.2 0 0 0-24-.23l.43.23 124.83 72.89a15.54 15.54 0 0 1-.07 26.89L140 281.68l-.32.17a24.19 24.19 0 0 0 23.86-.17l95.62-55.16a10.55 10.55 0 0 0 .07-18.24z" fill="#bbdefb"/><path d="M7.27 186.14L102.65 131a24.2 24.2 0 0 1 24.35 0l132.27 77.24a10.55 10.55 0 0 1-.05 18.24l-95.62 55.16a24.18 24.18 0 0 1-24.3-.07l-132-77.24a10.54 10.54 0 0 1-.03-18.19z" fill="none" stroke="#448aff" stroke-linejoin="round" stroke-width="4"/><path d="M250.55 203.21l8.68 5.07a10.55 10.55 0 0 1-.05 18.24l-10.34 6" fill="none" stroke="#448aff" stroke-linejoin="round" stroke-width="4"/><path fill="#fff" stroke="#448aff" stroke-linecap="round" stroke-linejoin="round" stroke-width="4" d="M16.86 208.41l121.89-70.48M43.87 210.03l96.49-55.75 31.27 18.58-96.36 55.69-31.4-18.52zM88.06 236.72l41.73-23.85 43.56 26.02-41.59 23.79-43.7-25.96zM142.83 205.09l41.72-23.85 44.47 25.12-42.49 24.69-43.7-25.96z"/><circle cx="17.46" cy="194.73" r=".6" fill="none" stroke="#448aff" stroke-linecap="round" stroke-linejoin="round" stroke-width="4"/><circle cx="27.23" cy="188.54" r=".6" fill="none" stroke="#448aff" stroke-linecap="round" stroke-linejoin="round" stroke-width="4"/><circle cx="36.63" cy="183.35" r=".6" fill="none" stroke="#448aff" stroke-linecap="round" stroke-linejoin="round" stroke-width="4"/><path fill="#fff" stroke="#448aff" stroke-linecap="round" stroke-linejoin="round" stroke-width="4" d="M186.84 229.79l-1.98-48.01"/><path fill="#fff" stroke="#448aff" stroke-linejoin="round" stroke-width="4" d="M227.52 206.9l-84.38-1.26"/><ellipse cx="132.05" cy="206" rx="33.97" ry="16.2" fill="#fff" stroke="#448aff" stroke-linecap="round" stroke-linejoin="round" stroke-width="4"/><ellipse cx="132.05" cy="205.79" rx="7.51" ry="3.58" fill="#00549e" stroke="#00549e" stroke-linejoin="round" stroke-width="5"/><path fill="none" stroke="#00549e" stroke-linecap="round" stroke-miterlimit="10" stroke-width="5" d="M132.05 209.41"/><path fill="none" stroke="#00549e" stroke-linecap="round" stroke-miterlimit="10" stroke-width="5" stroke-dasharray="0,15.579737663269043" d="M132.05 193.83v-70.11"/><path fill="none" stroke="#00549e" stroke-linecap="round" stroke-miterlimit="10" stroke-width="5" d="M132.05 115.93"/><path d="M161.47 25.71a44.62 44.62 0 0 1-34 72.21 44.93 44.93 0 0 1-20.29-1.37 44.64 44.64 0 1 0 54.32-70.84z" fill="#bbdefb"/><circle cx="134.76" cy="61.67" r="44.64" fill="none" stroke="#448aff" stroke-linejoin="round" stroke-width="4"/><path d="M85.11 28.15l38.37-16.54a.63.63 0 0 1 .78.23L145 41.34a.69.69 0 0 1-.34 1.06l-5.56 1.8a.7.7 0 0 0-.31 1.09l16.39 20.63a.69.69 0 0 1-.36 1.1l-7.1 1.75a.69.69 0 0 0-.36 1.1l24.12 30.57a.67.67 0 0 1-.83 1l-54.27-31.31a.7.7 0 0 1 .08-1.24L123 66.3a.7.7 0 0 0 .14-1.2l-22-15.91a.7.7 0 0 1 .12-1.2l5-2.21a.7.7 0 0 0 .12-1.2L85 29.35a.7.7 0 0 1 .11-1.2z" fill="#00549e"/><path d="M79 279.06a6.37 6.37 0 0 1-1.32 8.94A14.45 14.45 0 1 0 95 311.09a6.37 6.37 0 1 1 7.65 10.19A27.19 27.19 0 1 1 70 277.79a6.37 6.37 0 0 1 9 1.27z" fill="#4389ff"/><path d="M100.24 379.26c-.55-.74-1.08-1.49-1.6-2.25a77.26 77.26 0 0 1-12.32-58.26c1-5.28-4.48-10.74-12.2-12.17s-14.77 1.67-15.75 6.95a105.9 105.9 0 0 0 16.82 79.55l.94 1.35" fill="#fff" stroke="#448aff" stroke-linejoin="round" stroke-width="4"/><path d="M101.15 380.37c2.93 4.63-.09 11.8-6.75 16s-14.69 3.94-17.62-.69.34-11.85 7-16.07 14.44-3.87 17.37.76z" fill="#bbdefb" stroke="#448aff" stroke-linejoin="round" stroke-width="4"/><path d="M91.24 386.65c.55.85 0 2.18-1.25 3s-2.72.73-3.26-.12.06-2.2 1.3-3 2.67-.74 3.21.12z" fill="none" stroke="#448aff" stroke-linejoin="round" stroke-width="4"/><g clip-path="url(#a)" fill="none" stroke="#448aff" stroke-linejoin="round" stroke-width="4"><path d="M85 334.63c-.11-5.37-6.56-9.6-14.41-9.44s-14.12 4.66-14 10M87 350.44c-1.2-5.24-8.38-8.06-16-6.3s-12.9 7.43-11.7 12.66M92.17 365.51c-2.25-4.88-9.85-6.18-17-2.9s-11.09 9.9-8.85 14.78"/></g><path d="M79 279.06a6.37 6.37 0 0 1-1.32 8.94A14.45 14.45 0 1 0 95 311.09a6.37 6.37 0 1 1 7.65 10.19A27.19 27.19 0 1 1 70 277.79a6.37 6.37 0 0 1 9 1.27z" fill="#4389ff"/><path d="M100.24 379.26c-.55-.74-1.08-1.49-1.6-2.25a77.26 77.26 0 0 1-12.32-58.26c1-5.28-4.48-10.74-12.2-12.17s-14.77 1.67-15.75 6.95a105.9 105.9 0 0 0 16.82 79.55l.94 1.35" fill="#fff" stroke="#448aff" stroke-linejoin="round" stroke-width="4"/><path d="M101.15 380.37c2.93 4.63-.09 11.8-6.75 16s-14.69 3.94-17.62-.69.34-11.85 7-16.07 14.44-3.87 17.37.76z" fill="#bbdefb" stroke="#448aff" stroke-linejoin="round" stroke-width="4"/><path d="M91.24 386.65c.55.85 0 2.18-1.25 3s-2.72.73-3.26-.12.06-2.2 1.3-3 2.67-.74 3.21.12z" fill="none" stroke="#448aff" stroke-linejoin="round" stroke-width="4"/><g clip-path="url(#a)" fill="none" stroke="#448aff" stroke-linejoin="round" stroke-width="4"><path d="M85 334.63c-.11-5.37-6.56-9.6-14.41-9.44s-14.12 4.66-14 10M87 350.44c-1.2-5.24-8.38-8.06-16-6.3s-12.9 7.43-11.7 12.66M92.17 365.51c-2.25-4.88-9.85-6.18-17-2.9s-11.09 9.9-8.85 14.78"/></g><path fill="#fff" d="M89.02 313.12l15.55 9.2 5.95-3.08-21.5-12.58v6.46z"/><path d="M234.65 200.18a6.38 6.38 0 0 0 8.32 3.49 14.44 14.44 0 0 1 10.91 26.75 6.37 6.37 0 1 0 4.82 11.8 27.19 27.19 0 1 0-20.55-50.35 6.38 6.38 0 0 0-3.5 8.31z" fill="#4389ff"/><path d="M323 254c-.56-.72-1.15-1.43-1.74-2.14a77.34 77.34 0 0 0-52.92-27.3c-5.36-.45-9.17-7.15-8.51-15s5.52-13.8 10.87-13.35a105.94 105.94 0 0 1 72.3 37.27l1.05 1.26" fill="#fff" stroke="#448aff" stroke-linejoin="round" stroke-width="4"/><path d="M323.86 255.15c3.69 4 11.41 3 17.24-2.27s7.69-13.13 4-17.18-11.52-2.8-17.35 2.51-7.57 12.89-3.89 16.94z" fill="#bbdefb" stroke="#448aff" stroke-linejoin="round" stroke-width="4"/><path d="M332.54 247.26c.68.75 2.11.56 3.19-.43s1.43-2.43.74-3.18-2.13-.52-3.21.47-1.4 2.38-.72 3.14z" fill="none" stroke="#448aff" stroke-linejoin="round" stroke-width="4"/><g clip-path="url(#b)" fill="none" stroke="#448aff" stroke-linejoin="round" stroke-width="4"><path d="M284 227.5c-5.15-1.53-7.52-8.88-5.28-16.4s8.22-12.39 13.37-10.86M298.74 233.59c-4.73-2.55-5.55-10.22-1.83-17.13s10.57-10.45 15.3-7.9M311.91 242.55c-4.11-3.45-3.35-11.13 1.7-17.14s12.48-8.08 16.59-4.62"/></g><path d="M250.55 203.21l8.68 5.07a10.55 10.55 0 0 1-.05 18.24l-10.34 6" fill="#bbdefb" stroke="#4389ff" stroke-miterlimit="10" stroke-width="5"/></svg>
