<svg xmlns="http://www.w3.org/2000/svg" viewBox="0 0 365.75 366.53"><title>Artboard 20</title><g style="isolation:isolate"><g style="mix-blend-mode:multiply" opacity=".2"><circle cx="185.77" cy="186.56" r="176.47" fill="none" stroke="#00549e" stroke-miterlimit="10" stroke-width="7"/><path d="M315.82 326l-87.76-112.1a2.56 2.56 0 0 1 1.3-4.05l25.85-6.4a2.36 2.36 0 0 0 1.09-.62 2.59 2.59 0 0 0 .38-.48 2.78 2.78 0 0 0 .37-1.16 2.53 2.53 0 0 0-.21-1.23 2.39 2.39 0 0 0-.34-.57l-59.63-75.66a2.23 2.23 0 0 1-.33-.55 2.55 2.55 0 0 1 1.46-3.46l20.24-6.59a2.56 2.56 0 0 0 1.22-3.89L144 1a2.33 2.33 0 0 0-2.9-.81L1.48 60.87a2.57 2.57 0 0 0-.48 4.4l77.83 55.88a2.53 2.53 0 0 1 1 2.33 2.63 2.63 0 0 1-.43 1.21 2.91 2.91 0 0 1-.44.49 2.33 2.33 0 0 1-.59.36l-18.32 8.1a2.44 2.44 0 0 0-1.32 1.43 2.73 2.73 0 0 0-.14.63 2.55 2.55 0 0 0 1 2.33l40.21 29.18 40.1 29.18a2.59 2.59 0 0 1 .09 4.07 2.55 2.55 0 0 1-.6.35l-23.81 9.5a2.57 2.57 0 0 0-1.28 3.51 2.31 2.31 0 0 0 1 1l197.54 115c2.28 1.34 4.66-1.66 2.98-3.82z" fill="#00549e"/></g></g></svg>