<svg id="GRAPHICS" xmlns="http://www.w3.org/2000/svg" xmlns:xlink="http://www.w3.org/1999/xlink" viewBox="0 0 293.83 327.5" width="290"><defs><clipPath id="clip-path"><path id="SVGID" d="M76.27,196.57A67.68,67.68,0,0,0,8.55,264.28H26.67a49.59,49.59,0,0,1,49.6-49.59c3.42,0,6.2-4.06,6.2-9.06s-2.77-9.06-6.2-9.06Z" style="fill:none"/></clipPath><clipPath id="clip-path-2"><path id="SVGID-2" data-name="SVGID" d="M217.56,196.57a67.68,67.68,0,0,1,67.72,67.71H267.15a49.57,49.57,0,0,0-49.59-49.59c-3.42,0-6.2-4.06-6.2-9.06s2.77-9.06,6.2-9.06Z" style="fill:none"/></clipPath></defs><path d="M76.27,196.57A67.68,67.68,0,0,0,8.55,264.28H26.67a49.59,49.59,0,0,1,49.6-49.59c3.42,0,6.2-4.06,6.2-9.06s-2.77-9.06-6.2-9.06Z" style="fill:#fff;stroke:#448aff;stroke-linejoin:round;stroke-width:4px"/><path d="M4.06,281.61a4.07,4.07,0,0,0,4.07-4.06,9.21,9.21,0,1,1,18.41,0,4.07,4.07,0,0,0,8.13,0,17.34,17.34,0,1,0-34.67,0A4.06,4.06,0,0,0,4.06,281.61Z" style="fill:#4389ff"/><g style="clip-path:url(#clip-path)"><path d="M66.17,215.74c3.35-.7,5.24-5.24,4.23-10.14s-4.57-8.3-7.92-7.6" style="fill:none;stroke:#448aff;stroke-linejoin:round;stroke-width:4px"/><path d="M56.49,218.82c3.14-1.36,4.07-6.19,2.08-10.78s-6.16-7.2-9.3-5.84" style="fill:none;stroke:#448aff;stroke-linejoin:round;stroke-width:4px"/><path d="M47.65,223.82c2.8-2,2.72-6.9-.17-11S40,207,37.19,209" style="fill:none;stroke:#448aff;stroke-linejoin:round;stroke-width:4px"/><path d="M40,230.51c2.33-2.51,1.26-7.31-2.4-10.72s-8.52-4.15-10.86-1.64" style="fill:none;stroke:#448aff;stroke-linejoin:round;stroke-width:4px"/><path d="M33.89,238.61c1.78-2.93-.25-7.41-4.53-10s-9.19-2.32-11,.6" style="fill:none;stroke:#448aff;stroke-linejoin:round;stroke-width:4px"/><path d="M29.55,247.79c1.14-3.22-1.75-7.2-6.47-8.87s-9.47-.4-10.61,2.83" style="fill:none;stroke:#448aff;stroke-linejoin:round;stroke-width:4px"/><path d="M27.18,257.67c.46-3.4-3.19-6.69-8.15-7.37s-9.35,1.54-9.81,4.93" style="fill:none;stroke:#448aff;stroke-linejoin:round;stroke-width:4px"/></g><rect x="75.9" y="192.29" width="12.57" height="28.5" style="fill:#fff"/><path d="M206.77,181.78v71.86a71.87,71.87,0,0,1-65.66,71.58c2.1.18,4.22.28,6.37.28h0a71.86,71.86,0,0,0,71.86-71.86V181.78Z" style="fill:#bbdefb"/><path d="M75.61,181.78H219.34a0,0,0,0,1,0,0v71.86a71.86,71.86,0,0,1-71.86,71.86h0a71.86,71.86,0,0,1-71.86-71.86V181.78a0,0,0,0,1,0,0Z" style="fill:none;stroke:#448aff;stroke-linejoin:round;stroke-width:4px"/><path d="M147.48,101.76h0s-64.16,44.58-64.16,80H211.63C211.63,146.34,147.48,101.76,147.48,101.76Z" style="fill:#fff;stroke:#448aff;stroke-linejoin:round;stroke-width:4px"/><path d="M103.25,158.57a2.09,2.09,0,0,1-1.21-.38,2.12,2.12,0,0,1-.53-3c1.95-2.79,4.19-5.69,6.67-8.62a2.13,2.13,0,1,1,3.25,2.75c-2.4,2.82-4.56,5.62-6.43,8.3A2.15,2.15,0,0,1,103.25,158.57Z" style="fill:#bbdefb"/><path d="M118,141.54a2.12,2.12,0,0,1-1.53-3.6,230.85,230.85,0,0,1,20-18.3,2.12,2.12,0,1,1,2.69,3.29,225.38,225.38,0,0,0-19.66,18A2.11,2.11,0,0,1,118,141.54Z" style="fill:#bbdefb"/><rect x="122.88" y="145.1" width="8.17" height="13.78" rx="4.08" style="fill:#00549e"/><rect x="163.91" y="145.1" width="8.17" height="13.78" rx="4.08" style="fill:#00549e"/><path d="M167.64,218.51a33.52,33.52,0,0,1-25.56,54.24,33.16,33.16,0,0,1-5.4.44,33.61,33.61,0,0,1-9.84-1.47,33.53,33.53,0,1,0,40.8-53.21Z" style="fill:#bbdefb"/><circle cx="147.57" cy="245.53" r="33.53" style="fill:none;stroke:#448aff;stroke-linejoin:round;stroke-width:4px"/><line x1="159.98" y1="181.78" x2="159.98" y2="213.11" style="fill:none;stroke:#448aff;stroke-linejoin:round;stroke-width:4px"/><line x1="134.98" y1="213.11" x2="134.98" y2="181.78" style="fill:none;stroke:#448aff;stroke-linejoin:round;stroke-width:4px"/><line x1="147.48" y1="278.97" x2="147.48" y2="325.5" style="fill:none;stroke:#448aff;stroke-linejoin:round;stroke-width:4px"/><path d="M217.56,196.57a67.68,67.68,0,0,1,67.72,67.71H267.15a49.57,49.57,0,0,0-49.59-49.59c-3.42,0-6.2-4.06-6.2-9.06s2.77-9.06,6.2-9.06Z" style="fill:#fff;stroke:#448aff;stroke-linejoin:round;stroke-width:4px"/><g style="clip-path:url(#clip-path-2)"><path d="M227.66,215.74c-3.35-.7-5.25-5.24-4.23-10.14s4.57-8.3,7.92-7.6" style="fill:none;stroke:#448aff;stroke-linejoin:round;stroke-width:4px"/><path d="M237.34,218.82c-3.14-1.36-4.07-6.19-2.08-10.78s6.16-7.2,9.3-5.84" style="fill:none;stroke:#448aff;stroke-linejoin:round;stroke-width:4px"/><path d="M246.18,223.82c-2.8-2-2.72-6.9.17-11s7.49-5.8,10.29-3.82" style="fill:none;stroke:#448aff;stroke-linejoin:round;stroke-width:4px"/><path d="M253.82,230.51c-2.33-2.51-1.26-7.31,2.4-10.72s8.52-4.15,10.85-1.64" style="fill:none;stroke:#448aff;stroke-linejoin:round;stroke-width:4px"/><path d="M259.94,238.61c-1.78-2.93.25-7.41,4.53-10s9.19-2.32,11,.6" style="fill:none;stroke:#448aff;stroke-linejoin:round;stroke-width:4px"/><path d="M264.28,247.79c-1.14-3.22,1.75-7.2,6.47-8.87s9.47-.4,10.61,2.83" style="fill:none;stroke:#448aff;stroke-linejoin:round;stroke-width:4px"/><path d="M266.65,257.67c-.46-3.4,3.19-6.69,8.15-7.37s9.35,1.54,9.81,4.93" style="fill:none;stroke:#448aff;stroke-linejoin:round;stroke-width:4px"/></g><path d="M289.77,281.61a4.07,4.07,0,0,1-4.07-4.06,9.21,9.21,0,1,0-18.41,0,4.07,4.07,0,0,1-8.13,0,17.34,17.34,0,1,1,34.67,0A4.06,4.06,0,0,1,289.77,281.61Z" style="fill:#4389ff"/><path d="M165.85,10.22V38.75c0,12.83-8.91,16.2-25,26.39,2,1.2,4.09,2.49,6.35,3.92,16.2-10.23,25.15-13.58,25.15-26.44V10.38C170,10.38,167.85,10.36,165.85,10.22Z" style="fill:#bbdefb"/><path d="M149.81,4.13c-.86-.65-1.74-1.35-2.66-2.13l-.54.45A29.11,29.11,0,0,0,149.81,4.13Z" style="fill:#bbdefb"/><polygon points="145.62 43.91 135.98 34.52 139.43 31.06 145.62 36.99 157.87 24.49 161.33 27.95 145.62 43.91 145.62 43.91" style="fill:#448aff"/><path d="M147.15,2c-9.42,8-15.32,8.38-25.14,8.38V42.62c0,12.86,9,16.21,25.14,26.44,16.2-10.23,25.15-13.58,25.15-26.44V10.38c-9.82,0-15.73-.37-25.15-8.38Z" style="fill:none;stroke:#448aff;stroke-linejoin:round;stroke-width:4px"/><line x1="147.15" y1="94.21" x2="147.15" y2="94.21" style="fill:none;stroke:#bbdefb;stroke-linecap:round;stroke-miterlimit:10;stroke-width:5px"/><line x1="147.15" y1="85.83" x2="147.15" y2="81.64" style="fill:none;stroke:#bbdefb;stroke-linecap:round;stroke-miterlimit:10;stroke-width:5px;stroke-dasharray:0,8.383017539978027"/><line x1="147.15" y1="77.45" x2="147.15" y2="77.45" style="fill:none;stroke:#bbdefb;stroke-linecap:round;stroke-miterlimit:10;stroke-width:5px"/><path d="M83.84,124a7,7,0,1,1,7-7A7,7,0,0,1,83.84,124Zm0-10.86A3.84,3.84,0,1,0,87.67,117,3.84,3.84,0,0,0,83.84,113.13Z" style="fill:#bbdefb"/><path d="M206.62,75.68a7,7,0,1,1,7-7A7,7,0,0,1,206.62,75.68Zm0-10.85a3.83,3.83,0,1,0,3.83,3.83A3.84,3.84,0,0,0,206.62,64.83Z" style="fill:#bbdefb"/><circle cx="194.57" cy="27.35" r="2.94" style="fill:#4389ff"/><circle cx="217.86" cy="117.16" r="4.17" style="fill:#bbdefb"/><circle cx="108.99" cy="78.72" r="4.17" style="fill:#ffa400"/><path d="M62.28,77.58a1.6,1.6,0,0,1-1.36-.77l-3.21-5.27a1.6,1.6,0,0,1,2.73-1.66l3.2,5.27a1.6,1.6,0,0,1-1.36,2.43Z" style="fill:#4389ff"/><path d="M58.05,76.55a1.61,1.61,0,0,1-1.37-.77,1.59,1.59,0,0,1,.53-2.19l5.27-3.21a1.6,1.6,0,0,1,1.66,2.73l-5.27,3.2A1.53,1.53,0,0,1,58.05,76.55Z" style="fill:#4389ff"/><path d="M86.09,43.68a1.64,1.64,0,0,1-.82-.23,1.6,1.6,0,0,1-.54-2.19l3.56-5.91A1.6,1.6,0,0,1,91,37l-3.57,5.91A1.61,1.61,0,0,1,86.09,43.68Z" style="fill:#bbdefb"/><path d="M90.83,42.51a1.68,1.68,0,0,1-.83-.23l-5.9-3.57A1.59,1.59,0,0,1,85.75,36l5.9,3.56a1.6,1.6,0,0,1-.82,3Z" style="fill:#bbdefb"/><path d="M177.25,102.65a1.6,1.6,0,0,1-.72-3l9.2-4.63a1.59,1.59,0,0,1,1.43,2.85L178,102.48A1.55,1.55,0,0,1,177.25,102.65Z" style="fill:#bce784"/><path d="M184.16,104.94a1.6,1.6,0,0,1-1.42-.88l-4.63-9.2A1.59,1.59,0,0,1,181,93.43l4.63,9.19a1.59,1.59,0,0,1-.71,2.14A1.57,1.57,0,0,1,184.16,104.94Z" style="fill:#bce784"/><path d="M236.38,47.24a1.6,1.6,0,0,1-1.1-.44l-4.47-4.27a1.59,1.59,0,1,1,2.2-2.3l4.47,4.26a1.59,1.59,0,0,1,.06,2.25A1.62,1.62,0,0,1,236.38,47.24Z" style="fill:#99ddc8"/><path d="M232,47.34a1.57,1.57,0,0,1-1.1-.44,1.61,1.61,0,0,1,0-2.26l4.26-4.46a1.6,1.6,0,1,1,2.31,2.2l-4.26,4.47A1.57,1.57,0,0,1,232,47.34Z" style="fill:#99ddc8"/><path d="M110.29,220.35l28.81-12.43a.49.49,0,0,1,.59.17l15.59,22.16a.53.53,0,0,1-.26.8l-4.17,1.35a.53.53,0,0,0-.24.82l12.31,15.49a.52.52,0,0,1-.27.83l-5.33,1.31a.52.52,0,0,0-.27.83l18.11,23a.51.51,0,0,1-.62.78l-40.77-23.54a.52.52,0,0,1,.07-.93l4.91-1.95a.52.52,0,0,0,.1-.9L122.3,236.15a.53.53,0,0,1,.09-.9l3.78-1.66a.53.53,0,0,0,.09-.9L110.2,221.25A.52.52,0,0,1,110.29,220.35Z" style="fill:#00549e"/><path d="M135.6,165.12c1,4.91,7.2,7.76,13.77,6.38s11.06-6.48,10-11.39Z" style="fill:#4389ff"/></svg>
