<svg id="GRAPHICS" xmlns="http://www.w3.org/2000/svg" xmlns:xlink="http://www.w3.org/1999/xlink" viewBox="0 0 297.57 341.84" width="294px"><defs><clipPath id="clip-path"><path id="SVGID" d="M87,324.52c-1-1.2-1.86-2.43-2.74-3.71a65.77,65.77,0,0,1-10.48-49.57c.83-4.5-3.81-9.14-10.38-10.36S50.8,262.3,50,266.8h0A90.26,90.26,0,0,0,64.28,334.5q1.95,2.83,4.09,5.5" style="fill:none"/></clipPath><clipPath id="clip-path-3"><path id="SVGID-3" data-name="SVGID" d="M276.55,217.91q-1.37-1.84-2.85-3.61a65.8,65.8,0,0,0-45-23.24c-4.55-.38-7.8-6.09-7.24-12.74s4.7-11.75,9.26-11.36h0a90.12,90.12,0,0,1,61.48,31.72q2.22,2.63,4.23,5.4" style="fill:none"/></clipPath></defs><path d="M61.15,99.17a7.13,7.13,0,1,1,6.3-7.88A7.14,7.14,0,0,1,61.15,99.17Zm-1.22-11a3.89,3.89,0,1,0,4.3,3.44A3.89,3.89,0,0,0,59.93,88.21Z" style="fill:#bbdefb"/><path d="M186.68,82.86a7.13,7.13,0,1,1,7.83-6.36A7.15,7.15,0,0,1,186.68,82.86Zm1.13-11a3.89,3.89,0,1,0,3.47,4.26A3.88,3.88,0,0,0,187.81,71.9Z" style="fill:#bbdefb"/><circle cx="179.54" cy="32.8" r="2.99" style="fill:#4389ff"/><circle cx="29.04" cy="86.11" r="2.99" style="fill:#4389ff"/><circle cx="156.38" cy="4.23" r="4.23" style="fill:#bbdefb"/><circle cx="20.46" cy="32.65" r="4.23" style="fill:#ffa400"/><path d="M45.92,59.51a1.6,1.6,0,0,1-1.46-.62l-3.83-5a1.62,1.62,0,1,1,2.57-2L47,56.91a1.62,1.62,0,0,1-.29,2.28A1.71,1.71,0,0,1,45.92,59.51Z" style="fill:#4389ff"/><path d="M41.53,59a1.63,1.63,0,0,1-1.17-2.9l5-3.82a1.62,1.62,0,0,1,2,2.57l-5,3.82A1.68,1.68,0,0,1,41.53,59Z" style="fill:#4389ff"/><path d="M54.45,17.88a1.6,1.6,0,0,1-.85-.14,1.61,1.61,0,0,1-.79-2.15l2.93-6.35a1.62,1.62,0,0,1,2.95,1.36L55.75,17A1.61,1.61,0,0,1,54.45,17.88Z" style="fill:#bbdefb"/><path d="M59.1,16.17a1.54,1.54,0,0,1-.86-.14L51.89,13.1a1.62,1.62,0,0,1,1.36-2.94l6.35,2.93a1.62,1.62,0,0,1-.5,3.08Z" style="fill:#bbdefb"/><path d="M154.23,107a1.62,1.62,0,0,1-.42-3.12l9.77-3.72a1.62,1.62,0,1,1,1.15,3L155,106.93A1.48,1.48,0,0,1,154.23,107Z" style="fill:#bce784"/><path d="M161,110.06a1.64,1.64,0,0,1-1.35-1l-3.72-9.76a1.62,1.62,0,1,1,3-1.16l3.71,9.77a1.62,1.62,0,0,1-.93,2.09A1.75,1.75,0,0,1,161,110.06Z" style="fill:#bce784"/><path d="M219.69,57.23a1.61,1.61,0,0,1-1.06-.56l-4.07-4.77A1.62,1.62,0,0,1,217,49.8l4.07,4.77a1.62,1.62,0,0,1-1.4,2.66Z" style="fill:#99ddc8"/><path d="M215.28,56.88a1.62,1.62,0,0,1-.89-2.84L219.16,50a1.62,1.62,0,1,1,2.1,2.46l-4.77,4.07A1.62,1.62,0,0,1,215.28,56.88Z" style="fill:#99ddc8"/><path d="M2,211.06H2a24.2,24.2,0,0,0,11.86,20.81L117.09,293a24,24,0,0,0,24.11.07l70.65-40.71a27,27,0,0,0,13.49-23.34h0" style="fill:#fff;stroke:#448aff;stroke-linejoin:round;stroke-width:4px"/><path d="M6.48,202.48l81.17-46.93a20.58,20.58,0,0,1,20.68,0l112.56,65.72a9,9,0,0,1,0,15.52l-81.11,46.79a21.07,21.07,0,0,1-21.19-.06L6.44,218A9,9,0,0,1,6.48,202.48Z" style="fill:#fff;stroke:#448aff;stroke-linejoin:round;stroke-width:4px"/><path d="M12.14,207l77.61-44.88a18.33,18.33,0,0,1,18.41,0L213.7,223.82a4.37,4.37,0,0,1,0,7.56l-77.57,44.75a18.76,18.76,0,0,1-18.86-.06L12.12,214.58A4.37,4.37,0,0,1,12.14,207Z" style="fill:#fff;stroke:#448aff;stroke-linejoin:round;stroke-width:4px"/><path d="M213.7,223.82,108.16,162.19a18.33,18.33,0,0,0-18.41,0l-.85.5,98.43,57.47a8.62,8.62,0,0,1,0,14.92l-70.58,40.72.54.31a18.76,18.76,0,0,0,18.86.06l77.57-44.75A4.37,4.37,0,0,0,213.7,223.82Z" style="fill:#bbdefb"/><path d="M12.14,207l77.61-44.88a18.33,18.33,0,0,1,18.41,0L213.7,223.82a4.37,4.37,0,0,1,0,7.56l-77.57,44.75a18.76,18.76,0,0,1-18.86-.06L12.12,214.58A4.37,4.37,0,0,1,12.14,207Z" style="fill:none;stroke:#448aff;stroke-linejoin:round;stroke-width:4px"/><line x1="69.88" y1="204.13" x2="112.81" y2="179.34" style="fill:none;stroke:#bce784;stroke-linecap:round;stroke-linejoin:round;stroke-width:5px"/><line x1="47.3" y1="217.17" x2="63.71" y2="207.7" style="fill:none;stroke:#448aff;stroke-linecap:round;stroke-linejoin:round;stroke-width:4px"/><line x1="67.2" y1="213.99" x2="119.9" y2="183.56" style="fill:none;stroke:#448aff;stroke-linecap:round;stroke-linejoin:round;stroke-width:4px"/><line x1="54.39" y1="221.38" x2="61.28" y2="217.4" style="fill:none;stroke:#bce784;stroke-linecap:round;stroke-linejoin:round;stroke-width:5px"/><line x1="82.59" y1="213.07" x2="126.72" y2="187.58" style="fill:none;stroke:#448aff;stroke-linecap:round;stroke-linejoin:round;stroke-width:4px"/><line x1="55.54" y1="228.7" x2="77.97" y2="215.74" style="fill:none;stroke:#448aff;stroke-linecap:round;stroke-linejoin:round;stroke-width:4px"/><line x1="68.02" y1="229.43" x2="133.54" y2="191.6" style="fill:none;stroke:#bce784;stroke-linecap:round;stroke-linejoin:round;stroke-width:5px"/><line x1="86.95" y1="226.46" x2="140.35" y2="195.63" style="fill:none;stroke:#bce784;stroke-linecap:round;stroke-linejoin:round;stroke-width:5px"/><line x1="74.84" y1="233.45" x2="81.81" y2="229.43" style="fill:none;stroke:#448aff;stroke-linecap:round;stroke-linejoin:round;stroke-width:4px"/><line x1="86.95" y1="234.42" x2="147.17" y2="199.65" style="fill:none;stroke:#448aff;stroke-linecap:round;stroke-linejoin:round;stroke-width:4px"/><line x1="106.01" y1="231.39" x2="153.99" y2="203.67" style="fill:none;stroke:#bce784;stroke-linecap:round;stroke-linejoin:round;stroke-width:5px"/><line x1="95.3" y1="237.58" x2="101.48" y2="234.01" style="fill:none;stroke:#448aff;stroke-linecap:round;stroke-linejoin:round;stroke-width:4px"/><line x1="82.81" y1="244.79" x2="89.76" y2="240.78" style="fill:none;stroke:#bce784;stroke-linecap:round;stroke-linejoin:round;stroke-width:5px"/><line x1="123.72" y1="229.11" x2="160.81" y2="207.7" style="fill:none;stroke:#bce784;stroke-linecap:round;stroke-linejoin:round;stroke-width:5px"/><line x1="95.3" y1="245.52" x2="116.2" y2="233.45" style="fill:none;stroke:#448aff;stroke-linecap:round;stroke-linejoin:round;stroke-width:4px"/><line x1="102.11" y1="249.55" x2="167.63" y2="211.72" style="fill:none;stroke:#bce784;stroke-linecap:round;stroke-linejoin:round;stroke-width:5px"/><line x1="115.26" y1="249.93" x2="174.44" y2="215.74" style="fill:none;stroke:#448aff;stroke-linecap:round;stroke-linejoin:round;stroke-width:4px"/><line x1="103.27" y1="256.86" x2="109.55" y2="253.23" style="fill:none;stroke:#448aff;stroke-linecap:round;stroke-linejoin:round;stroke-width:4px"/><line x1="137.92" y1="244.79" x2="181.26" y2="219.77" style="fill:none;stroke:#bce784;stroke-linecap:round;stroke-linejoin:round;stroke-width:5px"/><line x1="128.52" y1="250.22" x2="133.54" y2="247.32" style="fill:none;stroke:#448aff;stroke-linecap:round;stroke-linejoin:round;stroke-width:4px"/><line x1="115.75" y1="257.59" x2="122.57" y2="253.66" style="fill:none;stroke:#bce784;stroke-linecap:round;stroke-linejoin:round;stroke-width:5px"/><polyline points="38.02 213.51 32.14 214.99 32.82 210.36" style="fill:none;stroke:#448aff;stroke-linecap:round;stroke-linejoin:round;stroke-width:4px"/><polyline points="40.38 205.27 46.44 205.01 44.83 209.41" style="fill:none;stroke:#448aff;stroke-linecap:round;stroke-linejoin:round;stroke-width:4px"/><polyline points="130.15 266.8 124.28 268.28 124.95 263.65" style="fill:none;stroke:#448aff;stroke-linecap:round;stroke-linejoin:round;stroke-width:4px"/><polyline points="138.28 256.05 144.34 255.79 142.74 260.19" style="fill:none;stroke:#448aff;stroke-linecap:round;stroke-linejoin:round;stroke-width:4px"/><line x1="132.49" y1="255.23" x2="135.95" y2="267.83" style="fill:none;stroke:#bce784;stroke-linecap:round;stroke-linejoin:round;stroke-width:5px"/><path d="M6.48,158.4l81.17-46.94a20.58,20.58,0,0,1,20.68.05l112.56,65.72a9,9,0,0,1,0,15.52l-81.37,46.94a20.56,20.56,0,0,1-20.68-.06L6.44,173.91A9,9,0,0,1,6.48,158.4Z" style="fill:#fff;stroke:#448aff;stroke-linejoin:round;stroke-width:4px"/><path d="M220.89,177.23,108.33,111.51a20.57,20.57,0,0,0-20.4-.2l.36.2,106.23,62a13.22,13.22,0,0,1-.06,22.87l-75,43.28-.26.15a20.55,20.55,0,0,0,20.3-.15l81.37-46.94A9,9,0,0,0,220.89,177.23Z" style="fill:#bbdefb"/><path d="M6.48,158.4l81.17-46.94a20.58,20.58,0,0,1,20.68.05l112.56,65.72a9,9,0,0,1,0,15.52l-81.37,46.94a20.56,20.56,0,0,1-20.68-.06L6.44,173.91A9,9,0,0,1,6.48,158.4Z" style="fill:none;stroke:#448aff;stroke-linejoin:round;stroke-width:4px"/><path d="M213.5,172.92l7.39,4.31a9,9,0,0,1,0,15.52l-8.8,5.08" style="fill:none;stroke:#448aff;stroke-linejoin:round;stroke-width:4px"/><line x1="14.65" y1="177.34" x2="118.37" y2="117.37" style="fill:#fff;stroke:#448aff;stroke-linecap:round;stroke-linejoin:round;stroke-width:4px"/><polygon points="37.63 178.72 119.74 131.29 146.34 147.1 64.34 194.48 37.63 178.72" style="fill:#fff;stroke:#448aff;stroke-linecap:round;stroke-linejoin:round;stroke-width:4px"/><polygon points="75.24 201.44 110.74 181.14 147.81 203.28 112.42 223.53 75.24 201.44" style="fill:#fff;stroke:#448aff;stroke-linecap:round;stroke-linejoin:round;stroke-width:4px"/><polygon points="121.84 174.52 157.34 154.22 195.18 175.6 159.03 196.61 121.84 174.52" style="fill:#fff;stroke:#448aff;stroke-linecap:round;stroke-linejoin:round;stroke-width:4px"/><circle cx="15.16" cy="165.7" r="0.51" style="fill:none;stroke:#448aff;stroke-linecap:round;stroke-linejoin:round;stroke-width:4px"/><circle cx="23.47" cy="160.44" r="0.51" style="fill:none;stroke:#448aff;stroke-linecap:round;stroke-linejoin:round;stroke-width:4px"/><circle cx="31.47" cy="156.02" r="0.51" style="fill:none;stroke:#448aff;stroke-linecap:round;stroke-linejoin:round;stroke-width:4px"/><line x1="159.29" y1="195.53" x2="157.61" y2="154.69" style="fill:#fff;stroke:#448aff;stroke-linecap:round;stroke-linejoin:round;stroke-width:4px"/><line x1="193.91" y1="176.06" x2="122.1" y2="174.99" style="fill:#fff;stroke:#448aff;stroke-linejoin:round;stroke-width:4px"/><ellipse cx="112.67" cy="175.3" rx="28.91" ry="13.79" style="fill:#fff;stroke:#448aff;stroke-linecap:round;stroke-linejoin:round;stroke-width:4px"/><ellipse cx="112.67" cy="175.11" rx="6.39" ry="3.05" style="fill:#00549e;stroke:#00549e;stroke-linejoin:round;stroke-width:5px"/><line x1="112.67" y1="178.19" x2="112.67" y2="178.19" style="fill:none;stroke:#00549e;stroke-linecap:round;stroke-miterlimit:10;stroke-width:5px"/><line x1="112.67" y1="162.29" x2="112.67" y2="106.6" style="fill:none;stroke:#00549e;stroke-linecap:round;stroke-miterlimit:10;stroke-width:5px;stroke-dasharray:0,15.908963203430176"/><line x1="112.67" y1="98.65" x2="112.67" y2="98.65" style="fill:none;stroke:#00549e;stroke-linecap:round;stroke-miterlimit:10;stroke-width:5px"/><path d="M137.7,21.88a38,38,0,0,1-29,61.44,37.35,37.35,0,0,1-6.12.5,38,38,0,0,1-11.15-1.66A38,38,0,1,0,137.7,21.88Z" style="fill:#bbdefb"/><circle cx="114.97" cy="52.48" r="37.99" style="fill:none;stroke:#448aff;stroke-linejoin:round;stroke-width:4px"/><path d="M72.72,24,105.37,9.88a.57.57,0,0,1,.67.19l17.65,25.11a.59.59,0,0,1-.28.9l-4.73,1.53a.59.59,0,0,0-.27.93l13.94,17.55a.59.59,0,0,1-.3.94l-6,1.49a.59.59,0,0,0-.31.94l20.52,26a.57.57,0,0,1-.7.88L99.33,59.68a.6.6,0,0,1,.07-1.06l5.57-2.2a.6.6,0,0,0,.12-1L86.33,41.86a.6.6,0,0,1,.11-1L90.72,39a.59.59,0,0,0,.1-1L72.62,25A.59.59,0,0,1,72.72,24Z" style="fill:#00549e"/><path d="M67.48,237.46a5.43,5.43,0,0,1-1.08,7.6,12.29,12.29,0,0,0,14.76,19.66,5.42,5.42,0,1,1,6.52,8.67,23.14,23.14,0,1,1-27.79-37A5.42,5.42,0,0,1,67.48,237.46Z" style="fill:#4389ff"/><path d="M85.59,322.73c-.46-.63-.91-1.27-1.36-1.92a65.77,65.77,0,0,1-10.48-49.57c.83-4.5-3.81-9.14-10.38-10.36S50.8,262.3,50,266.8h0A90.26,90.26,0,0,0,64.28,334.5l.8,1.14" style="fill:#fff;stroke:#448aff;stroke-linejoin:round;stroke-width:4px"/><path d="M86.37,323.67c2.5,3.94-.08,10-5.74,13.63s-12.5,3.36-15-.58.3-10.09,6-13.68S83.88,319.74,86.37,323.67Z" style="fill:#bbdefb;stroke:#448aff;stroke-linejoin:round;stroke-width:4px"/><path d="M77.94,329c.46.73,0,1.86-1.06,2.53s-2.32.62-2.78-.11.05-1.87,1.1-2.53S77.48,328.28,77.94,329Z" style="fill:none;stroke:#448aff;stroke-linejoin:round;stroke-width:4px"/><g style="clip-path:url(#clip-path)"><path d="M72.66,284.75c-.1-4.57-5.59-8.17-12.27-8s-12,4-11.92,8.53" style="fill:none;stroke:#448aff;stroke-linejoin:round;stroke-width:4px"/><path d="M74.34,298.2c-1-4.45-7.13-6.86-13.64-5.36s-11,6.32-9.94,10.78" style="fill:none;stroke:#448aff;stroke-linejoin:round;stroke-width:4px"/><path d="M78.73,311c-1.91-4.15-8.38-5.26-14.45-2.47s-9.44,8.42-7.53,12.58" style="fill:none;stroke:#448aff;stroke-linejoin:round;stroke-width:4px"/></g><path d="M67.48,237.46a5.43,5.43,0,0,1-1.08,7.6,12.29,12.29,0,0,0,14.76,19.66,5.42,5.42,0,1,1,6.52,8.67,23.14,23.14,0,1,1-27.79-37A5.42,5.42,0,0,1,67.48,237.46Z" style="fill:#4389ff"/><path d="M85.59,322.73c-.46-.63-.91-1.27-1.36-1.92a65.77,65.77,0,0,1-10.48-49.57c.83-4.5-3.81-9.14-10.38-10.36S50.8,262.3,50,266.8h0A90.26,90.26,0,0,0,64.28,334.5l.8,1.14" style="fill:#fff;stroke:#448aff;stroke-linejoin:round;stroke-width:4px"/><path d="M86.37,323.67c2.5,3.94-.08,10-5.74,13.63s-12.5,3.36-15-.58.3-10.09,6-13.68S83.88,319.74,86.37,323.67Z" style="fill:#bbdefb;stroke:#448aff;stroke-linejoin:round;stroke-width:4px"/><path d="M77.94,329c.46.73,0,1.86-1.06,2.53s-2.32.62-2.78-.11.05-1.87,1.1-2.53S77.48,328.28,77.94,329Z" style="fill:none;stroke:#448aff;stroke-linejoin:round;stroke-width:4px"/><g style="clip-path:url(#clip-path)"><path d="M72.66,284.75c-.1-4.57-5.59-8.17-12.27-8s-12,4-11.92,8.53" style="fill:none;stroke:#448aff;stroke-linejoin:round;stroke-width:4px"/><path d="M74.34,298.2c-1-4.45-7.13-6.86-13.64-5.36s-11,6.32-9.94,10.78" style="fill:none;stroke:#448aff;stroke-linejoin:round;stroke-width:4px"/><path d="M78.73,311c-1.91-4.15-8.38-5.26-14.45-2.47s-9.44,8.42-7.53,12.58" style="fill:none;stroke:#448aff;stroke-linejoin:round;stroke-width:4px"/></g><polygon points="76.05 266.44 89.28 274.28 94.34 271.65 76.05 260.95 76.05 266.44" style="fill:#fff"/><path d="M200,170.34a5.44,5.44,0,0,0,7.08,3,12.29,12.29,0,0,1,9.29,22.76,5.43,5.43,0,1,0,4.09,10.05A23.14,23.14,0,1,0,203,163.27,5.42,5.42,0,0,0,200,170.34Z" style="fill:#4389ff"/><path d="M275.18,216.12c-.48-.62-1-1.22-1.48-1.82a65.8,65.8,0,0,0-45-23.24c-4.55-.38-7.8-6.09-7.24-12.74s4.7-11.75,9.26-11.36h0a90.12,90.12,0,0,1,61.48,31.72l.9,1.07" style="fill:#fff;stroke:#448aff;stroke-linejoin:round;stroke-width:4px"/><path d="M275.89,217.12c3.13,3.45,9.7,2.58,14.66-1.94S297.09,204,294,200.57s-9.81-2.39-14.77,2.13S272.75,213.67,275.89,217.12Z" style="fill:#bbdefb;stroke:#448aff;stroke-linejoin:round;stroke-width:4px"/><path d="M283.27,210.4c.58.64,1.8.48,2.72-.36s1.21-2.07.63-2.71-1.82-.44-2.74.4S282.69,209.76,283.27,210.4Z" style="fill:none;stroke:#448aff;stroke-linejoin:round;stroke-width:4px"/><g style="clip-path:url(#clip-path-3)"><path d="M242,193.59c-4.38-1.31-6.39-7.55-4.49-14s7-10.54,11.38-9.23" style="fill:none;stroke:#448aff;stroke-linejoin:round;stroke-width:4px"/><path d="M254.51,198.77c-4-2.17-4.72-8.69-1.56-14.57s9-8.9,13-6.73" style="fill:none;stroke:#448aff;stroke-linejoin:round;stroke-width:4px"/><path d="M265.72,206.4c-3.5-2.94-2.86-9.47,1.44-14.59s10.62-6.87,14.12-3.93" style="fill:none;stroke:#448aff;stroke-linejoin:round;stroke-width:4px"/></g><path d="M213.5,172.92l7.39,4.31a9,9,0,0,1,0,15.52l-8.8,5.08" style="fill:#bbdefb;stroke:#4389ff;stroke-miterlimit:10;stroke-width:5px"/></svg>
