<svg id="GRAPHICS" xmlns="http://www.w3.org/2000/svg" xmlns:xlink="http://www.w3.org/1999/xlink" viewBox="0 0 538.14 271.28"><defs><clipPath id="clip-path"><path id="SVGID" d="M155,114.2a65.21,65.21,0,0,1,88.76-25.35l-8.49,15.26a47.81,47.81,0,0,0-65,18.58c-1.61,2.88-6.33,3.33-10.54,1s-6.34-6.58-4.73-9.46Z" style="fill:none"/></clipPath><clipPath id="clip-path-2"><path id="SVGID-2" data-name="SVGID" d="M116.47,198.58h-.13c-17.59-1.9-32.78-10.13-41.68-22.6C64,161,63.84,140.4,74.39,127.08a8.08,8.08,0,0,1,12.67,10c-6.08,7.67-5.75,20.34.76,29.46,6.13,8.59,17.44,14.54,30.25,15.92h.11c10.77,1.14,22.54-.43,38.13-5.08a8.08,8.08,0,0,1,4.62,15.49C143.19,198.21,129.48,200,116.47,198.58Z" style="fill:none"/></clipPath></defs><title>Artboard 27</title><polygon points="359.19 55.77 515.04 51.33 501.72 216.06 351.2 196.07 359.19 55.77" style="fill:none;stroke:#bbdefb;stroke-linecap:round;stroke-linejoin:round;stroke-width:4px"/><polygon points="352.42 45.56 527.47 37.56 511.38 228.59 341.76 204.74 352.42 45.56" style="fill:none;stroke:#bbdefb;stroke-linecap:round;stroke-linejoin:round;stroke-width:4px"/><polygon points="527.47 37.56 536.14 44.59 521.07 220.25 511.38 228.59 527.47 37.56" style="fill:none;stroke:#bbdefb;stroke-linecap:round;stroke-linejoin:round;stroke-width:4px"/><polygon points="417.1 215.69 417.1 237.57 453.29 244.96 453.29 222 417.1 215.69" style="fill:none;stroke:#bbdefb;stroke-linecap:round;stroke-linejoin:round;stroke-width:4px"/><polyline points="453.29 232.46 483.64 237.57 458.07 257.69 379.99 241.66 412.72 225.64 417.1 226.37" style="fill:none;stroke:#bbdefb;stroke-linecap:round;stroke-linejoin:round;stroke-width:4px"/><polygon points="379.99 241.66 458.07 257.69 458.07 269.28 379.99 251.55 379.99 241.66" style="fill:none;stroke:#bbdefb;stroke-linecap:round;stroke-linejoin:round;stroke-width:4px"/><polygon points="458.07 269.28 483.64 249.12 483.64 237.57 458.07 257.69 458.07 269.28" style="fill:none;stroke:#bbdefb;stroke-linecap:round;stroke-linejoin:round;stroke-width:4px"/><path d="M360,88.25h0l-15.71-14A8.6,8.6,0,1,0,328.74,72l.12.06A8.6,8.6,0,1,0,335,86l15.38,13.28h0a7.3,7.3,0,0,0,9.62-11Z" style="fill:#fff"/><path d="M463.86,119.82a7.22,7.22,0,0,0,3.87-.39h0l18.95-7.37A8.6,8.6,0,1,0,497.06,101l.13,0a8.6,8.6,0,1,0-15.36-3.06l-19.5,8h0a7.3,7.3,0,0,0,1.53,13.95Z" style="fill:#fff"/><path d="M347.1,131.7a7,7,0,0,0-2.4.32l-19.35,6.9A8.32,8.32,0,1,0,316.08,150h0a8.32,8.32,0,1,0,14.68,6.63,8.38,8.38,0,0,0-.16-3.57l19.35-7.43,0,0a7.3,7.3,0,0,0-2.81-13.93Z" style="fill:#fff"/><path d="M480.1,163a8.31,8.31,0,0,0-3,1.92L461,151.78l0,0a7.31,7.31,0,0,0-10.7,9.36,7.45,7.45,0,0,0,1.48,1.92l15.6,13.36A8.32,8.32,0,1,0,481.62,179h0a8.45,8.45,0,0,0,4.17-.4A8.32,8.32,0,0,0,480.1,163Z" style="fill:#fff"/><path d="M359.82,87l-15.65-14a8.6,8.6,0,1,0-15.6-6.62,8.59,8.59,0,0,1,11.79,9.39,8.36,8.36,0,0,1-.23,1l10.64,9.94,2.67-1.2,3.35-.06Z" style="fill:#bbdefb"/><path d="M481,183.63a8.32,8.32,0,0,1-9.22-13.17l-15.6-13.36a7.29,7.29,0,0,1-2-7.35,6.26,6.26,0,0,0-.8.35,7.3,7.3,0,0,0-3,9.87,7.42,7.42,0,0,0,1.47,1.93l15.6,13.36a8.32,8.32,0,1,0,14.21,8.11Z" style="fill:#bbdefb"/><path d="M421,163.61A43.19,43.19,0,1,0,373.6,94.32c-3.92,4.35-7.33,9.5-8.83,15.23-1,4-1.49,8.33-2.2,12.45a13.66,13.66,0,0,0,11.15,15.78L371.61,150a7.58,7.58,0,0,0,6.19,8.76l31,5.34,3.39-19.72.72.13a13.91,13.91,0,0,0,4.72-27.41l-.72-.13" style="fill:none;stroke:#448aff;stroke-linecap:round;stroke-linejoin:round;stroke-width:4px"/><line x1="377.85" y1="154.06" x2="377.06" y2="158.66" style="fill:#fff;stroke:#448aff;stroke-linecap:round;stroke-linejoin:round;stroke-width:4px"/><line x1="384.45" y1="155.2" x2="383.66" y2="159.79" style="fill:#fff;stroke:#448aff;stroke-linecap:round;stroke-linejoin:round;stroke-width:4px"/><line x1="390.8" y1="156.29" x2="390.01" y2="160.88" style="fill:#fff;stroke:#448aff;stroke-linecap:round;stroke-linejoin:round;stroke-width:4px"/><line x1="397.14" y1="157.38" x2="396.35" y2="161.98" style="fill:#fff;stroke:#448aff;stroke-linecap:round;stroke-linejoin:round;stroke-width:4px"/><path d="M377.44,171.23l.75,6.52a7.59,7.59,0,0,0,8.41,6.66l22.54-2.6a13.87,13.87,0,0,0,12.2-15.38l-1.23-10.69" style="fill:none;stroke:#448aff;stroke-linecap:round;stroke-linejoin:round;stroke-width:4px"/><polyline points="377.98 175.88 377.44 171.23 408.43 167.75 409.5 160.03" style="fill:none;stroke:#448aff;stroke-linecap:round;stroke-linejoin:round;stroke-width:4px"/><line x1="384.1" y1="170.46" x2="384.63" y2="175.11" style="fill:none;stroke:#448aff;stroke-linecap:round;stroke-linejoin:round;stroke-width:4px"/><line x1="390.49" y1="169.72" x2="391.03" y2="174.37" style="fill:none;stroke:#448aff;stroke-linecap:round;stroke-linejoin:round;stroke-width:4px"/><line x1="396.89" y1="168.98" x2="397.43" y2="173.64" style="fill:none;stroke:#448aff;stroke-linecap:round;stroke-linejoin:round;stroke-width:4px"/><line x1="403.29" y1="168.24" x2="403.83" y2="172.9" style="fill:none;stroke:#448aff;stroke-linecap:round;stroke-linejoin:round;stroke-width:4px"/><line x1="403.49" y1="158.47" x2="402.7" y2="163.07" style="fill:#fff;stroke:#448aff;stroke-linecap:round;stroke-linejoin:round;stroke-width:4px"/><circle cx="378.69" cy="124.28" r="5.86" style="fill:#bbdefb;stroke:#448aff;stroke-linecap:round;stroke-linejoin:round;stroke-width:4px"/><line x1="404.63" y1="123.78" x2="412.41" y2="134.79" style="fill:#fff;stroke:#448aff;stroke-linecap:round;stroke-linejoin:round;stroke-width:4px"/><line x1="403.01" y1="133.17" x2="414.02" y2="125.39" style="fill:#fff;stroke:#448aff;stroke-linecap:round;stroke-linejoin:round;stroke-width:4px"/><polygon points="395.78 141.07 390.89 144.53 387.43 139.63 389.03 138.51 391.34 141.78 394.68 139.42 395.78 141.07" style="fill:#fff;stroke:#448aff;stroke-linecap:round;stroke-linejoin:round;stroke-width:4px"/><path d="M328.67,70.8a8.43,8.43,0,0,1-.22-3.85,8.6,8.6,0,1,1,15.72,6.1l15.71,14" style="fill:none;stroke:#448aff;stroke-linecap:round;stroke-linejoin:round;stroke-width:4px"/><circle cx="355.02" cy="92.5" r="7.3" style="fill:#bbdefb;stroke:#448aff;stroke-linecap:round;stroke-linejoin:round;stroke-width:4px"/><path d="M481.55,177.82A8.32,8.32,0,1,0,477,163.7l-16.06-13.11,0,0A7.3,7.3,0,0,0,450.28,160a7.42,7.42,0,0,0,1.47,1.93l15.6,13.36A8.31,8.31,0,1,0,479,174.18" style="fill:none;stroke:#448aff;stroke-linecap:round;stroke-linejoin:round;stroke-width:4px"/><path d="M344.24,130.92l-18.79,5.94a8.59,8.59,0,1,0-14,9.57,8.59,8.59,0,0,1,14.26-4.87,6.6,6.6,0,0,1,.69.71l12.68-3.89.42-2.89,1.75-2.86Z" style="fill:#bbdefb"/><path d="M314.54,148.36a8.6,8.6,0,1,0,15.28,6.88,8.51,8.51,0,0,0,0-3.41l19.7-7.44" style="fill:none;stroke:#448aff;stroke-linecap:round;stroke-linejoin:round;stroke-width:4px"/><circle cx="346.92" cy="137.56" r="7.3" style="fill:#bbdefb;stroke:#448aff;stroke-linecap:round;stroke-linejoin:round;stroke-width:4px"/><path d="M320.45,148a8.59,8.59,0,1,1,4.9-10.48l19.12-6.87" style="fill:none;stroke:#448aff;stroke-linecap:round;stroke-linejoin:round;stroke-width:4px"/><path d="M334.07,73.22A8.48,8.48,0,0,0,329.58,71a8.6,8.6,0,1,0,5.3,13.8L350.27,98" style="fill:none;stroke:#448aff;stroke-linecap:round;stroke-linejoin:round;stroke-width:4px"/><path d="M501.08,102.36a8.31,8.31,0,0,1-15.95,2L466,111.81a7.07,7.07,0,0,1-2.4.39,7.22,7.22,0,0,1-5-2.06,6.38,6.38,0,0,0-.07.87,7.3,7.3,0,0,0,9.68,6.93l19.12-7.49a8.32,8.32,0,1,0,13.84-8.74A4.62,4.62,0,0,1,501.08,102.36Z" style="fill:#bbdefb"/><path d="M496.23,99.11a8.32,8.32,0,1,0-14.6-2.62l-19.11,8h0a7.3,7.3,0,0,0,5.63,13.44l19.12-7.49a8.32,8.32,0,1,0,4.52-10.79" style="fill:none;stroke:#448aff;stroke-linecap:round;stroke-linejoin:round;stroke-width:4px"/><path d="M455.27,94a8.38,8.38,0,1,1,11.08-4.2A8.39,8.39,0,0,1,455.27,94Zm1.56-3.47a4.57,4.57,0,1,0-2.29-6A4.59,4.59,0,0,0,456.83,90.48Z" style="fill:#bbdefb"/><path d="M335.2,189.56a8.38,8.38,0,1,1,9.94-6.45A8.4,8.4,0,0,1,335.2,189.56Zm.79-3.73a4.57,4.57,0,1,0-3.51-5.42A4.58,4.58,0,0,0,336,185.83Z" style="fill:#bbdefb"/><circle cx="459.26" cy="206.44" r="3.51" style="fill:#4389ff"/><circle cx="463.36" cy="49.13" r="3.51" style="fill:#4389ff"/><circle cx="440.17" cy="186.4" r="4.97" style="fill:#bbdefb"/><circle cx="406.68" cy="32.2" r="4.97" style="fill:#ffa400"/><path d="M427.52,71.39a1.91,1.91,0,0,0-.17-1.86l-4.16-6.07a1.91,1.91,0,0,0-3.14,2.16l4.16,6.06a1.9,1.9,0,0,0,2.65.49A2,2,0,0,0,427.52,71.39Z" style="fill:#99ddc8"/><path d="M428.47,66.27a1.91,1.91,0,0,0-2.82-2.35l-6.06,4.16a1.9,1.9,0,0,0,2.15,3.14l6.07-4.16A1.86,1.86,0,0,0,428.47,66.27Z" style="fill:#99ddc8"/><path d="M380.88,68.88a1.8,1.8,0,0,0,.15-1,1.9,1.9,0,0,0-2.12-1.66l-8.16,1A1.9,1.9,0,1,0,371.2,71l8.17-1A1.88,1.88,0,0,0,380.88,68.88Z" style="fill:#bbdefb"/><path d="M377.29,73.46a1.82,1.82,0,0,0,.15-1l-1-8.17a1.9,1.9,0,1,0-3.78.46l1,8.17a1.91,1.91,0,0,0,3.63.55Z" style="fill:#bbdefb"/><path d="M402.6,199.57a1.9,1.9,0,0,0-3.35-1.59l-7.69,9.57a1.9,1.9,0,1,0,3,2.38l7.69-9.57A1.93,1.93,0,0,0,402.6,199.57Z" style="fill:#bce784"/><path d="M403.54,208.2a1.9,1.9,0,0,0-.67-1.89l-9.57-7.68a1.91,1.91,0,0,0-2.39,3l9.58,7.68a1.89,1.89,0,0,0,2.67-.29A1.81,1.81,0,0,0,403.54,208.2Z" style="fill:#bce784"/><path d="M365.18,189.94a1.93,1.93,0,0,0-.24-1.4l-3.87-6.27a1.9,1.9,0,1,0-3.24,2l3.86,6.28a1.91,1.91,0,0,0,2.62.62A1.88,1.88,0,0,0,365.18,189.94Z" style="fill:#4389ff"/><path d="M366.38,184.87a1.9,1.9,0,0,0-2.86-2l-6.27,3.86a1.9,1.9,0,1,0,2,3.24l6.27-3.86A1.87,1.87,0,0,0,366.38,184.87Z" style="fill:#4389ff"/><path d="M155,114.2a65.21,65.21,0,0,1,88.76-25.35l-8.49,15.26a47.81,47.81,0,0,0-65,18.58c-1.61,2.88-6.33,3.33-10.54,1s-6.34-6.58-4.73-9.46Z" style="fill:#fff;stroke:#448aff;stroke-linejoin:round;stroke-width:4px"/><g style="clip-path:url(#clip-path)"><path d="M175.85,114.67c-2.16,2.5-6.87,2-10.52-1.18s-4.86-7.74-2.7-10.23" style="fill:none;stroke:#448aff;stroke-linejoin:round;stroke-width:4px"/><path d="M183,108c-2.62,2-7.12.53-10.06-3.3s-3.18-8.56-.56-10.57" style="fill:none;stroke:#448aff;stroke-linejoin:round;stroke-width:4px"/><path d="M191.33,102.85c-3,1.43-7.09-.94-9.18-5.28s-1.37-9,1.61-10.46" style="fill:none;stroke:#448aff;stroke-linejoin:round;stroke-width:4px"/><path d="M200.54,99.54c-3.2.79-6.74-2.36-7.9-7s.49-9.12,3.7-9.91" style="fill:none;stroke:#448aff;stroke-linejoin:round;stroke-width:4px"/><path d="M210.24,98.18c-3.3.12-6.13-3.68-6.31-8.5s2.34-8.83,5.64-9" style="fill:none;stroke:#448aff;stroke-linejoin:round;stroke-width:4px"/><path d="M220,98.82c-3.25-.55-5.24-4.85-4.44-9.6s4.1-8.17,7.35-7.62" style="fill:none;stroke:#448aff;stroke-linejoin:round;stroke-width:4px"/><path d="M229.44,101.44c-3.08-1.2-4.15-5.81-2.39-10.31s5.67-7.16,8.74-6" style="fill:none;stroke:#448aff;stroke-linejoin:round;stroke-width:4px"/></g><polygon points="254.11 74.2 309.46 4.11 327.44 2 329.66 20.98 274.75 90.5 254.11 74.2" style="fill:#fff;stroke:#448aff;stroke-linejoin:round;stroke-width:4px"/><line x1="327.71" y1="2.22" x2="264.43" y2="82.35" style="fill:#fff;stroke:#448aff;stroke-linejoin:round;stroke-width:4px"/><polygon points="242.56 65.07 286.31 99.62 275.67 103.91 240.41 76.06 242.56 65.07" style="fill:#fff;stroke:#448aff;stroke-linejoin:round;stroke-width:4px"/><polygon points="252.12 85.31 237.65 106.5 246.97 113.86 264.4 95.01 252.12 85.31" style="fill:#fff;stroke:#448aff;stroke-linejoin:round;stroke-width:4px"/><line x1="258.26" y1="90.16" x2="244.86" y2="107.12" style="fill:#fff;stroke:#448aff;stroke-linejoin:round;stroke-width:4px"/><circle cx="240.55" cy="112.59" r="6.97" style="fill:#fff;stroke:#448aff;stroke-linejoin:round;stroke-width:4px"/><path d="M187.07,130.83l-19.71,66.41A69.28,69.28,0,0,1,87,245.37c1.89.74,3.83,1.42,5.81,2h0A69.28,69.28,0,0,0,179,200.69l19.71-66.41Z" style="fill:#bbdefb"/><path d="M43.3,111.7H181.84a0,0,0,0,1,0,0V181a69.27,69.27,0,0,1-69.27,69.27h0A69.27,69.27,0,0,1,43.3,181V111.7a0,0,0,0,1,0,0Z" transform="translate(56.16 -24.55) rotate(16.54)" style="fill:none;stroke:#448aff;stroke-linejoin:round;stroke-width:4px"/><path d="M154.24,40.62h0S82.72,64.22,73,97h0l118.57,35.2h0C201.29,99.42,154.24,40.62,154.24,40.62Z" style="fill:#fff;stroke:#448aff;stroke-linejoin:round;stroke-width:4px"/><path d="M97.78,81a2.12,2.12,0,0,1-1-.69,2,2,0,0,1,.33-2.88c2.57-2,5.44-4.11,8.53-6.13a2,2,0,1,1,2.24,3.43c-3,2-5.75,3.94-8.22,5.9A2,2,0,0,1,97.78,81Z" style="fill:#bbdefb"/><path d="M116.06,69.29a2.05,2.05,0,0,1-.43-3.75,222.71,222.71,0,0,1,23.53-11.42,2,2,0,1,1,1.58,3.78,218.28,218.28,0,0,0-23.09,11.21A2.07,2.07,0,0,1,116.06,69.29Z" style="fill:#bbdefb"/><path d="M157.81,159.08a32.31,32.31,0,0,1-38.5,43.11,33.2,33.2,0,0,1-5.11-1.07,32.36,32.36,0,0,1-8.69-4.06,32.32,32.32,0,1,0,52.3-38Z" style="fill:#bbdefb"/><circle cx="131.86" cy="178.54" r="32.32" style="fill:none;stroke:#448aff;stroke-linejoin:round;stroke-width:4px"/><line x1="160.81" y1="123.03" x2="152.22" y2="151.99" style="fill:none;stroke:#448aff;stroke-linejoin:round;stroke-width:4px"/><line x1="129.11" y1="145.13" x2="137.71" y2="116.17" style="fill:none;stroke:#448aff;stroke-linejoin:round;stroke-width:4px"/><line x1="122.59" y1="209.42" x2="110.29" y2="250.87" style="fill:none;stroke:#448aff;stroke-linejoin:round;stroke-width:4px"/><rect x="133.83" y="79.6" width="7.87" height="13.28" rx="3.94" transform="translate(30.24 -35.64) rotate(16.54)" style="fill:#00549e"/><rect x="171.75" y="90.86" width="7.87" height="13.28" rx="3.94" transform="translate(35.02 -45.97) rotate(16.54)" style="fill:#00549e"/><path d="M147.41,98.54a12.07,12.07,0,0,0,13.42,10.53" style="fill:none;stroke:#448aff;stroke-linecap:round;stroke-linejoin:round;stroke-width:4px"/><path d="M116.47,198.58h-.13c-17.59-1.9-32.78-10.13-41.68-22.6C64,161,63.84,140.4,74.39,127.08a8.08,8.08,0,0,1,12.67,10c-6.08,7.67-5.75,20.34.76,29.46,6.13,8.59,17.44,14.54,30.25,15.92h.11c10.77,1.14,22.54-.43,38.13-5.08a8.08,8.08,0,0,1,4.62,15.49C143.19,198.21,129.48,200,116.47,198.58Z" style="fill:#fff;stroke:#448aff;stroke-linejoin:round;stroke-width:4px"/><path d="M197.75,110.94c-27.79,12.38-42,9.17-65.18,2.36l-22.34,76.11c-8.91,30.36,9.9,44.49,41.06,79.87,45.33-12.93,68.79-14.66,77.7-45l22.33-76.11c-23.19-6.8-36.88-11.78-53.57-37.21Z" style="fill:#fff;stroke:#448aff;stroke-linejoin:round;stroke-width:4px"/><path d="M240.63,144.85c-4.21,14.34-13.73,46.76-20.2,68.82-8.91,30.36-32.37,32.09-77.7,45q-1.48-1.69-2.94-3.31l-.79.22c3.83,4.22,7.93,8.73,12.29,13.68,45.33-12.93,68.79-14.66,77.7-45,8.53-29.06,22.33-76.11,22.33-76.11C247.52,147,244,146,240.63,144.85Z" style="fill:#bbdefb"/><path d="M197.75,110.94c-27.79,12.38-42,9.17-65.18,2.36l-22.34,76.11c-8.91,30.36,9.9,44.49,41.06,79.87,45.33-12.93,68.79-14.66,77.7-45l22.33-76.11c-23.19-6.8-36.88-11.78-53.57-37.21Z" style="fill:none;stroke:#448aff;stroke-linejoin:round;stroke-width:4px"/><circle cx="176.9" cy="196.64" r="35.55" style="fill:none;stroke:#448aff;stroke-linejoin:round;stroke-width:4px"/><g style="clip-path:url(#clip-path-2)"><path d="M84.88,140.64c0-3.3-3.86-6-8.68-6s-8.76,2.61-8.78,5.91" style="fill:none;stroke:#448aff;stroke-linejoin:round;stroke-width:4px"/><path d="M83.13,150.1c-.64-3.23-5-5.1-9.73-4.15s-8,4.33-7.4,7.57" style="fill:none;stroke:#448aff;stroke-linejoin:round;stroke-width:4px"/><path d="M85.26,159.53c-1.29-3-5.94-4-10.38-2.08s-7,5.88-5.7,8.92" style="fill:none;stroke:#448aff;stroke-linejoin:round;stroke-width:4px"/><path d="M90.44,168.27c-1.88-2.71-6.62-2.68-10.58.07s-5.64,7.19-3.76,9.9" style="fill:none;stroke:#448aff;stroke-linejoin:round;stroke-width:4px"/><path d="M97.2,175.12c-2.4-2.27-7-1.27-10.35,2.23s-4.06,8.18-1.66,10.45" style="fill:none;stroke:#448aff;stroke-linejoin:round;stroke-width:4px"/><path d="M106.25,179.37c-2.81-1.73-7.14.19-9.68,4.29s-2.31,8.84.5,10.57" style="fill:none;stroke:#448aff;stroke-linejoin:round;stroke-width:4px"/><path d="M115.46,181.68c-3.11-1.13-7,1.63-8.6,6.17s-.46,9.12,2.64,10.25" style="fill:none;stroke:#448aff;stroke-linejoin:round;stroke-width:4px"/></g><path d="M147.38,160.54l31.34-3.74a.51.51,0,0,1,.52.34L187.92,183a.53.53,0,0,1-.47.7l-4.41.11a.52.52,0,0,0-.46.72L190,203a.54.54,0,0,1-.5.73l-5.52-.27a.52.52,0,0,0-.49.72l10.89,27.33a.51.51,0,0,1-.82.57L161,197.66a.52.52,0,0,1,.32-.88l5.3-.47a.52.52,0,0,0,.36-.84l-12.54-16.26a.53.53,0,0,1,.34-.84l4.13-.52a.53.53,0,0,0,.34-.84L147,161.38A.53.53,0,0,1,147.38,160.54Z" style="fill:#00549e"/><line x1="39.21" y1="145.36" x2="19.75" y2="144.96" style="fill:none;stroke:#bbdefb;stroke-linecap:round;stroke-linejoin:round;stroke-width:4px"/><line x1="22.22" y1="155.8" x2="2" y2="155.39" style="fill:none;stroke:#bbdefb;stroke-linecap:round;stroke-linejoin:round;stroke-width:4px"/><line x1="32.94" y1="167.06" x2="6.89" y2="166.53" style="fill:none;stroke:#bbdefb;stroke-linecap:round;stroke-linejoin:round;stroke-width:4px"/><line x1="36.4" y1="156.09" x2="30.73" y2="155.97" style="fill:none;stroke:#bbdefb;stroke-linecap:round;stroke-linejoin:round;stroke-width:4px"/><line x1="135.53" y1="79.01" x2="143" y2="84.81" style="fill:none;stroke:#00549e;stroke-linecap:round;stroke-linejoin:round;stroke-width:4px"/><line x1="172.75" y1="93.03" x2="180.75" y2="93.79" style="fill:none;stroke:#00549e;stroke-linecap:round;stroke-linejoin:round;stroke-width:4px"/><path d="M260.91,92.62a16.7,16.7,0,0,0-28.25,15.89,8.93,8.93,0,0,1,7.24-4.69A8.87,8.87,0,0,1,255.21,98a3.92,3.92,0,1,0,5.7-5.38Z" style="fill:#4389ff"/></svg>