<svg xmlns="http://www.w3.org/2000/svg" viewBox="0 0 85 85"><defs><radialGradient id="a" cx="42.5" cy="42.5" r="42.5" gradientUnits="userSpaceOnUse"><stop offset="0" stop-color="#4389ff"/><stop offset="1" stop-color="#00549e"/></radialGradient></defs><circle cx="42.5" cy="42.5" r="42.5" fill="url(#a)"/><path d="M22.67 29.42l17.67-7.62a.29.29 0 0 1 .36.1l9.55 13.59a.32.32 0 0 1-.15.49l-2.56.83a.32.32 0 0 0-.15.5l7.55 9.5a.32.32 0 0 1-.16.51l-3.27.8a.33.33 0 0 0-.17.51l11.11 14.08a.31.31 0 0 1-.38.47l-25-14.43a.32.32 0 0 1 0-.57l3-1.19a.32.32 0 0 0 .06-.56L30 39.1a.32.32 0 0 1 .06-.55l2.32-1a.33.33 0 0 0 .05-.56l-9.85-7a.32.32 0 0 1 .09-.57z" fill="none" stroke="#fff" stroke-linecap="round" stroke-miterlimit="10" stroke-width="3"/></svg>
