<svg xmlns="http://www.w3.org/2000/svg" viewBox="0 0 85 85"><defs><radialGradient id="a" cx="42.5" cy="42.5" r="42.5" gradientUnits="userSpaceOnUse"><stop offset="0" stop-color="#4389ff"/><stop offset="1" stop-color="#00549e"/></radialGradient></defs><title>Artboard 30</title><circle cx="42.5" cy="42.5" r="42.5" fill="url(#a)"/><path d="M43.4 55.73H19.1a.79.79 0 0 1-.82-.75V23.25a.79.79 0 0 1 .82-.75h42.09a.79.79 0 0 1 .82.75v10.12M18.28 47.73H43.4" fill="none" stroke="#fff" stroke-linecap="round" stroke-miterlimit="10" stroke-width="3"/><path d="M56 62.5H44.22a.79.79 0 0 1-.82-.75V34.12a.79.79 0 0 1 .82-.75h19a.79.79 0 0 1 .82.75v10.94" fill="none" stroke="#fff" stroke-linecap="round" stroke-miterlimit="10" stroke-width="3"/><rect x="55.99" y="45.06" width="10.73" height="17.44" rx=".78" fill="none" stroke="#fff" stroke-linecap="round" stroke-linejoin="round" stroke-width="3"/><path fill="none" stroke="#fff" stroke-linecap="round" stroke-miterlimit="10" stroke-width="3" d="M35.32 55.73v5.13M43.4 62.5H29.49"/></svg>