<svg xmlns="http://www.w3.org/2000/svg" viewBox="0 0 85 85"><defs><radialGradient id="a" cx="42.5" cy="42.5" r="42.5" gradientUnits="userSpaceOnUse"><stop offset="0" stop-color="#4389ff"/><stop offset="1" stop-color="#00549e"/></radialGradient></defs><title>Artboard 31</title><circle cx="42.5" cy="42.5" r="42.5" fill="url(#a)"/><path d="M61.3 40.65a4.52 4.52 0 0 0-2.81 1V28.79H45.9a4.44 4.44 0 0 0 1-2.76 4.51 4.51 0 1 0-9 0 4.44 4.44 0 0 0 .95 2.76h-13v13a4.51 4.51 0 1 1 0 6.71v13h13.1a4.52 4.52 0 1 1 7 0h12.54V48.67a4.5 4.5 0 1 0 2.81-8z" fill="none" stroke="#fff" stroke-linecap="round" stroke-linejoin="round" stroke-width="3"/></svg>