<svg xmlns="http://www.w3.org/2000/svg" viewBox="0 0 19.36 18.88"><path d="M9.68 0a9.68 9.68 0 0 0-3.06 18.86c.48.09.64-.21.64-.46v-1.8C4.57 17.18 4 15.45 4 15.45A2.57 2.57 0 0 0 2.93 14c-.88-.6.07-.59.07-.59a2 2 0 0 1 1.48 1 2.06 2.06 0 0 0 2.82.8A2 2 0 0 1 7.91 14c-2.15-.29-4.41-1.12-4.41-4.83a3.72 3.72 0 0 1 1-2.59A3.53 3.53 0 0 1 4.59 4s.82-.26 2.67 1a9 9 0 0 1 4.84 0c1.9-1.25 2.66-1 2.66-1a3.49 3.49 0 0 1 .1 2.57 3.71 3.71 0 0 1 1 2.59c0 3.72-2.26 4.54-4.42 4.78a2.3 2.3 0 0 1 .67 1.79v2.67c0 .25.15.56.64.46A9.68 9.68 0 0 0 9.68 0z" fill="#00549e"/></svg>