<svg width="372" height="25" viewBox="0 0 372 25" fill="none" xmlns="http://www.w3.org/2000/svg">
<path d="M6.96368 25V21.4286H3.48184V17.8571H0V7.14286H3.48184V3.57143H6.96368V0H17.4092V3.57143H20.891V7.14286H24.3729V17.8571H20.891V21.4286H17.4092V25H6.96368ZM10.4455 21.4286H17.4092V7.14286H13.9274V3.57143H6.96368V17.8571H10.4455V21.4286Z" fill="white"/>
<path d="M32.4508 25V21.4286H28.9689V14.2857H32.4508V10.7143H28.9689V3.57143H32.4508V0H46.3781V3.57143H49.86V10.7143H46.3781V14.2857H53.3418V21.4286H49.86V25H32.4508ZM39.4144 10.7143H46.3781V3.57143H35.9326V7.14286H39.4144V10.7143ZM32.4508 21.4286H46.3781V17.8571H39.4144V14.2857H32.4508V21.4286Z" fill="white"/>
<path d="M86.9068 25V0H93.8704V3.57143H97.3523V7.14286H100.834V3.57143H104.316V0H111.28V25H104.316V10.7143H100.834V17.8571H97.3523V10.7143H93.8704V25H86.9068Z" fill="white"/>
<path d="M119.358 25V21.4286H115.876V17.8571H119.358V14.2857H133.285V10.7143H119.358V7.14286H136.767V10.7143H140.249V25H119.358ZM122.839 21.4286H133.285V17.8571H122.839V21.4286Z" fill="white"/>
<path d="M155.29 10.7143H158.772V14.2857H155.29V25H148.326V7.14286H155.29V10.7143ZM169.217 7.14286V10.7143H158.772V7.14286H169.217Z" fill="white"/>
<path d="M177.295 25V21.4286H173.814V10.7143H177.295V7.14286H198.186V10.7143H180.777V21.4286H198.186V25H177.295Z" fill="white"/>
<path d="M202.782 25V0H209.746V7.14286H223.673V10.7143H227.155V25H220.192V10.7143H209.746V25H202.782Z" fill="white"/>
<path d="M260.72 25V17.8571H264.202V14.2857H267.684V10.7143H274.648V7.14286H278.129V3.57143H267.684V7.14286H260.72V3.57143H264.202V0H281.611V3.57143H285.093V10.7143H281.611V14.2857H278.129V17.8571H271.166V21.4286H285.093V25H260.72Z" fill="white"/>
<path d="M296.653 25V21.4286H293.171V17.8571H289.689V7.14286H293.171V3.57143H296.653V0H307.098V3.57143H310.58V7.14286H314.062V17.8571H310.58V21.4286H307.098V25H296.653ZM300.135 21.4286H307.098V7.14286H303.617V3.57143H296.653V17.8571H300.135V21.4286Z" fill="white"/>
<path d="M318.658 25V17.8571H322.14V14.2857H325.622V10.7143H332.585V7.14286H336.067V3.57143H325.622V7.14286H318.658V3.57143H322.14V0H339.549V3.57143H343.031V10.7143H339.549V14.2857H336.067V17.8571H329.104V21.4286H343.031V25H318.658Z" fill="white"/>
<path d="M347.627 25V17.8571H351.109V14.2857H354.591V10.7143H361.554V7.14286H365.036V3.57143H354.591V7.14286H347.627V3.57143H351.109V0H368.518V3.57143H372V10.7143H368.518V14.2857H365.036V17.8571H358.073V21.4286H372V25H347.627Z" fill="white"/>
</svg>
