<svg width="184" height="48" viewBox="0 0 184 48" fill="none" xmlns="http://www.w3.org/2000/svg">
<rect width="184" height="48" rx="24" fill="#298AFF"/>
<path d="M20 29.5V19H29V20.5H30.5V25H27.5V26.5H29V28H30.5V29.5H26V28H24.5V26.5H23V29.5H20ZM23 25H26V23.5H27.5V20.5H23V25ZM32 29.5V19H42.5V20.5H35V23.5H41V25H35V28H42.5V29.5H32ZM47 29.5V28H45.5V26.5H44V22H45.5V20.5H47V19H54.5V20.5H48.5V22H47V26.5H48.5V28H51.5V25H50V23.5H54.5V29.5H47ZM57.5 29.5V28H60.5V20.5H57.5V19H66.5V20.5H63.5V28H66.5V29.5H57.5ZM69.5 29.5V28H68V26.5H71V28H75.5V25H69.5V23.5H68V20.5H69.5V19H77V20.5H78.5V22H75.5V20.5H71V23.5H77V25H78.5V28H77V29.5H69.5ZM84.5 29.5V20.5H81.5V19H90.5V20.5H87.5V29.5H84.5ZM92 29.5V19H102.5V20.5H95V23.5H101V25H95V28H102.5V29.5H92ZM104 29.5V19H113V20.5H114.5V25H111.5V26.5H113V28H114.5V29.5H110V28H108.5V26.5H107V29.5H104ZM107 25H110V23.5H111.5V20.5H107V25ZM128 29.5V19H131V20.5H132.5V22H134V23.5H135.5V19H138.5V29.5H135.5V26.5H134V25H132.5V23.5H131V29.5H128ZM141.5 29.5V28H140V20.5H141.5V19H149V20.5H150.5V28H149V29.5H141.5ZM143 28H147.5V20.5H143V28ZM153.5 29.5V28H152V19H155V25H156.5V19H158V25H159.5V19H162.5V28H161V29.5H159.5V28H158V26.5H156.5V28H155V29.5H153.5Z" fill="white"/>
</svg>
