<svg width="972" height="80" viewBox="0 0 972 80" fill="none" xmlns="http://www.w3.org/2000/svg">
<path opacity="0.9" d="M981.618 -54H1.24561V223.621H981.618V-54Z" fill="url(#paint0_linear_390_4352)"/>
<path d="M984 -51.9351H1M492.503 224.553V-52.9766V224.553ZM448.92 -52.9766L307.956 225.931L448.92 -52.9766ZM406.665 -52.9766L124.341 224.553L406.665 -52.9766ZM361.665 -52.9766L1 185.456L361.665 -52.9766ZM1 106.322L315.978 -52.9766L1 106.322ZM270.29 -52.9766L1 57.3919L270.29 -52.9766ZM224.596 -52.9766L1 26.6778L224.596 -52.9766ZM175.449 -52.9766L1 2.21278L175.449 -52.9766ZM138.757 -52.9766L1 -17.5757L138.757 -52.9766ZM102.42 -52.9766L1 -35.271L102.42 -52.9766ZM492.503 -52.9766V224.553V-52.9766ZM676.37 224.553L536.114 -52.9766L676.37 224.553ZM578.335 -52.9766L860.653 224.553L578.335 -52.9766ZM623.335 -52.9766L984 185.456L623.335 -52.9766ZM669.022 -52.9766L984 106.312L669.022 -52.9766ZM984 57.3817L714.71 -52.9766L984 57.3817ZM760.404 -52.9766L984 26.6676L760.404 -52.9766ZM984 2.16173L809.551 -52.9766L984 2.16173ZM846.243 -52.9766L984 -17.5757L846.243 -52.9766ZM882.587 -52.9766L984 -35.271L882.587 -52.9766ZM984 153.302H1H984ZM984 96.438H1H984ZM984 57.3919H1H984ZM984 32.4061H1H984ZM984 10.0138H1H984ZM984 -3.97496H1H984ZM984 -14.2572H1H984ZM984 -24.6008H1H984ZM984 -32.606H1H984ZM984 -39.9272H1H984ZM984 -46.4621H1H984Z" stroke="url(#paint1_linear_390_4352)" stroke-width="1.5" stroke-miterlimit="10"/>
<defs>
<linearGradient id="paint0_linear_390_4352" x1="491.438" y1="223.621" x2="491.438" y2="-54" gradientUnits="userSpaceOnUse">
<stop stop-color="#36427C" stop-opacity="0"/>
<stop offset="0.5" stop-color="#4E5CCE" stop-opacity="0.4"/>
<stop offset="1" stop-color="#FF66A7" stop-opacity="0.7"/>
</linearGradient>
<linearGradient id="paint1_linear_390_4352" x1="492.503" y1="226.391" x2="492.503" y2="-53.7322" gradientUnits="userSpaceOnUse">
<stop stop-color="#4389FF" stop-opacity="0"/>
<stop offset="0.11" stop-color="#4389FF"/>
<stop offset="0.51" stop-color="#4389FF"/>
<stop offset="1" stop-color="#FF66A7" stop-opacity="0"/>
</linearGradient>
</defs>
</svg>
