<svg width="169" height="50" viewBox="0 0 169 50" fill="none" xmlns="http://www.w3.org/2000/svg">
<path opacity="0.6" d="M41.7215 26.687C42.5158 27.0146 43.2461 27.4797 43.8789 28.061L42.7008 29.3775C42.177 28.9481 41.5911 28.6005 40.9631 28.3467C40.378 28.1228 39.7561 28.0104 39.1297 28.0153C38.3129 28.0153 37.6394 28.2043 37.1093 28.5823C36.5791 28.9603 36.314 29.513 36.314 30.2405C36.3009 30.6398 36.395 31.0354 36.5865 31.3862C36.7691 31.6969 37.1048 31.9752 37.5982 32.2388C38.2879 32.5738 39.0059 32.8473 39.7438 33.0561C40.5912 33.3011 41.4132 33.6266 42.1986 34.028C42.8387 34.3662 43.3817 34.8625 43.7758 35.4697C44.1773 36.0823 44.3781 36.8579 44.3781 37.7965C44.3959 38.6502 44.1629 39.4904 43.7081 40.213C43.2355 40.932 42.5657 41.4995 41.7789 41.8476C40.9376 42.2403 39.9421 42.4367 38.7925 42.4367C36.6277 42.4367 34.8566 41.7627 33.4792 40.4148L34.6573 39.0983C35.2393 39.5808 35.8894 39.9748 36.5865 40.2675C37.2807 40.5404 38.0215 40.6755 38.7674 40.6651C39.7344 40.6651 40.5365 40.4266 41.1737 39.9494C41.8108 39.4723 42.1289 38.7797 42.1279 37.8716C42.1446 37.4255 42.043 36.983 41.8334 36.5889C41.5834 36.1991 41.2349 35.8821 40.8232 35.67C40.162 35.3235 39.4654 35.0495 38.7453 34.8527C37.1421 34.3687 35.969 33.786 35.2258 33.1047C34.4826 32.4234 34.1149 31.4986 34.1228 30.3303C34.1118 29.5798 34.3296 28.8437 34.7472 28.22C35.1827 27.5818 35.7882 27.0783 36.4952 26.7665C37.298 26.4065 38.1704 26.228 39.0502 26.2438C39.9606 26.222 40.8669 26.3724 41.7215 26.687V26.687Z" fill="white"/>
<path opacity="0.6" d="M58.0356 26.5178L57.8088 28.3571H53.4719V42.1629H51.3145V28.3557H46.8643V26.5178H58.0356Z" fill="white"/>
<path opacity="0.6" d="M69.6131 42.1615L68.435 38.2325H62.5077L61.3296 42.1615H59.1472L64.1644 26.5178H66.8888L71.8839 42.1629L69.6131 42.1615ZM63.0305 36.4845H67.9123L65.4898 28.31L63.0305 36.4845Z" fill="white"/>
<path opacity="0.6" d="M83.0583 26.6075C83.7722 26.8912 84.4352 27.2891 85.0213 27.7856L83.8432 29.1699C82.8889 28.3982 81.8822 28.0124 80.8229 28.0124C80.2175 27.9955 79.6167 28.1224 79.0699 28.3828C78.5231 28.6431 78.0458 29.0294 77.6773 29.5101C76.8831 30.5095 76.486 32.1141 76.486 34.3241C76.486 36.4741 76.8787 38.0596 77.6641 39.0806C78.0239 39.5721 78.4978 39.9687 79.045 40.2363C79.5923 40.5039 80.1963 40.6344 80.8052 40.6166C81.406 40.6298 82.0026 40.5137 82.5547 40.2764C83.1125 40.015 83.6424 39.6977 84.1362 39.3295L85.2039 40.6917C84.6701 41.2251 84.0373 41.6493 83.341 41.9404C82.5151 42.2874 81.6258 42.4579 80.7301 42.4411C79.5339 42.4595 78.3578 42.1323 77.3431 41.4986C76.3515 40.8693 75.5793 39.946 75.0266 38.7287C74.4739 37.5113 74.1956 36.0426 74.1917 34.3226C74.1917 32.6134 74.4793 31.1491 75.0546 29.9298C75.6299 28.7104 76.4094 27.7905 77.3931 27.1701C78.3778 26.5495 79.5206 26.2264 80.6844 26.2394C81.4913 26.22 82.2952 26.3447 83.0583 26.6075V26.6075Z" fill="white"/>
<path opacity="0.6" d="M91.2209 26.5178V42.1614H89.0635V26.5178H91.2209ZM99.7356 26.5178L93.8083 33.6689L100.167 42.1614H97.5163L91.3343 33.8058L97.2822 26.5178H99.7356Z" fill="white"/>
<path d="M111.678 42.1612V35.4166H106.956V42.1612H103.231V26.4263H106.956V32.5111H111.678V26.4263H115.401V42.1612H111.678Z" fill="white"/>
<path d="M128.231 42.1612L127.414 38.7742H122.826L122.031 42.1612H118.171L122.922 26.4263H127.44L132.185 42.1612H128.231ZM123.462 36.0749H126.777L125.119 29.1271L123.462 36.0749Z" fill="white"/>
<path d="M152.162 26.4263L149.529 42.1612H144.691L142.739 30.1491L140.677 42.1612H135.95L133.361 26.4263H137.085L138.652 39.3456L140.832 26.4263H144.737L146.778 39.3456L148.617 26.4263H152.162Z" fill="white"/>
<path d="M159.019 26.4263V42.1612H155.294V26.4263H159.019ZM168.056 26.4263L163.037 33.4948L168.464 42.1686H164.155L159.137 33.7746L164.132 26.441L168.056 26.4263Z" fill="white"/>
<path d="M8.90698 27.323C9.05424 27.4467 9.18089 27.5601 9.30312 27.6647L16.0094 23.7932L22.6289 27.622C22.7526 27.5174 22.8851 27.4026 23.025 27.2803L16.0094 23.2233L8.90698 27.323Z" fill="white" fill-opacity="0.6"/>
<path d="M25.343 35.4064C25.1823 35.4862 25.0176 35.558 24.8497 35.6214V39.1041L20.4319 41.6517C20.5585 41.6841 20.6454 41.6989 20.6454 41.6989C20.4981 41.8962 20.1314 42.0449 19.8354 42.1407C19.9106 42.2069 20.0107 42.2968 20.13 42.4028L25.3416 39.3927L25.343 35.4064Z" fill="white" fill-opacity="0.6"/>
<path d="M17.1243 49.4154L18.7 48.5053L17.7914 47.8898L17.5513 48.0282C17.4366 48.4987 17.294 48.9619 17.1243 49.4154V49.4154Z" fill="white" fill-opacity="0.6"/>
<path d="M11.3648 41.6989C11.3648 41.6989 11.4517 41.6841 11.5813 41.6503L7.17375 39.1041V35.6759C7.00881 35.6184 6.84388 35.5522 6.68042 35.4771V39.3883L12.0098 42.4661L12.3279 42.1716C12.0157 42.095 11.5327 41.9315 11.3648 41.6989Z" fill="white" fill-opacity="0.6"/>
<path d="M7.15479 25.7238C7.34426 25.9064 7.53128 26.0831 7.71585 26.2539L16.0096 21.4664L24.2136 26.2024C24.3977 26.0315 24.5847 25.8534 24.7732 25.6708L16.0096 20.6108L7.15479 25.7238Z" fill="white" fill-opacity="0.6"/>
<path d="M27.6049 33.3741C27.376 33.6755 27.1302 33.9636 26.8686 34.2371V40.2748L21.2727 43.5028C21.4509 43.6869 21.6261 43.8739 21.7896 44.0595L27.6064 40.7019L27.6049 33.3741Z" fill="white" fill-opacity="0.6"/>
<path d="M6.26094 24.8271L16.1113 19.1398L25.7378 24.6989C25.9719 24.4501 26.2002 24.1983 26.4152 23.9494L16.1069 18L5.57617 24.0834C5.79412 24.3323 6.02385 24.5811 6.26094 24.8271Z" fill="white" fill-opacity="0.6"/>
<path d="M12.5603 46.8103L3.24155 41.4308V28.946C2.90284 28.5793 2.57298 28.1743 2.25342 27.7576V42.0007L12.5161 47.9251C12.5117 47.553 12.5264 47.1809 12.5603 46.8103V46.8103Z" fill="white" fill-opacity="0.6"/>
<path d="M28.9804 28.5557V41.4308L19.6528 46.8162C19.6838 47.1991 19.7029 47.582 19.697 47.9295L29.9671 42.0007V27.2922C29.6578 27.7164 29.3221 28.1537 28.9804 28.5557Z" fill="white" fill-opacity="0.6"/>
<path d="M12.8403 44.7044L12.5281 44.5233L11.4692 44.7678L12.7151 45.4864C12.7696 45.1639 12.8079 44.89 12.8403 44.7044Z" fill="white" fill-opacity="0.6"/>
<path d="M10.8717 43.5675L5.15501 40.2673V34.3842C4.8941 34.1236 4.64826 33.8482 4.4187 33.5596V40.6944L10.3637 44.1271C10.5198 43.9401 10.6935 43.7471 10.8717 43.5675Z" fill="white" fill-opacity="0.6"/>
<path d="M15.0862 49.4081C14.9158 48.9553 14.7731 48.4925 14.6591 48.0223L14.425 47.8868L13.5164 48.5024L15.0862 49.4081Z" fill="white" fill-opacity="0.6"/>
<path d="M19.544 44.4924L19.3511 44.6029C19.3805 44.7663 19.4291 45.0447 19.4792 45.3834L20.6013 44.7369L19.544 44.4924Z" fill="white" fill-opacity="0.6"/>
<path d="M15.6605 34.2313C15.8151 34.5494 15.9727 34.8748 16.1258 35.2091C16.2731 34.8748 16.4366 34.5494 16.5897 34.2313C17.6559 32.0223 18.1919 30.7412 16.8224 30.0328L16.762 29.9872C16.6905 29.8845 16.5953 29.8006 16.4844 29.7427C16.3735 29.6848 16.2502 29.6545 16.1251 29.6545C16 29.6545 15.8767 29.6848 15.7658 29.7427C15.6549 29.8006 15.5597 29.8845 15.4882 29.9872L15.4278 30.0328C14.0583 30.7412 14.5943 32.0238 15.6605 34.2313Z" fill="white"/>
<path d="M30.5104 24.6033C27.3457 29.7795 20.6438 32.23 20.6438 32.23C32.4439 25.2439 32.0007 18.218 32.0007 18.218C27.7669 26.1775 20.6615 30.4805 18.0594 31.8574C17.9003 32.6482 17.4703 33.5377 17.0286 34.4536C16.7988 34.9263 16.5632 35.4167 16.3467 35.9263L16.12 36.452L15.8932 35.9263C15.6752 35.4226 15.4396 34.9322 15.2113 34.4536C14.7946 33.5922 14.3896 32.7513 14.2114 31.9958C11.8552 30.7912 4.39055 26.4691 0.00214441 18.218C0.00214441 18.218 -0.439642 25.2439 11.359 32.23C11.359 32.23 4.66004 29.7795 1.49243 24.6033C1.49243 24.6033 3.74848 31.4318 10.5535 32.9795C10.5535 32.9795 6.26077 32.9236 3.81917 30.3951C3.81917 30.3951 3.67191 33.4361 10.2295 33.8926C10.2295 33.8926 7.00886 34.6745 5.43463 33.2417C5.43463 33.2417 5.51268 34.7864 10.3281 34.9322C10.3281 34.9322 12.4517 34.785 13.8035 35.7274C13.7608 37.4578 14.1643 39.25 14.5678 40.5871C14.4971 40.6357 14.4765 40.9773 12.0806 41.7343C12.0806 41.7711 13.618 42.1451 14.3646 41.4397C14.5369 41.6032 12.6328 42.1274 10.8553 44.3496C10.8774 44.2627 13.188 43.5088 14.8152 42.7828C14.8329 42.7725 13.6121 43.9859 13.3647 47.6026C13.4074 47.5909 14.1201 46.4246 15.2379 45.1286C15.1604 46.7968 15.4568 48.4612 16.1052 50.0001V44.3673V49.9956C16.7268 48.5231 17.0241 46.934 16.977 45.3363C17.9902 46.5468 18.6278 47.5864 18.6676 47.5982C18.4202 43.9815 17.195 42.768 17.2185 42.7783C18.8458 43.5043 21.1563 44.2583 21.1769 44.3452C19.3965 42.1275 17.4821 41.6032 17.65 41.4353C18.3966 42.1363 19.9399 41.7622 19.9326 41.7298C17.5086 40.9641 17.516 40.6224 17.4438 40.5812C17.4438 40.5812 17.4438 40.5812 17.4438 40.5738C17.8503 39.2367 18.2567 37.446 18.2184 35.7142C19.5703 34.7761 21.6806 34.9278 21.6806 34.9278C26.496 34.7806 26.5741 33.2373 26.5741 33.2373C24.9925 34.6672 21.7733 33.8808 21.7733 33.8808C28.3235 33.4243 28.1836 30.3833 28.1836 30.3833C25.742 32.9118 21.4494 32.9678 21.4494 32.9678C28.2543 31.4245 30.5104 24.6033 30.5104 24.6033Z" fill="white"/>
<path d="M2.09961 5.39258H3.15918C3.54655 5.39258 3.89648 5.33724 4.20898 5.22656C4.52148 5.11589 4.78841 4.96126 5.00977 4.7627C5.22786 4.56738 5.39551 4.33464 5.5127 4.06445C5.63314 3.79427 5.69336 3.49967 5.69336 3.18066C5.69336 2.83887 5.63314 2.52799 5.5127 2.24805C5.39551 1.9681 5.22786 1.72721 5.00977 1.52539C4.78841 1.32682 4.52148 1.1722 4.20898 1.06152C3.89648 0.947591 3.54655 0.890625 3.15918 0.890625H0.727539V8H2.09961V5.39258ZM2.09961 4.2793V2.00391H3.15918C3.35449 2.00391 3.52376 2.03483 3.66699 2.09668C3.81022 2.15853 3.93066 2.24316 4.02832 2.35059C4.12272 2.45801 4.19271 2.58333 4.23828 2.72656C4.28711 2.86979 4.31152 3.02441 4.31152 3.19043C4.31152 3.33366 4.28711 3.47201 4.23828 3.60547C4.19271 3.73568 4.12272 3.85124 4.02832 3.95215C3.93066 4.05306 3.81022 4.13281 3.66699 4.19141C3.52376 4.25 3.35449 4.2793 3.15918 4.2793H2.09961Z" fill="white"/>
<path d="M10.4883 2.61914C10.1335 2.61914 9.80632 2.7054 9.50684 2.87793C9.20736 3.0472 8.9502 3.28158 8.73535 3.58105L8.72559 3.46387L8.67188 2.7168H7.40723V8H8.76465V4.82617C8.8265 4.67643 8.90462 4.54622 8.99902 4.43555C9.09342 4.32487 9.20736 4.23372 9.34082 4.16211C9.4515 4.10026 9.57682 4.05469 9.7168 4.02539C9.86003 3.99284 10.0195 3.97656 10.1953 3.97656C10.3646 3.97656 10.542 3.98796 10.7275 4.01074C10.9163 4.03027 11.1003 4.0612 11.2793 4.10352L11.4795 2.75098C11.3721 2.71842 11.2305 2.68913 11.0547 2.66309C10.8822 2.63379 10.6934 2.61914 10.4883 2.61914Z" fill="white"/>
<path d="M15.2637 8.09766C15.7747 8.09766 16.2174 7.99837 16.5918 7.7998C16.9661 7.60124 17.2396 7.37988 17.4121 7.13574L16.7334 6.40332C16.5771 6.60514 16.3737 6.75651 16.123 6.85742C15.8724 6.95833 15.6136 7.00879 15.3467 7.00879C15.1579 7.00879 14.9837 6.97949 14.8242 6.9209C14.6647 6.8623 14.5231 6.7793 14.3994 6.67188C14.279 6.56771 14.1829 6.45215 14.1113 6.3252C14.0397 6.19499 13.9811 6.02409 13.9355 5.8125V5.79785H17.5195V5.22168C17.5195 4.83431 17.4658 4.48112 17.3584 4.16211C17.251 3.83984 17.0947 3.56478 16.8896 3.33691C16.6813 3.10905 16.4274 2.93327 16.1279 2.80957C15.8317 2.68262 15.4932 2.61914 15.1123 2.61914C14.7445 2.61914 14.4043 2.68587 14.0918 2.81934C13.7793 2.9528 13.5091 3.13997 13.2812 3.38086C13.0534 3.62174 12.876 3.90983 12.749 4.24512C12.6221 4.57715 12.5586 4.94499 12.5586 5.34863V5.54395C12.5586 5.89876 12.6221 6.23242 12.749 6.54492C12.8792 6.85417 13.0632 7.12272 13.3008 7.35059C13.5384 7.58171 13.8232 7.764 14.1553 7.89746C14.4873 8.03092 14.8568 8.09766 15.2637 8.09766ZM15.1025 3.71777C15.2751 3.71777 15.4264 3.74544 15.5566 3.80078C15.6901 3.85286 15.8024 3.92448 15.8936 4.01562C15.9847 4.11003 16.0563 4.2207 16.1084 4.34766C16.1605 4.47461 16.1865 4.6097 16.1865 4.75293V4.86035H13.96C13.9925 4.68783 14.0413 4.53158 14.1064 4.3916C14.1715 4.25163 14.2529 4.13118 14.3506 4.03027C14.445 3.92936 14.5557 3.85286 14.6826 3.80078C14.8096 3.74544 14.9495 3.71777 15.1025 3.71777Z" fill="white"/>
<path d="M22.1143 6.5498C22.1143 6.63118 22.0931 6.70605 22.0508 6.77441C22.0117 6.84277 21.9515 6.90299 21.8701 6.95508C21.7855 7.00716 21.6764 7.04948 21.543 7.08203C21.4128 7.11133 21.2598 7.12598 21.084 7.12598C20.9375 7.12598 20.7943 7.11133 20.6543 7.08203C20.5176 7.05273 20.3955 7.00553 20.2881 6.94043C20.1807 6.87858 20.0928 6.7972 20.0244 6.69629C19.9561 6.59212 19.917 6.46842 19.9072 6.3252H18.6133C18.6133 6.54004 18.6654 6.75488 18.7695 6.96973C18.877 7.18132 19.0332 7.37012 19.2383 7.53613C19.4434 7.7054 19.6973 7.84212 20 7.94629C20.306 8.05046 20.6576 8.10254 21.0547 8.10254C21.416 8.10254 21.7432 8.06348 22.0361 7.98535C22.3291 7.90397 22.5798 7.79167 22.7881 7.64844C22.9932 7.50521 23.151 7.33594 23.2617 7.14062C23.3757 6.94206 23.4326 6.72559 23.4326 6.49121C23.4326 6.2373 23.3757 6.01921 23.2617 5.83691C23.151 5.65137 22.9964 5.49349 22.7979 5.36328C22.5993 5.23633 22.3633 5.13216 22.0898 5.05078C21.8164 4.9694 21.5202 4.90267 21.2012 4.85059C20.9798 4.81803 20.7975 4.7806 20.6543 4.73828C20.5111 4.69271 20.3988 4.64225 20.3174 4.58691C20.2327 4.53483 20.1742 4.47624 20.1416 4.41113C20.109 4.34277 20.0928 4.26953 20.0928 4.19141C20.0928 4.11328 20.1107 4.04004 20.1465 3.97168C20.1855 3.90007 20.2409 3.83822 20.3125 3.78613C20.3906 3.72754 20.4915 3.68197 20.6152 3.64941C20.7389 3.61686 20.8838 3.60059 21.0498 3.60059C21.2451 3.60059 21.4111 3.625 21.5479 3.67383C21.6878 3.72266 21.7985 3.78776 21.8799 3.86914C21.9385 3.93099 21.9824 4.00098 22.0117 4.0791C22.041 4.15397 22.0557 4.23535 22.0557 4.32324H23.4131C23.4131 4.0791 23.3594 3.85286 23.252 3.64453C23.1445 3.4362 22.9899 3.25553 22.7881 3.10254C22.583 2.9528 22.334 2.83561 22.041 2.75098C21.748 2.66309 21.4176 2.61914 21.0498 2.61914C20.6982 2.61914 20.3825 2.66309 20.1025 2.75098C19.8226 2.83887 19.585 2.95768 19.3896 3.10742C19.1943 3.25716 19.0446 3.43132 18.9404 3.62988C18.8363 3.82845 18.7842 4.03678 18.7842 4.25488C18.7842 4.47949 18.8346 4.67806 18.9355 4.85059C19.0397 5.02311 19.1829 5.17448 19.3652 5.30469C19.5475 5.43815 19.7656 5.55208 20.0195 5.64648C20.2767 5.73763 20.5599 5.81413 20.8691 5.87598C21.1133 5.92155 21.3151 5.96712 21.4746 6.0127C21.6341 6.05827 21.7627 6.1071 21.8604 6.15918C21.9548 6.21452 22.0199 6.27311 22.0557 6.33496C22.0947 6.39681 22.1143 6.46842 22.1143 6.5498Z" fill="white"/>
<path d="M27.2754 8.09766C27.7865 8.09766 28.2292 7.99837 28.6035 7.7998C28.9779 7.60124 29.2513 7.37988 29.4238 7.13574L28.7451 6.40332C28.5889 6.60514 28.3854 6.75651 28.1348 6.85742C27.8841 6.95833 27.6253 7.00879 27.3584 7.00879C27.1696 7.00879 26.9954 6.97949 26.8359 6.9209C26.6764 6.8623 26.5348 6.7793 26.4111 6.67188C26.2907 6.56771 26.1947 6.45215 26.123 6.3252C26.0514 6.19499 25.9928 6.02409 25.9473 5.8125V5.79785H29.5312V5.22168C29.5312 4.83431 29.4775 4.48112 29.3701 4.16211C29.2627 3.83984 29.1064 3.56478 28.9014 3.33691C28.693 3.10905 28.4391 2.93327 28.1396 2.80957C27.8434 2.68262 27.5049 2.61914 27.124 2.61914C26.7562 2.61914 26.416 2.68587 26.1035 2.81934C25.791 2.9528 25.5208 3.13997 25.293 3.38086C25.0651 3.62174 24.8877 3.90983 24.7607 4.24512C24.6338 4.57715 24.5703 4.94499 24.5703 5.34863V5.54395C24.5703 5.89876 24.6338 6.23242 24.7607 6.54492C24.891 6.85417 25.0749 7.12272 25.3125 7.35059C25.5501 7.58171 25.835 7.764 26.167 7.89746C26.499 8.03092 26.8685 8.09766 27.2754 8.09766ZM27.1143 3.71777C27.2868 3.71777 27.4382 3.74544 27.5684 3.80078C27.7018 3.85286 27.8141 3.92448 27.9053 4.01562C27.9964 4.11003 28.068 4.2207 28.1201 4.34766C28.1722 4.47461 28.1982 4.6097 28.1982 4.75293V4.86035H25.9717C26.0042 4.68783 26.0531 4.53158 26.1182 4.3916C26.1833 4.25163 26.2646 4.13118 26.3623 4.03027C26.4567 3.92936 26.5674 3.85286 26.6943 3.80078C26.8213 3.74544 26.9613 3.71777 27.1143 3.71777Z" fill="white"/>
<path d="M30.7178 8H32.0801V4.24512C32.1257 4.1735 32.1761 4.1084 32.2314 4.0498C32.2868 3.99121 32.3486 3.94076 32.417 3.89844C32.5016 3.83984 32.5977 3.7959 32.7051 3.7666C32.8158 3.7373 32.9362 3.72266 33.0664 3.72266C33.2227 3.72266 33.3626 3.73893 33.4863 3.77148C33.61 3.80078 33.7158 3.85449 33.8037 3.93262C33.8916 4.01074 33.9583 4.11816 34.0039 4.25488C34.0527 4.38835 34.0771 4.55924 34.0771 4.76758V8H35.4346V4.74805C35.4346 4.36393 35.389 4.03841 35.2979 3.77148C35.21 3.5013 35.0863 3.27995 34.9268 3.10742C34.764 2.93815 34.5719 2.81445 34.3506 2.73633C34.1292 2.6582 33.8851 2.61914 33.6182 2.61914C33.4098 2.61914 33.2129 2.64844 33.0273 2.70703C32.8418 2.76562 32.6709 2.85026 32.5146 2.96094C32.4235 3.02604 32.3372 3.09928 32.2559 3.18066C32.1745 3.26204 32.0996 3.35156 32.0312 3.44922L31.9482 2.7168H30.7178V8Z" fill="white"/>
<path d="M39.2139 1.42285H37.8564V2.7168H36.6504V3.71777H37.8564V6.12012C37.8564 6.46842 37.902 6.7679 37.9932 7.01855C38.0843 7.26595 38.2145 7.4694 38.3838 7.62891C38.5498 7.79167 38.75 7.91211 38.9844 7.99023C39.222 8.0651 39.4857 8.10254 39.7754 8.10254C39.9251 8.10254 40.0765 8.0944 40.2295 8.07812C40.3857 8.0651 40.5355 8.04557 40.6787 8.01953C40.8219 7.99349 40.957 7.96094 41.084 7.92188C41.2109 7.87956 41.3216 7.83073 41.416 7.77539L41.2842 6.84277C41.2223 6.85905 41.1475 6.87533 41.0596 6.8916C40.9749 6.90788 40.8838 6.92253 40.7861 6.93555C40.6852 6.95182 40.5794 6.96484 40.4688 6.97461C40.3613 6.98438 40.2555 6.98926 40.1514 6.98926C40.0081 6.98926 39.8779 6.97298 39.7607 6.94043C39.6468 6.90788 39.5492 6.85254 39.4678 6.77441C39.3864 6.69954 39.3229 6.59863 39.2773 6.47168C39.235 6.34147 39.2139 6.18034 39.2139 5.98828V3.71777H41.1865V2.7168H39.2139V1.42285Z" fill="white"/>
<path d="M45.293 8.09766C45.804 8.09766 46.2467 7.99837 46.6211 7.7998C46.9954 7.60124 47.2689 7.37988 47.4414 7.13574L46.7627 6.40332C46.6064 6.60514 46.403 6.75651 46.1523 6.85742C45.9017 6.95833 45.6429 7.00879 45.376 7.00879C45.1872 7.00879 45.013 6.97949 44.8535 6.9209C44.694 6.8623 44.5524 6.7793 44.4287 6.67188C44.3083 6.56771 44.2122 6.45215 44.1406 6.3252C44.069 6.19499 44.0104 6.02409 43.9648 5.8125V5.79785H47.5488V5.22168C47.5488 4.83431 47.4951 4.48112 47.3877 4.16211C47.2803 3.83984 47.124 3.56478 46.9189 3.33691C46.7106 3.10905 46.4567 2.93327 46.1572 2.80957C45.861 2.68262 45.5225 2.61914 45.1416 2.61914C44.7738 2.61914 44.4336 2.68587 44.1211 2.81934C43.8086 2.9528 43.5384 3.13997 43.3105 3.38086C43.0827 3.62174 42.9053 3.90983 42.7783 4.24512C42.6514 4.57715 42.5879 4.94499 42.5879 5.34863V5.54395C42.5879 5.89876 42.6514 6.23242 42.7783 6.54492C42.9085 6.85417 43.0924 7.12272 43.3301 7.35059C43.5677 7.58171 43.8525 7.764 44.1846 7.89746C44.5166 8.03092 44.8861 8.09766 45.293 8.09766ZM45.1318 3.71777C45.3044 3.71777 45.4557 3.74544 45.5859 3.80078C45.7194 3.85286 45.8317 3.92448 45.9229 4.01562C46.014 4.11003 46.0856 4.2207 46.1377 4.34766C46.1898 4.47461 46.2158 4.6097 46.2158 4.75293V4.86035H43.9893C44.0218 4.68783 44.0706 4.53158 44.1357 4.3916C44.2008 4.25163 44.2822 4.13118 44.3799 4.03027C44.4743 3.92936 44.585 3.85286 44.7119 3.80078C44.8389 3.74544 44.9788 3.71777 45.1318 3.71777Z" fill="white"/>
<path d="M48.5938 5.31934V5.42188C48.5938 5.80599 48.641 6.16243 48.7354 6.49121C48.8298 6.81673 48.9665 7.09831 49.1455 7.33594C49.3213 7.57357 49.5361 7.76074 49.79 7.89746C50.0472 8.03092 50.3369 8.09766 50.6592 8.09766C50.9554 8.09766 51.2158 8.04069 51.4404 7.92676C51.665 7.81283 51.8604 7.65332 52.0264 7.44824L52.0947 8H53.3203V0.5H51.958V3.19043C51.7952 3.00814 51.6081 2.86816 51.3965 2.77051C51.1882 2.6696 50.9456 2.61914 50.6689 2.61914C50.3402 2.61914 50.0472 2.68424 49.79 2.81445C49.5361 2.94466 49.3197 3.12858 49.1406 3.36621C48.9616 3.60384 48.8249 3.88867 48.7305 4.2207C48.6393 4.55273 48.5938 4.91895 48.5938 5.31934ZM49.9512 5.42188V5.31934C49.9512 5.09798 49.9707 4.89128 50.0098 4.69922C50.0488 4.50391 50.1107 4.33301 50.1953 4.18652C50.2799 4.04329 50.389 3.93099 50.5225 3.84961C50.6592 3.76497 50.8236 3.72266 51.0156 3.72266C51.2467 3.72266 51.4388 3.77311 51.5918 3.87402C51.7448 3.97168 51.8669 4.11003 51.958 4.28906V6.42773C51.8669 6.60352 51.7432 6.74186 51.5869 6.84277C51.4339 6.94368 51.2402 6.99414 51.0059 6.99414C50.8138 6.99414 50.651 6.95345 50.5176 6.87207C50.3841 6.79069 50.2751 6.67839 50.1904 6.53516C50.1058 6.39518 50.0439 6.23079 50.0049 6.04199C49.9691 5.84993 49.9512 5.64323 49.9512 5.42188Z" fill="white"/>
<path d="M65.5078 5.41211V5.30957C65.5078 4.99056 65.4785 4.69108 65.4199 4.41113C65.3646 4.13118 65.2783 3.87891 65.1611 3.6543C65.0863 3.51432 65 3.38574 64.9023 3.26855C64.8047 3.14811 64.6956 3.04557 64.5752 2.96094C64.4255 2.85026 64.2546 2.76562 64.0625 2.70703C63.8737 2.64844 63.6654 2.61914 63.4375 2.61914C63.2715 2.61914 63.1169 2.63704 62.9736 2.67285C62.8337 2.7054 62.7035 2.75586 62.583 2.82422C62.4984 2.86979 62.4186 2.92513 62.3438 2.99023C62.2689 3.05208 62.1989 3.12044 62.1338 3.19531V0.5H60.7764V8H61.9971L62.0605 7.43848C62.1159 7.51009 62.1745 7.57682 62.2363 7.63867C62.2982 7.69727 62.3649 7.75098 62.4365 7.7998C62.57 7.89746 62.7197 7.9707 62.8857 8.01953C63.055 8.07161 63.2422 8.09766 63.4473 8.09766C63.6719 8.09766 63.877 8.06836 64.0625 8.00977C64.2513 7.95443 64.4206 7.87305 64.5703 7.76562C64.7363 7.65169 64.8796 7.50846 65 7.33594C65.1237 7.16341 65.223 6.97135 65.2979 6.75977C65.3662 6.56771 65.4183 6.35938 65.4541 6.13477C65.4899 5.9069 65.5078 5.66602 65.5078 5.41211ZM64.1504 5.30957V5.41211C64.1504 5.54883 64.1439 5.68066 64.1309 5.80762C64.1211 5.93457 64.1032 6.05176 64.0771 6.15918C64.0446 6.30566 63.9958 6.4375 63.9307 6.55469C63.8688 6.66862 63.7874 6.76139 63.6865 6.83301C63.6149 6.88509 63.5303 6.92578 63.4326 6.95508C63.335 6.98438 63.2259 6.99902 63.1055 6.99902C62.9655 6.99902 62.8402 6.98275 62.7295 6.9502C62.6221 6.91764 62.5277 6.87044 62.4463 6.80859C62.3779 6.75977 62.3177 6.7028 62.2656 6.6377C62.2168 6.56934 62.1729 6.49447 62.1338 6.41309V4.30859C62.1631 4.24674 62.1956 4.18978 62.2314 4.1377C62.2673 4.08236 62.3063 4.03353 62.3486 3.99121C62.4365 3.90332 62.5423 3.83659 62.666 3.79102C62.7897 3.74544 62.9329 3.72266 63.0957 3.72266C63.2161 3.72266 63.3236 3.7373 63.418 3.7666C63.5124 3.79264 63.597 3.83333 63.6719 3.88867C63.7858 3.97656 63.8704 4.07422 63.9258 4.18164C63.9844 4.28581 64.0316 4.40462 64.0674 4.53809C64.0967 4.65202 64.1178 4.77409 64.1309 4.9043C64.1439 5.03451 64.1504 5.1696 64.1504 5.30957Z" fill="white"/>
<path d="M67.5879 10.1338C67.8613 10.1338 68.0973 10.0882 68.2959 9.99707C68.4977 9.90592 68.6686 9.79362 68.8086 9.66016C68.9486 9.52669 69.0641 9.38184 69.1553 9.22559C69.2497 9.06934 69.3262 8.92448 69.3848 8.79102L72.0654 2.7168H70.5664L69.3604 5.82227L69.1602 6.34961L69.0137 5.8125L67.8027 2.7168H66.3184L68.5547 7.77539L68.2422 8.35645C68.2031 8.42806 68.1689 8.4834 68.1396 8.52246C68.1136 8.56152 68.0713 8.62012 68.0127 8.69824C67.9541 8.77637 67.8825 8.84798 67.7979 8.91309C67.7165 8.98145 67.6221 9.01562 67.5146 9.01562C67.4626 9.01562 67.3926 9.01237 67.3047 9.00586C67.2201 9.0026 67.1501 9.00098 67.0947 9.00098L66.9287 10.0361C67.0459 10.0687 67.1517 10.0931 67.2461 10.1094C67.3438 10.1257 67.4577 10.1338 67.5879 10.1338Z" fill="white"/>
</svg>
