<svg width="710" height="80" viewBox="0 0 710 80" fill="none" xmlns="http://www.w3.org/2000/svg">
<path d="M4.29662 29.8688C4.62467 29.8688 4.8906 29.5362 4.8906 29.1258C4.8906 28.7155 4.62467 28.3828 4.29662 28.3828C3.96857 28.3828 3.70264 28.7155 3.70264 29.1258C3.70264 29.5362 3.96857 29.8688 4.29662 29.8688Z" fill="white"/>
<path d="M102.234 42.2282C102.562 42.2282 102.828 41.8956 102.828 41.4852C102.828 41.0748 102.562 40.7422 102.234 40.7422C101.906 40.7422 101.64 41.0748 101.64 41.4852C101.64 41.8956 101.906 42.2282 102.234 42.2282Z" fill="white"/>
<path d="M234.477 35.7757C234.859 35.7757 235.168 35.3891 235.168 34.9123C235.168 34.4354 234.859 34.0488 234.477 34.0488C234.096 34.0488 233.787 34.4354 233.787 34.9123C233.787 35.3891 234.096 35.7757 234.477 35.7757Z" fill="white"/>
<path d="M290.125 35.7757C290.506 35.7757 290.815 35.3891 290.815 34.9123C290.815 34.4354 290.506 34.0488 290.125 34.0488C289.744 34.0488 289.435 34.4354 289.435 34.9123C289.435 35.3891 289.744 35.7757 290.125 35.7757Z" fill="white"/>
<path d="M81.8025 46.2585C82.311 46.2585 82.7232 45.7429 82.7232 45.1068C82.7232 44.4707 82.311 43.9551 81.8025 43.9551C81.294 43.9551 80.8818 44.4707 80.8818 45.1068C80.8818 45.7429 81.294 46.2585 81.8025 46.2585Z" fill="white"/>
<path d="M105.931 20.196C106.439 20.196 106.852 19.6804 106.852 19.0443C106.852 18.4082 106.439 17.8926 105.931 17.8926C105.422 17.8926 105.01 18.4082 105.01 19.0443C105.01 19.6804 105.422 20.196 105.931 20.196Z" fill="white"/>
<path d="M209.253 13.5866C209.762 13.5866 210.174 13.071 210.174 12.4349C210.174 11.7988 209.762 11.2832 209.253 11.2832C208.745 11.2832 208.333 11.7988 208.333 12.4349C208.333 13.071 208.745 13.5866 209.253 13.5866Z" fill="white"/>
<path d="M294.467 63.862C294.976 63.862 295.388 63.3464 295.388 62.7103C295.388 62.0742 294.976 61.5586 294.467 61.5586C293.959 61.5586 293.546 62.0742 293.546 62.7103C293.546 63.3464 293.959 63.862 294.467 63.862Z" fill="white"/>
<path d="M326.082 2.80732C326.591 2.80732 327.003 2.29168 327.003 1.65561C327.003 1.01954 326.591 0.503906 326.082 0.503906C325.574 0.503906 325.162 1.01954 325.162 1.65561C325.162 2.29168 325.574 2.80732 326.082 2.80732Z" fill="white"/>
<path d="M52.1839 57.3561C52.6924 57.3561 53.1046 56.8405 53.1046 56.2044C53.1046 55.5684 52.6924 55.0527 52.1839 55.0527C51.6754 55.0527 51.2632 55.5684 51.2632 56.2044C51.2632 56.8405 51.6754 57.3561 52.1839 57.3561Z" fill="white"/>
<path d="M74.3568 38.9896C74.6111 38.9896 74.8172 38.7318 74.8172 38.4137C74.8172 38.0957 74.6111 37.8379 74.3568 37.8379C74.1026 37.8379 73.8965 38.0957 73.8965 38.4137C73.8965 38.7318 74.1026 38.9896 74.3568 38.9896Z" fill="white"/>
<path d="M0.46035 37.9642C0.714595 37.9642 0.920701 37.7064 0.920701 37.3884C0.920701 37.0703 0.714595 36.8125 0.46035 36.8125C0.206106 36.8125 0 37.0703 0 37.3884C0 37.7064 0.206106 37.9642 0.46035 37.9642Z" fill="white"/>
<path d="M24.5971 47.7318C24.8513 47.7318 25.0574 47.474 25.0574 47.1559C25.0574 46.8379 24.8513 46.5801 24.5971 46.5801C24.3428 46.5801 24.1367 46.8379 24.1367 47.1559C24.1367 47.474 24.3428 47.7318 24.5971 47.7318Z" fill="white"/>
<path d="M1.27871 80.9837C1.53295 80.9837 1.73906 80.7259 1.73906 80.4079C1.73906 80.0898 1.53295 79.832 1.27871 79.832C1.02447 79.832 0.818359 80.0898 0.818359 80.4079C0.818359 80.7259 1.02447 80.9837 1.27871 80.9837Z" fill="white"/>
<path d="M124.541 66.3568C124.795 66.3568 125.001 66.099 125.001 65.7809C125.001 65.4629 124.795 65.2051 124.541 65.2051C124.287 65.2051 124.081 65.4629 124.081 65.7809C124.081 66.099 124.287 66.3568 124.541 66.3568Z" fill="white"/>
<path d="M171.504 26.0521C171.758 26.0521 171.964 25.7943 171.964 25.4762C171.964 25.1582 171.758 24.9004 171.504 24.9004C171.25 24.9004 171.043 25.1582 171.043 25.4762C171.043 25.7943 171.25 26.0521 171.504 26.0521Z" fill="white"/>
<path d="M188.795 12.1498C189.05 12.1498 189.256 11.8919 189.256 11.5739C189.256 11.2559 189.05 10.998 188.795 10.998C188.541 10.998 188.335 11.2559 188.335 11.5739C188.335 11.8919 188.541 12.1498 188.795 12.1498Z" fill="white"/>
<path d="M210.073 24.0052C210.327 24.0052 210.533 23.7474 210.533 23.4294C210.533 23.1113 210.327 22.8535 210.073 22.8535C209.818 22.8535 209.612 23.1113 209.612 23.4294C209.612 23.7474 209.818 24.0052 210.073 24.0052Z" fill="white"/>
<path d="M244.443 0.778659C244.697 0.778659 244.903 0.52084 244.903 0.202806C244.903 -0.115229 244.697 -0.373047 244.443 -0.373047C244.189 -0.373047 243.982 -0.115229 243.982 0.202806C243.982 0.52084 244.189 0.778659 244.443 0.778659Z" fill="white"/>
<path d="M258.724 26.0521C258.978 26.0521 259.184 25.7943 259.184 25.4762C259.184 25.1582 258.978 24.9004 258.724 24.9004C258.47 24.9004 258.264 25.1582 258.264 25.4762C258.264 25.7943 258.47 26.0521 258.724 26.0521Z" fill="white"/>
<path d="M288.897 3.87827C289.151 3.87827 289.357 3.62045 289.357 3.30242C289.357 2.98438 289.151 2.72656 288.897 2.72656C288.643 2.72656 288.437 2.98438 288.437 3.30242C288.437 3.62045 288.643 3.87827 288.897 3.87827Z" fill="white"/>
<path d="M164.798 54.7318C165.052 54.7318 165.259 54.474 165.259 54.1559C165.259 53.8379 165.052 53.5801 164.798 53.5801C164.544 53.5801 164.338 53.8379 164.338 54.1559C164.338 54.474 164.544 54.7318 164.798 54.7318Z" fill="white"/>
<path d="M93.2323 46.7083C93.4866 46.7083 93.6927 46.4505 93.6927 46.1325C93.6927 45.8145 93.4866 45.5566 93.2323 45.5566C92.9781 45.5566 92.772 45.8145 92.772 46.1325C92.772 46.4505 92.9781 46.7083 93.2323 46.7083Z" fill="white"/>
<path d="M94.8695 25.0287C95.1238 25.0287 95.3299 24.7708 95.3299 24.4528C95.3299 24.1348 95.1238 23.877 94.8695 23.877C94.6153 23.877 94.4092 24.1348 94.4092 24.4528C94.4092 24.7708 94.6153 25.0287 94.8695 25.0287Z" fill="white"/>
<path d="M97.9584 0.778659C98.2126 0.778659 98.4187 0.52084 98.4187 0.202806C98.4187 -0.115229 98.2126 -0.373047 97.9584 -0.373047C97.7042 -0.373047 97.498 -0.115229 97.498 0.202806C97.498 0.52084 97.7042 0.778659 97.9584 0.778659Z" fill="white"/>
<path d="M39.6923 41.0365C39.9465 41.0365 40.1526 40.7787 40.1526 40.4606C40.1526 40.1426 39.9465 39.8848 39.6923 39.8848C39.438 39.8848 39.2319 40.1426 39.2319 40.4606C39.2319 40.7787 39.438 41.0365 39.6923 41.0365Z" fill="white"/>
<path d="M61.4152 11.7988C61.776 11.7988 62.0686 11.4329 62.0686 10.9814C62.0686 10.53 61.776 10.1641 61.4152 10.1641C61.0543 10.1641 60.7617 10.53 60.7617 10.9814C60.7617 11.4329 61.0543 11.7988 61.4152 11.7988Z" fill="white"/>
<path d="M34.2853 37.1816C34.6462 37.1816 34.9387 36.8157 34.9387 36.3643C34.9387 35.9128 34.6462 35.5469 34.2853 35.5469C33.9244 35.5469 33.6318 35.9128 33.6318 36.3643C33.6318 36.8157 33.9244 37.1816 34.2853 37.1816Z" fill="white"/>
<path d="M14.0641 37.1816C14.425 37.1816 14.7175 36.8157 14.7175 36.3643C14.7175 35.9128 14.425 35.5469 14.0641 35.5469C13.7032 35.5469 13.4106 35.9128 13.4106 36.3643C13.4106 36.8157 13.7032 37.1816 14.0641 37.1816Z" fill="white"/>
<path d="M109.679 76.8672C110.04 76.8672 110.332 76.5012 110.332 76.0498C110.332 75.5984 110.04 75.2324 109.679 75.2324C109.318 75.2324 109.025 75.5984 109.025 76.0498C109.025 76.5012 109.318 76.8672 109.679 76.8672Z" fill="white"/>
<path d="M80.1656 66.5977C80.5265 66.5977 80.8191 66.2317 80.8191 65.7803C80.8191 65.3288 80.5265 64.9629 80.1656 64.9629C79.8048 64.9629 79.5122 65.3288 79.5122 65.7803C79.5122 66.2317 79.8048 66.5977 80.1656 66.5977Z" fill="white"/>
<path d="M123.723 48.9961C124.084 48.9961 124.376 48.6301 124.376 48.1787C124.376 47.7273 124.084 47.3613 123.723 47.3613C123.362 47.3613 123.069 47.7273 123.069 48.1787C123.069 48.6301 123.362 48.9961 123.723 48.9961Z" fill="white"/>
<path d="M186.816 71.0879C187.176 71.0879 187.469 70.7219 187.469 70.2705C187.469 69.8191 187.176 69.4531 186.816 69.4531C186.455 69.4531 186.162 69.8191 186.162 70.2705C186.162 70.7219 186.455 71.0879 186.816 71.0879Z" fill="white"/>
<path d="M142.149 25.2715C142.51 25.2715 142.802 24.9055 142.802 24.4541C142.802 24.0027 142.51 23.6367 142.149 23.6367C141.788 23.6367 141.496 24.0027 141.496 24.4541C141.496 24.9055 141.788 25.2715 142.149 25.2715Z" fill="white"/>
<path d="M200.199 45.9277C200.56 45.9277 200.852 45.5618 200.852 45.1104C200.852 44.6589 200.56 44.293 200.199 44.293C199.838 44.293 199.545 44.6589 199.545 45.1104C199.545 45.5618 199.838 45.9277 200.199 45.9277Z" fill="white"/>
<path d="M222.928 1.02148C223.289 1.02148 223.581 0.655528 223.581 0.204101C223.581 -0.247327 223.289 -0.613281 222.928 -0.613281C222.567 -0.613281 222.274 -0.247327 222.274 0.204101C222.274 0.655528 222.567 1.02148 222.928 1.02148Z" fill="white"/>
<path d="M259.543 5.57422C259.904 5.57422 260.197 5.20826 260.197 4.75683C260.197 4.30541 259.904 3.93945 259.543 3.93945C259.182 3.93945 258.89 4.30541 258.89 4.75683C258.89 5.20826 259.182 5.57422 259.543 5.57422Z" fill="white"/>
<path d="M235.705 68.0508C236.066 68.0508 236.359 67.6848 236.359 67.2334C236.359 66.782 236.066 66.416 235.705 66.416C235.344 66.416 235.052 66.782 235.052 67.2334C235.052 67.6848 235.344 68.0508 235.705 68.0508Z" fill="white"/>
<path d="M259.543 69.5039C259.904 69.5039 260.197 69.1379 260.197 68.6865C260.197 68.2351 259.904 67.8691 259.543 67.8691C259.182 67.8691 258.89 68.2351 258.89 68.6865C258.89 69.1379 259.182 69.5039 259.543 69.5039Z" fill="white"/>
<path d="M120.53 11.7988C120.891 11.7988 121.184 11.4329 121.184 10.9814C121.184 10.53 120.891 10.1641 120.53 10.1641C120.17 10.1641 119.877 10.53 119.877 10.9814C119.877 11.4329 120.17 11.7988 120.53 11.7988Z" fill="white"/>
<path d="M155.296 79.7734C155.656 79.7734 155.949 79.4075 155.949 78.9561C155.949 78.5046 155.656 78.1387 155.296 78.1387C154.935 78.1387 154.642 78.5046 154.642 78.9561C154.642 79.4075 154.935 79.7734 155.296 79.7734Z" fill="white"/>
<path d="M38.8741 81.2246C39.235 81.2246 39.5276 80.8587 39.5276 80.4072C39.5276 79.9558 39.235 79.5898 38.8741 79.5898C38.5133 79.5898 38.2207 79.9558 38.2207 80.4072C38.2207 80.8587 38.5133 81.2246 38.8741 81.2246Z" fill="white"/>
<path d="M317.476 29.8688C317.804 29.8688 318.07 29.5362 318.07 29.1258C318.07 28.7155 317.804 28.3828 317.476 28.3828C317.148 28.3828 316.882 28.7155 316.882 29.1258C316.882 29.5362 317.148 29.8688 317.476 29.8688Z" fill="white"/>
<path d="M415.414 42.2282C415.742 42.2282 416.008 41.8956 416.008 41.4852C416.008 41.0748 415.742 40.7422 415.414 40.7422C415.086 40.7422 414.82 41.0748 414.82 41.4852C414.82 41.8956 415.086 42.2282 415.414 42.2282Z" fill="white"/>
<path d="M301.674 10.6804C302.183 10.6804 302.595 10.1647 302.595 9.52866C302.595 8.89259 302.183 8.37695 301.674 8.37695C301.166 8.37695 300.753 8.89259 300.753 9.52866C300.753 10.1647 301.166 10.6804 301.674 10.6804Z" fill="white"/>
<path d="M316.42 57.3561C316.928 57.3561 317.34 56.8405 317.34 56.2044C317.34 55.5684 316.928 55.0527 316.42 55.0527C315.911 55.0527 315.499 55.5684 315.499 56.2044C315.499 56.8405 315.911 57.3561 316.42 57.3561Z" fill="white"/>
<path d="M394.982 46.2585C395.49 46.2585 395.902 45.7429 395.902 45.1068C395.902 44.4707 395.49 43.9551 394.982 43.9551C394.473 43.9551 394.061 44.4707 394.061 45.1068C394.061 45.7429 394.473 46.2585 394.982 46.2585Z" fill="white"/>
<path d="M419.11 20.196C419.619 20.196 420.031 19.6804 420.031 19.0443C420.031 18.4082 419.619 17.8926 419.11 17.8926C418.602 17.8926 418.189 18.4082 418.189 19.0443C418.189 19.6804 418.602 20.196 419.11 20.196Z" fill="white"/>
<path d="M522.432 13.5866C522.941 13.5866 523.353 13.071 523.353 12.4349C523.353 11.7988 522.941 11.2832 522.432 11.2832C521.924 11.2832 521.512 11.7988 521.512 12.4349C521.512 13.071 521.924 13.5866 522.432 13.5866Z" fill="white"/>
<path d="M365.363 57.3561C365.871 57.3561 366.283 56.8405 366.283 56.2044C366.283 55.5684 365.871 55.0527 365.363 55.0527C364.854 55.0527 364.442 55.5684 364.442 56.2044C364.442 56.8405 364.854 57.3561 365.363 57.3561Z" fill="white"/>
<path d="M387.537 38.9896C387.791 38.9896 387.997 38.7318 387.997 38.4137C387.997 38.0957 387.791 37.8379 387.537 37.8379C387.283 37.8379 387.077 38.0957 387.077 38.4137C387.077 38.7318 387.283 38.9896 387.537 38.9896Z" fill="white"/>
<path d="M272.372 48.7533C272.626 48.7533 272.832 48.4954 272.832 48.1774C272.832 47.8594 272.626 47.6016 272.372 47.6016C272.118 47.6016 271.912 47.8594 271.912 48.1774C271.912 48.4954 272.118 48.7533 272.372 48.7533Z" fill="white"/>
<path d="M337.776 47.7318C338.03 47.7318 338.236 47.474 338.236 47.1559C338.236 46.8379 338.03 46.5801 337.776 46.5801C337.522 46.5801 337.315 46.8379 337.315 47.1559C337.315 47.474 337.522 47.7318 337.776 47.7318Z" fill="white"/>
<path d="M314.458 80.9837C314.712 80.9837 314.918 80.7259 314.918 80.4079C314.918 80.0898 314.712 79.832 314.458 79.832C314.204 79.832 313.998 80.0898 313.998 80.4079C313.998 80.7259 314.204 80.9837 314.458 80.9837Z" fill="white"/>
<path d="M437.72 66.3568C437.974 66.3568 438.18 66.099 438.18 65.7809C438.18 65.4629 437.974 65.2051 437.72 65.2051C437.466 65.2051 437.26 65.4629 437.26 65.7809C437.26 66.099 437.466 66.3568 437.72 66.3568Z" fill="white"/>
<path d="M484.683 26.0521C484.937 26.0521 485.143 25.7943 485.143 25.4762C485.143 25.1582 484.937 24.9004 484.683 24.9004C484.429 24.9004 484.223 25.1582 484.223 25.4762C484.223 25.7943 484.429 26.0521 484.683 26.0521Z" fill="white"/>
<path d="M501.974 12.1498C502.228 12.1498 502.434 11.8919 502.434 11.5739C502.434 11.2559 502.228 10.998 501.974 10.998C501.72 10.998 501.514 11.2559 501.514 11.5739C501.514 11.8919 501.72 12.1498 501.974 12.1498Z" fill="white"/>
<path d="M523.25 24.0052C523.505 24.0052 523.711 23.7474 523.711 23.4294C523.711 23.1113 523.505 22.8535 523.25 22.8535C522.996 22.8535 522.79 23.1113 522.79 23.4294C522.79 23.7474 522.996 24.0052 523.25 24.0052Z" fill="white"/>
<path d="M477.978 54.7318C478.232 54.7318 478.438 54.474 478.438 54.1559C478.438 53.8379 478.232 53.5801 477.978 53.5801C477.724 53.5801 477.518 53.8379 477.518 54.1559C477.518 54.474 477.724 54.7318 477.978 54.7318Z" fill="white"/>
<path d="M406.412 46.7083C406.666 46.7083 406.872 46.4505 406.872 46.1325C406.872 45.8145 406.666 45.5566 406.412 45.5566C406.157 45.5566 405.951 45.8145 405.951 46.1325C405.951 46.4505 406.157 46.7083 406.412 46.7083Z" fill="white"/>
<path d="M408.049 25.0287C408.303 25.0287 408.509 24.7708 408.509 24.4528C408.509 24.1348 408.303 23.877 408.049 23.877C407.794 23.877 407.588 24.1348 407.588 24.4528C407.588 24.7708 407.794 25.0287 408.049 25.0287Z" fill="white"/>
<path d="M411.138 0.778659C411.392 0.778659 411.598 0.52084 411.598 0.202806C411.598 -0.115229 411.392 -0.373047 411.138 -0.373047C410.883 -0.373047 410.677 -0.115229 410.677 0.202806C410.677 0.52084 410.883 0.778659 411.138 0.778659Z" fill="white"/>
<path d="M352.871 41.0365C353.126 41.0365 353.332 40.7787 353.332 40.4606C353.332 40.1426 353.126 39.8848 352.871 39.8848C352.617 39.8848 352.411 40.1426 352.411 40.4606C352.411 40.7787 352.617 41.0365 352.871 41.0365Z" fill="white"/>
<path d="M374.595 11.7988C374.956 11.7988 375.249 11.4329 375.249 10.9814C375.249 10.53 374.956 10.1641 374.595 10.1641C374.234 10.1641 373.942 10.53 373.942 10.9814C373.942 11.4329 374.234 11.7988 374.595 11.7988Z" fill="white"/>
<path d="M347.464 37.1816C347.825 37.1816 348.118 36.8157 348.118 36.3643C348.118 35.9128 347.825 35.5469 347.464 35.5469C347.104 35.5469 346.811 35.9128 346.811 36.3643C346.811 36.8157 347.104 37.1816 347.464 37.1816Z" fill="white"/>
<path d="M327.243 37.1816C327.604 37.1816 327.896 36.8157 327.896 36.3643C327.896 35.9128 327.604 35.5469 327.243 35.5469C326.882 35.5469 326.589 35.9128 326.589 36.3643C326.589 36.8157 326.882 37.1816 327.243 37.1816Z" fill="white"/>
<path d="M422.858 76.8672C423.219 76.8672 423.511 76.5012 423.511 76.0498C423.511 75.5984 423.219 75.2324 422.858 75.2324C422.497 75.2324 422.205 75.5984 422.205 76.0498C422.205 76.5012 422.497 76.8672 422.858 76.8672Z" fill="white"/>
<path d="M393.345 66.5977C393.706 66.5977 393.998 66.2317 393.998 65.7803C393.998 65.3288 393.706 64.9629 393.345 64.9629C392.984 64.9629 392.691 65.3288 392.691 65.7803C392.691 66.2317 392.984 66.5977 393.345 66.5977Z" fill="white"/>
<path d="M436.902 48.9961C437.263 48.9961 437.555 48.6301 437.555 48.1787C437.555 47.7273 437.263 47.3613 436.902 47.3613C436.541 47.3613 436.249 47.7273 436.249 48.1787C436.249 48.6301 436.541 48.9961 436.902 48.9961Z" fill="white"/>
<path d="M499.994 71.0879C500.355 71.0879 500.647 70.7219 500.647 70.2705C500.647 69.8191 500.355 69.4531 499.994 69.4531C499.633 69.4531 499.34 69.8191 499.34 70.2705C499.34 70.7219 499.633 71.0879 499.994 71.0879Z" fill="white"/>
<path d="M455.329 25.2715C455.69 25.2715 455.982 24.9055 455.982 24.4541C455.982 24.0027 455.69 23.6367 455.329 23.6367C454.968 23.6367 454.675 24.0027 454.675 24.4541C454.675 24.9055 454.968 25.2715 455.329 25.2715Z" fill="white"/>
<path d="M513.378 45.9277C513.739 45.9277 514.031 45.5618 514.031 45.1104C514.031 44.6589 513.739 44.293 513.378 44.293C513.017 44.293 512.725 44.6589 512.725 45.1104C512.725 45.5618 513.017 45.9277 513.378 45.9277Z" fill="white"/>
<path d="M536.107 1.02148C536.467 1.02148 536.76 0.655528 536.76 0.204101C536.76 -0.247327 536.467 -0.613281 536.107 -0.613281C535.746 -0.613281 535.453 -0.247327 535.453 0.204101C535.453 0.655528 535.746 1.02148 536.107 1.02148Z" fill="white"/>
<path d="M433.71 11.7988C434.07 11.7988 434.363 11.4329 434.363 10.9814C434.363 10.53 434.07 10.1641 433.71 10.1641C433.349 10.1641 433.056 10.53 433.056 10.9814C433.056 11.4329 433.349 11.7988 433.71 11.7988Z" fill="white"/>
<path d="M468.475 79.7734C468.836 79.7734 469.128 79.4075 469.128 78.9561C469.128 78.5046 468.836 78.1387 468.475 78.1387C468.114 78.1387 467.821 78.5046 467.821 78.9561C467.821 79.4075 468.114 79.7734 468.475 79.7734Z" fill="white"/>
<path d="M352.053 81.2246C352.414 81.2246 352.707 80.8587 352.707 80.4072C352.707 79.9558 352.414 79.5898 352.053 79.5898C351.692 79.5898 351.4 79.9558 351.4 80.4072C351.4 80.8587 351.692 81.2246 352.053 81.2246Z" fill="white"/>
<path d="M549.037 29.8688C549.365 29.8688 549.631 29.5362 549.631 29.1258C549.631 28.7155 549.365 28.3828 549.037 28.3828C548.709 28.3828 548.443 28.7155 548.443 29.1258C548.443 29.5362 548.709 29.8688 549.037 29.8688Z" fill="white"/>
<path d="M646.975 42.2282C647.303 42.2282 647.569 41.8956 647.569 41.4852C647.569 41.0748 647.303 40.7422 646.975 40.7422C646.647 40.7422 646.381 41.0748 646.381 41.4852C646.381 41.8956 646.647 42.2282 646.975 42.2282Z" fill="white"/>
<path d="M626.543 46.2585C627.051 46.2585 627.463 45.7429 627.463 45.1068C627.463 44.4707 627.051 43.9551 626.543 43.9551C626.034 43.9551 625.622 44.4707 625.622 45.1068C625.622 45.7429 626.034 46.2585 626.543 46.2585Z" fill="white"/>
<path d="M650.672 20.196C651.181 20.196 651.593 19.6804 651.593 19.0443C651.593 18.4082 651.181 17.8926 650.672 17.8926C650.164 17.8926 649.751 18.4082 649.751 19.0443C649.751 19.6804 650.164 20.196 650.672 20.196Z" fill="white"/>
<path d="M596.924 57.3561C597.432 57.3561 597.844 56.8405 597.844 56.2044C597.844 55.5684 597.432 55.0527 596.924 55.0527C596.415 55.0527 596.003 55.5684 596.003 56.2044C596.003 56.8405 596.415 57.3561 596.924 57.3561Z" fill="white"/>
<path d="M619.098 38.9896C619.352 38.9896 619.558 38.7318 619.558 38.4137C619.558 38.0957 619.352 37.8379 619.098 37.8379C618.844 37.8379 618.638 38.0957 618.638 38.4137C618.638 38.7318 618.844 38.9896 619.098 38.9896Z" fill="white"/>
<path d="M545.201 37.9642C545.455 37.9642 545.661 37.7064 545.661 37.3884C545.661 37.0703 545.455 36.8125 545.201 36.8125C544.946 36.8125 544.74 37.0703 544.74 37.3884C544.74 37.7064 544.946 37.9642 545.201 37.9642Z" fill="white"/>
<path d="M569.337 47.7318C569.592 47.7318 569.798 47.474 569.798 47.1559C569.798 46.8379 569.592 46.5801 569.337 46.5801C569.083 46.5801 568.877 46.8379 568.877 47.1559C568.877 47.474 569.083 47.7318 569.337 47.7318Z" fill="white"/>
<path d="M546.019 80.9837C546.274 80.9837 546.48 80.7259 546.48 80.4079C546.48 80.0898 546.274 79.832 546.019 79.832C545.765 79.832 545.559 80.0898 545.559 80.4079C545.559 80.7259 545.765 80.9837 546.019 80.9837Z" fill="white"/>
<path d="M669.282 66.3568C669.536 66.3568 669.742 66.099 669.742 65.7809C669.742 65.4629 669.536 65.2051 669.282 65.2051C669.027 65.2051 668.821 65.4629 668.821 65.7809C668.821 66.099 669.027 66.3568 669.282 66.3568Z" fill="white"/>
<path d="M709.539 54.7318C709.794 54.7318 710 54.474 710 54.1559C710 53.8379 709.794 53.5801 709.539 53.5801C709.285 53.5801 709.079 53.8379 709.079 54.1559C709.079 54.474 709.285 54.7318 709.539 54.7318Z" fill="white"/>
<path d="M637.974 46.7083C638.228 46.7083 638.434 46.4505 638.434 46.1325C638.434 45.8145 638.228 45.5566 637.974 45.5566C637.719 45.5566 637.513 45.8145 637.513 46.1325C637.513 46.4505 637.719 46.7083 637.974 46.7083Z" fill="white"/>
<path d="M639.61 25.0287C639.864 25.0287 640.071 24.7708 640.071 24.4528C640.071 24.1348 639.864 23.877 639.61 23.877C639.356 23.877 639.15 24.1348 639.15 24.4528C639.15 24.7708 639.356 25.0287 639.61 25.0287Z" fill="white"/>
<path d="M642.698 0.778659C642.952 0.778659 643.158 0.52084 643.158 0.202806C643.158 -0.115229 642.952 -0.373047 642.698 -0.373047C642.444 -0.373047 642.238 -0.115229 642.238 0.202806C642.238 0.52084 642.444 0.778659 642.698 0.778659Z" fill="white"/>
<path d="M606.156 11.7988C606.517 11.7988 606.81 11.4329 606.81 10.9814C606.81 10.53 606.517 10.1641 606.156 10.1641C605.795 10.1641 605.503 10.53 605.503 10.9814C605.503 11.4329 605.795 11.7988 606.156 11.7988Z" fill="white"/>
<path d="M579.026 37.1816C579.387 37.1816 579.679 36.8157 579.679 36.3643C579.679 35.9128 579.387 35.5469 579.026 35.5469C578.665 35.5469 578.373 35.9128 578.373 36.3643C578.373 36.8157 578.665 37.1816 579.026 37.1816Z" fill="white"/>
<path d="M654.42 76.8672C654.78 76.8672 655.073 76.5012 655.073 76.0498C655.073 75.5984 654.78 75.2324 654.42 75.2324C654.059 75.2324 653.766 75.5984 653.766 76.0498C653.766 76.5012 654.059 76.8672 654.42 76.8672Z" fill="white"/>
<path d="M624.906 66.5977C625.267 66.5977 625.559 66.2317 625.559 65.7803C625.559 65.3288 625.267 64.9629 624.906 64.9629C624.545 64.9629 624.252 65.3288 624.252 65.7803C624.252 66.2317 624.545 66.5977 624.906 66.5977Z" fill="white"/>
<path d="M668.463 48.9961C668.824 48.9961 669.117 48.6301 669.117 48.1787C669.117 47.7273 668.824 47.3613 668.463 47.3613C668.103 47.3613 667.81 47.7273 667.81 48.1787C667.81 48.6301 668.103 48.9961 668.463 48.9961Z" fill="white"/>
<path d="M686.89 25.2715C687.251 25.2715 687.543 24.9055 687.543 24.4541C687.543 24.0027 687.251 23.6367 686.89 23.6367C686.529 23.6367 686.236 24.0027 686.236 24.4541C686.236 24.9055 686.529 25.2715 686.89 25.2715Z" fill="white"/>
<path d="M665.271 11.7988C665.632 11.7988 665.924 11.4329 665.924 10.9814C665.924 10.53 665.632 10.1641 665.271 10.1641C664.91 10.1641 664.617 10.53 664.617 10.9814C664.617 11.4329 664.91 11.7988 665.271 11.7988Z" fill="white"/>
<path d="M700.036 79.7734C700.397 79.7734 700.689 79.4075 700.689 78.9561C700.689 78.5046 700.397 78.1387 700.036 78.1387C699.675 78.1387 699.382 78.5046 699.382 78.9561C699.382 79.4075 699.675 79.7734 700.036 79.7734Z" fill="white"/>
<path d="M583.614 81.2246C583.975 81.2246 584.268 80.8587 584.268 80.4072C584.268 79.9558 583.975 79.5898 583.614 79.5898C583.253 79.5898 582.961 79.9558 582.961 80.4072C582.961 80.8587 583.253 81.2246 583.614 81.2246Z" fill="white"/>
</svg>
