<svg width="1069" height="88" viewBox="0 0 1069 88" fill="none" xmlns="http://www.w3.org/2000/svg">
<g opacity="0.4">
<path d="M997.245 75.3093C998.88 75.2792 1000.18 73.9296 1000.15 72.2951C1000.12 70.6605 998.771 69.3599 997.136 69.39C995.502 69.4201 994.201 70.7697 994.231 72.4042C994.261 74.0388 995.611 75.3394 997.245 75.3093Z" fill="#4389FF"/>
<path d="M996.341 85.9096C998.654 85.8669 1000.49 83.9578 1000.45 81.6453C1000.41 79.3329 998.5 77.4928 996.187 77.5355C993.875 77.5781 992.035 79.4873 992.077 81.7997C992.12 84.1122 994.029 85.9522 996.341 85.9096Z" fill="#BBDEFB"/>
<path d="M704.622 59.3991C704.597 58.0035 704.986 56.6318 705.74 55.4574C706.494 54.2829 707.58 53.3584 708.859 52.8008C710.139 52.2431 711.555 52.0773 712.929 52.3242C714.303 52.5712 715.572 53.2199 716.577 54.1884C717.583 55.1568 718.278 56.4015 718.576 57.7651C718.874 59.1287 718.761 60.5501 718.251 61.8494C717.741 63.1488 716.858 64.2679 715.712 65.0653C714.567 65.8626 713.21 66.3025 711.815 66.3292C709.943 66.3624 708.134 65.6513 706.785 64.352C705.436 63.0527 704.659 61.2714 704.622 59.3991V59.3991ZM715.577 59.2009C715.563 58.4397 715.323 57.6999 714.888 57.075C714.453 56.4501 713.842 55.9682 713.134 55.6901C712.425 55.412 711.65 55.3502 710.906 55.5125C710.162 55.6749 709.483 56.0541 708.954 56.6022C708.426 57.1503 708.072 57.8428 707.937 58.5921C707.802 59.3413 707.892 60.1139 708.196 60.812C708.499 61.5101 709.003 62.1025 709.644 62.5143C710.284 62.9261 711.032 63.1389 711.793 63.1257C712.81 63.0977 713.774 62.669 714.475 61.9331C715.177 61.1972 715.559 60.2137 715.538 59.1973L715.577 59.2009Z" fill="#BBDEFB"/>
<path d="M720.113 28.176C719.963 29.8039 721.16 31.2457 722.788 31.3965C724.416 31.5473 725.858 30.3499 726.008 28.7221C726.159 27.0942 724.962 25.6523 723.334 25.5015C721.706 25.3507 720.264 26.5481 720.113 28.176Z" fill="#4389FF"/>
<path opacity="0.4" d="M792.514 23.4583C792.3 25.7612 793.994 27.8011 796.297 28.0145C798.6 28.2278 800.64 26.5338 800.853 24.2308C801.067 21.9278 799.373 19.888 797.07 19.6746C794.767 19.4613 792.727 21.1553 792.514 23.4583Z" fill="#00549E"/>
<path opacity="0.4" d="M756.99 39.1927C756.983 38.9174 757.048 38.6451 757.179 38.4026C757.309 38.1602 757.501 37.9559 757.734 37.8101L763.013 34.4911C763.191 34.377 763.39 34.2992 763.599 34.2621C763.807 34.225 764.021 34.2293 764.228 34.2748C764.434 34.3202 764.63 34.406 764.804 34.5271C764.977 34.6482 765.125 34.8023 765.24 34.9807C765.354 35.159 765.431 35.3581 765.468 35.5665C765.506 35.7749 765.501 35.9886 765.456 36.1953C765.41 36.4021 765.325 36.5979 765.203 36.7715C765.082 36.9451 764.928 37.0932 764.75 37.2072L759.454 40.4948C759.276 40.6089 759.077 40.6866 758.869 40.7235C758.661 40.7604 758.447 40.7558 758.241 40.7099C758.034 40.6639 757.839 40.5776 757.666 40.4559C757.493 40.3342 757.346 40.1795 757.233 40.0007C757.085 39.7562 757.001 39.4783 756.99 39.1927V39.1927Z" fill="#FFA400"/>
<path opacity="0.4" d="M757.894 34.912C757.892 34.5636 758.003 34.224 758.211 33.944C758.418 33.664 758.71 33.4587 759.044 33.3587C759.378 33.2587 759.735 33.2694 760.062 33.3892C760.389 33.509 760.669 33.7315 760.859 34.0234L764.168 39.3012C764.399 39.6614 764.477 40.0983 764.385 40.5159C764.293 40.9335 764.039 41.2974 763.679 41.5278C763.319 41.7581 762.882 41.8359 762.464 41.7441C762.047 41.6523 761.683 41.3983 761.452 41.0381L758.143 35.7603C757.985 35.5052 757.899 35.2121 757.894 34.912Z" fill="#FFA400"/>
<path d="M808.14 50.4134C808.135 50.1238 808.209 49.8384 808.355 49.5883C808.46 49.4052 808.6 49.2447 808.767 49.1161C808.935 48.9876 809.126 48.8935 809.329 48.8393C809.533 48.7851 809.746 48.7719 809.955 48.8005C810.164 48.8291 810.365 48.8989 810.547 49.0058L816.539 52.4741C816.908 52.6876 817.178 53.039 817.288 53.451C817.398 53.863 817.34 54.3019 817.126 54.6711C816.913 55.0402 816.561 55.3095 816.149 55.4195C815.737 55.5296 815.298 55.4715 814.929 55.258L808.888 51.7753C808.658 51.6311 808.468 51.4302 808.337 51.1918C808.206 50.9534 808.138 50.6855 808.14 50.4134Z" fill="#BBDEFB"/>
<path d="M809.401 55.1534C809.391 54.86 809.466 54.5701 809.617 54.3184L813.086 48.3262C813.304 47.9675 813.654 47.7086 814.06 47.605C814.467 47.5013 814.898 47.5612 815.261 47.7718C815.624 47.9824 815.89 48.3269 816.002 48.7314C816.114 49.1358 816.063 49.5681 815.86 49.9353L812.391 55.9275C812.216 56.2303 811.946 56.4673 811.623 56.6022C811.3 56.7372 810.941 56.7627 810.603 56.675C810.264 56.5873 809.963 56.3911 809.746 56.1163C809.529 55.8416 809.408 55.5034 809.401 55.1534V55.1534Z" fill="#BBDEFB"/>
<path d="M1058.41 27.7241C1058.41 27.4345 1058.48 27.1491 1058.63 26.8989C1058.73 26.7159 1058.87 26.5554 1059.04 26.4268C1059.21 26.2982 1059.4 26.2041 1059.6 26.15C1059.8 26.0958 1060.02 26.0826 1060.23 26.1112C1060.43 26.1398 1060.64 26.2096 1060.82 26.3165L1066.81 29.7848C1067.18 29.9983 1067.45 30.3497 1067.56 30.7617C1067.67 31.1737 1067.61 31.6126 1067.4 31.9817C1067.18 32.3509 1066.83 32.6201 1066.42 32.7302C1066.01 32.8403 1065.57 32.7822 1065.2 32.5687L1059.16 29.086C1058.93 28.9417 1058.74 28.7409 1058.61 28.5025C1058.48 28.2641 1058.41 27.9961 1058.41 27.7241Z" fill="#BBDEFB"/>
<path d="M1059.67 32.4639C1059.66 32.1706 1059.74 31.8806 1059.89 31.6289L1063.36 25.6367C1063.57 25.2781 1063.92 25.0192 1064.33 24.9155C1064.74 24.8119 1065.17 24.8718 1065.53 25.0824C1065.89 25.2929 1066.16 25.6374 1066.27 26.0419C1066.38 26.4464 1066.33 26.8786 1066.13 27.2459L1062.66 33.2381C1062.49 33.5409 1062.22 33.7778 1061.89 33.9128C1061.57 34.0477 1061.21 34.0733 1060.87 33.9856C1060.53 33.8978 1060.23 33.7016 1060.02 33.4269C1059.8 33.1521 1059.68 32.8139 1059.67 32.4639V32.4639Z" fill="#BBDEFB"/>
<path opacity="0.4" d="M998.593 3.75458C998.593 5.39544 998.106 6.99945 997.194 8.36377C996.283 9.7281 994.987 10.7915 993.471 11.4194C991.955 12.0473 990.287 12.2116 988.678 11.8915C987.068 11.5714 985.59 10.7812 984.43 9.62097C983.27 8.46071 982.48 6.98245 982.159 5.37312C981.839 3.76379 982.004 2.09567 982.632 0.579715C983.259 -0.936241 984.323 -2.23195 985.687 -3.14356C987.051 -4.05518 988.655 -4.54175 990.296 -4.54175C992.496 -4.53913 994.605 -3.66421 996.16 -2.10891C997.715 -0.553619 998.59 1.55506 998.593 3.75458ZM994.821 3.75458C994.821 2.85974 994.555 1.985 994.058 1.24098C993.561 0.496947 992.854 -0.0829537 992.028 -0.425392C991.201 -0.767831 990.291 -0.857429 989.414 -0.682855C988.536 -0.508281 987.73 -0.0773778 987.097 0.555367C986.464 1.18811 986.033 1.99428 985.859 2.87192C985.684 3.74956 985.774 4.65926 986.116 5.48598C986.459 6.3127 987.039 7.01931 987.783 7.51646C988.527 8.0136 989.401 8.27895 990.296 8.27895C991.495 8.27634 992.645 7.79882 993.493 6.95091C994.341 6.10299 994.818 4.95371 994.821 3.75458V3.75458Z" fill="#BBDEFB"/>
<path d="M879.203 72.8637C881.921 72.8637 884.123 70.6608 884.123 67.9433C884.123 65.2259 881.921 63.0229 879.203 63.0229C876.486 63.0229 874.283 65.2259 874.283 67.9433C874.283 70.6608 876.486 72.8637 879.203 72.8637Z" fill="#BCE784"/>
<path d="M868.796 16.6278C869.206 16.7351 869.64 16.7018 870.028 16.5332C870.417 16.3647 870.738 16.0705 870.939 15.698C871.14 15.3255 871.211 14.8961 871.139 14.4787C871.068 14.0613 870.858 13.68 870.544 13.396L861.439 5.29875C861.254 5.13417 861.039 5.00759 860.806 4.92623C860.572 4.84487 860.325 4.81033 860.078 4.82457C859.831 4.83881 859.589 4.90156 859.366 5.00924C859.143 5.11692 858.944 5.26741 858.779 5.45212C858.615 5.63684 858.488 5.85217 858.407 6.0858C858.326 6.31944 858.291 6.56681 858.305 6.8138C858.319 7.06079 858.382 7.30255 858.49 7.52528C858.598 7.74802 858.748 7.94737 858.933 8.11194L868.037 16.2092C868.253 16.4078 868.513 16.5514 868.796 16.6278V16.6278Z" fill="#BCE784"/>
<path d="M860.172 17.105C860.51 17.1944 860.865 17.1886 861.2 17.0882C861.534 16.9879 861.834 16.7969 862.067 16.5365L870.164 7.43178C870.496 7.05872 870.667 6.56892 870.638 6.0701C870.61 5.57129 870.384 5.10434 870.011 4.77196C869.638 4.43959 869.148 4.26902 868.649 4.29778C868.15 4.32655 867.683 4.55229 867.351 4.92534L859.254 14.03C859.089 14.2176 858.963 14.4361 858.883 14.6729C858.804 14.9096 858.772 15.1599 858.79 15.409C858.808 15.6581 858.876 15.9011 858.989 16.1238C859.102 16.3465 859.258 16.5445 859.449 16.7061C859.659 16.8885 859.906 17.0243 860.172 17.105V17.105Z" fill="#BCE784"/>
<path d="M115.653 62.9997C115.473 61.1071 113.793 59.7186 111.901 59.8982C110.008 60.0779 108.619 61.7578 108.799 63.6504C108.979 65.543 110.659 66.9316 112.551 66.7519C114.444 66.5722 115.833 64.8923 115.653 62.9997Z" fill="#4389FF"/>
<path opacity="0.4" d="M75.6254 70.091C75.3712 67.4135 72.9946 65.449 70.3171 65.7032C67.6396 65.9574 65.6752 68.334 65.9294 71.0115C66.1836 73.689 68.5602 75.6534 71.2377 75.3992C73.9151 75.145 75.8796 72.7684 75.6254 70.091Z" fill="#FFA400"/>
<path d="M70.0025 31.0332C70.0698 31.3463 70.0543 31.6715 69.9575 31.9767C69.8608 32.282 69.6861 32.5568 69.4508 32.7739L64.137 37.7076C63.9579 37.8764 63.7473 38.0084 63.5172 38.0959C63.2871 38.1833 63.042 38.2246 62.7959 38.2174C62.5499 38.2101 62.3076 38.1545 62.0831 38.0536C61.8585 37.9528 61.656 37.8087 61.4872 37.6296C61.3183 37.4504 61.1864 37.2398 61.0989 37.0097C61.0114 36.7796 60.9701 36.5345 60.9774 36.2885C60.9846 36.0424 61.0402 35.8002 61.1411 35.5756C61.242 35.3511 61.3861 35.1486 61.5652 34.9797L66.9051 30.0783C67.0839 29.9094 67.2944 29.7776 67.5243 29.6904C67.7543 29.6032 67.9992 29.5624 68.245 29.5702C68.4908 29.578 68.7326 29.6344 68.9566 29.7361C69.1805 29.8377 69.3821 29.9827 69.5498 30.1626C69.7718 30.4099 69.9275 30.7094 70.0025 31.0332V31.0332Z" fill="#BCE784"/>
<path d="M69.8956 36.1197C69.9727 36.5174 69.9191 36.9294 69.7427 37.2942C69.5663 37.6589 69.2765 37.9568 68.9168 38.1432C68.5571 38.3296 68.1467 38.3946 67.747 38.3284C67.3472 38.2623 66.9797 38.0685 66.6992 37.7762L61.777 32.4613C61.436 32.0996 61.2526 31.6172 61.2672 31.1202C61.2818 30.6233 61.4933 30.1525 61.855 29.8114C62.2168 29.4704 62.6992 29.287 63.1961 29.3016C63.6931 29.3163 64.1638 29.5277 64.5049 29.8894L69.427 35.2043C69.6629 35.4616 69.8248 35.7779 69.8956 36.1197Z" fill="#BCE784"/>
<path d="M11.462 12.916C11.5302 13.2458 11.5067 13.588 11.394 13.9054C11.314 14.1373 11.1887 14.3509 11.0254 14.534C10.8621 14.717 10.6642 14.8659 10.4429 14.9718C10.2217 15.0778 9.98169 15.1388 9.73672 15.1514C9.49176 15.1639 9.24674 15.1277 9.01588 15.0448L1.41931 12.3777C0.951339 12.2135 0.567734 11.8702 0.352886 11.4232C0.138037 10.9763 0.109544 10.4623 0.273674 9.99431C0.437805 9.52633 0.781115 9.14273 1.22808 8.92788C1.67504 8.71303 2.18905 8.68454 2.65702 8.84867L10.312 11.5218C10.6067 11.6368 10.8671 11.8252 11.0684 12.0693C11.2697 12.3133 11.4052 12.6048 11.462 12.916Z" fill="#BBDEFB"/>
<path d="M8.99596 7.77306C9.07048 8.10617 9.04726 8.4537 8.92908 8.77393L6.26194 16.3705C6.09044 16.8274 5.74668 17.1989 5.30442 17.4052C4.86217 17.6116 4.35665 17.6363 3.89634 17.4742C3.43602 17.3121 3.05759 16.976 2.84223 16.5381C2.62688 16.1001 2.59176 15.5952 2.74442 15.1317L5.41156 7.53514C5.5469 7.1512 5.80416 6.82209 6.14405 6.59804C6.48395 6.37399 6.88781 6.26731 7.29402 6.29427C7.70022 6.32123 8.08644 6.48036 8.39374 6.74737C8.70104 7.01438 8.91254 7.3746 8.99596 7.77306V7.77306Z" fill="#BBDEFB"/>
<path d="M242.498 82.6839C242.923 81.099 243.808 79.6756 245.042 78.5937C246.276 77.5118 247.802 76.82 249.429 76.6058C251.056 76.3917 252.71 76.6647 254.181 77.3904C255.653 78.1162 256.876 79.262 257.697 80.683C258.517 82.104 258.898 83.7364 258.791 85.3738C258.683 87.0111 258.093 88.5799 257.094 89.8817C256.095 91.1834 254.733 92.1598 253.179 92.6872C251.625 93.2147 249.95 93.2695 248.365 92.8448C246.241 92.273 244.43 90.8821 243.331 88.9773C242.231 87.0725 241.932 84.8092 242.498 82.6839V82.6839ZM246.142 83.6602C245.91 84.5245 245.94 85.4381 246.228 86.2855C246.515 87.1328 247.048 87.8759 247.758 88.4206C248.468 88.9653 249.323 89.2873 250.216 89.3459C251.109 89.4044 251.999 89.1968 252.774 88.7494C253.549 88.302 254.174 87.6348 254.57 86.8323C254.966 86.0297 255.114 85.1278 254.998 84.2406C254.881 83.3534 254.504 82.5208 253.914 81.8481C253.324 81.1753 252.547 80.6926 251.683 80.461C250.524 80.1531 249.29 80.3169 248.252 80.9165C247.213 81.5161 246.455 82.5026 246.142 83.6602V83.6602Z" fill="#BBDEFB"/>
<path opacity="0.4" d="M128.942 78.4732C129.367 76.8883 130.252 75.4649 131.485 74.383C132.719 73.3011 134.246 72.6093 135.873 72.3951C137.5 72.181 139.153 72.454 140.625 73.1797C142.097 73.9055 143.32 75.0513 144.14 76.4723C144.961 77.8933 145.342 79.5257 145.234 81.1631C145.127 82.8004 144.536 84.3692 143.538 85.671C142.539 86.9727 141.176 87.9491 139.622 88.4765C138.069 89.004 136.393 89.0588 134.808 88.6341C132.684 88.0623 130.874 86.6714 129.774 84.7666C128.675 82.8618 128.375 80.5985 128.942 78.4732ZM132.585 79.4495C132.354 80.3138 132.384 81.2274 132.671 82.0748C132.959 82.9221 133.491 83.6652 134.201 84.2099C134.911 84.7546 135.767 85.0766 136.66 85.1352C137.553 85.1937 138.443 84.9861 139.218 84.5387C139.993 84.0913 140.618 83.4241 141.013 82.6216C141.409 81.819 141.558 80.9171 141.441 80.0299C141.324 79.1428 140.947 78.3101 140.357 77.6374C139.767 76.9646 138.991 76.4819 138.127 76.2503C136.968 75.9424 135.734 76.1062 134.695 76.7058C133.657 77.3054 132.898 78.2919 132.585 79.4495V79.4495Z" fill="#BBDEFB"/>
<path d="M247.671 20.7071C245.817 20.2104 243.912 21.3105 243.415 23.1643C242.918 25.018 244.018 26.9235 245.872 27.4202C247.726 27.9169 249.631 26.8168 250.128 24.963C250.625 23.1093 249.525 21.2038 247.671 20.7071Z" fill="#4389FF"/>
<path d="M189.536 51.9328C186.911 51.2294 184.213 52.7871 183.51 55.412C182.806 58.0368 184.364 60.7349 186.989 61.4382C189.614 62.1415 192.312 60.5838 193.015 57.959C193.718 55.3341 192.161 52.6361 189.536 51.9328Z" fill="#BBDEFB"/>
<path d="M128.293 39.1686C125.668 38.4653 122.97 40.023 122.267 42.6478C121.564 45.2727 123.121 47.9707 125.746 48.674C128.371 49.3773 131.069 47.8196 131.773 45.1948C132.476 42.5699 130.918 39.8719 128.293 39.1686Z" fill="#00549E"/>
<path d="M354.46 30.709C354.773 30.7952 355.102 30.7988 355.416 30.7195C355.73 30.6401 356.018 30.4806 356.252 30.2565L361.517 25.2203C361.697 25.0499 361.842 24.8456 361.944 24.6192C362.045 24.3928 362.101 24.1486 362.108 23.9006C362.115 23.6527 362.073 23.4058 361.984 23.174C361.896 22.9422 361.762 22.7302 361.592 22.5499C361.422 22.3697 361.217 22.2247 360.991 22.1234C360.765 22.0221 360.52 21.9664 360.272 21.9594C360.024 21.9524 359.777 21.9944 359.546 22.0828C359.314 22.1713 359.102 22.3046 358.922 22.475L353.66 27.5016C353.48 27.6718 353.336 27.876 353.236 28.1022C353.136 28.3285 353.081 28.5723 353.076 28.8197C353.071 29.0671 353.115 29.313 353.205 29.5434C353.295 29.7737 353.431 29.9838 353.603 30.1615C353.831 30.4214 354.129 30.6112 354.46 30.709V30.709Z" fill="#4389FF"/>
<path d="M359.614 30.8294C359.925 30.9144 360.253 30.9172 360.566 30.8374C360.878 30.7576 361.164 30.598 361.397 30.3743C361.577 30.2041 361.722 29.9999 361.823 29.7735C361.924 29.5471 361.979 29.303 361.986 29.0552C361.992 28.8073 361.949 28.5606 361.86 28.3293C361.771 28.0981 361.637 27.8867 361.466 27.7074L356.468 22.4529C356.297 22.2727 356.093 22.1277 355.866 22.0264C355.64 21.9251 355.396 21.8694 355.148 21.8624C354.9 21.8554 354.653 21.8974 354.421 21.9859C354.19 22.0743 353.977 22.2076 353.797 22.378C353.617 22.5484 353.472 22.7527 353.371 22.9791C353.269 23.2055 353.214 23.4497 353.207 23.6977C353.2 23.9456 353.242 24.1925 353.33 24.4243C353.419 24.656 353.552 24.8681 353.722 25.0484L358.749 30.3105C358.984 30.5599 359.284 30.7394 359.614 30.8294V30.8294Z" fill="#4389FF"/>
<path d="M240.772 37.8568C241.243 37.9827 241.744 37.9223 242.171 37.6882L248.572 34.1864C248.789 34.0676 248.98 33.9071 249.135 33.7143C249.29 33.5215 249.405 33.3 249.475 33.0626C249.544 32.8251 249.566 32.5764 249.539 32.3305C249.512 32.0846 249.437 31.8463 249.318 31.6294C249.2 31.4125 249.039 31.2211 248.846 31.0662C248.653 30.9113 248.432 30.7958 248.195 30.7265C247.957 30.6572 247.708 30.6353 247.462 30.6621C247.216 30.6889 246.978 30.7639 246.761 30.8828L240.363 34.3749C239.923 34.616 239.597 35.0218 239.457 35.5031C239.316 35.9844 239.373 36.5018 239.614 36.9415C239.734 37.1647 239.9 37.361 240.099 37.5183C240.298 37.6757 240.527 37.7908 240.772 37.8568V37.8568Z" fill="#99DDC8"/>
<path d="M245.724 39.3065C246.08 39.4 246.456 39.3874 246.806 39.2702C247.155 39.153 247.462 38.9363 247.69 38.6468C247.918 38.3573 248.056 38.0076 248.088 37.6406C248.12 37.2735 248.043 36.9052 247.869 36.5809L244.367 30.1797C244.124 29.7409 243.717 29.4165 243.236 29.2778C242.754 29.1391 242.237 29.1974 241.798 29.44C241.359 29.6826 241.035 30.0896 240.896 30.5714C240.757 31.0532 240.816 31.5704 241.058 32.0092L244.56 38.4104C244.684 38.6306 244.85 38.8235 245.05 38.9775C245.25 39.1315 245.48 39.2434 245.724 39.3065V39.3065Z" fill="#99DDC8"/>
<path d="M370.837 -2.7014C372.229 -2.80481 373.621 -2.4932 374.836 -1.80595C376.051 -1.1187 377.035 -0.0866759 377.663 1.15967C378.292 2.40602 378.537 3.81073 378.367 5.19622C378.197 6.58172 377.62 7.8858 376.71 8.9436C375.799 10.0014 374.595 10.7655 373.25 11.1392C371.905 11.5129 370.48 11.4794 369.154 11.0431C367.828 10.6068 366.661 9.78713 365.801 8.68779C364.941 7.58845 364.426 6.25877 364.321 4.86685C364.186 3.00019 364.796 1.15604 366.017 -0.262246C367.238 -1.68053 368.971 -2.55752 370.837 -2.7014V-2.7014ZM371.662 8.21495C372.422 8.15807 373.148 7.877 373.749 7.4073C374.349 6.9376 374.796 6.30041 375.034 5.57637C375.272 4.85233 375.289 4.07401 375.085 3.33993C374.88 2.60585 374.462 1.94901 373.884 1.45257C373.305 0.956129 372.593 0.642405 371.836 0.551109C371.08 0.459813 370.313 0.595053 369.633 0.939705C368.954 1.28436 368.391 1.82292 368.018 2.48724C367.645 3.15155 367.477 3.91173 367.535 4.67156C367.621 5.68094 368.102 6.61553 368.874 7.27187C369.646 7.92821 370.645 8.25316 371.655 8.17597L371.662 8.21495Z" fill="#BBDEFB"/>
<path d="M365.676 30.996C364.067 31.2852 362.997 32.824 363.286 34.433C363.575 36.0421 365.114 37.1121 366.723 36.823C368.332 36.5338 369.402 34.995 369.113 33.386C368.824 31.7769 367.285 30.7069 365.676 30.996Z" fill="#4389FF"/>
<path d="M396.4 36.1344C394.123 36.5434 392.61 38.7204 393.019 40.9968C393.428 43.2732 395.605 44.7869 397.881 44.3779C400.158 43.9688 401.671 41.7918 401.262 39.5155C400.853 37.2391 398.676 35.7253 396.4 36.1344Z" fill="#BBDEFB"/>
<path opacity="0.4" d="M322.799 17.1348C323.208 17.1048 323.613 17.2338 323.93 17.4949L328.731 21.4302C329.007 21.7116 329.169 22.0846 329.188 22.4782C329.206 22.8718 329.079 23.2583 328.83 23.5641C328.582 23.8698 328.23 24.0734 327.841 24.1361C327.452 24.1987 327.053 24.116 326.721 23.9037L321.92 19.9684C321.673 19.7649 321.493 19.4922 321.402 19.1853C321.311 18.8784 321.314 18.5514 321.411 18.2464C321.508 17.9413 321.693 17.6721 321.944 17.4734C322.195 17.2747 322.5 17.1555 322.819 17.1313L322.799 17.1348Z" fill="#99DDC8"/>
<path opacity="0.4" d="M327.157 16.7038C327.47 16.6802 327.782 16.7488 328.056 16.9011C328.33 17.0533 328.554 17.2825 328.699 17.5603C328.844 17.8382 328.905 18.1525 328.873 18.4644C328.842 18.7763 328.719 19.0721 328.522 19.3152L324.581 24.0871C324.453 24.2639 324.29 24.4127 324.102 24.5242C323.914 24.6358 323.705 24.7077 323.488 24.7357C323.272 24.7637 323.051 24.747 322.841 24.6868C322.631 24.6267 322.436 24.5242 322.267 24.3857C322.098 24.2472 321.959 24.0756 321.858 23.8815C321.758 23.6874 321.698 23.4748 321.683 23.2568C321.668 23.0388 321.697 22.82 321.77 22.6138C321.842 22.4076 321.956 22.2184 322.104 22.0577L326.039 17.2567C326.179 17.0946 326.35 16.9621 326.542 16.8671C326.734 16.7722 326.943 16.7166 327.157 16.7038V16.7038Z" fill="#99DDC8"/>
<path d="M657.116 0.268749C657.362 1.64261 657.195 3.05867 656.637 4.33793C656.079 5.61719 655.154 6.70222 653.979 7.45587C652.804 8.20953 651.432 8.59798 650.037 8.57212C648.641 8.54626 647.285 8.10726 646.139 7.3106C644.993 6.51393 644.108 5.39538 643.598 4.09632C643.087 2.79726 642.973 1.376 643.271 0.0122082C643.568 -1.35159 644.262 -2.59671 645.267 -3.56576C646.271 -4.53481 647.541 -5.1843 648.914 -5.43212C650.758 -5.76204 652.657 -5.34702 654.194 -4.27818C655.732 -3.20934 656.783 -1.57403 657.116 0.268749V0.268749ZM646.331 2.20286C646.466 2.95211 646.82 3.64445 647.349 4.1924C647.878 4.74035 648.557 5.11933 649.301 5.28144C650.045 5.44354 650.82 5.38151 651.528 5.10318C652.237 4.82485 652.847 4.34271 653.282 3.71768C653.717 3.09265 653.957 2.35277 653.971 1.59154C653.986 0.830312 653.774 0.081889 653.363 -0.559164C652.952 -1.20022 652.361 -1.70513 651.663 -2.01011C650.966 -2.31509 650.193 -2.40645 649.444 -2.27264C648.445 -2.08374 647.561 -1.50749 646.985 -0.669575C646.41 0.168339 646.188 1.19993 646.37 2.20021L646.331 2.20286Z" fill="#BBDEFB"/>
<path d="M646.775 33.5544C646.666 31.9232 645.255 30.6896 643.624 30.799C641.992 30.9084 640.759 32.3195 640.868 33.9507C640.978 35.5818 642.389 36.8155 644.02 36.706C645.651 36.5966 646.885 35.1855 646.775 33.5544Z" fill="#4389FF"/>
<path d="M576.041 49.7015C575.886 47.3939 573.89 45.6486 571.583 45.8035C569.275 45.9583 567.53 47.9545 567.685 50.2622C567.839 52.5698 569.836 54.315 572.143 54.1602C574.451 54.0054 576.196 52.0092 576.041 49.7015Z" fill="#00549E"/>
<path opacity="0.4" d="M608.618 28.5291C608.668 28.7999 608.647 29.079 608.557 29.3392C608.466 29.5993 608.31 29.8313 608.102 30.0124L603.417 34.127C603.259 34.2679 603.075 34.3763 602.875 34.446C602.675 34.5158 602.464 34.5454 602.252 34.5333C602.041 34.5213 601.834 34.4677 601.643 34.3756C601.453 34.2836 601.282 34.1549 601.141 33.9969C601 33.8389 600.892 33.6547 600.822 33.4549C600.752 33.255 600.723 33.0433 600.735 32.832C600.747 32.6206 600.801 32.4137 600.893 32.2231C600.985 32.0325 601.113 31.8618 601.271 31.7209L605.978 27.6346C606.136 27.4937 606.32 27.3854 606.52 27.3159C606.719 27.2464 606.931 27.2172 607.142 27.2297C607.353 27.2423 607.56 27.2965 607.75 27.3892C607.94 27.482 608.11 27.6113 608.25 27.77C608.434 27.9879 608.561 28.249 608.618 28.5291V28.5291Z" fill="#FFA400"/>
<path opacity="0.4" d="M608.405 32.8991C608.462 33.2428 608.406 33.5957 608.245 33.9051C608.085 34.2144 607.829 34.4635 607.515 34.6152C607.202 34.7669 606.847 34.813 606.505 34.7467C606.163 34.6803 605.852 34.505 605.618 34.247L601.513 29.5612C601.228 29.2421 601.082 28.8231 601.107 28.3962C601.131 27.9694 601.324 27.5697 601.643 27.2852C601.962 27.0006 602.381 26.8544 602.808 26.8788C603.235 26.9032 603.634 27.0962 603.919 27.4153L608.024 32.1011C608.22 32.3278 608.352 32.6036 608.405 32.8991Z" fill="#FFA400"/>
<path d="M556.336 25.5675C556.387 25.8526 556.358 26.1462 556.254 26.4164C556.179 26.6138 556.067 26.7944 555.922 26.9479C555.777 27.1014 555.603 27.2246 555.411 27.3105C555.218 27.3963 555.01 27.443 554.799 27.448C554.589 27.4529 554.379 27.416 554.182 27.3392L547.716 24.8658C547.317 24.7136 546.996 24.4094 546.822 24.02C546.648 23.6307 546.635 23.1882 546.788 22.7898C546.94 22.3914 547.244 22.0699 547.633 21.8958C548.023 21.7217 548.465 21.7095 548.864 21.8617L555.38 24.3417C555.631 24.4475 555.85 24.6157 556.018 24.8302C556.185 25.0448 556.294 25.2986 556.336 25.5675Z" fill="#BBDEFB"/>
<path d="M554.338 21.0879C554.394 21.376 554.366 21.6742 554.257 21.9467L551.783 28.4133C551.625 28.802 551.321 29.1132 550.936 29.28C550.551 29.4469 550.115 29.4561 549.724 29.3058C549.332 29.1555 549.014 28.8576 548.84 28.4761C548.665 28.0945 548.647 27.6596 548.789 27.2648L551.263 20.7981C551.388 20.4713 551.617 20.1945 551.915 20.01C552.212 19.8255 552.562 19.7434 552.91 19.7762C553.259 19.8091 553.587 19.955 553.845 20.1919C554.103 20.4287 554.276 20.7434 554.338 21.0879V21.0879Z" fill="#BBDEFB"/>
<path opacity="0.4" d="M438.162 63.6718C437.901 62.0518 438.127 60.3909 438.811 58.8992C439.494 57.4075 440.605 56.152 442.002 55.2914C443.399 54.4309 445.02 54.004 446.66 54.0647C448.299 54.1253 449.884 54.6709 451.214 55.6323C452.544 56.5938 453.558 57.9279 454.13 59.466C454.701 61.0042 454.804 62.6772 454.424 64.2736C454.045 65.87 453.201 67.3181 451.998 68.4346C450.796 69.5512 449.289 70.2861 447.669 70.5465C445.497 70.893 443.277 70.3638 441.494 69.075C439.712 67.7862 438.513 65.8431 438.162 63.6718ZM441.886 63.0733C442.028 63.9568 442.429 64.7783 443.038 65.434C443.646 66.0897 444.436 66.5502 445.307 66.7571C446.177 66.964 447.09 66.9081 447.928 66.5965C448.767 66.2848 449.495 65.7314 450.019 65.0063C450.544 64.2812 450.841 63.4168 450.874 62.5226C450.907 61.6284 450.674 60.7444 450.205 59.9825C449.736 59.2206 449.051 58.615 448.238 58.2422C447.424 57.8694 446.518 57.7463 445.635 57.8883C444.451 58.0811 443.392 58.735 442.69 59.7067C441.987 60.6784 441.698 61.8889 441.886 63.0733V63.0733Z" fill="#BBDEFB"/>
<path d="M482.61 14.6788C479.927 15.11 478.102 17.6346 478.533 20.3176C478.964 23.0006 481.489 24.826 484.172 24.3948C486.855 23.9636 488.68 21.439 488.249 18.756C487.818 16.073 485.293 14.2475 482.61 14.6788Z" fill="#BCE784"/>
<path d="M501.809 68.5506C501.387 68.5096 500.964 68.6113 500.607 68.8394C500.251 69.0676 499.981 69.4088 499.841 69.8086C499.701 70.2084 499.7 70.6435 499.837 71.0443C499.974 71.445 500.241 71.7881 500.596 72.0187L510.871 78.5686C511.079 78.7017 511.312 78.7925 511.555 78.8358C511.799 78.8791 512.049 78.8739 512.29 78.8206C512.532 78.7674 512.761 78.6671 512.963 78.5254C513.166 78.3838 513.339 78.2035 513.472 77.995C513.606 77.7866 513.696 77.5539 513.74 77.3103C513.783 77.0667 513.778 76.817 513.724 76.5754C513.671 76.3338 513.571 76.105 513.429 75.9022C513.288 75.6994 513.107 75.5264 512.899 75.3933L502.625 68.8434C502.38 68.6816 502.1 68.5811 501.809 68.5506V68.5506Z" fill="#BCE784"/>
<path d="M510.248 66.7109C509.901 66.6762 509.551 66.7384 509.236 66.8905C508.922 67.0427 508.656 67.2789 508.468 67.5729L501.918 77.8472C501.649 78.2682 501.558 78.7789 501.666 79.2668C501.773 79.7548 502.07 80.18 502.491 80.4489C502.912 80.7179 503.423 80.8086 503.911 80.701C504.399 80.5935 504.824 80.2965 505.093 79.8754L511.643 69.6012C511.776 69.3898 511.866 69.154 511.907 68.9077C511.948 68.6613 511.939 68.4092 511.882 68.1661C511.824 67.923 511.719 67.6938 511.572 67.4919C511.425 67.2899 511.239 67.1193 511.026 66.9899C510.789 66.8433 510.524 66.7482 510.248 66.7109V66.7109Z" fill="#BCE784"/>
</g>
</svg>
