<svg width="212" height="52" viewBox="0 0 212 52" fill="none" xmlns="http://www.w3.org/2000/svg">
<path d="M7.39273 20.9897C6.72934 20.5312 6.39764 19.7415 6.47419 18.9264C6.55073 18.1367 7.06103 17.4234 7.80096 17.1177L7.92854 17.0668L4.33094 14.5194C2.85108 17.2451 1.88152 20.2765 1.49879 23.5116H10.8627L7.39273 20.9897ZM32.831 14.3156C33.2393 14.9015 33.3413 15.6402 33.1372 16.328C32.9076 16.9904 32.3718 17.5253 31.7084 17.7546L30.943 18.0093L35.306 23.5116H51.3293C49.9005 11.055 39.3118 1.375 26.4268 1.375C25.5338 1.375 24.6663 1.42595 23.7988 1.50237L32.831 14.3156ZM12.7508 24.8617H1.39673C1.37122 25.3712 1.3457 25.8552 1.3457 26.3647C1.3457 26.7213 1.3457 27.0524 1.37122 27.4091H16.2974L12.7508 24.8617ZM43.5983 41.1648H46.6091C47.1959 40.3497 47.7572 39.5091 48.242 38.6175H41.5826L43.5983 41.1648ZM39.6945 36.2484H49.4412C49.7984 35.4333 50.1046 34.5672 50.3853 33.7011H37.7044L39.6945 36.2484ZM36.8114 30.5423L35.4591 30.8735L36.0714 31.6632H50.8956C51.0742 30.8225 51.2017 29.9819 51.3038 29.1158H38.3678C38.1381 29.8291 37.5513 30.364 36.8114 30.5423ZM51.4059 24.8617H36.3521L38.0106 26.9506C38.1126 27.1034 38.2147 27.2562 38.2912 27.4091H51.4314C51.4569 27.0524 51.4569 26.7213 51.4569 26.3647C51.4569 25.8552 51.4569 25.3457 51.4059 24.8617ZM14.3583 29.8291C14.3838 29.5743 14.4348 29.3196 14.5369 29.1158H1.49879C1.60085 29.9819 1.72843 30.8225 1.90703 31.6632H15.0727C14.5879 31.2047 14.3073 30.5423 14.3583 29.8291ZM27.0647 38.6175H4.56057C5.04536 39.5091 5.60669 40.3497 6.19353 41.1648H31.4532L27.0647 38.6175ZM18.5172 33.7011H2.44284C2.69799 34.5672 3.02968 35.4078 3.38689 36.2484H22.9313L18.5172 33.7011ZM26.4013 51.3798C29.7948 51.3798 33.0096 50.7175 35.9439 49.4947H16.8332C19.7929 50.7175 23.0333 51.3798 26.4013 51.3798ZM36.199 43.8905H8.51538C9.4084 44.8076 10.4035 45.6482 11.4241 46.4379H40.5876L36.199 43.8905Z" fill="url(#paint0_linear_390_4360)"/>
<path d="M0.223192 8.58299L20.1248 0.0238455C20.2779 -0.0271018 20.431 -0.0016282 20.533 0.151214L31.3003 15.4099C31.4279 15.6137 31.3513 15.8939 31.1217 15.9704L28.2385 16.9129C28.0089 16.9893 27.9323 17.295 28.0854 17.4733L36.5819 28.1468C36.735 28.3505 36.6329 28.6562 36.4033 28.7072L32.7291 29.5988C32.474 29.6497 32.3719 29.9554 32.5505 30.1592L45.0528 45.9783C45.2824 46.284 44.9507 46.717 44.619 46.5133L16.4762 30.2865C16.221 30.1337 16.2465 29.7516 16.5272 29.6497L19.9207 28.2996C20.1758 28.1977 20.2268 27.8411 19.9972 27.6882L8.56655 19.4602C8.33692 19.3074 8.38795 18.9508 8.61758 18.8489L11.2201 17.7026C11.4752 17.6007 11.5008 17.244 11.2711 17.0912L0.146647 9.19436C-0.082987 9.04152 -0.0319565 8.68489 0.223192 8.58299Z" fill="url(#paint1_linear_390_4360)"/>
<path d="M166.81 31.4334C166.759 31.4844 166.683 31.5353 166.606 31.5608C166.53 31.6117 166.479 31.6882 166.453 31.7901C166.428 31.9684 166.275 32.1467 165.994 32.325C165.943 32.4014 165.815 32.5033 165.662 32.6307C165.637 32.7071 165.586 32.7835 165.535 32.8599V32.8854L165.458 33.1147L165.509 33.1402L165.458 33.1656C165.382 33.2166 165.28 33.2675 165.203 33.3439C165.126 33.4204 165.024 33.4713 164.948 33.5223C164.769 33.6242 164.616 33.7515 164.438 33.8279C164.259 33.9298 164.106 34.0317 163.927 34.1336C163.876 34.1846 163.825 34.21 163.774 34.2355C163.723 34.261 163.672 34.2865 163.621 34.3374C163.545 34.3884 163.468 34.4393 163.391 34.4903C163.315 34.5412 163.238 34.5922 163.162 34.6431C162.932 34.745 162.677 34.8724 162.422 34.9743C162.141 35.0762 161.912 35.2035 161.682 35.3054C161.529 35.4073 161.376 35.4837 161.223 35.5347C161.07 35.5856 160.891 35.6621 160.763 35.7385C160.712 35.7894 160.661 35.8149 160.636 35.8149C160.61 35.8149 160.559 35.8658 160.508 35.8913L160.33 35.9677C160.228 36.0442 160.1 36.0951 159.972 36.1715C159.845 36.2479 159.717 36.2989 159.615 36.3753C159.309 36.5027 159.003 36.6555 158.748 36.7829C158.467 36.9103 158.212 37.0631 157.906 37.2414C157.829 37.3178 157.727 37.3688 157.6 37.4197C157.497 37.4707 157.37 37.5471 157.217 37.598C156.987 37.6999 156.783 37.8273 156.604 37.9037C156.426 38.0056 156.222 38.133 156.018 38.2858C155.762 38.4642 155.354 38.617 154.818 38.7189C154.665 38.7698 154.563 38.7953 154.461 38.8208C154.359 38.8463 154.257 38.8717 154.13 38.9227H154.053C154.002 38.9482 153.925 38.9736 153.823 38.9991C153.721 39.0246 153.67 39.101 153.619 39.1774C153.543 39.3048 153.415 39.4067 153.237 39.4831C153.058 39.5595 152.854 39.6105 152.599 39.6614C152.548 39.6869 152.471 39.7124 152.395 39.7124C152.318 39.7124 152.267 39.7378 152.19 39.7633C152.165 39.7888 152.114 39.7888 152.063 39.7888C152.012 39.8143 151.935 39.8397 151.859 39.8652C151.782 39.8907 151.68 39.9161 151.604 39.9671C151.144 40.2473 150.66 40.3492 150.124 40.2473C150.047 40.1964 149.92 40.1709 149.766 40.1709C149.613 40.1709 149.46 40.2218 149.307 40.2983C149.154 40.3747 149.027 40.4256 148.848 40.4511C148.695 40.4511 148.491 40.4766 148.261 40.4766C148.108 40.4766 147.98 40.4766 147.802 40.4766C147.649 40.4766 147.47 40.502 147.317 40.553C147.011 40.6294 146.577 40.6549 146.041 40.6294H145.582H145.403H145.327C145.097 40.553 144.868 40.502 144.664 40.4511C144.459 40.4002 144.23 40.3492 144 40.2983C143.49 40.1964 142.98 40.069 142.469 39.9416C142.01 39.8143 141.551 39.6614 141.091 39.5086C140.632 39.3557 140.198 39.1519 139.79 38.8972C139.637 38.8463 139.535 38.7953 139.433 38.7189C139.331 38.6425 139.203 38.5406 139.076 38.4387C139.025 38.3877 138.974 38.3623 138.923 38.3113C138.872 38.2858 138.821 38.2349 138.77 38.1839L138.719 38.1585C138.693 38.133 138.642 38.1075 138.617 38.0566C138.565 38.0056 138.514 37.9801 138.412 37.9547C138.157 37.8783 137.953 37.7764 137.775 37.649C137.596 37.5216 137.443 37.3688 137.264 37.1905C137.086 36.9867 136.856 36.8084 136.55 36.6301C136.55 36.6046 136.524 36.6046 136.499 36.6046C136.473 36.3753 136.397 36.197 136.244 36.0696C136.091 35.9423 135.937 35.8149 135.784 35.713L135.733 35.6875C135.682 35.6366 135.631 35.5856 135.58 35.5092C135.529 35.4328 135.504 35.3564 135.478 35.2545C135.427 35.178 135.376 35.1271 135.351 35.0507C135.325 34.9743 135.274 34.9233 135.223 34.8469C134.993 34.5157 134.815 34.1591 134.662 33.8025C134.509 33.4458 134.432 32.9873 134.356 32.4778C134.33 32.4014 134.304 32.2995 134.304 32.1976C134.304 32.1212 134.279 32.0193 134.253 31.9174C134.202 31.6117 134.151 31.3061 134.1 30.9749C134.049 30.6692 134.049 30.3635 134.075 30.0324L134.126 30.0069C134.177 29.6757 134.228 29.3446 134.279 29.0134C134.33 28.6823 134.381 28.3511 134.483 28.0454C134.636 27.5105 134.789 26.9755 134.942 26.4151C135.121 25.8802 135.3 25.3197 135.529 24.7593C135.606 24.5046 135.733 24.2753 135.861 24.0715C136.014 23.8677 136.167 23.6385 136.32 23.3838C136.397 23.2564 136.499 23.1035 136.575 22.9762C136.652 22.8488 136.728 22.696 136.779 22.5686C136.83 22.4667 136.881 22.3648 136.907 22.2629C136.933 22.1865 136.958 22.0846 136.984 21.9572C137.009 21.9063 137.035 21.8808 137.035 21.8299C137.035 21.8044 137.06 21.7534 137.086 21.7025C137.086 21.677 137.086 21.6515 137.111 21.6515C137.137 21.6515 137.137 21.6261 137.137 21.6006C137.341 21.3204 137.545 21.0656 137.723 20.76C137.979 20.4543 138.234 20.1231 138.514 19.792C138.795 19.4608 139.05 19.1296 139.356 18.824C140.02 18.0852 140.709 17.3465 141.423 16.5568C142.138 15.7926 142.929 15.0029 143.745 14.1623C143.975 13.9076 144.23 13.6783 144.485 13.4745C144.766 13.2707 145.046 13.0414 145.352 12.8122C145.378 12.7612 145.429 12.7358 145.454 12.6848C145.506 12.6593 145.557 12.6084 145.608 12.5574C145.888 12.3537 146.169 12.1499 146.424 11.9461C146.679 11.7423 146.96 11.5385 147.241 11.3347C147.674 11.029 148.083 10.6979 148.516 10.3922C148.95 10.061 149.358 9.72987 149.792 9.39871C150.073 9.14397 150.379 8.94019 150.685 8.7364C150.991 8.53261 151.297 8.35429 151.629 8.17598L152.65 7.46272C153.007 7.23346 153.39 7.02967 153.747 6.8004C154.104 6.59661 154.461 6.36735 154.793 6.13809C154.895 6.06167 155.023 6.01072 155.125 5.95977C155.227 5.90882 155.329 5.8324 155.456 5.78146C155.507 5.73051 155.609 5.67956 155.711 5.57766C155.814 5.50124 155.89 5.37388 155.89 5.22103V5.11914C156.043 5.17009 156.171 5.19556 156.273 5.22103C156.375 5.24651 156.502 5.24651 156.656 5.24651C157.14 5.27198 157.651 5.42482 158.237 5.70503C158.416 5.80693 158.569 5.9343 158.748 6.03619C158.926 6.13809 159.079 6.26545 159.258 6.36735C159.437 6.46924 159.59 6.59661 159.768 6.72398C159.947 6.85135 160.1 6.95325 160.279 7.08061C160.381 7.30988 160.534 7.48819 160.738 7.66651C160.916 7.84482 161.095 7.99766 161.274 8.1505C161.427 8.2524 161.554 8.37977 161.656 8.48167C161.758 8.58356 161.861 8.71093 161.963 8.81282C161.988 8.83829 162.014 8.86376 162.014 8.88924C162.014 8.91471 162.039 8.94019 162.065 8.96566C162.243 9.2204 162.371 9.42419 162.498 9.62798C162.6 9.83177 162.703 10.0356 162.754 10.2648C162.728 10.3667 162.728 10.4941 162.779 10.5705C162.83 10.6724 162.881 10.7743 162.932 10.8507C162.983 10.9271 163.034 10.9781 163.06 11.029C163.085 11.08 163.111 11.1309 163.136 11.1819C163.136 11.3857 163.136 11.5894 163.136 11.7678C163.136 11.9461 163.111 12.1753 163.085 12.3791C163.111 12.4556 163.111 12.5065 163.111 12.5829C163.085 12.6593 163.085 12.7358 163.085 12.8122C163.034 12.9141 163.034 12.965 163.06 13.0414C163.111 13.0924 163.136 13.1433 163.162 13.1943C163.264 13.2962 163.264 13.449 163.162 13.6273C163.136 13.7038 163.111 13.7547 163.085 13.8057C163.06 13.8566 163.034 13.933 163.034 14.0349V14.0604C163.009 14.1368 162.983 14.1878 162.958 14.2897C162.932 14.3661 162.958 14.468 163.034 14.5699C163.06 14.5953 163.085 14.6208 163.085 14.6718C162.881 14.7482 162.754 14.8246 162.677 14.952C162.6 15.0793 162.549 15.1812 162.473 15.3086C162.447 15.3341 162.422 15.3596 162.422 15.3596C162.422 15.3596 162.396 15.385 162.371 15.4105C162.32 15.5379 162.243 15.6907 162.167 15.8181C162.09 15.9709 162.014 16.1238 161.963 16.2766C161.81 16.5313 161.707 16.7606 161.605 16.9899C161.503 17.2191 161.376 17.4484 161.248 17.6522C161.197 17.7541 161.121 17.8305 161.044 17.8814C160.968 17.9579 160.916 18.0088 160.84 18.0852C160.789 18.1107 160.738 18.1362 160.738 18.1617C160.712 18.1871 160.687 18.2126 160.636 18.2381C160.1 18.1617 159.666 18.3909 159.36 18.9004C159.36 18.9259 159.335 18.9768 159.258 19.0278C159.181 19.1042 159.028 19.1296 158.799 19.1296C158.773 19.1296 158.722 19.1296 158.697 19.1042C158.646 19.0787 158.595 19.0532 158.544 19.0278C158.773 18.34 159.003 17.6777 159.207 17.0153C159.411 16.3785 159.59 15.6907 159.692 14.9774C159.743 14.5953 159.794 14.1623 159.794 13.6783C159.819 13.1943 159.819 12.7612 159.819 12.3791C159.845 12.2263 159.87 12.0735 159.87 11.9206C159.87 11.7678 159.896 11.6149 159.921 11.4621C159.921 11.2328 159.896 11.08 159.845 10.9526C159.794 10.8762 159.743 10.8252 159.717 10.7743C159.692 10.7233 159.666 10.6469 159.641 10.596C159.615 10.5705 159.539 10.545 159.411 10.5196C159.284 10.4941 159.207 10.4686 159.181 10.4431L158.977 10.1375L158.646 10.2648C158.595 10.2648 158.544 10.2648 158.518 10.2903C158.339 10.3412 158.212 10.3922 158.135 10.4177C158.059 10.4686 157.957 10.5196 157.88 10.545C157.804 10.596 157.702 10.6469 157.625 10.6724C157.064 10.9526 156.553 11.2073 156.145 11.4876C155.66 11.7932 155.15 12.1244 154.64 12.4555C154.104 12.7867 153.568 13.1433 153.007 13.5254C152.241 14.0604 151.476 14.6208 150.711 15.2322C150.506 15.385 150.379 15.5633 150.277 15.7417C150.098 15.869 149.996 15.9964 149.971 16.0728C149.92 16.1238 149.843 16.1492 149.766 16.2002C149.69 16.2257 149.613 16.2766 149.537 16.3275C149.486 16.3785 149.409 16.4294 149.333 16.4549C149.256 16.5059 149.154 16.5568 149.078 16.6332C148.848 16.837 148.618 17.0408 148.414 17.2446C148.21 17.4484 147.98 17.6522 147.751 17.856C147.343 18.1871 146.985 18.5183 146.628 18.8749C146.271 19.2315 145.914 19.5627 145.531 19.9193L145.454 19.9958C145.403 20.0467 145.352 20.0977 145.276 20.1995L145.225 20.276C145.148 20.3269 145.097 20.3779 145.097 20.4543C145.046 20.5052 144.995 20.5562 144.944 20.5817C144.893 20.6326 144.842 20.6835 144.791 20.709L144.842 20.7345C144.791 20.7854 144.74 20.8619 144.664 20.9638C144.612 21.0656 144.612 21.193 144.715 21.2949L144.664 21.3204V21.3459C144.612 21.3968 144.561 21.4223 144.536 21.4478C144.51 21.4732 144.459 21.4987 144.408 21.5496C144.306 21.677 144.204 21.7534 144.102 21.7534C143.873 21.728 143.719 21.8044 143.617 21.9318C143.515 22.0846 143.439 22.161 143.388 22.212C143.337 22.3139 143.286 22.4157 143.286 22.5176C143.26 22.6195 143.235 22.696 143.184 22.7979C143.158 22.8743 143.133 22.9252 143.107 23.0016C143.082 23.0781 143.056 23.1545 143.031 23.2309V23.2564C143.005 23.2564 142.98 23.2564 142.98 23.2819C142.98 23.3073 142.954 23.3073 142.929 23.3073C142.699 23.4092 142.52 23.4856 142.418 23.613C142.316 23.7149 142.214 23.8423 142.112 23.9442C142.035 24.0715 141.933 24.1734 141.857 24.2499C141.806 24.3008 141.729 24.3517 141.653 24.4282C141.576 24.5046 141.576 24.6065 141.627 24.7339C141.627 24.8357 141.551 24.9631 141.423 25.0905C141.372 25.1924 141.321 25.2688 141.245 25.3707C141.194 25.4726 141.168 25.549 141.168 25.6764C141.142 25.6764 141.117 25.6764 141.091 25.7018C141.066 25.7273 141.04 25.7528 140.989 25.7783C140.938 25.8292 140.887 25.8802 140.887 25.9311C140.862 25.9821 140.836 26.033 140.785 26.084C140.734 26.1858 140.683 26.2877 140.658 26.3642C140.632 26.4406 140.607 26.517 140.581 26.6189C140.53 26.7208 140.479 26.8482 140.403 27.0265C140.352 27.1284 140.275 27.2557 140.198 27.3322C140.122 27.4341 140.071 27.536 139.994 27.6124C139.943 27.6633 139.892 27.7143 139.867 27.7397C139.841 27.7907 139.816 27.8416 139.79 27.8671C139.612 28.0709 139.458 28.2747 139.331 28.4785C139.178 28.6823 139.101 28.9625 139.076 29.2682C139.076 29.4719 138.999 29.7267 138.872 30.0069C138.821 30.1088 138.77 30.2362 138.744 30.3126C138.719 30.4145 138.693 30.5164 138.668 30.6183C138.387 31.6627 138.157 32.6816 137.979 33.6242C137.979 33.8025 138.055 34.0317 138.183 34.3374C138.336 34.6176 138.412 34.8724 138.438 35.0507C138.489 35.1526 138.514 35.2545 138.514 35.3309C138.514 35.4073 138.514 35.4837 138.514 35.5856C138.565 36.0442 138.872 36.2989 139.458 36.4263C140.198 36.5536 140.938 36.681 141.704 36.7829C142.469 36.8848 143.235 36.8338 144 36.6555C144.179 36.6046 144.357 36.5791 144.536 36.5536C144.715 36.5282 144.893 36.5027 145.021 36.4517C145.276 36.4008 145.531 36.3753 145.761 36.3244C145.99 36.2989 146.245 36.2479 146.475 36.1715C146.628 36.1206 146.781 36.0951 146.934 36.0696C147.113 36.0442 147.266 36.0187 147.445 35.9677C147.904 35.8658 148.363 35.7385 148.848 35.6111C149.333 35.4837 149.766 35.3054 150.175 35.1016C150.328 35.0252 150.455 34.9743 150.634 34.9233C150.787 34.8724 150.966 34.8469 151.17 34.7959C151.272 34.745 151.399 34.7195 151.502 34.6686C151.604 34.6431 151.731 34.5922 151.833 34.5412L152.037 34.4648C152.573 34.2865 153.109 34.1082 153.645 33.9044C154.181 33.7006 154.691 33.4968 155.201 33.293C155.89 33.0128 156.528 32.7581 157.115 32.4778C157.702 32.1976 158.288 31.9429 158.824 31.7136C158.926 31.6627 159.054 31.6117 159.156 31.5608C159.258 31.5098 159.335 31.4589 159.386 31.408C159.59 31.6627 159.717 31.7646 159.794 31.7646C159.87 31.7646 159.998 31.7136 160.151 31.5863C160.202 31.5353 160.253 31.5098 160.33 31.5098C160.381 31.5098 160.432 31.4589 160.508 31.4334C160.61 31.3825 160.738 31.357 160.84 31.3315C160.942 31.3061 161.044 31.2806 161.146 31.2296C161.376 31.0513 161.605 30.8985 161.861 30.7966C162.116 30.6947 162.396 30.5673 162.677 30.4654C163.111 30.3381 163.493 30.1597 163.876 29.9814C164.233 29.8031 164.591 29.5738 164.948 29.3701C164.973 29.3191 164.999 29.2427 164.999 29.1408C165.356 29.3446 165.739 29.3191 166.096 29.1153C166.275 29.0389 166.377 28.9625 166.402 28.937C166.326 28.937 166.3 28.9625 166.351 29.0134C166.122 29.1917 165.866 29.3446 165.611 29.472C165.331 29.5993 165.075 29.7012 164.82 29.8286C164.744 29.8795 164.667 29.905 164.591 29.9305C164.514 29.9559 164.438 29.9814 164.361 30.0324C164.106 30.1343 163.851 30.2616 163.621 30.4145C163.391 30.5673 163.136 30.6947 162.881 30.8221C162.805 30.8985 162.703 30.9494 162.6 31.0004C162.498 31.0513 162.396 31.1277 162.32 31.1787C162.294 31.1787 162.243 31.2042 162.192 31.2551C161.886 31.3315 161.605 31.408 161.35 31.5353C161.121 31.6627 160.865 31.7901 160.636 31.9174C160.304 32.1212 159.947 32.2741 159.615 32.4269C159.437 32.4778 159.309 32.5288 159.232 32.5543C158.799 32.6816 158.365 32.8599 157.906 33.0637C157.651 33.1656 157.421 33.2675 157.191 33.4204C157.089 33.4713 156.987 33.5223 156.885 33.5477C156.809 33.5987 156.707 33.6496 156.63 33.6751C156.451 33.777 156.222 33.8534 155.941 33.9044C155.916 33.9553 155.814 34.0063 155.635 34.0317L155.329 34.1591L155.66 34.8724L155.992 34.8469H156.171C156.4 34.8469 156.579 34.8469 156.681 34.8214C156.885 34.7705 157.064 34.745 157.242 34.6941C157.421 34.6431 157.574 34.6176 157.753 34.5667C157.855 34.5157 158.008 34.4648 158.161 34.3884C158.314 34.3119 158.391 34.2101 158.391 34.0572H158.467C158.493 34.0317 158.518 34.0317 158.544 34.0317C158.569 34.0317 158.595 34.0317 158.62 34.0063C159.105 33.8789 159.539 33.7261 159.947 33.5477C159.998 33.4968 160.074 33.4713 160.151 33.4713C160.228 33.4713 160.279 33.4204 160.355 33.3949C160.457 33.3439 160.585 33.293 160.738 33.2421C160.891 33.1911 161.019 33.1147 161.172 33.0637C161.35 32.9873 161.503 32.8854 161.656 32.809C161.809 32.7326 161.988 32.6562 162.192 32.5543C162.498 32.4269 162.805 32.2741 163.06 32.1467C163.34 32.0193 163.621 31.8665 163.927 31.7391C163.978 31.6882 164.055 31.6627 164.131 31.6627C164.208 31.6627 164.259 31.6117 164.335 31.5863C164.361 31.5863 164.386 31.5863 164.386 31.5608C164.412 31.5608 164.412 31.5353 164.463 31.5353C164.361 31.5863 164.259 31.6372 164.157 31.6882C164.08 31.7391 163.978 31.7901 163.902 31.841C163.927 31.8665 163.953 31.8919 163.953 31.9429C164.004 31.9429 164.055 31.9429 164.131 31.9684C164.182 31.9938 164.233 31.9938 164.259 31.9684C164.489 31.8665 164.718 31.7391 164.922 31.6627C165.126 31.5608 165.356 31.4589 165.586 31.357C165.739 31.2806 165.841 31.2296 165.917 31.1532C165.994 31.0768 166.122 31.0258 166.249 30.9749C166.479 30.8985 166.581 30.7202 166.555 30.4654C166.632 30.44 166.734 30.4145 166.836 30.389C166.938 30.3635 167.04 30.3381 167.117 30.2871C167.168 30.2362 167.244 30.2107 167.321 30.1597C167.397 30.1088 167.499 30.0833 167.627 30.0324L167.55 30.1088C167.805 30.0833 168.061 30.0069 168.29 29.8795C168.52 29.7522 168.673 29.5993 168.75 29.421C168.852 29.3701 168.928 29.3446 168.954 29.3191L169.03 29.3955C169.285 29.3955 169.464 29.3446 169.592 29.2682C169.694 29.1917 169.745 29.1408 169.719 29.1408C169.694 29.1408 169.592 29.1917 169.387 29.3446C169.209 29.4974 168.928 29.8031 168.545 30.2616C168.29 30.4909 167.933 30.6947 167.474 30.873C167.397 30.924 167.295 30.9749 167.193 31.0004C167.091 31.0513 166.989 31.1023 166.861 31.1787H166.81V31.4334ZM134.738 31.1023C134.993 31.0258 135.146 30.8475 135.198 30.6437C135.249 30.4145 135.146 30.2107 134.917 30.0324C134.891 30.2107 134.866 30.389 134.84 30.5418C134.84 30.7202 134.815 30.8985 134.738 31.1023ZM135.3 29.5993C135.351 29.5484 135.402 29.5229 135.453 29.472C135.504 29.421 135.58 29.3446 135.682 29.2427L135.249 29.1153C135.198 29.1663 135.146 29.2172 135.146 29.2936C135.121 29.3701 135.095 29.421 135.044 29.472C135.044 29.4974 135.121 29.5484 135.3 29.5993ZM137.851 23.9187C137.545 24.0206 137.366 24.148 137.29 24.2499C137.239 24.3517 137.264 24.5301 137.417 24.7084C137.672 24.5301 137.826 24.4027 137.877 24.3008C137.928 24.2244 137.902 24.097 137.851 23.9187ZM138.438 22.645C138.361 22.7724 138.285 22.9252 138.234 23.0781C138.183 23.2309 138.132 23.3837 138.055 23.5366C138.055 23.5621 138.081 23.5875 138.132 23.6385C138.438 23.2309 138.744 22.8488 139.025 22.4412C139.305 22.0591 139.612 21.6515 139.918 21.244C139.892 21.2185 139.867 21.193 139.841 21.193C139.816 21.193 139.79 21.1675 139.765 21.1421C139.561 21.193 139.433 21.2694 139.331 21.4223C139.254 21.5496 139.178 21.7025 139.127 21.8553C139.05 22.0082 138.923 22.1355 138.795 22.2629C138.642 22.3903 138.54 22.5176 138.438 22.645ZM139.892 20.9128C139.892 20.9383 139.918 20.9637 139.943 20.9892C139.969 21.0147 139.994 21.0656 140.02 21.1166C140.071 21.0911 140.122 21.0911 140.198 21.0911C140.249 21.0911 140.3 21.0656 140.326 21.0147C140.479 20.8364 140.581 20.6581 140.658 20.4797C140.709 20.4288 140.734 20.3779 140.734 20.3014C140.734 20.225 140.76 20.1741 140.785 20.1231C140.76 20.0976 140.734 20.0722 140.709 20.0722C140.683 20.0722 140.658 20.0467 140.632 20.0212C140.479 20.1741 140.352 20.3269 140.249 20.4543C140.122 20.6071 139.994 20.76 139.892 20.9128ZM141.5 19.4099C141.066 19.5118 140.836 19.6136 140.785 19.6646C140.734 19.7155 140.811 19.8684 140.989 20.1231C141.168 19.8429 141.347 19.6136 141.5 19.4099ZM161.248 30.7711C161.146 30.873 161.019 30.9749 160.916 31.0768C160.814 31.1787 160.687 31.2551 160.534 31.3061C160.381 31.357 160.253 31.4079 160.1 31.4334C159.947 31.4844 159.819 31.5353 159.666 31.5608C159.717 31.5098 159.794 31.4844 159.87 31.4334C159.947 31.4079 159.998 31.357 160.074 31.3061C160.228 31.2296 160.355 31.1277 160.534 31.0513C160.687 30.9749 160.84 30.8985 160.993 30.8221C161.223 30.7202 161.452 30.5928 161.656 30.4909C161.861 30.389 162.09 30.2616 162.32 30.1597C162.473 30.0833 162.6 30.0324 162.779 29.9305C162.932 29.8541 163.111 29.7776 163.264 29.7012C163.442 29.6248 163.545 29.5484 163.57 29.4974C163.672 29.421 163.8 29.3446 163.953 29.2936C164.106 29.2427 164.284 29.1408 164.54 28.988L164.718 29.1663C164.565 29.1663 164.489 29.1663 164.412 29.1917C164.233 29.2682 164.055 29.3191 163.876 29.421C163.698 29.4974 163.519 29.5993 163.34 29.7012C163.111 29.8541 162.881 30.0069 162.626 30.1597C162.396 30.3126 162.141 30.4654 161.886 30.6183C161.682 30.5418 161.478 30.5673 161.248 30.7711ZM166.989 28.8351C166.912 28.8861 166.836 28.9115 166.785 28.9625C166.734 28.988 166.657 29.0389 166.581 29.0898C166.683 28.988 166.81 28.8861 166.989 28.8351Z" fill="white"/>
<path d="M183.956 23.2824C184.007 23.5626 184.033 23.8173 183.982 24.0975C183.931 24.3777 183.931 24.6325 183.931 24.9127C183.931 24.9891 183.931 25.0401 183.956 25.142C183.982 25.2184 183.956 25.2948 183.931 25.3712C183.88 25.5495 183.829 25.7279 183.778 25.9316C183.727 26.11 183.65 26.3137 183.548 26.4921C183.472 26.6704 183.37 26.8487 183.268 27.0015C183.166 27.1544 183.165 27.3327 183.293 27.5365C183.446 27.7657 183.421 27.9441 183.242 28.0969C183.063 28.2497 182.936 28.4281 182.808 28.6064C182.655 28.8356 182.528 29.0649 182.4 29.2687C182.272 29.498 182.145 29.7272 181.992 29.931C181.941 29.982 181.89 30.0329 181.839 30.0584C181.788 30.1093 181.737 30.1603 181.686 30.1857C181.482 30.415 181.303 30.6443 181.124 30.8481C180.946 31.0773 180.767 31.3066 180.563 31.5104C180.384 31.6887 180.206 31.867 180.027 32.0453C179.849 32.2236 179.67 32.4019 179.491 32.5803C179.44 32.6312 179.389 32.6822 179.389 32.7586C179.364 32.835 179.338 32.9114 179.287 32.9878C179.262 33.0133 179.134 33.0643 178.905 33.1662C179.058 33.2681 179.16 33.3699 179.236 33.4718C178.93 33.7521 178.624 34.0068 178.318 34.2615C178.012 34.5163 177.705 34.771 177.399 35.0512C177.144 35.3059 176.889 35.5352 176.634 35.8154C176.379 36.0702 176.123 36.3249 175.868 36.5796C175.664 36.7325 175.486 36.8853 175.281 37.0382C175.103 37.191 174.899 37.3184 174.669 37.4457C174.49 37.5476 174.337 37.675 174.159 37.8024C173.98 37.9297 173.802 38.0316 173.597 38.159C173.291 38.3628 172.96 38.5411 172.628 38.7194C172.296 38.8977 171.964 39.0761 171.684 39.3053C171.378 39.5346 171.046 39.6619 170.689 39.6874C170.332 39.7129 170 39.8148 169.694 39.9676C169.592 40.0186 169.439 40.0186 169.285 39.9931C169.132 39.9676 168.979 39.9422 168.826 39.8912C168.469 39.7893 168.137 39.6365 167.857 39.4836C167.704 39.4072 167.55 39.3563 167.372 39.3308C167.193 39.3308 167.015 39.2544 166.887 39.1015C166.683 38.9232 166.479 38.7449 166.275 38.5666C166.071 38.3883 165.841 38.2099 165.611 38.0316C165.356 37.8024 165.152 37.5476 164.973 37.2165C164.795 36.9363 164.642 36.6815 164.463 36.4013C164.285 36.1211 164.131 35.8154 164.004 35.5097C163.953 35.3824 163.902 35.2295 163.876 35.1022C163.851 34.9493 163.825 34.8219 163.8 34.6946C163.8 34.3889 163.8 34.0832 163.774 33.7775C163.749 33.4718 163.774 33.1662 163.851 32.8605C163.902 32.5548 163.978 32.2236 164.08 31.8925C164.182 31.5613 164.285 31.2302 164.412 30.9245C164.412 30.8735 164.438 30.8481 164.489 30.7971C164.54 30.7716 164.565 30.7462 164.565 30.7207C164.591 30.6188 164.591 30.5169 164.591 30.4405C164.565 30.3641 164.591 30.3131 164.616 30.2367C164.871 29.5744 165.152 28.9375 165.458 28.3262C165.535 28.1224 165.637 27.9186 165.764 27.7403C165.866 27.562 165.994 27.3582 166.096 27.1799C166.198 27.0015 166.3 26.8232 166.402 26.6194C166.479 26.4411 166.606 26.2373 166.734 26.059C166.913 25.7788 167.066 25.4986 167.244 25.2184C167.423 24.9382 167.601 24.6834 167.806 24.4032C168.29 23.6645 168.775 22.9512 169.285 22.2634C169.439 22.0851 169.566 21.9068 169.694 21.754C169.821 21.5756 169.949 21.4228 170.102 21.2445C170.153 21.1935 170.204 21.1426 170.229 21.0662C170.255 20.9898 170.255 20.9643 170.229 20.9388C170.076 20.786 169.923 20.7095 169.719 20.7095C169.566 20.735 169.439 20.7605 169.26 20.786C169.107 20.8114 168.954 20.8624 168.801 20.9133C168.648 20.7605 168.494 20.6586 168.341 20.6586C168.163 20.6586 167.908 20.6841 167.576 20.786C167.321 20.8624 167.015 20.9133 166.657 20.9133C166.3 20.9133 165.994 20.8624 165.688 20.7605C165.79 20.7095 165.892 20.6841 165.969 20.6586C166.045 20.6331 166.096 20.6076 166.173 20.6076C166.428 20.6076 166.632 20.5567 166.785 20.4803C166.938 20.4039 167.091 20.251 167.244 20.0727C167.295 20.0218 167.346 19.9963 167.397 19.9708C167.448 19.9453 167.499 19.9199 167.55 19.8689C168.112 19.6906 168.673 19.5123 169.183 19.3594C169.719 19.2066 170.229 19.0538 170.791 18.9009C171.097 18.8245 171.403 18.7226 171.684 18.6717C171.964 18.5952 172.271 18.5188 172.577 18.4424C172.73 18.366 172.857 18.315 173.036 18.2131C173.189 18.1367 173.215 17.9839 173.113 17.8055C173.546 17.6272 173.878 17.3725 174.133 17.0668C174.388 16.7611 174.669 16.4809 174.975 16.2262C175.205 16.0479 175.409 15.8695 175.613 15.6912C175.817 15.5129 176.021 15.3346 176.251 15.1563C176.404 15.0799 176.557 15.0544 176.71 15.0799C176.889 15.1308 177.016 15.2072 177.093 15.3091C177.118 15.3601 177.246 15.411 177.425 15.4365C177.578 15.462 177.731 15.4874 177.884 15.4874C178.063 15.4874 178.216 15.5129 178.343 15.5384C178.343 15.5639 178.318 15.5893 178.267 15.6403C178.369 15.7167 178.522 15.8186 178.7 15.946C178.879 16.0479 179.058 16.1498 179.236 16.2517C179.415 16.3536 179.542 16.5064 179.593 16.7102C179.593 16.7611 179.619 16.8121 179.67 16.8375C179.9 16.9394 180.002 17.0668 179.976 17.1687C179.951 17.2706 179.9 17.398 179.849 17.5253C179.747 17.6782 179.619 17.831 179.517 17.9839C179.415 18.1367 179.338 18.315 179.287 18.4933C179.236 18.5952 179.287 18.6717 179.466 18.7735C179.823 18.9519 180.206 19.1302 180.563 19.334C180.92 19.5378 181.303 19.7161 181.686 19.8944C181.966 20.0218 182.196 20.1746 182.375 20.3784C182.553 20.5567 182.706 20.735 182.885 20.9133C182.936 20.9643 182.961 21.0152 182.961 21.0917C182.961 21.1681 182.987 21.2445 183.012 21.3209C183.166 21.27 183.242 21.2954 183.268 21.3973C183.293 21.4992 183.319 21.6011 183.344 21.7285C183.421 22.0087 183.548 22.2634 183.676 22.5182C183.803 22.7474 183.88 23.0022 183.956 23.2824ZM182.324 24.3778C182.324 24.2249 182.375 24.0721 182.451 23.8938C182.528 23.7154 182.451 23.6135 182.196 23.5371C182.145 23.2569 182.068 22.9767 181.992 22.722C181.915 22.4672 181.864 22.2125 181.839 21.9578C181.813 21.7794 181.762 21.6266 181.66 21.4992C181.584 21.3719 181.43 21.219 181.201 21.0917V21.703C181.099 21.6266 181.022 21.5502 180.997 21.4992C180.92 21.3464 180.844 21.1935 180.793 21.0407C180.742 20.8879 180.614 20.735 180.461 20.5822C180.308 20.4548 180.129 20.3274 179.874 20.2255C179.644 20.1236 179.364 20.0218 179.083 19.9453C178.802 19.8689 178.522 19.818 178.241 19.818C177.96 19.818 177.731 19.8434 177.527 19.8944C177.45 19.9199 177.374 19.9708 177.348 20.0218C177.093 20.2765 176.838 20.5058 176.583 20.735C176.328 20.9643 176.098 21.1935 175.868 21.4483C175.588 21.7285 175.307 22.0342 175.026 22.3144C174.746 22.5946 174.49 22.9003 174.184 23.1805C174.031 23.2824 173.929 23.4097 173.827 23.5371C173.725 23.6645 173.623 23.7664 173.495 23.8938C173.342 24.0975 173.215 24.3013 173.036 24.4796C172.883 24.658 172.73 24.8617 172.577 25.0655C172.347 25.3457 172.143 25.6514 171.939 25.9062C171.735 26.1864 171.531 26.4921 171.301 26.7977C171.199 26.9251 171.071 27.0525 170.969 27.1799C170.867 27.3072 170.765 27.4346 170.689 27.562C170.459 27.8931 170.255 28.2243 170.076 28.5554C169.898 28.8866 169.694 29.1923 169.49 29.498C169.336 29.7272 169.234 29.9565 169.132 30.1603C169.03 30.3895 168.903 30.6188 168.775 30.8735C168.699 30.9754 168.622 31.1283 168.597 31.2811C168.571 31.434 168.392 31.4849 168.086 31.4594C168.035 31.7396 168.01 31.9944 168.061 32.2746C168.112 32.5548 167.933 32.7586 167.525 32.9369V33.0388C167.474 33.2935 167.423 33.5483 167.346 33.803C167.295 34.0832 167.244 34.3379 167.168 34.5672C167.142 34.6691 167.091 34.7965 167.066 34.9238C167.015 35.0512 166.989 35.1531 166.989 35.2805C166.989 35.5607 166.989 35.8154 167.015 36.0956C167.04 36.3758 167.04 36.6306 167.091 36.9108C167.142 37.1655 167.295 37.2419 167.55 37.191C167.857 37.0891 168.163 36.9872 168.469 36.8853C168.775 36.8089 169.056 36.6815 169.336 36.5542C169.668 36.3758 170.025 36.1975 170.357 35.9937C170.689 35.7899 171.02 35.6116 171.327 35.4333C171.633 35.255 171.939 35.0767 172.22 34.8729C172.5 34.6691 172.781 34.4908 173.062 34.3125C173.215 34.2106 173.342 34.0832 173.444 34.0068C173.546 33.9049 173.674 33.7775 173.827 33.6502C173.827 33.5737 173.878 33.4718 174.006 33.3699C174.108 33.2935 174.235 33.2426 174.388 33.2681H174.822C174.797 33.1916 174.771 33.1407 174.771 33.0897C174.746 33.0388 174.746 32.9624 174.695 32.9114C174.746 32.8605 174.822 32.8095 174.924 32.7331C175.026 32.6567 175.128 32.6057 175.256 32.5293C175.332 32.4529 175.46 32.4019 175.588 32.351C175.741 32.3001 175.792 32.2236 175.792 32.1727C175.792 31.918 175.868 31.8161 175.996 31.867C176.149 31.8925 176.302 31.8925 176.506 31.8415C176.302 32.0708 176.174 32.2491 176.072 32.402C176.123 32.4529 176.174 32.4784 176.2 32.4784C176.353 32.4019 176.481 32.3001 176.608 32.2236C176.736 32.1472 176.838 32.0453 176.94 31.9434C177.144 31.6632 177.399 31.4594 177.68 31.2556C177.986 31.0773 178.216 30.8481 178.42 30.5678C178.573 30.3895 178.751 30.2367 178.981 30.1093C179.211 29.982 179.364 29.8036 179.44 29.5744C179.466 29.498 179.542 29.3961 179.644 29.2942C179.798 29.1158 179.925 28.9375 180.104 28.7847C180.257 28.6064 180.41 28.4535 180.563 28.2752C180.64 28.1733 180.716 28.046 180.793 27.9186C180.869 27.7912 180.92 27.6639 180.997 27.562C181.073 27.3582 181.175 27.1798 181.303 27.0015C181.328 27.0015 181.43 26.9761 181.609 26.9251C181.584 26.8996 181.558 26.8996 181.558 26.8996C181.533 26.8996 181.533 26.8996 181.482 26.8742C181.507 26.7977 181.533 26.6959 181.533 26.6194C181.533 26.543 181.558 26.4666 181.609 26.3902C181.635 26.3137 181.686 26.2119 181.737 26.1609C181.788 26.0845 181.839 26.0081 181.915 25.9316C181.966 25.6769 182.043 25.4476 182.119 25.2184C182.324 24.8363 182.349 24.607 182.324 24.3778ZM168.597 19.8689C168.903 19.7415 169.209 19.6142 169.541 19.5123C169.311 19.4359 169.081 19.4613 168.877 19.5378C168.648 19.6142 168.571 19.7415 168.597 19.8689ZM176.634 31.5358C176.863 31.3066 177.093 31.1028 177.348 30.8735C177.578 30.6443 177.833 30.4405 178.063 30.2112C178.088 30.2112 178.114 30.2112 178.139 30.2367C178.165 30.2367 178.165 30.2622 178.216 30.2622C178.165 30.3641 178.088 30.4914 178.011 30.6188C177.935 30.7462 177.858 30.8481 177.731 30.9245C177.578 31.0518 177.425 31.1792 177.246 31.2811C177.067 31.383 176.889 31.5104 176.761 31.6123C176.659 31.6123 176.634 31.5868 176.634 31.5358ZM179.9 27.8931C179.9 27.995 179.849 28.1224 179.721 28.3262C179.619 28.53 179.466 28.7337 179.262 28.9885C179.083 29.2177 178.879 29.447 178.675 29.6253C178.471 29.8036 178.292 29.931 178.139 30.0074C178.445 29.6508 178.751 29.2942 179.032 28.963C179.338 28.6064 179.619 28.2497 179.9 27.8931ZM181.226 24.0466C181.226 23.9192 181.226 23.7664 181.252 23.639C181.277 23.5116 181.277 23.3588 181.277 23.206C181.303 23.2314 181.354 23.2314 181.456 23.2314C181.43 23.3588 181.405 23.5116 181.405 23.639C181.405 23.7664 181.379 23.9192 181.354 24.0466H181.226V24.0466Z" fill="white"/>
<path d="M211.231 16.4554C211.333 16.6592 211.512 16.8375 211.716 17.0158C211.92 17.1941 212.022 17.3979 211.997 17.6272C211.997 17.7291 211.971 17.8055 211.946 17.8565C211.792 18.0093 211.665 18.2131 211.563 18.4169C211.461 18.6461 211.359 18.8499 211.257 19.0282C211.257 19.0537 211.231 19.0792 211.206 19.1047L210.823 19.4103C210.67 19.5887 210.542 19.767 210.389 19.9453C210.236 20.1236 210.108 20.3019 209.955 20.4802C209.904 20.5821 209.751 20.7095 209.547 20.9388C209.343 21.1426 209.088 21.3718 208.833 21.6011C208.578 21.8303 208.348 22.0596 208.118 22.2634C207.914 22.4672 207.761 22.62 207.71 22.7219L207.531 22.9257V23.0021L207.455 23.2059C207.404 23.3078 207.353 23.4352 207.276 23.588C207.225 23.7409 207.072 23.8428 206.843 23.8937L206.766 24.123C206.715 24.1739 206.664 24.2249 206.587 24.3013C206.536 24.3777 206.485 24.4541 206.409 24.5306C206.409 24.556 206.409 24.5815 206.434 24.6324C206.46 24.6834 206.46 24.7343 206.46 24.8108C206.307 24.8108 206.179 24.8108 206.077 24.8362C205.975 24.8362 205.924 24.9381 206.001 25.1164L205.873 25.2948C205.847 25.3457 205.822 25.3712 205.771 25.4221C205.72 25.4476 205.72 25.4731 205.72 25.4986C205.822 25.6004 205.873 25.7278 205.822 25.8042C205.771 25.9061 205.72 25.9825 205.669 26.0844C205.618 26.1609 205.567 26.2373 205.49 26.3392C205.439 26.4411 205.439 26.5175 205.49 26.6449C205.337 26.6449 205.235 26.6449 205.133 26.6194C205.031 26.6194 204.954 26.5939 204.852 26.5939C204.852 26.6194 204.827 26.6449 204.801 26.6703C204.98 26.7722 205.108 26.8232 205.235 26.8741C205.184 27.027 205.133 27.1798 205.057 27.3327C205.005 27.4855 204.903 27.6129 204.801 27.7402C204.75 27.7912 204.648 27.8167 204.546 27.8167C204.444 27.8167 204.291 27.8421 204.163 27.8676C204.215 27.9185 204.291 27.9695 204.368 28.0459C204.444 28.1223 204.521 28.1733 204.597 28.2497C204.597 28.3007 204.572 28.3261 204.546 28.3261C204.317 28.428 204.164 28.5299 204.112 28.6318C204.061 28.7592 204.061 28.9375 204.112 29.1413C204.138 29.3196 204.087 29.4979 203.934 29.7017C203.781 29.88 203.653 30.0838 203.551 30.2621C203.526 30.3131 203.5 30.3385 203.475 30.3895C203.449 30.415 203.424 30.4659 203.424 30.5169C203.5 30.7207 203.424 30.8735 203.143 30.9499C202.939 31.0518 202.862 31.2046 202.99 31.3575C203.041 31.4084 203.066 31.5103 203.066 31.6632C203.041 32.0198 202.786 32.1217 202.301 31.9943C202.301 32.0198 202.301 32.0453 202.275 32.0453C202.25 32.0453 202.25 32.0708 202.25 32.0962C202.428 32.1981 202.556 32.2745 202.684 32.3255C202.633 32.3764 202.582 32.4274 202.582 32.4783C202.556 32.5293 202.531 32.5802 202.48 32.6312C202.403 32.7076 202.275 32.7585 202.097 32.835C202.148 32.8859 202.199 32.9369 202.275 32.9878C202.326 33.0388 202.377 33.0897 202.454 33.1406C202.403 33.2425 202.352 33.319 202.275 33.3954C202.224 33.4718 202.173 33.5482 202.097 33.6501C201.842 34.1851 201.689 34.7455 201.612 35.3059C201.535 35.8663 201.408 36.4267 201.255 36.9872C201.204 37.1655 201.178 37.3438 201.178 37.5476C201.178 37.7514 201.102 37.9552 200.974 38.159C200.821 38.3118 200.77 38.5156 200.796 38.7194C200.821 38.9486 200.821 39.1524 200.744 39.3562C200.693 39.5091 200.642 39.6619 200.566 39.8147C200.515 39.9676 200.464 40.1204 200.387 40.2733C200.336 40.4006 200.311 40.5025 200.311 40.579C200.311 40.7573 200.362 40.9356 200.438 41.1394C200.489 41.3432 200.54 41.547 200.566 41.7253C200.591 41.9036 200.642 42.1074 200.744 42.2857C200.796 42.3876 200.898 42.4895 201 42.5404C201.102 42.5914 201.229 42.6678 201.382 42.7187C201.433 42.7697 201.51 42.7697 201.586 42.7697C201.663 42.7697 201.714 42.7442 201.791 42.7442C201.587 43.0754 201.178 43.1773 200.566 43.0244C200.413 42.9735 200.285 42.9225 200.158 42.8461C200.03 42.7697 199.903 42.7187 199.749 42.6678C199.265 42.464 198.882 42.2093 198.627 41.9036C198.346 41.5979 198.116 41.2667 197.887 40.9101C197.606 40.4516 197.453 39.9676 197.428 39.4836C197.402 38.8977 197.402 38.3373 197.428 37.7769C197.453 37.2164 197.479 36.656 197.504 36.0701C197.53 35.9937 197.555 35.8918 197.555 35.8154C197.581 35.739 197.683 35.688 197.887 35.688C197.912 35.688 197.938 35.6625 197.963 35.6116C197.989 35.5606 198.014 35.5097 198.04 35.4842C198.04 35.4588 198.014 35.4333 197.963 35.4333C197.912 35.4333 197.861 35.4078 197.836 35.3823C197.81 35.3314 197.785 35.3059 197.759 35.2804C197.734 35.255 197.708 35.2295 197.708 35.1785C197.759 34.8983 197.836 34.5926 197.912 34.3124C197.989 34.0322 198.04 33.7265 198.116 33.4463C198.142 33.3444 198.167 33.2425 198.167 33.1406C198.193 33.0388 198.193 32.9623 198.219 32.8604C198.321 32.4783 198.423 32.0962 198.55 31.6886C198.652 31.2811 198.78 30.899 198.907 30.5169C198.933 30.4404 198.958 30.3385 198.984 30.2876C199.009 30.2112 199.061 30.1348 199.112 30.0583C199.163 30.0583 199.214 30.0583 199.214 30.0838C199.239 30.0838 199.239 30.1093 199.29 30.1093C199.239 30.2112 199.214 30.2876 199.214 30.3385C199.214 30.3895 199.214 30.4404 199.239 30.4659C199.265 30.5169 199.265 30.5678 199.265 30.5933C199.316 30.5423 199.367 30.5169 199.418 30.5169C199.469 30.5169 199.494 30.4659 199.52 30.4404C199.698 30.2366 199.647 30.0838 199.392 29.931C199.341 29.9055 199.29 29.88 199.239 29.8291C199.188 29.7781 199.188 29.7272 199.214 29.7017C199.392 29.2432 199.571 28.7592 199.749 28.3007C199.928 27.8421 200.132 27.3581 200.336 26.8996C200.438 26.6194 200.566 26.3392 200.693 26.059C200.821 25.7788 200.949 25.524 201.102 25.2183C201.331 24.8362 201.535 24.4796 201.714 24.123C201.893 23.7663 202.097 23.4097 202.326 23.0276C202.531 22.6455 202.709 22.2634 202.913 21.9068C203.092 21.5501 203.296 21.168 203.526 20.8114C203.679 20.5567 203.806 20.3274 203.985 20.0727C204.164 19.8179 204.317 19.5887 204.47 19.3339C204.419 19.3594 204.368 19.3594 204.317 19.3594C204.266 19.3594 204.24 19.3849 204.215 19.4358C203.653 19.8179 203.117 20.2 202.633 20.5821C202.173 20.9133 201.74 21.2445 201.28 21.5756C200.847 21.9068 200.413 22.2379 199.979 22.5691C199.8 22.7219 199.647 22.9002 199.52 23.0531C199.367 23.2314 199.239 23.3842 199.086 23.5626C198.856 23.7663 198.652 23.9701 198.474 24.1739C198.295 24.3777 198.091 24.556 197.861 24.7343C197.759 24.8617 197.657 24.9636 197.606 25.0146C197.377 25.2693 197.147 25.4986 196.892 25.7533C196.662 26.008 196.407 26.2373 196.177 26.492C196.126 26.5684 196.075 26.6194 196.05 26.7213C196.024 26.7977 195.973 26.8741 195.922 26.9506L195.539 27.5619C195.31 27.8421 195.08 28.1478 194.825 28.428C194.57 28.7082 194.315 29.0139 194.06 29.2941C193.907 29.4724 193.753 29.6508 193.6 29.8291C193.422 30.0074 193.269 30.1857 193.141 30.364C193.039 30.4914 192.937 30.6442 192.86 30.7716C192.784 30.9244 192.707 31.0773 192.58 31.2301C192.376 31.5103 192.172 31.7651 191.967 32.0198C191.763 32.2745 191.559 32.5547 191.355 32.835C191.049 33.268 190.768 33.7011 190.513 34.1341C190.258 34.5672 189.977 35.0002 189.697 35.4588C189.543 35.6625 189.416 35.8409 189.237 36.0192C189.084 36.1975 188.957 36.3758 188.829 36.5796C188.676 36.8598 188.472 37.0381 188.191 37.191C187.911 37.3183 187.655 37.4712 187.426 37.6495C187.324 37.7259 187.171 37.7768 187.018 37.8278C186.864 37.8787 186.686 37.8533 186.482 37.7514C186.176 37.5985 185.844 37.4712 185.512 37.3693C185.18 37.2674 184.9 37.1145 184.67 36.9107C184.517 36.8088 184.389 36.6815 184.287 36.5796C184.185 36.4777 184.083 36.3503 184.032 36.223C183.726 35.7644 183.547 35.3314 183.547 34.8729C183.522 34.4143 183.522 33.9558 183.522 33.4718C183.547 33.1916 183.599 32.9114 183.701 32.6312C183.777 32.351 183.854 32.0962 183.905 31.7905C183.956 31.4594 184.058 31.1537 184.16 30.848C184.389 30.2367 184.619 29.6253 184.874 29.0139C185.104 28.4025 185.385 27.7912 185.665 27.2308C185.895 26.7722 186.15 26.2882 186.405 25.8297C186.686 25.3712 186.941 24.9127 187.247 24.4796C187.604 23.8937 187.987 23.3078 188.344 22.7219C188.701 22.136 189.084 21.5501 189.492 20.9642C189.799 20.4802 190.13 19.9962 190.462 19.5122C190.794 19.0282 191.151 18.5442 191.534 18.0857C191.636 17.9074 191.814 17.78 191.993 17.6781C192.197 17.6017 192.427 17.6017 192.707 17.6781C192.707 17.9838 192.886 18.1112 193.218 18.0093C193.473 17.9329 193.702 17.9074 193.932 17.8819C194.162 17.8819 194.366 17.9584 194.57 18.1367C194.391 18.1876 194.213 18.1876 193.983 18.1367C193.779 18.0857 193.549 18.1621 193.32 18.3659C193.549 18.4169 193.728 18.4678 193.881 18.4933C194.034 18.5442 194.162 18.5442 194.315 18.4933C194.544 18.4169 194.749 18.3914 194.927 18.4678C195.106 18.5442 195.31 18.5952 195.539 18.6461C195.693 18.6716 195.82 18.748 195.999 18.8499C196.152 18.9518 196.305 19.1047 196.432 19.2575C196.56 19.4103 196.662 19.5632 196.739 19.716C196.815 19.8689 196.841 19.9962 196.79 20.1236C196.739 20.3019 196.637 20.4548 196.535 20.6076C196.432 20.7604 196.305 20.9133 196.203 21.0661C195.973 21.3209 195.769 21.5501 195.565 21.8303C195.361 22.0851 195.157 22.3398 194.927 22.62C194.697 22.9002 194.493 23.155 194.289 23.4352C194.085 23.7154 193.855 23.9701 193.575 24.2249C193.345 24.4032 193.167 24.607 193.065 24.8108C192.962 25.0145 192.835 25.2183 192.682 25.4221C192.631 25.4731 192.58 25.524 192.503 25.5495C192.452 25.6004 192.401 25.6514 192.325 25.6769C192.274 25.7278 192.223 25.7533 192.172 25.7788C192.12 25.8042 192.095 25.8297 192.095 25.8807C192.095 26.1609 191.993 26.3901 191.763 26.543C191.534 26.6958 191.304 26.8487 191.074 27.0015C190.921 27.1034 190.845 27.2562 190.794 27.511C190.743 27.7657 190.794 27.944 190.947 28.0459C190.513 28.1988 190.258 28.428 190.13 28.7082C190.028 28.9884 189.901 29.2941 189.748 29.5743L189.671 29.7017C189.518 29.9564 189.39 30.1857 189.237 30.415C189.084 30.6442 188.957 30.8735 188.804 31.0773C188.753 31.1537 188.701 31.2047 188.676 31.2556C188.65 31.3065 188.625 31.3575 188.599 31.4084C188.599 31.4594 188.599 31.5103 188.625 31.5358C188.65 31.5868 188.65 31.6377 188.65 31.6632C188.676 31.6632 188.701 31.6632 188.701 31.6377C188.727 31.6377 188.727 31.6122 188.778 31.6122C188.957 31.383 189.11 31.1537 189.263 30.9244C189.416 30.6952 189.62 30.4914 189.85 30.3131C190.079 30.1348 190.258 29.931 190.36 29.7017C190.462 29.4724 190.615 29.2687 190.794 29.0903C191.049 28.8356 191.278 28.5809 191.508 28.3261C191.738 28.0459 191.967 27.7912 192.197 27.5619C192.248 27.4855 192.325 27.4345 192.427 27.4091C192.529 27.3836 192.605 27.3581 192.656 27.3327C192.707 27.2308 192.758 27.1034 192.784 27.0015C192.809 26.8996 192.86 26.7977 192.962 26.6958C193.473 26.2628 193.958 25.7788 194.417 25.2693C194.876 24.7598 195.335 24.2758 195.82 23.8173H195.871C195.846 23.8173 195.922 23.7918 196.075 23.7409C195.897 23.9956 195.744 24.2249 195.616 24.4287C195.488 24.6324 195.335 24.8362 195.157 25.0146C195.004 25.1929 194.851 25.3712 194.646 25.5495C194.442 25.7278 194.264 25.9061 194.085 26.1099C193.983 26.2118 193.881 26.3392 193.804 26.492C193.728 26.6449 193.651 26.7722 193.575 26.8996C193.6 26.976 193.651 27.0015 193.753 27.027C193.83 26.976 193.932 26.9506 194.009 26.9251C194.085 26.8996 194.162 26.8487 194.213 26.7977C194.646 26.3647 195.055 25.9571 195.463 25.5495C195.871 25.1419 196.305 24.7089 196.713 24.3013C196.968 24.072 197.223 23.8682 197.504 23.6644C197.785 23.4607 198.04 23.2569 198.295 23.0531C198.448 22.9512 198.576 22.8238 198.678 22.6964C198.78 22.5691 198.907 22.4162 199.061 22.2889L199.112 22.2125C199.112 22.187 199.137 22.187 199.163 22.187C199.392 22.2124 199.571 22.187 199.724 22.1106C199.877 22.0341 200.005 21.9577 200.107 21.8558C200.209 21.7539 200.336 21.652 200.438 21.5247C200.54 21.3973 200.668 21.2954 200.796 21.2444C201 21.168 201.153 21.0661 201.306 20.9388C201.459 20.8369 201.586 20.7095 201.74 20.6076C201.791 20.5567 201.842 20.5057 201.867 20.4293C201.893 20.3529 201.944 20.3019 201.995 20.251C202.224 20.1746 202.403 20.0727 202.505 20.0217C202.76 19.8943 202.964 19.716 203.092 19.5377C203.245 19.3594 203.373 19.1301 203.475 18.9264C203.5 18.8754 203.526 18.8499 203.551 18.8499C203.577 18.8499 203.602 18.8245 203.628 18.799C204.036 18.6207 204.393 18.3659 204.725 18.0602C204.827 17.9583 204.954 17.8565 205.108 17.7546C205.261 17.6781 205.388 17.5762 205.541 17.4744C205.567 17.4489 205.592 17.4234 205.592 17.3979C205.618 17.3725 205.643 17.347 205.643 17.3215C205.669 17.296 205.669 17.2706 205.72 17.2451V17.2196C205.771 17.1432 205.822 17.0413 205.873 16.9649C205.924 16.8885 205.975 16.8375 206.026 16.7866C206.077 16.7101 206.128 16.6847 206.154 16.6592L206.281 16.5573C206.485 16.4045 206.587 16.2261 206.613 16.0478C206.689 15.895 206.817 15.7676 206.97 15.6402C207.123 15.5384 207.276 15.411 207.455 15.3091C207.608 15.2072 207.812 15.1817 208.093 15.2836C208.373 15.3346 208.731 15.3855 209.139 15.4619C209.547 15.5384 209.853 15.6657 210.057 15.8695C210.211 15.9969 210.338 16.1243 210.466 16.2516C210.593 16.379 210.797 16.4554 211.053 16.5064C211.206 16.4299 211.231 16.4299 211.231 16.4554ZM192.018 29.396C192.172 29.2177 192.299 29.0394 192.452 28.8865C192.605 28.7082 192.733 28.5554 192.886 28.3771C192.86 28.3516 192.835 28.3261 192.809 28.3261C192.784 28.3261 192.758 28.3007 192.733 28.2752C192.529 28.428 192.35 28.5809 192.172 28.7337C191.993 28.8866 191.84 29.0649 191.661 29.2432C191.661 29.2687 191.661 29.2941 191.687 29.3451C191.712 29.396 191.712 29.4215 191.763 29.4215C191.865 29.447 191.967 29.447 192.018 29.396ZM198.193 37.2674C198.295 37.191 198.372 37.1145 198.372 37.0891C198.423 36.9872 198.474 36.8598 198.525 36.7324C198.576 36.6051 198.601 36.4777 198.601 36.3758C198.627 36.1975 198.678 36.0192 198.703 35.8154C198.754 35.6371 198.652 35.4333 198.423 35.255C198.372 35.4333 198.321 35.6116 198.27 35.7644C198.219 35.9427 198.168 36.0956 198.116 36.2739C198.091 36.172 198.04 36.0192 197.989 35.8409H197.81C197.81 35.9428 197.81 36.0192 197.81 36.1465C197.81 36.2484 197.836 36.3249 197.887 36.3758C198.04 36.4777 198.116 36.6051 198.116 36.6815C198.142 36.7834 198.116 36.8853 198.04 36.9872C198.014 37.0381 198.014 37.0636 198.065 37.1145C198.116 37.1655 198.142 37.2164 198.193 37.2674ZM206.919 20.3783C206.97 20.3274 206.996 20.2765 206.996 20.2C206.97 20.1236 206.97 20.0727 206.919 20.0472C206.843 20.0472 206.741 20.0472 206.664 20.0217C206.587 20.0217 206.511 20.0217 206.46 20.0727C206.307 20.1746 206.205 20.251 206.128 20.3529C206.052 20.4548 205.95 20.5567 205.873 20.6586C205.669 20.9388 205.49 21.2444 205.312 21.5247C205.133 21.8049 204.954 22.1106 204.75 22.3908C204.597 22.6455 204.444 22.8748 204.291 23.155C204.112 23.4097 203.959 23.6644 203.832 23.9447C203.679 24.1994 203.551 24.4541 203.424 24.7089C203.296 24.9891 203.143 25.2438 203.015 25.4731C202.964 25.575 202.913 25.6514 202.837 25.7023C202.786 25.7788 202.735 25.8552 202.658 25.9316C202.505 26.2373 202.377 26.5684 202.224 26.8741C202.071 27.1798 201.944 27.511 201.791 27.8167C201.638 28.1223 201.484 28.4535 201.331 28.7592C201.153 29.0649 201 29.396 200.872 29.7017C200.796 29.931 200.719 30.1602 200.642 30.364C200.566 30.5933 200.515 30.8225 200.438 31.0773C200.362 31.3065 200.209 31.383 199.979 31.3575C200.056 31.1792 200.158 31.0009 200.234 30.7971C200.311 30.5933 200.387 30.3895 200.438 30.1857C200.489 30.0329 200.54 29.88 200.54 29.7272C200.566 29.5743 200.591 29.4215 200.642 29.2686C200.693 29.1158 200.77 28.963 200.847 28.8611C200.923 28.7337 201.025 28.6063 201.102 28.479C201.153 28.4026 201.178 28.3007 201.178 28.1988C201.153 28.0969 201.178 27.995 201.229 27.9185C201.331 27.6893 201.459 27.4855 201.561 27.2817C201.663 27.0779 201.791 26.8487 201.893 26.6194C201.969 26.4411 202.046 26.2628 202.097 26.1099C202.148 25.9316 202.25 25.7788 202.352 25.6259C202.556 25.3457 202.735 25.0655 202.913 24.7853C203.092 24.5051 203.194 24.2249 203.245 23.9192C203.27 23.8173 203.321 23.7154 203.398 23.639C203.475 23.5626 203.526 23.4861 203.577 23.4097C203.679 23.2314 203.781 23.0531 203.857 22.9002C203.934 22.7474 204.036 22.5691 204.138 22.3908C204.061 22.3908 203.985 22.3653 203.934 22.3143C203.832 22.4162 203.73 22.5436 203.679 22.6964C203.602 22.8493 203.5 22.9257 203.373 22.9767C203.168 23.0786 203.066 23.2314 203.092 23.3842C203.117 23.5371 203.066 23.6644 202.964 23.7918H202.684C202.658 23.9447 202.633 24.0975 202.633 24.1994C202.633 24.3268 202.607 24.4541 202.582 24.607C202.25 24.5051 202.02 24.4796 201.893 24.5306C201.74 24.5815 201.612 24.7598 201.459 25.0146C201.306 25.2948 201.484 25.4986 201.995 25.6769C201.944 25.7788 201.842 25.9316 201.74 26.1354C201.612 26.059 201.561 25.9826 201.51 25.9316C201.28 26.0335 201.102 26.1099 200.974 26.1609C200.923 26.2118 200.872 26.2882 200.796 26.4411C200.949 26.4411 201.051 26.4411 201.153 26.4665C201.229 26.4665 201.357 26.492 201.51 26.543C201.357 26.5684 201.255 26.5939 201.178 26.5939C201.102 26.5939 201.025 26.6194 200.949 26.6449C201 26.6958 201.076 26.7468 201.153 26.7722C201.229 26.8232 201.306 26.8741 201.382 26.9506C201.229 27.0015 201.102 27.027 201 27.0779C200.872 27.1034 200.796 27.1543 200.693 27.2308C200.54 27.3327 200.413 27.46 200.311 27.6638C200.311 27.7148 200.362 27.7657 200.438 27.8421C200.515 27.7912 200.591 27.7657 200.668 27.7148C200.745 27.6638 200.796 27.6383 200.872 27.5874L201 27.4855C200.974 27.6383 200.923 27.7912 200.847 27.9185C200.77 28.0459 200.719 28.1988 200.642 28.3261C200.591 28.4535 200.54 28.6063 200.489 28.7337C200.438 28.8866 200.387 29.0139 200.336 29.1413C200.26 29.3705 200.158 29.5743 200.107 29.8036C200.03 30.0074 199.928 30.2112 199.826 30.415C199.775 30.5169 199.698 30.6188 199.596 30.7207C199.52 30.8225 199.418 30.899 199.341 31.0263C199.214 31.1282 199.112 31.2556 198.984 31.383C198.882 31.5103 198.754 31.6122 198.652 31.7396L198.78 31.8415C198.831 31.816 198.882 31.7905 198.958 31.7905C199.009 31.7905 199.061 31.7396 199.137 31.7141V31.8415C199.086 32.1726 199.009 32.5038 198.933 32.835C198.856 33.1661 198.78 33.4973 198.729 33.8284C198.678 34.0832 198.627 34.3124 198.55 34.5672C198.499 34.8219 198.448 35.0512 198.372 35.3059C198.601 35.4078 198.78 35.4588 198.882 35.4842C198.984 35.8663 198.984 36.1975 198.805 36.5286C198.652 36.8343 198.601 37.1655 198.652 37.5221C198.678 37.7514 198.678 37.9552 198.601 38.1844C198.55 38.3882 198.499 38.6175 198.474 38.8467C198.474 38.9232 198.499 38.9996 198.55 39.076C198.652 38.9996 198.729 38.9232 198.754 38.8722C198.805 38.7703 198.856 38.643 198.882 38.5665C198.907 38.4646 198.958 38.3627 199.061 38.2863C199.137 38.159 199.188 38.0316 199.163 37.9552C199.137 37.8787 199.009 37.7769 198.754 37.7259C199.009 37.6495 199.163 37.624 199.188 37.624C199.265 37.4457 199.341 37.2674 199.392 37.0891C199.443 36.9107 199.52 36.7834 199.673 36.6815C199.826 36.6051 199.928 36.5032 200.005 36.4013C200.081 36.3249 200.158 36.1975 200.183 36.0701C200.183 35.9937 200.183 35.9428 200.158 35.8409C200.132 35.7644 200.132 35.688 200.132 35.6116C200.081 35.6625 200.03 35.7135 199.954 35.7644C199.903 35.8154 199.851 35.8663 199.775 35.9173L199.647 35.9427C199.647 35.8663 199.673 35.7899 199.724 35.688C199.775 35.5861 199.8 35.5097 199.8 35.4078C199.826 35.3314 199.775 35.2804 199.724 35.2295C199.647 35.1785 199.494 35.1785 199.214 35.204C199.265 35.1021 199.341 35.0002 199.392 34.8983C199.443 34.8219 199.52 34.72 199.571 34.5926C199.622 34.72 199.673 34.8219 199.698 34.8983C199.724 34.9747 199.775 35.0766 199.826 35.1785C199.903 35.0766 199.979 35.0002 200.03 34.9493C200.081 34.8983 200.132 34.8219 200.209 34.7455V35.3823C200.438 35.1785 200.54 35.0512 200.54 34.9748C200.54 34.8983 200.464 34.7964 200.285 34.6436C200.234 34.5926 200.209 34.5417 200.209 34.4398C200.209 34.3634 200.234 34.2615 200.26 34.1851C200.285 34.1086 200.336 34.0577 200.387 33.9813C200.438 33.9049 200.489 33.8284 200.515 33.752C200.54 33.7011 200.54 33.6501 200.515 33.5737C200.489 33.4973 200.464 33.4463 200.438 33.3954C200.413 33.3954 200.387 33.3954 200.362 33.3699C200.336 33.3699 200.336 33.3444 200.285 33.3444C200.234 33.4209 200.183 33.4718 200.158 33.5228C200.132 33.5737 200.081 33.6501 200.03 33.7265C199.877 33.5482 199.826 33.4209 199.826 33.319C199.851 33.2425 199.903 33.1152 200.03 32.9878C200.26 32.7331 200.489 32.4783 200.693 32.1981C200.898 31.9179 201.153 31.6377 201.408 31.332H200.693C200.796 31.1282 200.923 30.9244 201.025 30.7207C201.127 30.5169 201.229 30.3385 201.357 30.1602C201.357 30.1093 201.408 30.0838 201.535 30.0838C201.765 30.0329 201.893 30.0583 201.918 30.1602C201.944 30.2621 201.944 30.364 201.918 30.4659L202.097 30.5423C202.199 30.3895 202.352 30.2367 202.556 30.0838C202.684 29.7272 202.811 29.3705 202.913 29.0394C203.015 28.6828 203.168 28.3516 203.398 28.0204C203.551 27.7657 203.653 27.5364 203.755 27.2817C203.857 27.027 203.985 26.7977 204.112 26.543C204.266 26.2373 204.419 25.9316 204.572 25.6514C204.75 25.3712 204.903 25.0655 205.031 24.7598C205.108 24.5815 205.184 24.4032 205.261 24.1994C205.337 23.9956 205.414 23.8173 205.541 23.639C205.694 23.3842 205.847 23.1295 206.001 22.8748C206.179 22.5946 206.332 22.3398 206.46 22.1106C206.46 22.0851 206.46 22.0596 206.434 22.0341C206.409 22.0087 206.409 21.9577 206.409 21.9068C206.23 22.0851 206.052 22.2634 205.822 22.4162C205.618 22.5691 205.541 22.7729 205.592 23.0276C205.592 23.0786 205.567 23.1295 205.516 23.155C205.414 23.3333 205.286 23.4861 205.184 23.639C205.082 23.7918 204.954 23.9447 204.852 24.0975C204.776 24.1994 204.674 24.3013 204.597 24.4032C204.521 24.5051 204.419 24.5815 204.342 24.7089C204.291 24.8108 204.215 24.8872 204.138 24.9636C204.061 25.04 204.036 25.1164 204.061 25.1929C204.112 25.3202 204.138 25.4221 204.112 25.4986C204.087 25.575 204.036 25.6259 203.934 25.6769C203.857 25.7278 203.755 25.7788 203.653 25.8042C203.551 25.8552 203.475 25.9061 203.424 25.9825C203.475 25.8042 203.526 25.6259 203.602 25.4731C203.653 25.3202 203.755 25.1674 203.857 25.04C204.01 24.8108 204.138 24.607 204.291 24.3777C204.444 24.1484 204.597 23.9447 204.801 23.7663C205.005 23.588 205.031 23.4352 204.878 23.3078C204.929 23.2569 205.005 23.2059 205.082 23.155C205.159 23.104 205.21 23.0531 205.235 23.0021C205.49 22.5691 205.745 22.1106 206.001 21.652C206.281 21.1935 206.562 20.7605 206.919 20.3783ZM199.877 31.816C199.826 31.7651 199.775 31.7396 199.749 31.6886C199.724 31.6632 199.673 31.6122 199.622 31.5613C199.775 31.4594 199.877 31.383 199.954 31.332C200.056 31.383 200.158 31.4339 200.26 31.4594C200.336 31.5103 200.438 31.5358 200.566 31.5613C200.745 31.6122 200.821 31.6632 200.847 31.7651C200.872 31.867 200.847 31.9434 200.821 32.0708C200.719 32.0198 200.642 31.9943 200.617 31.9689C200.464 31.8924 200.362 31.867 200.26 31.8924C200.158 31.9434 200.081 32.0198 200.03 32.1727C199.979 32.351 199.903 32.5293 199.826 32.6821C199.749 32.8604 199.698 33.0133 199.622 33.1916C199.571 33.319 199.52 33.4463 199.52 33.5737C199.494 33.7011 199.469 33.8284 199.418 33.9558C199.367 34.1341 199.29 34.3124 199.214 34.4907C199.137 34.6691 199.086 34.8474 199.009 35.0257C198.958 34.9493 198.958 34.771 199.009 34.4653C199.061 34.1596 199.137 33.8284 199.214 33.4718C199.29 33.1152 199.418 32.784 199.545 32.4529C199.698 32.1726 199.8 31.9434 199.877 31.816ZM201.459 33.803C201.612 33.752 201.74 33.7265 201.842 33.6756C201.944 33.6246 202.071 33.5992 202.224 33.5482C202.071 33.4973 201.969 33.4463 201.867 33.3954C201.765 33.3444 201.663 33.2935 201.535 33.2425C201.561 33.1916 201.586 33.1406 201.586 33.0897C201.586 33.0387 201.612 32.9878 201.638 32.9369L201.561 32.835C201.459 32.8859 201.331 32.9369 201.229 32.9878C201.127 33.0388 201 33.0897 200.872 33.1406C200.847 33.0897 200.821 33.0642 200.796 33.0388C200.77 33.0133 200.744 32.9878 200.719 32.9369C200.693 32.9369 200.668 32.9369 200.642 32.9623C200.617 32.9623 200.617 32.9878 200.566 32.9878C200.591 33.0642 200.617 33.1152 200.642 33.2171C200.668 33.2935 200.693 33.3699 200.744 33.4463C200.77 33.4718 200.821 33.4718 200.872 33.4718C200.923 33.4718 200.974 33.4718 201.051 33.4718C201.357 33.3954 201.51 33.4973 201.484 33.7775V33.803H201.459ZM201.153 32.4529C201.306 32.5038 201.408 32.5293 201.51 32.5802C201.612 32.6057 201.714 32.6566 201.816 32.7076C201.842 32.7331 201.893 32.7331 201.918 32.7331C201.969 32.7331 201.995 32.7076 202.02 32.7076C202.071 32.6312 202.071 32.5548 202.02 32.5038C201.918 32.3255 201.765 32.2236 201.586 32.2236C201.408 32.2236 201.306 32.2745 201.153 32.4529ZM201.638 34.9238C201.535 34.8729 201.459 34.8474 201.433 34.8219C201.382 34.8983 201.331 34.9493 201.306 35.0002C201.28 35.0512 201.255 35.1021 201.229 35.1531C201.204 35.1785 201.204 35.204 201.28 35.2295C201.331 35.255 201.382 35.2804 201.408 35.3314L201.638 34.9238ZM201.893 31.5103C201.944 31.383 201.995 31.2556 202.071 31.1282C202.122 31.0009 202.173 30.8735 202.25 30.7207C202.02 30.7971 201.842 30.899 201.714 31.0518C201.586 31.2046 201.561 31.332 201.612 31.4594C201.612 31.5358 201.663 31.5613 201.791 31.5613C201.791 31.5868 201.816 31.5868 201.867 31.5868C201.867 31.5358 201.893 31.5358 201.893 31.5103ZM202.786 28.0969C202.939 28.1733 202.99 28.2497 202.99 28.3771C202.99 28.479 202.888 28.5809 202.684 28.6828C202.531 28.7847 202.454 28.8611 202.454 28.963C202.428 29.0649 202.403 29.1668 202.352 29.2686C202.301 29.3705 202.25 29.4979 202.224 29.6253C202.199 29.7527 202.148 29.9055 202.097 30.0329C201.867 29.8036 201.816 29.5234 201.944 29.1668C202.071 28.8101 202.352 28.4535 202.786 28.0969ZM202.403 24.8872C202.352 24.9891 202.301 25.04 202.275 25.0655C202.224 25.1164 202.173 25.1674 202.122 25.2183C202.071 25.2693 202.02 25.3202 201.969 25.3712L201.893 25.1929C201.918 25.1164 201.969 25.0145 201.995 24.9381C202.02 24.8617 202.173 24.8362 202.403 24.8872ZM202.964 30.2112C203.015 29.9564 203.143 29.7527 203.322 29.5998C203.5 29.4215 203.551 29.2177 203.424 28.9884C203.27 29.1668 203.143 29.3451 202.99 29.5489C202.837 29.7526 202.709 29.9564 202.556 30.1602C202.607 30.1602 202.658 30.1602 202.735 30.1857C202.786 30.1602 202.862 30.1857 202.964 30.2112ZM203.5 26.8996C203.27 26.7977 203.168 26.6958 203.168 26.6194C203.194 26.543 203.373 26.3901 203.73 26.1099C203.653 26.2628 203.602 26.4156 203.577 26.5175C203.577 26.6703 203.526 26.7722 203.5 26.8996ZM205.031 21.0152C204.98 20.9642 204.929 20.9388 204.903 20.9388C204.725 20.9897 204.623 21.0661 204.546 21.168C204.47 21.2699 204.419 21.3973 204.342 21.4992C204.342 21.6011 204.393 21.6266 204.47 21.6266C204.521 21.6775 204.597 21.652 204.674 21.6011C204.725 21.4992 204.776 21.3973 204.852 21.2954C204.903 21.219 204.98 21.1171 205.031 21.0152ZM204.98 26.4156C205.261 26.4156 205.414 26.2882 205.414 26.059C205.388 26.0335 205.363 26.008 205.337 25.9825C205.312 25.9571 205.312 25.9316 205.261 25.9061C205.159 25.9826 205.005 26.0844 204.827 26.2118C204.801 26.2118 204.801 26.2373 204.852 26.3137C204.929 26.3901 204.954 26.4156 204.98 26.4156ZM206.638 19.8689C206.843 19.8179 207.047 19.6906 207.225 19.4613C207.429 19.232 207.506 19.0282 207.429 18.8754C207.225 18.9263 207.047 19.0537 206.868 19.283C206.74 19.4868 206.638 19.6906 206.638 19.8689Z" fill="white"/>
<path d="M84.397 14.875C84.8562 14.2636 85.0603 13.6522 85.0603 13.0154C85.0603 12.1748 84.7286 11.4615 84.0397 10.9011C83.3764 10.3662 82.662 10.0859 81.8965 10.0859H65.0312C64.1892 10.0859 63.4748 10.3407 62.9134 10.8756C62.3266 11.4106 62.0204 12.0984 62.0204 12.9135C62.0204 13.7541 62.3011 14.4674 62.8624 15.0023C63.4237 15.5373 64.1382 15.792 65.0057 15.792H75.926L60.8978 35.1011C60.464 35.7124 60.2344 36.3238 60.2344 36.9606C60.2344 37.7249 60.5406 38.4126 61.1784 38.9985C61.7908 39.5844 62.5307 39.8646 63.3727 39.8646H81.4883C82.3302 39.8646 83.0447 39.5844 83.6315 39.0495C84.2184 38.4891 84.499 37.8013 84.499 36.9861C84.499 36.1455 84.2184 35.4322 83.6315 34.9228C83.0702 34.4133 82.3558 34.1585 81.4883 34.1585H69.3432L84.397 14.875C84.3714 14.875 84.3714 14.875 84.397 14.875Z" fill="white"/>
<path d="M103.533 11.8946C103.304 11.2833 102.921 10.7993 102.411 10.4426C101.9 10.1115 101.313 9.95864 100.803 9.93317C100.14 9.85675 99.5274 10.0096 98.9916 10.3917C98.4813 10.7483 98.073 11.2578 97.8179 11.8946L87.5354 36.5786C87.4333 36.8843 87.3823 37.2155 87.3823 37.4957C87.3823 38.2853 87.6119 38.9222 88.0712 39.4062C88.5305 39.8902 89.1939 40.1449 90.0614 40.1449C90.6227 40.1449 91.1585 39.9666 91.6433 39.61C92.1281 39.2533 92.4853 38.7693 92.6894 38.1834L94.7051 33.4454H106.34L108.356 38.1325C108.611 38.7184 108.968 39.2024 109.427 39.559C109.912 39.9157 110.473 40.1194 111.06 40.1194C111.8 40.1194 112.438 39.8392 112.999 39.3043C113.561 38.7439 113.841 38.0561 113.841 37.19C113.841 36.8333 113.765 36.4258 113.586 36.0182L103.533 11.8946ZM103.941 27.7392H97.18L100.522 19.8424L103.941 27.7392Z" fill="white"/>
<path d="M137.239 14.9769C136.422 13.4994 135.35 12.3021 134.024 11.436C132.671 10.5445 131.243 10.0859 129.763 10.0859H120.348C119.506 10.0859 118.791 10.3661 118.204 10.952C117.618 11.5125 117.337 12.2512 117.337 13.0918V36.9097C117.337 37.7503 117.592 38.4636 118.128 39.024C118.664 39.6099 119.353 39.9156 120.169 39.9156C121.011 39.9156 121.725 39.6354 122.261 39.0495C122.797 38.4891 123.052 37.7758 123.052 36.9097V29.6242H129.737C131.243 29.6242 132.671 29.1657 133.998 28.2741C135.325 27.3825 136.397 26.1853 137.213 24.7078C138.029 23.2049 138.438 21.5746 138.438 19.8678C138.438 18.1101 138.029 16.4798 137.239 14.9769ZM132.085 21.8548C131.804 22.4916 131.421 23.0011 130.962 23.3832C130.528 23.7398 130.145 23.9181 129.737 23.9181H123.052V15.8175H129.737C130.145 15.8175 130.554 15.9958 130.962 16.3525C131.421 16.7346 131.778 17.244 132.059 17.8554C132.34 18.4922 132.493 19.1546 132.493 19.8678C132.518 20.5556 132.365 21.2179 132.085 21.8548Z" fill="white"/>
<defs>
<linearGradient id="paint0_linear_390_4360" x1="26.4051" y1="51.3858" x2="26.4051" y2="1.34996" gradientUnits="userSpaceOnUse">
<stop stop-color="#D4337B"/>
<stop offset="1" stop-color="#E5D74D"/>
</linearGradient>
<linearGradient id="paint1_linear_390_4360" x1="22.5416" y1="46.5829" x2="22.5416" y2="-0.0121756" gradientUnits="userSpaceOnUse">
<stop stop-color="#EC1C75"/>
<stop offset="0.5" stop-color="#E53F6A"/>
<stop offset="1" stop-color="#E0B858"/>
</linearGradient>
</defs>
</svg>
