<svg width="564" height="40" viewBox="0 0 564 40" fill="none" xmlns="http://www.w3.org/2000/svg">
<path d="M0 31.5059V27.1711L13.8441 8.0109H6.38331L5.85475 11.6727H0.508225L0.894476 2.68642H22.8091V6.86287L8.92443 26.2012H17.8082L18.3774 22.7769H23.7036L23.1141 31.5059H0Z" fill="white"/>
<path d="M24.2932 31.5059V27.4482L26.3667 27.1513L35.1895 2.68642H42.9145L51.7576 27.1513L53.8312 27.4482V31.5059H42.7722V27.4482L44.7035 27.0919L43.809 23.9645H34.295L33.4412 27.0919L35.3725 27.4482V31.5059H24.2932ZM35.7994 19.0953H42.2843L39.3976 10.3663L39.0723 9.35686H38.9504L38.6048 10.4653L35.7994 19.0953Z" fill="white"/>
<path d="M55.1323 31.5059V27.4482L58.2019 26.8148V7.3973L55.1323 6.7639V2.68642H69.5252C71.8834 2.68642 73.9298 3.08889 75.6645 3.89383C77.3993 4.69877 78.7342 5.82041 79.6694 7.25874C80.618 8.68388 81.0924 10.3465 81.0924 12.2467C81.0924 14.1469 80.618 15.8096 79.6694 17.2347C78.7342 18.6599 77.3993 19.7683 75.6645 20.56C73.9298 21.3518 71.8834 21.7477 69.5252 21.7477H65.3374V26.8148L68.4071 27.4482V31.5059H55.1323ZM65.3374 16.4232H69.5252C70.9753 16.4232 72.0731 16.0405 72.8185 15.2752C73.5774 14.4966 73.9569 13.5003 73.9569 12.2863C73.9569 11.0327 73.5774 10.0035 72.8185 9.19851C72.0731 8.39357 70.9753 7.9911 69.5252 7.9911H65.3374V16.4232Z" fill="white"/>
<path d="M96.6237 31.9216C93.8048 31.9216 91.2908 31.3674 89.0817 30.2589C86.8726 29.1505 85.1379 27.5472 83.8775 25.4491C82.6171 23.3377 81.9869 20.7778 81.9869 17.7691V16.443C81.9869 13.6719 82.5629 11.2241 83.7148 9.09955C84.8804 6.96184 86.5338 5.29258 88.6751 4.09176C90.83 2.87776 93.3847 2.27075 96.3391 2.27075C98.3991 2.27075 100.358 2.54126 102.214 3.08229C104.084 3.61012 105.819 4.52063 107.418 5.81381V13.2364H102.235L101.523 8.98079C100.832 8.51893 100.086 8.15605 99.2868 7.89214C98.4872 7.62822 97.586 7.49626 96.5831 7.49626C94.3333 7.49626 92.5241 8.27481 91.1552 9.83191C89.7864 11.3758 89.102 13.5663 89.102 16.4034V17.7691C89.102 19.5374 89.4205 21.0945 90.0575 22.4404C90.6945 23.7732 91.5822 24.8157 92.7206 25.5678C93.8726 26.32 95.2007 26.6961 96.7051 26.6961C97.5047 26.6961 98.3178 26.6169 99.1445 26.4585C99.9713 26.287 100.771 26.0627 101.543 25.7856L102.255 21.7081H107.459V28.9723C106.28 29.7641 104.776 30.4569 102.946 31.0507C101.116 31.6313 99.009 31.9216 96.6237 31.9216Z" fill="white"/>
<path d="M133.155 31.5059V27.4482L135.716 26.8148V14.8001L132.667 14.1667V10.0892H142.466L142.71 13.0781C143.441 12.0092 144.336 11.1779 145.393 10.5841C146.464 9.99026 147.677 9.69336 149.032 9.69336C151.092 9.69336 152.718 10.3729 153.911 11.7321C155.104 13.0913 155.7 15.2488 155.7 18.2046V26.8148L158.261 27.4482V31.5059H146.47V27.4482L148.544 26.8148V18.1848C148.544 17.0368 148.307 16.2252 147.833 15.7502C147.358 15.262 146.681 15.0178 145.8 15.0178C144.553 15.0178 143.57 15.4797 142.852 16.4034V26.8148L144.682 27.4482V31.5059H133.155Z" fill="white"/>
<path d="M169.971 31.5059V27.0523L179.505 17.2743C180.779 15.8624 181.674 14.6747 182.189 13.7115C182.704 12.7482 182.961 11.8443 182.961 10.9997C182.961 10.0628 182.704 9.27109 182.189 8.6245C181.674 7.96471 180.901 7.63482 179.871 7.63482C178.746 7.63482 177.913 8.02409 177.371 8.80264C176.828 9.568 176.557 10.6039 176.557 11.9102H169.585L169.544 11.7915C169.503 10.0101 169.896 8.40017 170.723 6.96184C171.563 5.5235 172.769 4.38207 174.342 3.53754C175.914 2.69302 177.764 2.27075 179.891 2.27075C183.09 2.27075 185.59 3.06909 187.393 4.66578C189.209 6.24927 190.117 8.34079 190.117 10.9404C190.117 12.128 189.907 13.2232 189.487 14.2261C189.08 15.2158 188.402 16.278 187.454 17.4129C186.519 18.5477 185.265 19.9201 183.693 21.5299L179.22 26.1418L179.261 26.2408H185.136L185.441 23.8458H190.788V31.5059H169.971Z" fill="white"/>
<path d="M203.92 31.9216C200.708 31.9216 198.167 30.9319 196.297 28.9525C194.427 26.9732 193.491 24.0371 193.491 20.1444V14.0677C193.491 10.1882 194.427 7.25214 196.297 5.25959C198.167 3.26703 200.695 2.27075 203.88 2.27075C207.037 2.27075 209.551 3.26703 211.422 5.25959C213.305 7.25214 214.247 10.1882 214.247 14.0677V20.1444C214.247 24.0371 213.312 26.9732 211.442 28.9525C209.585 30.9319 207.078 31.9216 203.92 31.9216ZM203.92 26.6367C204.964 26.6367 205.763 26.1748 206.319 25.2511C206.875 24.3142 207.153 22.7439 207.153 20.5403V13.6323C207.153 11.4682 206.868 9.91768 206.299 8.98079C205.73 8.04389 204.923 7.57544 203.88 7.57544C202.795 7.57544 201.975 8.04389 201.42 8.98079C200.864 9.90449 200.586 11.455 200.586 13.6323V20.5403C200.586 22.7571 200.864 24.3274 201.42 25.2511C201.975 26.1748 202.809 26.6367 203.92 26.6367Z" fill="white"/>
<path d="M216.971 31.5059V27.0523L226.506 17.2743C227.78 15.8624 228.674 14.6747 229.189 13.7115C229.704 12.7482 229.962 11.8443 229.962 10.9997C229.962 10.0628 229.704 9.27109 229.189 8.6245C228.674 7.96471 227.902 7.63482 226.872 7.63482C225.747 7.63482 224.913 8.02409 224.371 8.80264C223.829 9.568 223.558 10.6039 223.558 11.9102H216.585L216.545 11.7915C216.504 10.0101 216.897 8.40017 217.724 6.96184C218.564 5.5235 219.77 4.38207 221.342 3.53754C222.914 2.69302 224.764 2.27075 226.892 2.27075C230.09 2.27075 232.591 3.06909 234.393 4.66578C236.209 6.24927 237.117 8.34079 237.117 10.9404C237.117 12.128 236.907 13.2232 236.487 14.2261C236.081 15.2158 235.403 16.278 234.454 17.4129C233.519 18.5477 232.266 19.9201 230.694 21.5299L226.221 26.1418L226.262 26.2408H232.137L232.442 23.8458H237.788V31.5059H216.971Z" fill="white"/>
<path d="M239.435 31.5059V27.4482L244.7 26.8148V8.60471L239.394 8.54533V4.70537L251.815 2.68642V26.8148L257.081 27.4482V31.5059H239.435Z" fill="white"/>
<path d="M123.461 15.4141C123.549 15.5388 123.606 15.6813 123.628 15.8308C123.651 15.9803 123.638 16.1328 123.591 16.2767C123.541 16.4207 123.458 16.5513 123.347 16.6582C123.236 16.765 123.102 16.8451 122.953 16.8921L122.608 17.0013L125.779 20.9004C125.884 21.0281 125.954 21.1794 125.983 21.3405C126.013 21.5016 126 21.6673 125.946 21.8223C125.892 21.9772 125.799 22.1165 125.675 22.2272C125.552 22.338 125.402 22.4167 125.239 22.456L124.648 22.5998L128.929 27.882C130.368 26.3194 131.311 24.3844 131.644 22.311C131.978 20.2376 131.687 18.1145 130.808 16.1984C129.929 14.2823 128.499 12.6552 126.69 11.5138C124.882 10.3724 122.773 9.7656 120.618 9.76673C120.222 9.76673 119.832 9.78685 119.437 9.82423L123.461 15.4141ZM115.74 23.0685C115.578 22.9762 115.446 22.8414 115.358 22.6795C115.271 22.5175 115.232 22.335 115.246 22.1526C115.26 21.9702 115.326 21.7952 115.437 21.6476C115.548 21.4999 115.699 21.3855 115.873 21.3174L116.233 21.1822L112.156 18.3068C112.013 18.2059 111.9 18.0701 111.828 17.9131C111.757 17.7562 111.729 17.5836 111.747 17.4128C111.766 17.2419 111.83 17.0788 111.934 16.94C112.038 16.8011 112.178 16.6914 112.339 16.6218L112.398 16.5959L110.783 15.4917C109.588 17.6549 109.181 20.1485 109.628 22.5659C110.075 24.9832 111.35 27.1818 113.245 28.8029C115.14 30.4241 117.543 31.3722 120.062 31.4927C122.581 31.6132 125.068 30.8989 127.116 29.4664L115.74 23.0685Z" fill="white"/>
<path d="M128.87 29.1621L123.277 22.2553C123.26 22.2348 123.249 22.2106 123.244 22.1849C123.239 22.1592 123.241 22.1328 123.249 22.1079C123.258 22.0831 123.272 22.0606 123.291 22.0424C123.311 22.0242 123.334 22.011 123.36 22.0038L125.008 21.6106C125.033 21.6033 125.056 21.5905 125.076 21.573C125.086 21.5637 125.095 21.553 125.103 21.5412C125.115 21.5199 125.123 21.4963 125.126 21.4718C125.132 21.4471 125.132 21.4214 125.126 21.3966C125.121 21.3832 125.114 21.3706 125.105 21.3591L121.285 16.6987C121.277 16.6877 121.27 16.6761 121.264 16.664C121.255 16.6441 121.25 16.6227 121.25 16.6009C121.25 16.5792 121.254 16.5576 121.263 16.5376C121.271 16.5175 121.284 16.4994 121.3 16.4844C121.316 16.4693 121.335 16.4576 121.356 16.45L122.648 16.0453C122.671 16.0373 122.693 16.024 122.71 16.0065C122.728 15.989 122.741 15.9677 122.748 15.9443C122.756 15.9209 122.758 15.8962 122.754 15.8721C122.749 15.8479 122.74 15.8251 122.725 15.8053L117.91 9.13851C117.892 9.10869 117.864 9.0859 117.831 9.07425C117.798 9.06259 117.762 9.06283 117.729 9.07491L108.826 12.8333C108.8 12.8448 108.778 12.8626 108.762 12.885C108.745 12.9074 108.735 12.9336 108.732 12.961C108.729 12.9884 108.733 13.0161 108.745 13.0413C108.756 13.0666 108.774 13.0885 108.796 13.1051L113.76 16.5396C113.783 16.5552 113.801 16.5767 113.813 16.6016C113.824 16.6266 113.828 16.6541 113.825 16.6813C113.824 16.7085 113.815 16.7348 113.798 16.7565C113.791 16.7683 113.782 16.779 113.772 16.7883L113.733 16.8114L112.566 17.3087C112.547 17.3173 112.529 17.3297 112.514 17.3451C112.499 17.3605 112.488 17.3785 112.48 17.3983V17.4359C112.478 17.4633 112.483 17.4908 112.495 17.516C112.506 17.5411 112.524 17.5633 112.546 17.5804L115.104 19.3787L117.66 21.174C117.68 21.1889 117.696 21.208 117.707 21.2298C117.718 21.2516 117.724 21.2755 117.724 21.2998C117.724 21.3241 117.718 21.348 117.707 21.3698C117.696 21.3916 117.68 21.4107 117.66 21.4256C117.649 21.4349 117.636 21.4427 117.622 21.4487L116.105 22.0269C116.084 22.0353 116.066 22.0477 116.05 22.0634C116.035 22.079 116.023 22.0975 116.015 22.1178C116.007 22.1381 116.004 22.1598 116.005 22.1814C116.006 22.2031 116.012 22.2243 116.022 22.2437C116.036 22.2701 116.058 22.2921 116.084 22.3073L128.68 29.3904C128.711 29.4031 128.746 29.4056 128.779 29.3975C128.812 29.3894 128.841 29.3711 128.862 29.3454C128.884 29.3197 128.896 29.288 128.897 29.2549C128.899 29.2219 128.889 29.1893 128.87 29.1621V29.1621Z" fill="#FFA400"/>
<path d="M285.975 31.8855V27.6955L289.041 27.0414V6.99029L285.975 6.33623V2.1257H300.017L307.212 21.7271H307.334L314.325 2.1257H328.203V6.33623L325.117 6.99029V27.0414L328.203 27.6955V31.8855H314.876V27.6955L318.085 27.0414V23.1579L318.249 9.15687L318.126 9.13643L309.705 31.8855H304.064L295.52 9.40215L295.377 9.42259L295.868 22.1768V27.0414L299.322 27.6955V31.8855H285.975Z" fill="white"/>
<path d="M337.319 32.3148C335.18 32.3148 333.435 31.7084 332.086 30.4957C330.737 29.2829 330.063 27.6682 330.063 25.6515C330.063 23.5803 330.894 21.8838 332.557 20.5621C334.233 19.2403 336.76 18.5795 340.14 18.5795H342.449V17.2713C342.449 16.3856 342.197 15.6362 341.693 15.023C341.189 14.3962 340.392 14.0828 339.302 14.0828C338.389 14.0828 337.592 14.3076 336.91 14.7573L336.42 17.5779H331.371L331.269 11.4257C332.523 10.867 333.831 10.3832 335.193 9.97445C336.57 9.56566 338.103 9.36127 339.792 9.36127C342.804 9.36127 345.195 10.0562 346.966 11.4461C348.738 12.8223 349.624 14.7913 349.624 17.3531V25.5084C349.624 25.8218 349.624 26.1284 349.624 26.4282C349.637 26.728 349.671 27.0141 349.726 27.2867L352.117 27.6955V31.8855H343.737C343.56 31.6403 343.369 31.3132 343.165 30.9044C342.96 30.4957 342.817 30.0869 342.735 29.6781C342.068 30.5093 341.318 31.1565 340.487 31.6198C339.656 32.0831 338.6 32.3148 337.319 32.3148ZM339.526 27.2458C340.044 27.2458 340.562 27.1436 341.08 26.9392C341.611 26.7212 342.068 26.401 342.449 25.9785V22.79H340.221C339.254 22.79 338.504 23.0012 337.973 23.4236C337.455 23.846 337.196 24.4047 337.196 25.0996C337.196 25.7673 337.414 26.2919 337.85 26.6735C338.286 27.055 338.845 27.2458 339.526 27.2458Z" fill="white"/>
<path d="M354.386 31.8855V27.6955L356.961 27.0414V14.6346L353.895 13.9806V9.77006H363.727L363.89 12.4681L363.931 13.0199C364.885 10.5808 366.404 9.36127 368.489 9.36127C368.789 9.36127 369.143 9.38852 369.552 9.44303C369.961 9.4839 370.376 9.56566 370.799 9.6883L370.083 16.2698L367.018 16.1267C366.309 16.0995 365.75 16.1812 365.341 16.372C364.946 16.5491 364.544 16.8489 364.136 17.2713V27.0414L366.711 27.6955V31.8855H354.386Z" fill="white"/>
<path d="M382.388 32.3148C380.194 32.3148 378.307 31.831 376.726 30.8636C375.146 29.8961 373.933 28.5675 373.088 26.8779C372.243 25.1882 371.821 23.2601 371.821 21.0935V20.6234C371.821 18.4023 372.257 16.4469 373.129 14.7573C374.015 13.0676 375.241 11.7459 376.808 10.792C378.389 9.83819 380.228 9.36127 382.327 9.36127C384.439 9.36127 386.244 9.68149 387.743 10.3219C389.256 10.9624 390.448 11.63 391.32 12.325L391.197 19.2948H385.863L385.004 15.2887C384.773 15.0571 384.459 14.8663 384.064 14.7164C383.682 14.5665 383.362 14.4916 383.103 14.4916C381.577 14.4916 380.508 14.9889 379.894 15.9836C379.295 16.9784 378.995 18.525 378.995 20.6234V21.0935C378.995 22.5515 379.165 23.7029 379.506 24.5478C379.86 25.379 380.303 25.9717 380.835 26.326C381.366 26.6803 381.911 26.8574 382.47 26.8574C383.328 26.8574 383.989 26.6462 384.452 26.2238C384.929 25.7878 385.297 25.1541 385.556 24.3229H391.565L391.647 24.4456C391.32 26.2034 390.809 27.6682 390.114 28.8401C389.419 29.9983 388.452 30.8704 387.212 31.4563C385.985 32.0286 384.377 32.3148 382.388 32.3148Z" fill="white"/>
<path d="M393.855 31.8855V27.6955L396.45 27.0414V4.86459L393.344 4.21053V0H403.584V12.5089C404.238 11.5142 405.055 10.7443 406.036 10.1993C407.018 9.64061 408.155 9.36127 409.45 9.36127C411.576 9.36127 413.286 10.1243 414.58 11.6505C415.875 13.163 416.522 15.5067 416.522 18.6817V27.0414L419.097 27.6955V31.8855H407.242V27.6955L409.348 27.0414V18.6408C409.348 17.1964 409.102 16.2085 408.612 15.6771C408.135 15.132 407.44 14.8595 406.527 14.8595C405.205 14.8595 404.224 15.316 403.584 16.2289V27.0414L405.689 27.6955V31.8855H393.855Z" fill="white"/>
<path d="M439.659 32.3148C438.624 32.3148 437.547 32.2058 436.43 31.9877C435.326 31.7697 434.291 31.4563 433.323 31.0475L434.038 25.9377C434.911 26.2102 435.81 26.435 436.736 26.6122C437.677 26.7757 438.515 26.8574 439.251 26.8574C440.858 26.8574 442.119 26.3533 443.032 25.3449C443.958 24.3366 444.422 22.8241 444.422 20.8074V20.1329C442.936 21.7816 441.131 22.606 439.005 22.606C437.356 22.606 435.892 22.1904 434.611 21.3592C433.344 20.528 432.349 19.3493 431.627 17.8232C430.918 16.2834 430.564 14.4575 430.564 12.3454C430.564 10.3696 431.007 8.57776 431.892 6.96985C432.778 5.36195 434.011 4.08108 435.592 3.12724C437.173 2.17339 438.992 1.69647 441.049 1.69647C443.052 1.69647 444.83 2.19383 446.384 3.18855C447.951 4.16965 449.177 5.57316 450.063 7.39908C450.962 9.225 451.412 11.3984 451.412 13.9193V21.0526C451.412 23.2873 450.901 25.2563 449.879 26.9596C448.857 28.6493 447.46 29.9642 445.689 30.9044C443.931 31.8447 441.921 32.3148 439.659 32.3148ZM441.09 17.4962C441.649 17.4962 442.207 17.394 442.766 17.1896C443.338 16.9716 443.836 16.665 444.258 16.2698V13.0404C444.258 11.1327 443.952 9.68149 443.338 8.68677C442.725 7.67842 441.955 7.17425 441.029 7.17425C440.347 7.17425 439.762 7.41952 439.271 7.91007C438.78 8.38699 438.399 9.02061 438.126 9.81094C437.867 10.6013 437.738 11.4461 437.738 12.3454C437.738 13.9261 437.997 15.1797 438.515 16.1063C439.046 17.0329 439.905 17.4962 441.09 17.4962Z" fill="white"/>
<path d="M457.707 40L454.355 38.3444C454.819 37.4178 455.18 36.4435 455.439 35.4216C455.697 34.4132 455.827 33.2482 455.827 31.9264V26.6326H462L461.979 31.4972C461.979 33.2686 461.55 34.8765 460.692 36.3209C459.833 37.7653 458.838 38.9917 457.707 40Z" fill="white"/>
<path d="M475.755 31.8855V27.2867L485.341 17.1896C486.622 15.7316 487.522 14.5052 488.039 13.5105C488.557 12.5158 488.816 11.5824 488.816 10.7103C488.816 9.7428 488.557 8.92523 488.039 8.25754C487.522 7.57622 486.745 7.23556 485.709 7.23556C484.578 7.23556 483.74 7.63754 483.195 8.44149C482.65 9.23182 482.378 10.3015 482.378 11.6505H475.367L475.326 11.5278C475.285 9.6883 475.68 8.02589 476.512 6.54062C477.356 5.05536 478.569 3.87668 480.15 3.0046C481.731 2.13252 483.59 1.69647 485.73 1.69647C488.946 1.69647 491.46 2.52087 493.272 4.16965C495.098 5.8048 496.011 7.96457 496.011 10.649C496.011 11.8753 495.8 13.0063 495.377 14.0419C494.968 15.0639 494.287 16.1608 493.333 17.3327C492.393 18.5045 491.133 19.9216 489.552 21.5841L485.055 26.3464L485.096 26.4486H491.003L491.31 23.9755H496.685V31.8855H475.755Z" fill="white"/>
<path d="M509.889 32.3148C506.66 32.3148 504.105 31.2928 502.224 29.2489C500.344 27.2049 499.404 24.1731 499.404 20.1533V13.8784C499.404 9.87225 500.344 6.8404 502.224 4.78283C504.105 2.72526 506.646 1.69647 509.848 1.69647C513.023 1.69647 515.551 2.72526 517.431 4.78283C519.325 6.8404 520.272 9.87225 520.272 13.8784V20.1533C520.272 24.1731 519.332 27.2049 517.452 29.2489C515.585 31.2928 513.064 32.3148 509.889 32.3148ZM509.889 26.8574C510.938 26.8574 511.742 26.3805 512.301 25.4267C512.86 24.4592 513.139 22.8377 513.139 20.5621V13.4287C513.139 11.194 512.853 9.59291 512.281 8.62545C511.708 7.65798 510.898 7.17425 509.848 7.17425C508.758 7.17425 507.934 7.65798 507.375 8.62545C506.817 9.57929 506.537 11.1804 506.537 13.4287V20.5621C506.537 22.8513 506.817 24.4728 507.375 25.4267C507.934 26.3805 508.772 26.8574 509.889 26.8574Z" fill="white"/>
<path d="M523.011 31.8855V27.2867L532.597 17.1896C533.878 15.7316 534.778 14.5052 535.295 13.5105C535.813 12.5158 536.072 11.5824 536.072 10.7103C536.072 9.7428 535.813 8.92523 535.295 8.25754C534.778 7.57622 534.001 7.23556 532.965 7.23556C531.834 7.23556 530.996 7.63754 530.451 8.44149C529.906 9.23182 529.634 10.3015 529.634 11.6505H522.623L522.582 11.5278C522.541 9.6883 522.936 8.02589 523.768 6.54062C524.612 5.05536 525.825 3.87668 527.406 3.0046C528.987 2.13252 530.847 1.69647 532.986 1.69647C536.202 1.69647 538.716 2.52087 540.528 4.16965C542.354 5.8048 543.267 7.96457 543.267 10.649C543.267 11.8753 543.056 13.0063 542.633 14.0419C542.224 15.0639 541.543 16.1608 540.589 17.3327C539.649 18.5045 538.389 19.9216 536.808 21.5841L532.311 26.3464L532.352 26.4486H538.259L538.566 23.9755H543.941V31.8855H523.011Z" fill="white"/>
<path d="M545.597 31.8855V27.6955L550.891 27.0414V8.2371L545.556 8.17578V4.21053L558.045 2.1257V27.0414L563.338 27.6955V31.8855H545.597Z" fill="white"/>
<path d="M266.169 20.9709V15.0435H273.303V20.9709H266.169Z" fill="#FFA400"/>
</svg>
