<svg id="building-hug" xmlns="http://www.w3.org/2000/svg" viewBox="0 0 391.25 555.48"><defs><clipPath id="a"><path d="M119.93 311.36A103.63 103.63 0 0 1 23 243.83a11 11 0 0 1 7.8-14.43 11 11 0 0 1 12.88 6.8A81.54 81.54 0 0 0 138 287.35l72.93-16.51 4.83 21.46-72.93 16.51a104.2 104.2 0 0 1-22.9 2.55z" fill="none"/></clipPath><clipPath id="b"><path data-name="SVGID" d="M236.26 204a34.76 34.76 0 0 1 9.39 7.79 34.24 34.24 0 0 1 6.19 34.21l20.7 7.47a56.82 56.82 0 0 0-35.94-73.2z" fill="none"/></clipPath></defs><path fill="#bbdefb" d="M32.58 492.29h14.49v61.18H32.58zM290.79 471.95h14.49v81.53h-14.49z"/><path fill="#bbdefb" d="M295.85 460.66h14.49v11.29h-14.49z"/><path fill="#bbdefb" d="M303.1 451.14h14.49v11.29H303.1zM32.58 412.22h14.49v61.18H32.58zM155.07 324.87h14.49v228.61h-14.49zM38.28 399.71h14.49v11.9H38.28zM38.28 480.39h14.49v11.9H38.28z"/><path fill="#bbdefb" d="M32.58 468.48h14.49v11.9H32.58z"/><path d="M236.26 204a34.25 34.25 0 0 0-23.32-3.81l-43 8-4-21.63 43-8a56.45 56.45 0 0 1 27.7 1.65" fill="#fff" stroke="#448aff" stroke-linejoin="round" stroke-width="4"/><path fill="none" stroke="#4389ff" stroke-linecap="round" stroke-miterlimit="10" stroke-width="4" d="M155.02 325h115.1v228.48h-115.1z"/><path fill="#fff" stroke="#4389ff" stroke-linecap="round" stroke-miterlimit="10" stroke-width="4" d="M171.48 209.77h82.18v115.1h-82.18zM188.53 174.22h48.07v35.55h-48.07z"/><path fill="none" stroke="#4389ff" stroke-linecap="round" stroke-miterlimit="10" stroke-width="4" d="M212.57 174.22V84.67"/><path d="M218.17 253.19a15.37 15.37 0 0 1-13.3-23.09 15.38 15.38 0 1 0 21 21 15.35 15.35 0 0 1-7.7 2.09z" fill="#bbdefb"/><circle cx="212.57" cy="243.41" r="15.38" fill="none" stroke="#4389ff" stroke-linecap="round" stroke-miterlimit="10" stroke-width="4"/><path fill="none" stroke="#4389ff" stroke-linecap="round" stroke-miterlimit="10" stroke-width="4" d="M155.02 536.97h115.1M155.02 513.43h115.1M155.02 489.89h115.1M155.02 466.35h115.1M155.02 442.81h115.1M155.02 419.27h115.1M155.02 395.73h115.1M155.02 372.19h115.1M155.02 348.65h115.1M129.35 411.61v-11.9H38.28v11.9M32.58 411.61h102.09v60.05H32.58zM32.58 492.29h102.09v61.18H32.58z"/><path fill="none" stroke="#4389ff" stroke-linecap="round" stroke-miterlimit="10" stroke-width="4" d="M38.28 492.29v-11.42h-5.7v-9.5h102.08v9.5h-5.31v11.42H38.28zM49.52 411.61v60.05M32.58 411.61v60.05M66.45 411.61v60.05M83.39 411.61v60.05M100.33 411.61v60.05M117.27 411.61v60.05M134.21 411.61v60.05M290.79 471.95h98.46v79.6h-98.46zM296.04 461.84h87.95v10.11h-87.95z"/><path fill="none" stroke="#4389ff" stroke-linecap="round" stroke-miterlimit="10" stroke-width="4" d="M302.44 451.73h75.17v10.11h-75.17zM303.1 471.95v79.6M315.4 471.95v79.6M327.71 471.95v79.6M340.02 471.95v79.6M352.33 471.95v79.6M364.64 471.95v79.6M376.94 471.95v79.6"/><path fill="#bbdefb" d="M171.48 210.48h14.49v114.18h-14.49zM188.53 174.15h14.49v35.62h-14.49z"/><path fill="none" stroke="#4389ff" stroke-linecap="round" stroke-miterlimit="10" stroke-width="4" d="M171.48 209.77h82.18v115.1h-82.18zM188.53 174.22h48.07v35.55h-48.07z"/><path fill="#fff" stroke="#4389ff" stroke-linecap="round" stroke-miterlimit="10" stroke-width="4" d="M188.53 192h48.07"/><path fill="none" stroke="#4389ff" stroke-linecap="round" stroke-miterlimit="10" stroke-width="4" d="M171.48 301.33h82.18M171.48 277.79h82.18"/><path d="M64.41 100.5S1.59 169.34 11 210.55l149.24-34c-9.41-41.17-95.83-76.05-95.83-76.05z" fill="#fff" stroke="#448aff" stroke-linejoin="round" stroke-width="4"/><path d="M28 178.29a2.55 2.55 0 0 1-2.91-3.43c1.53-3.77 3.37-7.73 5.48-11.79a2.54 2.54 0 1 1 4.5 2.34c-2 3.92-3.81 7.74-5.28 11.35a2.54 2.54 0 0 1-1.79 1.53zM40.62 154.58a2.53 2.53 0 0 1-2.73-3.78 272.33 272.33 0 0 1 18.45-26.59 2.54 2.54 0 0 1 4 3.12 268.65 268.65 0 0 0-18.11 26.09 2.54 2.54 0 0 1-1.61 1.16z" fill="#bbdefb"/><rect x="48.97" y="156.14" width="9.74" height="16.44" rx="4.87" transform="rotate(-12.82 53.8274325 164.3246527)" fill="#00549e"/><rect x="96.7" y="145.28" width="9.74" height="16.44" rx="4.87" transform="rotate(-12.82 101.55750129 153.46253568)" fill="#00549e"/><path d="M67.37 177.34c2.5 5.43 10.42 7.13 17.7 3.78s11.15-10.47 8.65-15.9z" fill="#4389ff"/><path d="M123.63 360.74A85.72 85.72 0 0 1 21 296.18L2 212.59l166.9-39.26 19 83.59c10.8 47.38-18.11 93.32-64.27 103.82z" fill="#fff" stroke="#448aff" stroke-linejoin="round" stroke-width="4"/><path d="M16.84 208.94l18.71 83.66a85.73 85.73 0 0 0 95.07 66.23c-2.39.76-4.84 1.43-7.34 2a85.72 85.72 0 0 1-102.36-64.96L2.2 212.21zM92.29 232.67a40 40 0 0 0 42.49 57.53 41.83 41.83 0 0 0 6.43-.74 40.18 40.18 0 0 0 11.17-4 40 40 0 1 1-60.09-52.78z" fill="#bbdefb"/><circle cx="121.27" cy="261.54" r="40" fill="none" stroke="#448aff" stroke-linejoin="round" stroke-width="4"/><path fill="none" stroke="#448aff" stroke-linejoin="round" stroke-width="4" d="M118.82 184.1l8.3 36.45M98.03 227.16l-8.29-36.44M130.01 300.46l12.31 54.12"/><path d="M71.23 242.12L101.46 220a.59.59 0 0 1 .73 0l24 21.65a.62.62 0 0 1-.08 1l-4.5 2.68a.63.63 0 0 0-.06 1L140 261.18a.63.63 0 0 1-.09 1l-5.91 2.97a.63.63 0 0 0-.09 1l27.14 21.91a.6.6 0 0 1-.51 1.07l-53.66-16.59a.63.63 0 0 1-.17-1.1l5.2-3.56a.63.63 0 0 0-.11-1.09l-22.42-9.51a.63.63 0 0 1-.14-1.07l4-2.93a.63.63 0 0 0-.13-1.07l-21.71-9.06a.62.62 0 0 1-.17-1.03z" fill="#00549e"/><path d="M123.63 360.74A85.72 85.72 0 0 1 21 296.18L2 212.59l166.9-39.26 19 83.59c10.8 47.38-18.11 93.32-64.27 103.82z" fill="none" stroke="#448aff" stroke-linejoin="round" stroke-width="4"/><path d="M236.26 204a34.76 34.76 0 0 1 9.39 7.79 34.24 34.24 0 0 1 6.19 34.21l20.7 7.47a56.82 56.82 0 0 0-35.94-73.2" fill="#fff" stroke="#448aff" stroke-linejoin="round" stroke-width="4"/><path d="M266.24 273.78a4.86 4.86 0 0 1-1.82-6.61 11 11 0 1 0-19.1-10.85 4.85 4.85 0 1 1-8.43-4.79 20.68 20.68 0 1 1 36 20.42 4.85 4.85 0 0 1-6.65 1.83z" fill="#4389ff"/><path d="M119.93 311.36A103.63 103.63 0 0 1 23 243.83a11 11 0 0 1 7.8-14.43 11 11 0 0 1 12.88 6.8A81.54 81.54 0 0 0 138 287.35l72.93-16.51 4.83 21.46-72.93 16.51a104.2 104.2 0 0 1-22.9 2.55z" fill="#fff" stroke="#448aff" stroke-linejoin="round" stroke-width="4"/><path d="M226.64 260.17a4.83 4.83 0 0 1-3.28 6 11 11 0 0 0 6.19 21.08 4.85 4.85 0 0 1 2.73 9.3 20.68 20.68 0 1 1-11.65-39.68 4.85 4.85 0 0 1 6.01 3.3zM234.56 177.15h3.9v33.37h-3.9zM167.16 39.19V30.1h-18.17v9.09h-11.25V30.1h-18.18v9.09h-9.09v28.22h9.09v9.09h9.09v9.51h9.09v9.09h11.25v-9.09h9.08V76.5h9.09v-9.09h9.09V39.19h-9.09z" fill="#4389ff"/><g clip-path="url(#a)" fill="none" stroke="#448aff" stroke-linejoin="round" stroke-width="4"><path d="M99.74 286.62c4.23.26 7.35 5.5 7 11.69s-4.14 11-8.37 10.71M114.87 288.92c4.24.06 7.62 5.13 7.54 11.33s-3.59 11.18-7.83 11.12M128.4 288.9c4.2-.56 8.28 4 9.09 10.12s-1.93 11.58-6.14 12.14M144.32 285.53c4.2-.55 8.28 4 9.09 10.12s-1.93 11.58-6.14 12.14M160.23 282.17c4.21-.56 8.28 4 9.1 10.12s-1.94 11.58-6.14 12.14M176.26 278.7c4.2-.56 8.28 4 9.09 10.12s-1.93 11.58-6.14 12.13M192.07 274.82c4.2-.56 8.28 4 9.09 10.12s-1.93 11.58-6.14 12.13M86.92 282.26c4.1 1.12 6.08 6.88 4.44 12.86S85.07 305 81 303.91M75.83 276.06c3.78 1.93 4.55 8 1.72 13.49S69.38 298 65.6 296M66.22 268.81c3.3 2.66 2.83 8.73-1.06 13.56s-9.73 6.58-13 3.92M57.59 260.15c2.69 3.28 1 9.13-3.81 13.07s-10.85 4.46-13.55 1.18M50.22 249.7c2 3.76-.89 9.14-6.39 12s-11.54 2.16-13.51-1.6M44.55 238.39c1.16 4.08-2.73 8.77-8.69 10.46s-11.74-.24-12.9-4.32"/></g><path d="M190 204.67c-4.17.74-8.43-3.6-9.51-9.68-.93-5.19.74-10 3.83-11.74" fill="none" stroke="#448aff" stroke-linejoin="round" stroke-width="4"/><g clip-path="url(#b)" fill="none" stroke="#448aff" stroke-linejoin="round" stroke-width="4"><path d="M253.66 236.69c.93-4.12 6.58-6.37 12.61-5s10.17 5.82 9.24 9.94M253.15 226.62c-.87-4.14 3.32-8.54 9.38-9.82s11.66 1 12.54 5.19M248.19 215.75c-1.85-3.81 1.17-9.09 6.73-11.78s11.58-1.8 13.42 2M241.21 207.79c-3.17-2.8-2.42-8.83 1.67-13.47s10-6.11 13.16-3.31"/></g><path d="M102.27 12.05a8.38 8.38 0 1 1-8.38-8.38 8.39 8.39 0 0 1 8.38 8.38zm-3.81 0a4.57 4.57 0 1 0-4.57 4.57 4.58 4.58 0 0 0 4.57-4.57zM219.91 57a8.38 8.38 0 1 1-8.38-8.38 8.39 8.39 0 0 1 8.38 8.38zm-3.81 0a4.57 4.57 0 1 0-4.57 4.57A4.58 4.58 0 0 0 216.1 57z" fill="#bbdefb"/><circle cx="178.72" cy="107.11" r="3.51" fill="#4389ff"/><circle cx="222.68" cy="7.77" r="4.97" fill="#bbdefb"/><circle cx="81.26" cy="52.47" r="4.97" fill="#ffa400"/><path d="M50.8 62.86a1.89 1.89 0 0 0-1.63.91l-3.82 6.29a1.9 1.9 0 1 0 3.25 2l3.82-6.28a1.89 1.89 0 0 0-.64-2.61 1.85 1.85 0 0 0-.98-.31z" fill="#4389ff"/><path d="M45.74 64.09a1.88 1.88 0 0 0-1.62.91 1.9 1.9 0 0 0 .63 2.62L51 71.44a1.9 1.9 0 0 0 2-3.25l-6.28-3.82a1.88 1.88 0 0 0-.98-.28z" fill="#4389ff"/><path d="M102.64 91.4a1.91 1.91 0 0 0-1.64 2.89l4.25 7a1.9 1.9 0 0 0 3.26-2l-4.25-7a1.91 1.91 0 0 0-1.62-.89z" fill="#bbdefb"/><path d="M108.29 92.8a1.87 1.87 0 0 0-1 .28l-7 4.25a1.9 1.9 0 0 0 2 3.26l7-4.25a1.91 1.91 0 0 0-1-3.54z" fill="#bbdefb"/><path d="M174.71 2.72a1.91 1.91 0 0 0-.86 3.61l11 5.52a1.9 1.9 0 1 0 1.71-3.4l-11-5.52a1.84 1.84 0 0 0-.85-.21z" fill="#bce784"/><path d="M183 0a1.91 1.91 0 0 0-1.7 1.05l-5.52 11a1.9 1.9 0 0 0 3.4 1.71l5.52-11a1.9 1.9 0 0 0-.89-2.56A2 2 0 0 0 183 0z" fill="#bce784"/><path d="M240.33 80.22a1.91 1.91 0 0 0-1.32.53l-5.33 5.09a1.9 1.9 0 1 0 2.63 2.75l5.33-5.08a1.91 1.91 0 0 0 .06-2.7 1.89 1.89 0 0 0-1.37-.59z" fill="#99ddc8"/><path d="M235.12 80.1a1.91 1.91 0 0 0-1.38 3.22l5.09 5.33a1.9 1.9 0 0 0 2.75-2.65l-5.09-5.33a1.89 1.89 0 0 0-1.37-.57z" fill="#99ddc8"/></svg>
