<svg xmlns="http://www.w3.org/2000/svg" viewBox="0 0 399.53 279.16"><title>Artboard 22</title><path d="M49.84 1.5h296.24a29.7 29.7 0 0 1 29.7 29.7v246.46H20.14V31.2a29.7 29.7 0 0 1 29.7-29.7z" fill="none" stroke="#bbdefb" stroke-linecap="round" stroke-miterlimit="10" stroke-width="3"/><path fill="none" stroke="#4389ff" stroke-linecap="round" stroke-miterlimit="10" stroke-width="3" d="M1.5 277.66h391.84"/><path fill="none" stroke="#bbdefb" stroke-linecap="round" stroke-miterlimit="10" stroke-width="3" d="M20.14 31.2h355.64"/><circle cx="47.12" cy="16.72" r="1.5" fill="none" stroke="#bbdefb" stroke-linecap="round" stroke-miterlimit="10" stroke-width="3"/><circle cx="62.4" cy="16.72" r="1.5" fill="none" stroke="#bbdefb" stroke-linecap="round" stroke-miterlimit="10" stroke-width="3"/><circle cx="77.68" cy="16.72" r="1.5" fill="none" stroke="#bbdefb" stroke-linecap="round" stroke-miterlimit="10" stroke-width="3"/><path fill="none" stroke="#bbdefb" stroke-linecap="round" stroke-miterlimit="10" stroke-width="3" d="M47.12 56.78h303.55v47.41H47.12zM47.12 130.72h139.32v121.97H47.12zM211.34 130.72h139.32v121.97H211.34zM47.57 252.69l139.32-121.97M47.57 130.72l139.32 121.97"/><circle cx="290.59" cy="134.12" r="64.33" fill="#fff"/><circle cx="290.59" cy="134.12" r="64.33" fill="none"/><path d="M393.34 216.66L345 168.35a64.62 64.62 0 0 1-20.22 20.22l48.31 48.3a14.29 14.29 0 1 0 20.21-20.21z" fill="#fff" stroke="#448aff" stroke-linejoin="round" stroke-width="4"/><path d="M393.34 216.66L345 168.35a64.62 64.62 0 0 1-20.22 20.22l48.31 48.3a14.29 14.29 0 1 0 20.21-20.21z" fill="#bbdefb" stroke="#4389ff" stroke-linecap="round" stroke-linejoin="round" stroke-width="4"/><path d="M329.74 83.09a64.32 64.32 0 0 1-90.18 90.18 64.32 64.32 0 1 0 90.18-90.18z" fill="#bbdefb"/><path d="M338.93 202.92c7.81-5.08 16-11.81 21-19.7l29.91 29.91c-5 7.89-13.16 14.62-21 19.7z" fill="#fff" stroke="#448aff" stroke-linejoin="round" stroke-width="4"/><circle cx="290.59" cy="134.12" r="64.33" fill="none" stroke="#4389ff" stroke-linecap="round" stroke-miterlimit="10" stroke-width="4"/><path fill="none" stroke="#bbdefb" stroke-linecap="round" stroke-miterlimit="10" stroke-width="5" stroke-dasharray="0,13" d="M116.78 172.77V39.2"/><circle cx="116.78" cy="193.6" r="8.76" fill="#fff" stroke="#448aff" stroke-linecap="round" stroke-linejoin="round" stroke-width="4"/><circle cx="118.69" cy="204.31" r="2.06" fill="#4389ff" stroke="#4389ff" stroke-miterlimit="10"/><circle cx="114.72" cy="204.31" r="2.06" fill="#4389ff" stroke="#4389ff" stroke-miterlimit="10"/><ellipse cx="116.78" cy="170.36" rx="12.28" ry="14.47" fill="#bbdefb" stroke="#448aff" stroke-linecap="round" stroke-linejoin="round" stroke-width="4"/><path d="M109.81 198.9l-4.81 4.51a25.77 25.77 0 0 0-8 18.73v7.92M108.34 196a25.76 25.76 0 0 0-23 19.8l-.51 2.18M108.2 191.81l-2-.28a25.81 25.81 0 0 1-20.6-16.67l-.82-2.27M109.18 189.24l-8.89-10a25.75 25.75 0 0 1-6.47-17.08V151.4" fill="none" stroke="#448aff" stroke-linecap="round" stroke-linejoin="round" stroke-width="4"/><path d="M109.81 198.9l-4.81 4.51a25.77 25.77 0 0 0-8 18.73v7.92M108.34 196a25.76 25.76 0 0 0-23 19.8l-.51 2.18M108.2 191.81l-2-.28a25.81 25.81 0 0 1-20.6-16.67l-.82-2.27M109.18 189.24l-8.89-10a25.75 25.75 0 0 1-6.47-17.08V151.4M123.74 198.9l4.78 4.51a25.77 25.77 0 0 1 8.07 18.73v7.92M125.22 196a25.76 25.76 0 0 1 23.05 19.8l.51 2.18M125.35 191.81l2-.28A25.78 25.78 0 0 0 148 174.86l.83-2.27M124.38 189.24l8.88-10a25.75 25.75 0 0 0 6.47-17.08V151.4" fill="none" stroke="#448aff" stroke-linecap="round" stroke-linejoin="round" stroke-width="4"/><path d="M306 135.07v-16.78a15.32 15.32 0 0 0-30.64 0v16.78" fill="none" stroke="#448aff" stroke-linecap="round" stroke-linejoin="round" stroke-width="5"/><path fill="#fff" stroke="#448aff" stroke-linejoin="round" stroke-width="5" d="M265.63121213 127.74046519l49.95985085-.12207519.08363959 34.22989782-49.95985086.12207518z"/><circle cx="290.65" cy="142.76" r="5.81" fill="#4389ff"/><path d="M290.65 153.55a2.5 2.5 0 0 1-2.5-2.5v-8.29a2.5 2.5 0 0 1 5 0v8.29a2.5 2.5 0 0 1-2.5 2.5z" fill="#4389ff"/></svg>