<svg xmlns="http://www.w3.org/2000/svg" viewBox="0 0 395.85 279.16"><title>Artboard 24</title><path fill="none" stroke="#bbdefb" stroke-linecap="round" stroke-miterlimit="10" stroke-width="3" d="M20.48 31.2h355.63"/><circle cx="47.45" cy="16.72" r="1.5" fill="none" stroke="#bbdefb" stroke-linecap="round" stroke-miterlimit="10" stroke-width="3"/><circle cx="62.73" cy="16.72" r="1.5" fill="none" stroke="#bbdefb" stroke-linecap="round" stroke-miterlimit="10" stroke-width="3"/><circle cx="78.01" cy="16.72" r="1.5" fill="none" stroke="#bbdefb" stroke-linecap="round" stroke-miterlimit="10" stroke-width="3"/><path d="M50.35 1.5h296.24a29.7 29.7 0 0 1 29.7 29.7v246.46H20.65V31.2a29.7 29.7 0 0 1 29.7-29.7z" fill="none" stroke="#bbdefb" stroke-linecap="round" stroke-miterlimit="10" stroke-width="3"/><path fill="none" stroke="#4389ff" stroke-linecap="round" stroke-miterlimit="10" stroke-width="3" d="M2.01 277.66h391.84"/><path fill="none" stroke="#bbdefb" stroke-linecap="round" stroke-miterlimit="10" stroke-width="3" d="M150.36 56.78h126.92v47.41H150.36zM47.62 56.78h75.89v195.91H47.62zM150.36 130.72h200.81v121.97H150.36zM47.62 81.24h75.89M47.62 105.7h75.89M47.62 130.15h75.89M47.62 154.61h75.89M47.62 179.06h75.89M47.62 203.52h75.89M47.62 227.97h75.89M47.62 252.43h75.89M47.62 56.78h75.89"/><path fill="#bbdefb" stroke="#4389ff" stroke-linecap="round" stroke-miterlimit="10" stroke-width="4" d="M158.37324598 97.76382449l19.64989196-.06516175.28876768 87.0795212-19.64989196.06516175z"/><path d="M158.09636098 104.634781l.29999835-.00099483.2430384 73.28959702-.29999835.00099484a36.66 36.66 0 0 1-36.78136737-36.5382295 36.66 36.66 0 0 1 36.53822949-36.78136736z" fill="#fff" stroke="#4389ff" stroke-linecap="round" stroke-miterlimit="10" stroke-width="4"/><path d="M120.5 141.4l-47.83-.14a10.42 10.42 0 0 0-10.39 10.46v14.93a7.86 7.86 0 0 1-7.84 7.89 7.85 7.85 0 0 1-7.89-7.84l-.12-37a6.92 6.92 0 0 0-6.93-6.88 6.91 6.91 0 0 0-6.89 6.93l.14 27.25a5 5 0 0 1-5 5 5 5 0 0 1-5-5v-9.9a5.68 5.68 0 0 0-5.7-5.66l-15 .05" fill="none" stroke="#4389ff" stroke-linecap="round" stroke-miterlimit="10" stroke-width="4"/><path fill="#fff" stroke="#4389ff" stroke-linecap="round" stroke-miterlimit="10" stroke-width="4" d="M178.1 124.1l22.33-.08M178.21 158.03l22.33-.07"/><path fill="#bbdefb" stroke="#4389ff" stroke-linecap="round" stroke-miterlimit="10" stroke-width="4" d="M240.45775902 184.6123044l-19.64989196.06516175-.28876768-87.0795212 19.64989196-.06516176z"/><path d="M240.7155523 177.72913874l-.29999836.00099484-.24317104-73.3295968.29999835-.00099484a36.66 36.66 0 0 1 36.80136726 36.53816316 36.66 36.66 0 0 1-36.55819622 36.79143364z" fill="#fff" stroke="#4389ff" stroke-linecap="round" stroke-miterlimit="10" stroke-width="4"/><path d="M278.33 141l44.85.19a10.42 10.42 0 0 1 10.46 10.39l.05 14.93a7.86 7.86 0 0 0 7.89 7.84 7.85 7.85 0 0 0 7.84-7.89l-.12-37a6.91 6.91 0 0 1 6.89-6.93 6.92 6.92 0 0 1 6.93 6.89l.08 27.24a5 5 0 0 0 5 5 5 5 0 0 0 5-5v-9.9a5.67 5.67 0 0 1 5.66-5.69h15" fill="none" stroke="#4389ff" stroke-linecap="round" stroke-miterlimit="10" stroke-width="4"/><circle cx="327.33" cy="80.36" r="23.84" fill="none" stroke="#bbdefb" stroke-linecap="round" stroke-miterlimit="10" stroke-width="3"/><path d="M300.82 62.45l20.49-8.83a.36.36 0 0 1 .42.12l11.08 15.76a.37.37 0 0 1-.18.56l-3 1a.38.38 0 0 0-.17.59l8.75 11a.37.37 0 0 1-.19.59l-3.79.93a.37.37 0 0 0-.19.59l12.96 16.3a.36.36 0 0 1-.44.55l-29-16.74a.37.37 0 0 1 0-.66l3.5-1.38a.38.38 0 0 0 .07-.65l-11.77-8.49a.37.37 0 0 1 .07-.64l2.69-1.18a.38.38 0 0 0 .06-.64l-11.42-8.13a.38.38 0 0 1 .06-.65z" fill="#bbdefb"/></svg>