<svg xmlns="http://www.w3.org/2000/svg" viewBox="0 0 395.34 279.16"><title>Artboard 23</title><path d="M49.84 1.5h296.24a29.7 29.7 0 0 1 29.7 29.7v246.46H20.14V31.2a29.7 29.7 0 0 1 29.7-29.7z" fill="none" stroke="#bbdefb" stroke-linecap="round" stroke-miterlimit="10" stroke-width="3"/><path fill="none" stroke="#4389ff" stroke-linecap="round" stroke-miterlimit="10" stroke-width="3" d="M1.5 277.66h391.84"/><path fill="none" stroke="#bbdefb" stroke-linecap="round" stroke-miterlimit="10" stroke-width="3" d="M20.14 31.2h355.64"/><circle cx="47.12" cy="16.72" r="1.5" fill="none" stroke="#bbdefb" stroke-linecap="round" stroke-miterlimit="10" stroke-width="3"/><circle cx="62.4" cy="16.72" r="1.5" fill="none" stroke="#bbdefb" stroke-linecap="round" stroke-miterlimit="10" stroke-width="3"/><circle cx="77.68" cy="16.72" r="1.5" fill="none" stroke="#bbdefb" stroke-linecap="round" stroke-miterlimit="10" stroke-width="3"/><path fill="none" stroke="#bbdefb" stroke-linecap="round" stroke-miterlimit="10" stroke-width="3" d="M45.62 56.45h305.05V252.7H45.62z"/><path fill="none" stroke="#4389ff" stroke-linecap="round" stroke-linejoin="round" stroke-width="4" d="M77.62 226.41l-6.97-6.97 6.97-6.97M102.04 212.47l6.97 6.97-6.97 6.97M93.03 211.33l-6.4 16.22M77.62 95.47l-6.97-6.97 6.97-6.97M102.04 81.53l6.97 6.97-6.97 6.97M84.2 88.5h11.25M84.18 141.25h13.79M113.35 141.25h33.91"/><path fill="none" stroke="#bbdefb" stroke-linecap="round" stroke-linejoin="round" stroke-width="4" d="M202.05 141.25h29.28"/><path fill="none" stroke="#4389ff" stroke-linecap="round" stroke-linejoin="round" stroke-width="4" d="M162.16 141.25h24.38M84.18 118.23h20.46"/><path fill="none" stroke="#bbdefb" stroke-linecap="round" stroke-linejoin="round" stroke-width="4" d="M119.71 118.23h61.72"/><path fill="none" stroke="#4389ff" stroke-linecap="round" stroke-linejoin="round" stroke-width="4" d="M197.87 118.23h33.14M284.06 187.3h-61.73M157.38 187.3h-42.91"/><path fill="none" stroke="#bbdefb" stroke-linecap="round" stroke-linejoin="round" stroke-width="4" d="M98.57 187.3H84.18M319.58 164.28h-54.52"/><path fill="none" stroke="#4389ff" stroke-linecap="round" stroke-linejoin="round" stroke-width="4" d="M248.06 164.28h-16.73M214.89 164.28h-42.14M186.54 164.28h-13.79"/><path fill="none" stroke="#bbdefb" stroke-linecap="round" stroke-linejoin="round" stroke-width="4" d="M157.38 164.28h-42.91M157.38 164.28h-73.2"/><path fill="#fff" stroke="#4389ff" stroke-linecap="round" stroke-linejoin="round" stroke-width="4" d="M362.3610946 19.72037018l30.97834809 30.97834809-83.27596562 83.27596562-30.97834809-30.97834808z"/><path fill="#fff" stroke="#4389ff" stroke-linecap="round" stroke-linejoin="round" stroke-width="4" d="M310.06 133.98l-38.53 7.62 7.63-38.53 30.9 30.91z"/><path fill="#bbdefb" stroke="#4389ff" stroke-linecap="round" stroke-linejoin="round" stroke-width="4" d="M289.81 137.97l-18.28 3.63 3.62-18.35 14.66 14.72z"/><path fill="none" stroke="#4389ff" stroke-linecap="round" stroke-linejoin="round" stroke-width="4" d="M323.59 75.18l-3.29 3.28M347.94 50.82L330 68.76M388.05 141.6h3.59M324.92 141.6h52.94M359.03 132.47h-3.59M391.64 132.47h-22.42M301.66 40.71v7.82M301.66 16.51v7.83M309.84 32.52h7.83M285.65 32.52h7.82"/><path fill="#bbdefb" stroke="#4389ff" stroke-linecap="round" stroke-linejoin="round" stroke-width="4" d="M362.36 19.72l30.98 30.98-14.76 14.76-30.9-30.9 14.68-14.84z"/><path fill="none" stroke="#bbdefb" stroke-linecap="round" stroke-linejoin="round" stroke-width="4" d="M205.89 187.3h-33.14"/></svg>